<?xml version="1.0" encoding="UTF-8" standalone="no"?>
<svg
   id="Capa_1"
   data-name="Capa 1"
   viewBox="0 0 467.16982 800"
   version="1.1"
   sodipodi:docname="Logo Real Murcia CF.svg"
   width="467.16983"
   height="800"
   inkscape:version="1.2 (dc2aeda, 2022-05-15)"
   xmlns:inkscape="http://www.inkscape.org/namespaces/inkscape"
   xmlns:sodipodi="http://sodipodi.sourceforge.net/DTD/sodipodi-0.dtd"
   xmlns:xlink="http://www.w3.org/1999/xlink"
   xmlns="http://www.w3.org/2000/svg"
   xmlns:svg="http://www.w3.org/2000/svg">
  <sodipodi:namedview
     id="namedview281"
     pagecolor="#ffffff"
     bordercolor="#000000"
     borderopacity="0.25"
     inkscape:showpageshadow="2"
     inkscape:pageopacity="0.0"
     inkscape:pagecheckerboard="0"
     inkscape:deskcolor="#d1d1d1"
     showgrid="false"
     inkscape:zoom="1.3464054"
     inkscape:cx="352.79121"
     inkscape:cy="311.19898"
     inkscape:window-width="1920"
     inkscape:window-height="1080"
     inkscape:window-x="0"
     inkscape:window-y="0"
     inkscape:window-maximized="0"
     inkscape:current-layer="Capa_1" />
  <defs
     id="defs184">
    <style
       id="style182">.cls-1{fill:#fff;}.cls-2{fill:#e30613;}</style>
  </defs>
  <title
     id="title186">escudoRMU_icono_web-01</title>
  <g
     id="g13518">
    <path
       style="stroke-width:1;fill:#e30613;fill-opacity:1"
       d="m 211.32227,0 v 11.019531 h -11.47071 v 38.03711 c -3.0797,-0.704588 -6.27967,-0.704588 -9.35937,0 -3.86162,-0.677194 -7.83474,-0.259382 -11.47071,1.207031 -4.1791,-0.519411 -8.41988,0.161811 -12.22656,1.96289 -4.28494,-0.231419 -8.54178,0.820279 -12.22656,3.019532 -4.99363,0.0073 -9.8372,1.710285 -13.73633,4.830078 -5.86509,0.538973 -11.28415,3.355791 -15.09375,7.847656 -5.85518,1.831588 -10.70766,5.976553 -13.43359,11.472656 -6.45597,3.658702 -10.69323,10.266245 -11.32227,17.660157 -3.617755,4.185079 -5.553672,9.563049 -5.433592,15.093749 -0.11253,1.25534 -0.11253,2.5181 0,3.77344 -1.688498,3.21177 -2.569606,6.78744 -2.566406,10.41601 0.009,3.39893 0.784036,6.75151 2.265625,9.81055 -0.16956,1.55514 -0.16956,3.12455 0,4.67969 -0.13322,1.35522 -0.13322,2.72095 0,4.07617 -1.088349,1.42141 -2.049332,2.93586 -2.869141,4.52734 l -8.453125,16.75586 19.322269,6.03711 c 3.72824,1.11419 7.2825,2.73961 10.56445,4.83008 l -4.52734,17.50977 H 0.3046875 L 233.58594,800 466.86719,194.56641 H 357.88672 l -4.52734,-17.50977 c 3.28194,-2.09047 6.8362,-3.71589 10.56445,-4.83008 l 19.32226,-6.03711 -8.45312,-16.75586 c -0.81981,-1.59148 -1.78079,-3.10593 -2.86914,-4.52734 0.13322,-1.35522 0.13322,-2.72095 0,-4.07617 0.16956,-1.55514 0.16956,-3.12455 0,-4.67969 1.48159,-3.05904 2.25662,-6.41162 2.26562,-9.81055 0.003,-3.62857 -0.8779,-7.20424 -2.5664,-10.41601 0.11253,-1.25534 0.11253,-2.5181 0,-3.77344 0.12008,-5.5307 -1.81584,-10.90867 -5.4336,-15.093749 -0.62904,-7.393912 -4.8663,-14.001455 -11.32226,-17.660157 -2.72594,-5.496103 -7.57841,-9.641068 -13.4336,-11.472656 -3.80959,-4.491865 -9.22865,-7.308683 -15.09375,-7.847656 -3.89912,-3.119793 -8.7427,-4.822778 -13.73632,-4.830078 -3.68478,-2.199253 -7.94162,-3.250951 -12.22657,-3.019532 -3.80667,-1.801079 -8.04745,-2.482301 -12.22656,-1.96289 -3.63597,-1.466413 -7.60909,-1.884225 -11.4707,-1.207031 -3.07971,-0.704588 -6.27967,-0.704588 -9.35938,0 v -38.03711 h -11.4707 V 0 Z"
       id="path190" />
    <path
       style="stroke-width:1;fill:#ffffff"
       d="m 221.43555,9.8105469 h 24.30078 V 20.679688 h 11.62305 v 25.660156 h -5.88672 l 2.56445,6.640625 c 0.45729,1.174385 0.81087,2.38697 1.05664,3.623047 l 1.50977,4.076172 h 4.22656 c 1.14996,-0.183449 2.3227,-0.183449 3.47265,0 h 1.35743 1.35937 c 2.25733,-0.72729 4.68603,-0.72729 6.94336,0 h 1.50977 1.50781 c 2.64257,-0.611238 5.41568,-0.292689 7.84961,0.904296 h 1.50976 l 2.11328,-0.904296 c 2.69308,-0.598077 5.50879,-0.280681 8,0.904296 l 1.50977,1.056641 h 1.66016 c 2.9824,-0.372079 5.99668,0.381491 8.45312,2.113281 l 2.41406,0.90625 h 1.66016 c 3.13377,0.01078 6.15001,1.195174 8.45313,3.320313 l 1.35937,1.208984 h 1.96094 c 3.91048,0.152501 7.53262,2.102428 9.8125,5.283203 l 0.90429,1.207032 3.16993,0.904296 c 4.15414,0.883896 7.60312,3.767376 9.20898,7.699219 v 1.810547 l 1.81055,0.755859 c 4.10323,2.400549 6.54304,6.873536 6.33984,11.623047 v 2.111324 l 1.50977,1.35938 c 2.51548,2.40113 3.93383,5.72953 3.92383,9.20703 0.15895,1.10121 0.15895,2.22106 0,3.32227 v 2.11132 l 1.20703,1.8125 c 1.3861,2.10581 2.12128,4.57272 2.11328,7.09375 -0.31874,2.39238 -1.31295,4.64377 -2.86719,6.49024 L 360,134.79297 v 2.11328 c 0.18823,1.25082 0.18823,2.52262 0,3.77344 0.19528,1.25028 0.19528,2.52316 0,3.77343 l -0.75391,2.7168 1.81055,2.11328 c 1.18285,1.32912 2.1975,2.79899 3.01953,4.37696 l 3.47071,6.79296 L 360,163.01953 c -19.32073,7.24528 -17.20703,13.13149 -17.20703,15.09375 l 2.26367,8.45313 h -10.86719 -4.3789 v 5.13086 1.20898 h -4.52735 l -1.05664,3.32031 c -0.61114,2.76249 0.68233,5.59551 3.16992,6.94336 l 1.35743,1.05664 h 124.3789 L 233.58594,773.13281 14.039062,204.22656 H 138.41797 l 1.35742,-1.05664 c 2.4876,-1.34785 3.78106,-4.18087 3.16992,-6.94336 l -1.05664,-3.32031 h -4.52734 v -1.20898 -5.13086 h -4.37891 -10.86719 l 2.26368,-8.45313 c 0,-1.96226 2.1137,-7.84847 -17.20703,-15.09375 l -7.54688,-2.56641 3.4707,-6.79296 c 0.82203,-1.57797 1.83669,-3.04784 3.01953,-4.37696 l 1.81055,-2.11328 -0.7539,-2.7168 c -0.19528,-1.25027 -0.19528,-2.52315 0,-3.77343 -0.18823,-1.25082 -0.18823,-2.52262 0,-3.77344 v -2.11328 l -1.05665,-1.8125 c -1.55423,-1.84647 -2.54844,-4.09786 -2.86718,-6.49024 -0.008,-2.52103 0.72718,-4.98794 2.11328,-7.09375 l 1.20703,-1.8125 v -2.11132 c -0.15895,-1.10121 -0.15895,-2.22106 0,-3.32227 -0.01,-3.4775 1.40834,-6.8059 3.92383,-9.20703 l 1.50976,-1.35938 v -2.111324 c -0.2032,-4.749511 2.23661,-9.222498 6.33985,-11.623047 l 1.81054,-0.755859 v -1.810547 c 1.60586,-3.931843 5.05484,-6.815323 9.20899,-7.699219 l 3.16992,-0.904296 0.9043,-1.207032 c 2.27987,-3.180775 5.90201,-5.130702 9.8125,-5.283203 h 1.96093 l 1.35938,-1.208984 c 2.30312,-2.125139 5.31936,-3.309533 8.45312,-3.320313 h 1.66016 l 2.41406,-0.90625 c 2.45644,-1.73179 5.47072,-2.48536 8.45313,-2.113281 h 1.66015 l 1.50977,-1.056641 c 2.49122,-1.184977 5.30692,-1.502373 8,-0.904296 l 2.11328,0.904296 h 1.50977 c 2.43392,-1.196985 5.20704,-1.515534 7.84961,-0.904296 h 1.50781 1.50976 c 2.25733,-0.72729 4.68604,-0.72729 6.94336,0 h 1.35938 1.35742 c 1.14996,-0.183449 2.3227,-0.183449 3.47266,0 h 4.22656 l 1.50976,-4.076172 c 0.24577,-1.236077 0.59936,-2.448662 1.05665,-3.623047 l 2.56445,-6.640625 H 209.8125 V 20.679688 h 11.62305 z"
       id="path13506" />
    <path
       style="fill:#e30613;fill-opacity:1;stroke-width:1"
       d="M 26.869141,215.39648 233.58594,756.83008 440.30273,215.39648 Z"
       id="path958" />
    <path
       style="fill:#ffffff;stroke-width:1"
       d="M 54.794922,234.7168 H 412.37695 L 233.58594,702.79297 Z"
       id="path13011" />
    <path
       style="fill:#e30613;fill-opacity:1;stroke-width:1"
       d="m 129.66016,292.07617 103.92578,267.6211 103.92578,-267.6211 z"
       id="path194" />
    <path
       style="fill:#ffffff;stroke-width:1"
       d="M 148.37695,304.90625 H 318.79492 L 233.58594,524.52734 Z"
       id="path12932" />
  </g>
  <path
     id="path192"
     style="fill:#e30613;fill-opacity:1;stroke-width:1"
     d="m 228.83203,21.736328 v 10.867188 h -11.16992 v 11.923828 h 11.16992 v 6.048828 c -5.53564,1.998428 -9.2304,7.24556 -9.24609,13.130859 0.0133,3.672951 1.46955,7.193551 4.05468,9.802735 h -2.6582 c -0.204,-4.638403 -6.76424,-5.381661 -8,-0.90625 -0.62865,-1.711428 -2.25103,-2.853258 -4.07422,-2.867188 -2.37274,-0.362368 -4.59609,1.25407 -4.98242,3.623047 -1.32154,-5.195951 -8.92322,-4.449562 -9.20703,0.904297 -1.44627,-5.78622 -9.9909,-4.602127 -9.81055,1.359375 -0.55963,-2.383573 -2.68445,-4.071072 -5.13281,-4.076172 -2.8286,0.07428 -5.12698,2.307565 -5.2832,5.132813 -2.80354,-5.860614 -11.65386,-3.27893 -10.86719,3.169921 -3.72859,-3.925907 -10.34212,-1.339627 -10.41602,4.074219 C 149.32531,79.629923 141.50942,81.16195 140.22852,88 c -0.11271,0.649224 -0.11271,1.313659 0,1.962891 -4.37713,-3.401887 -10.7494,-0.260362 -10.7168,5.283203 0.005,1.167264 0.31779,2.312222 0.90625,3.320312 -7.88317,-1.545907 -11.24215,5.687234 -6.94336,12.527344 -7.46949,0.36441 -9.74149,10.31725 -3.16992,13.88672 -8.24145,1.65653 -8.24145,13.43917 0,15.0957 -6.35135,2.76828 -5.75277,11.96682 0.90429,13.88672 -3.95366,1.51442 -7.22425,4.40957 -9.20703,8.15039 v 1.20703 h 1.20703 c 15.84894,5.88679 22.49068,12.37873 20.22657,20.98242 v 1.35743 h 1.50976 c 5.91149,0.11316 11.45634,2.88562 15.09375,7.54687 -2.3636,1.67587 -4.81582,4.99541 -2.56445,8.15235 0.8005,1.19603 2.05337,2.01336 3.4707,2.26367 0.98609,0.28514 2.03344,0.28514 3.01953,0 l 1.05664,1.50976 1.20704,5.28321 -3.32032,4.98046 L 166,226.35156 c 19.83728,-9.13562 42.58408,-16.88215 67.586,-17.96094 25.00188,1.07879 47.74856,8.82532 67.58588,17.96094 l 13.09179,-10.95508 -3.32031,-4.98046 1.20703,-5.28321 1.05664,-1.50976 c 0.98609,0.28514 2.03344,0.28514 3.01953,0 1.41733,-0.25031 2.67021,-1.06764 3.47071,-2.26367 2.25133,-3.15694 -0.20086,-6.47648 -2.56446,-8.15235 3.63745,-4.66125 9.1823,-7.43371 15.09375,-7.54687 h 1.50977 v -1.35743 c -2.26415,-8.60369 4.37766,-15.09563 20.22656,-20.98242 h 1.20703 v -1.20703 c -1.98278,-3.74082 -5.25333,-6.63597 -9.20703,-8.15039 6.65706,-1.9199 7.25561,-11.11844 0.9043,-13.88672 8.24145,-1.65653 8.24145,-13.43917 0,-15.0957 6.57153,-3.56947 4.29957,-13.52231 -3.16992,-13.88672 4.29875,-6.84011 0.93981,-14.073251 -6.94336,-12.527344 0.58846,-1.00809 0.90143,-2.153048 0.90625,-3.320312 0.0326,-5.543565 -6.33971,-8.68509 -10.7168,-5.283203 0.11271,-0.649232 0.11271,-1.313667 0,-1.962891 -1.28094,-6.83805 -9.09676,-8.370077 -12.98047,-4.076172 -0.0739,-5.413846 -6.68746,-8.000126 -10.41601,-4.074219 0.78663,-6.448851 -8.06369,-9.030535 -10.86719,-3.169921 -0.15622,-2.825248 -2.45461,-5.05853 -5.28321,-5.132813 -2.44832,0.0051 -4.57318,1.692599 -5.13281,4.076172 0.18035,-5.961502 -8.36428,-7.145595 -9.81055,-1.359375 -0.28377,-5.353859 -7.88549,-6.100248 -9.20703,-0.904297 -0.38633,-2.368977 -2.60964,-3.985415 -4.98242,-3.623047 -1.82319,0.01393 -3.44557,1.15576 -4.07422,2.867188 -1.23576,-4.475411 -7.796,-3.732153 -8,0.90625 h -2.6582 c 2.58514,-2.609182 4.04136,-6.129783 4.05469,-9.802735 -8e-5,-5.898913 -3.69768,-11.164909 -9.2461,-13.167969 v -6.011718 h 11.16993 V 32.603516 H 238.33984 V 21.736328 h -4.7539 z M 231.15234,24 h 2.4336 2.43359 v 10.867188 h 11.26953 v 7.396484 h -11.26953 v 7.396484 h -2.43359 -2.4336 v -7.396484 h -11.26953 v -7.396484 h 11.26953 z m 2.4336,27.707031 c 6.62742,0 12,5.372583 12,12 0,6.627417 -5.37258,12 -12,12 -6.62742,0 -12,-5.372583 -12,-12 0,-6.627417 5.37258,-12 12,-12 z m -17.13282,20.144531 c 1.00006,-3.04e-4 1.81085,0.810483 1.81055,1.810547 3e-4,1.000064 -0.81049,1.810851 -1.81055,1.810547 -1.00006,2.98e-4 -1.81084,-0.810487 -1.81054,-1.810547 -3e-4,-1.00006 0.81048,-1.810845 1.81054,-1.810547 z m 34.26563,0 c 1.00006,-3.04e-4 1.81085,0.810483 1.81055,1.810547 3e-4,1.000064 -0.81049,1.810851 -1.81055,1.810547 -1.00006,3.04e-4 -1.81085,-0.810483 -1.81055,-1.810547 -3e-4,-1.000064 0.81049,-1.810851 1.81055,-1.810547 z m -51.16406,1 c 1.35785,4.96e-4 2.45849,1.101131 2.45898,2.458985 5.8e-4,1.358616 -1.10036,2.460441 -2.45898,2.460937 -1.35938,5.87e-4 -2.46153,-1.101556 -2.46094,-2.460937 4.9e-4,-1.358619 1.10232,-2.459571 2.46094,-2.458985 z m 68.0625,0 c 1.35862,-5.81e-4 2.46044,1.10037 2.46093,2.458985 5.9e-4,1.359378 -1.10155,2.461518 -2.46093,2.460937 -1.35862,-4.91e-4 -2.45957,-1.102317 -2.45899,-2.460937 4.9e-4,-1.357858 1.10113,-2.458495 2.45899,-2.458985 z m -59.15039,0.0918 c 1.20495,-1.55e-4 2.1818,0.97669 2.18164,2.181641 1.6e-4,1.204951 -0.97669,2.181796 -2.18164,2.181641 -1.20495,1.55e-4 -2.1818,-0.97669 -2.18164,-2.181641 -1.6e-4,-1.204951 0.97669,-2.181796 2.18164,-2.181641 z m 50.23828,0 c 1.20495,-1.55e-4 2.1818,0.97669 2.18164,2.181641 1.6e-4,1.204951 -0.97669,2.181796 -2.18164,2.181641 -1.20495,1.55e-4 -2.1818,-0.97669 -2.18164,-2.181641 -1.6e-4,-1.204951 0.97669,-2.181796 2.18164,-2.181641 z m -68.71289,0.185547 c 1.46106,5.68e-4 2.64504,1.185423 2.64453,2.646485 5.1e-4,1.461062 -1.18347,2.645916 -2.64453,2.646484 -1.46183,5.15e-4 -2.647,-1.184657 -2.64649,-2.646484 -5.1e-4,-1.461827 1.18466,-2.647 2.64649,-2.646485 z m 87.1875,0 c 1.46182,-5.1e-4 2.64699,1.184661 2.64648,2.646485 5.1e-4,1.461823 -1.18466,2.646994 -2.64648,2.646484 -1.46106,-5.68e-4 -2.64504,-1.185422 -2.64453,-2.646484 -5.1e-4,-1.461062 1.18347,-2.645917 2.64453,-2.646485 z m -97.40039,1.207032 c 1.61549,1.42e-4 2.92476,1.310293 2.92382,2.925781 -1.4e-4,1.614725 -1.30909,2.923686 -2.92382,2.923828 -1.61473,-1.37e-4 -2.92369,-1.309099 -2.92383,-2.923828 -9.4e-4,-1.615492 1.30834,-2.925645 2.92383,-2.925781 z m 107.61328,0 c 1.61549,1.36e-4 2.92477,1.310289 2.92383,2.925781 -1.4e-4,1.614729 -1.3091,2.923691 -2.92383,2.923828 -1.61473,-1.37e-4 -2.92369,-1.309099 -2.92383,-2.923828 -9.4e-4,-1.615492 1.30834,-2.925645 2.92383,-2.925781 z M 169.56641,76.75 c 1.8716,-2.17e-4 3.38889,1.51707 3.38867,3.388672 2.2e-4,1.871602 -1.51707,3.388889 -3.38867,3.388672 -1.87161,2.23e-4 -3.3889,-1.517066 -3.38868,-3.388672 -2.2e-4,-1.871606 1.51707,-3.388895 3.38868,-3.388672 z m 128.03906,0 c 1.8716,-2.17e-4 3.38889,1.51707 3.38867,3.388672 2.2e-4,1.871602 -1.51707,3.388889 -3.38867,3.388672 -1.8716,2.17e-4 -3.38889,-1.51707 -3.38867,-3.388672 -2.2e-4,-1.871602 1.51707,-3.388889 3.38867,-3.388672 z m -76.32617,1.392578 c 1.05128,2.76e-4 1.90314,0.853014 1.90234,1.904297 -2.7e-4,1.05052 -0.85182,1.902068 -1.90234,1.902344 -1.05129,8.06e-4 -1.90403,-0.851058 -1.9043,-1.902344 -8.1e-4,-1.052049 0.85225,-1.905104 1.9043,-1.904297 z m 24.61328,0 c 1.05205,-8.07e-4 1.90511,0.852248 1.9043,1.904297 -2.7e-4,1.051286 -0.85301,1.90315 -1.9043,1.902344 -1.05052,-2.71e-4 -1.90208,-0.85182 -1.90235,-1.902344 -8e-4,-1.051287 0.85106,-1.904026 1.90235,-1.904297 z m -87.0957,1.207031 c 2.07649,-6.9e-5 3.75983,1.683277 3.75976,3.759766 7e-5,2.076489 -1.68327,3.759835 -3.75976,3.759766 -2.07649,7.4e-5 -3.75984,-1.683273 -3.75977,-3.759766 -7e-5,-2.076493 1.68328,-3.75984 3.75977,-3.759766 z m 149.57812,0 c 2.07649,-7.4e-5 3.75984,1.683273 3.75977,3.759766 7e-5,2.076493 -1.68328,3.75984 -3.75977,3.759766 -2.07649,7.4e-5 -3.75984,-1.683273 -3.75977,-3.759766 -7e-5,-2.076493 1.68328,-3.75984 3.75977,-3.759766 z m -94.98828,1.578125 c 1.25694,-6.58e-4 2.27605,1.018455 2.27539,2.275391 -4.2e-4,1.256173 -1.01922,2.274095 -2.27539,2.273437 -1.25541,-4.19e-4 -2.27302,-1.018026 -2.27344,-2.273437 -6.6e-4,-1.256174 1.01727,-2.274972 2.27344,-2.275391 z m 40.39844,0 c 1.25617,4.25e-4 2.27409,1.019221 2.27343,2.275391 -4.2e-4,1.255407 -1.01802,2.273012 -2.27343,2.273437 -1.25617,6.58e-4 -2.27497,-1.017264 -2.27539,-2.273437 -6.6e-4,-1.256936 1.01845,-2.276049 2.27539,-2.275391 z m -19.875,0.511719 c 0.94884,-8.78e-4 1.71855,0.767956 1.71875,1.716797 -2e-4,0.948841 -0.76991,1.717675 -1.71875,1.716797 -0.94808,-1.99e-4 -1.7166,-0.768718 -1.7168,-1.716797 2e-4,-0.948079 0.76872,-1.716598 1.7168,-1.716797 z m -85.41797,2.738281 c 2.23016,5.77e-4 4.03761,1.808905 4.03711,4.039063 -5.8e-4,2.229395 -1.80772,4.036532 -4.03711,4.037109 -2.23016,5.05e-4 -4.03849,-1.806949 -4.03907,-4.037109 -5e-4,-2.230923 1.80815,-4.039569 4.03907,-4.039063 z m 170.1875,0 c 2.23092,-5e-4 4.03956,1.808144 4.03906,4.039063 -5.8e-4,2.230156 -1.8089,4.037609 -4.03906,4.037109 -2.22939,-5.77e-4 -4.03653,-1.807714 -4.03711,-4.037109 -5e-4,-2.230158 1.80695,-4.038486 4.03711,-4.039063 z m -113.36914,0.835938 c 1.61473,1.37e-4 2.92369,1.309099 2.92383,2.923828 -1.4e-4,1.614729 -1.3091,2.923691 -2.92383,2.923828 -1.61473,-1.37e-4 -2.92369,-1.309099 -2.92383,-2.923828 1.4e-4,-1.614729 1.3091,-2.923691 2.92383,-2.923828 z m 56.55078,0 c 1.61473,1.37e-4 2.92369,1.309099 2.92383,2.923828 -1.4e-4,1.614729 -1.3091,2.923691 -2.92383,2.923828 -1.61473,-1.37e-4 -2.92369,-1.309099 -2.92383,-2.923828 1.4e-4,-1.614729 1.3091,-2.923691 2.92383,-2.923828 z m -28.04297,2.134766 c 1.56351,6.4e-4 2.83052,1.268524 2.83008,2.832031 -6.4e-4,1.562744 -1.26734,2.829439 -2.83008,2.830078 -1.56351,4.37e-4 -2.83139,-1.266572 -2.83203,-2.830078 -4.4e-4,-1.564268 1.26776,-2.832468 2.83203,-2.832031 z m -96.0957,3.621093 c 2.43581,-3.51e-4 4.4105,1.97435 4.41015,4.410157 -7.2e-4,2.435044 -1.97511,4.408554 -4.41015,4.408203 -2.43505,3.57e-4 -4.40944,-1.973155 -4.41016,-4.408203 -3.5e-4,-2.435811 1.97435,-4.410514 4.41016,-4.410157 z m 191.72656,0 c 2.43581,-3.57e-4 4.41051,1.974346 4.41016,4.410157 -7.2e-4,2.435048 -1.97511,4.40856 -4.41016,4.408203 -2.43505,3.57e-4 -4.40944,-1.973155 -4.41016,-4.408203 -3.5e-4,-2.435811 1.97435,-4.410514 4.41016,-4.410157 z m -132.40234,0.371094 c 1.8716,-2.17e-4 3.38889,1.517071 3.38867,3.388672 2.2e-4,1.871601 -1.51707,3.388889 -3.38867,3.388672 -1.87161,2.23e-4 -3.3889,-1.517067 -3.38868,-3.388672 -2.2e-4,-1.871605 1.51707,-3.388895 3.38868,-3.388672 z m 73.07812,0 c 1.8716,-2.17e-4 3.38889,1.517071 3.38867,3.388672 2.2e-4,1.871601 -1.51707,3.388889 -3.38867,3.388672 -1.8716,2.17e-4 -3.38889,-1.517071 -3.38867,-3.388672 -2.2e-4,-1.871601 1.51707,-3.388889 3.38867,-3.388672 z m -36.35352,3.667969 c 2.0505,1.75e-4 3.71272,1.662388 3.7129,3.71289 -1.8e-4,2.050506 -1.6624,3.712726 -3.7129,3.712896 -2.0505,-1.8e-4 -3.71271,-1.6624 -3.71289,-3.712896 1.8e-4,-2.050498 1.66239,-3.71271 3.71289,-3.71289 z m -52.33593,1.794922 c -3.26274,2.722534 -7.20076,7.221364 -9.35743,11.472654 -17.66445,7.64938 -28.56256,25.63093 -27.16992,44.83008 -1.69705,-5.16826 -2.61262,-10.56125 -2.71679,-16 -0.0485,-4.8295 0.92829,-9.6157 2.86718,-14.03906 7.79154,-13.57226 21.04238,-23.139032 36.37696,-26.263674 z m 104.30078,0 c 15.33454,3.124642 28.58545,12.691414 36.37695,26.263674 1.93893,4.42336 2.91573,9.20956 2.86719,14.03906 -0.10417,5.43875 -1.01975,10.83174 -2.7168,16 1.39264,-19.19915 -9.50547,-37.1807 -27.16992,-44.83008 -2.15667,-4.25129 -6.09472,-8.75012 -9.35742,-11.472654 z m -71.0918,1.96289 c -1.41823,5.936064 -2.17902,12.010674 -2.26562,18.113284 -0.42019,9.10929 2.23802,18.09547 7.54687,25.50976 -3.01592,1.74106 -4.86128,4.96902 -4.83008,8.45117 -0.0277,0.50277 -0.0277,1.007 0,1.50977 0.4755,5.53763 5.15978,9.75996 10.7168,9.66016 v 5.43554 c -9.18644,0.76601 -18.28041,2.3829 -27.16797,4.83008 l -0.90625,-2.26562 -1.20703,-2.86719 c 4.53479,-1.32483 7.81542,-5.26358 8.30078,-9.96289 -0.0513,-1.61277 -0.40996,-3.19943 -1.05664,-4.67774 -0.99807,-3.32861 -3.70659,-5.8659 -7.09375,-6.64257 v -5.73633 c -1.98427,-16.02747 4.89597,-31.86683 17.96289,-41.357424 z m 37.88281,0 c 13.06692,9.490594 19.94716,25.329954 17.96289,41.357424 v 5.73633 c -3.38712,0.77667 -6.09568,3.31396 -7.09375,6.64257 -0.64664,1.47831 -1.00539,3.06497 -1.05664,4.67774 0.48536,4.69931 3.76603,8.63806 8.30078,9.96289 l -1.20703,2.86719 -0.90625,2.26562 c -8.88756,-2.44718 -17.98152,-4.06407 -27.16796,-4.83008 v -5.43554 c 5.55702,0.0998 10.24129,-4.12253 10.71679,-9.66016 0.0277,-0.50277 0.0277,-1.007 0,-1.50977 0.0312,-3.48215 -1.81416,-6.71011 -4.83008,-8.45117 5.30889,-7.41429 7.96707,-16.40047 7.54688,-25.50976 -0.0866,-6.10261 -0.8474,-12.17722 -2.26563,-18.113284 z m -61.88672,0.837891 c 2.02527,-6.48e-4 3.66754,1.640743 3.66797,3.666013 -4.3e-4,2.02527 -1.6427,3.66667 -3.66797,3.66602 -2.02451,-4.3e-4 -3.66558,-1.64151 -3.66601,-3.66602 4.3e-4,-2.0245 1.64151,-3.665579 3.66601,-3.666013 z m 85.89063,0 c 2.02451,4.29e-4 3.66559,1.641503 3.66602,3.666013 -4.3e-4,2.02451 -1.64151,3.66559 -3.66602,3.66602 -2.02527,6.5e-4 -3.66754,-1.64075 -3.66797,-3.66602 4.3e-4,-2.02527 1.6427,-3.666661 3.66797,-3.666013 z m -146.60742,0.927733 c 2.58871,2.9e-4 4.68721,2.09879 4.6875,4.6875 -2.9e-4,2.58871 -2.09879,4.68721 -4.6875,4.6875 -2.58871,-2.9e-4 -4.68721,-2.09879 -4.6875,-4.6875 2.9e-4,-2.58871 2.09879,-4.68721 4.6875,-4.6875 z m 207.32422,0 c 2.58871,2.9e-4 4.68721,2.09879 4.6875,4.6875 -2.9e-4,2.58871 -2.09879,4.68721 -4.6875,4.6875 -2.58871,-2.9e-4 -4.68721,-2.09879 -4.6875,-4.6875 2.9e-4,-2.58871 2.09879,-4.68721 4.6875,-4.6875 z m -103.42969,3.80664 c 2.38383,1.5e-4 4.31626,1.93258 4.31641,4.31641 -1.5e-4,2.38382 -1.93259,4.31625 -4.31641,4.3164 -2.38382,-1.5e-4 -4.31626,-1.93258 -4.31641,-4.3164 1.5e-4,-2.38383 1.93258,-4.31626 4.31641,-4.31641 z m -48.83984,5.38477 c 2.28138,7e-5 4.13079,1.84948 4.13086,4.13086 -7e-5,2.28138 -1.84948,4.13079 -4.13086,4.13086 -2.28138,-7e-5 -4.13079,-1.84948 -4.13086,-4.13086 7e-5,-2.28138 1.84948,-4.13079 4.13086,-4.13086 z m 97.21484,0 c 2.28138,7e-5 4.13079,1.84948 4.13086,4.13086 -7e-5,2.28138 -1.84948,4.13079 -4.13086,4.13086 -2.28138,-7e-5 -4.13079,-1.84948 -4.13086,-4.13086 7e-5,-2.28138 1.84948,-4.13079 4.13086,-4.13086 z m -111.92774,1.72265 c -2.40312,5.88955 -3.58329,12.20449 -3.4707,18.56446 0.13061,7.54872 1.19546,15.05275 3.16992,22.33984 -9.03673,6.28268 -3.8666,20.47571 7.09375,19.47266 h 3.62305 l 1.20703,5.58398 c -7.56259,2.82039 -14.8825,6.25464 -21.88672,10.26563 v -0.45313 -1.66015 c 0.0396,-1.85219 -0.42924,-3.67987 -1.35742,-5.28321 -0.98513,-1.59364 -2.47194,-2.81588 -4.22656,-3.47265 1.26251,-2.64086 1.93094,-5.52616 1.96094,-8.45313 0.0874,-4.16899 -2.03612,-8.07271 -5.58399,-10.26367 -0.97756,-0.61865 -2.04775,-1.07815 -3.16992,-1.35938 -2.78567,-18.36297 6.27885,-36.49203 22.64062,-45.28125 z m 126.64063,0 c 16.36177,8.78922 25.42626,26.91828 22.64063,45.28125 -1.12217,0.28123 -2.19237,0.74073 -3.16993,1.35938 -3.54783,2.19096 -5.67135,6.09468 -5.58398,10.26367 0.03,2.92697 0.69843,5.81227 1.96094,8.45313 -1.75462,0.65677 -3.24144,1.87901 -4.22657,3.47265 -0.92818,1.60334 -1.39703,3.43102 -1.35742,5.28321 v 1.66015 0.45313 c -7.00418,-4.01099 -14.32409,-7.44524 -21.88672,-10.26563 l 1.20703,-5.58398 h 3.62305 c 10.96035,1.00305 16.13048,-13.18998 7.09375,-19.47266 1.9745,-7.28709 3.03931,-14.79112 3.16992,-22.33984 0.11259,-6.35997 -1.06754,-12.67491 -3.4707,-18.56446 z m -171.90234,1.71289 c 2.7936,4.4e-4 5.05815,2.265 5.05859,5.0586 -4.4e-4,2.7936 -2.26499,5.05815 -5.05859,5.05859 -2.79436,6.4e-4 -5.06011,-2.26423 -5.06055,-5.05859 4.4e-4,-2.79437 2.26618,-5.05924 5.06055,-5.0586 z m 217.16406,0 c 2.79437,-6.4e-4 5.06011,2.26423 5.06055,5.0586 -4.4e-4,2.79436 -2.26619,5.05923 -5.06055,5.05859 -2.7936,-4.4e-4 -5.05815,-2.26499 -5.05859,-5.05859 4.4e-4,-2.7936 2.26499,-5.05816 5.05859,-5.0586 z m -108.58203,2.18164 c 2.89605,5.2e-4 5.24363,2.3481 5.24414,5.24415 5.6e-4,2.89681 -2.34733,5.24557 -5.24414,5.24609 -2.89681,-5.2e-4 -5.2447,-2.34928 -5.24414,-5.24609 5.1e-4,-2.89605 2.34809,-5.24363 5.24414,-5.24415 z m -52.59961,5.98829 c 2.74238,-1.3e-4 4.96584,2.22247 4.96679,4.96484 1.4e-4,2.74314 -2.22365,4.96693 -4.96679,4.9668 -2.74314,1.4e-4 -4.96694,-2.22366 -4.9668,-4.9668 9.5e-4,-2.74238 2.22442,-4.96498 4.9668,-4.96484 z m 105.19922,0 c 2.74238,-1.3e-4 4.96584,2.22247 4.96679,4.96484 1.4e-4,2.74314 -2.22365,4.96693 -4.96679,4.9668 -2.74314,1.4e-4 -4.96694,-2.22366 -4.9668,-4.9668 9.5e-4,-2.74238 2.22442,-4.96498 4.9668,-4.96484 z m -163.31641,5.10547 c 2.99849,5.9e-4 5.4291,2.43119 5.42969,5.42968 4.9e-4,2.99925 -2.43044,5.43105 -5.42969,5.43164 -3.00002,4.9e-4 -5.43213,-2.43162 -5.43164,-5.43164 5.9e-4,-2.99925 2.43239,-5.43017 5.43164,-5.42968 z m 221.43359,0 c 2.99925,-5e-4 5.43106,2.43043 5.43165,5.42968 4.9e-4,3.00002 -2.43163,5.43214 -5.43165,5.43164 -2.99925,-5.9e-4 -5.43017,-2.43239 -5.42968,-5.43164 5.9e-4,-2.99848 2.4312,-5.42909 5.42968,-5.42968 z m -110.46093,1.67187 c 2.75461,8.2e-4 4.98746,2.23367 4.98828,4.98828 2.6e-4,2.75538 -2.2329,4.98942 -4.98828,4.99024 -2.75614,2.6e-4 -4.9905,-2.2341 -4.99024,-4.99024 8.2e-4,-2.75538 2.23486,-4.98854 4.99024,-4.98828 z m -53.78516,7.14844 c 2.02527,-6.5e-4 3.66754,1.64074 3.66797,3.66601 -4.3e-4,2.02527 -1.6427,3.66667 -3.66797,3.66602 -2.02451,-4.3e-4 -3.66559,-1.64151 -3.66602,-3.66602 4.3e-4,-2.02451 1.64151,-3.66558 3.66602,-3.66601 z m 107.05859,0 c 2.02451,4.3e-4 3.66559,1.6415 3.66602,3.66601 -4.3e-4,2.02451 -1.64151,3.66559 -3.66602,3.66602 -2.02527,6.4e-4 -3.66753,-1.64075 -3.66796,-3.66602 4.3e-4,-2.02526 1.6427,-3.66665 3.66796,-3.66601 z m -53.52929,3.16601 c 2.0262,1.96276 4.63123,3.24065 7.4707,3.51563 4.69469,-0.0852 8.58993,3.60818 8.75391,8.30078 v 1.20898 c 0,4.98113 -3.16878,7.39513 -10.41407,8.30079 h -0.90625 v 6.79296 h -4.90429 -4.9043 v -6.79296 h -0.90625 c -7.24525,-0.90566 -10.41406,-3.31966 -10.41406,-8.30079 v -1.20898 c 0.16398,-4.6926 4.05925,-8.38598 8.7539,-8.30078 2.83947,-0.27498 5.44451,-1.55287 7.47071,-3.51563 z m -109.32422,3.79688 c 2.7936,4.4e-4 5.05815,2.26499 5.05859,5.05859 -4.4e-4,2.7936 -2.26499,5.05816 -5.05859,5.0586 -2.79437,6.4e-4 -5.06011,-2.26423 -5.06055,-5.0586 4.4e-4,-2.79436 2.26619,-5.05923 5.06055,-5.05859 z m 218.64844,0 c 2.79436,-6.3e-4 5.0601,2.26423 5.06054,5.05859 -4.4e-4,2.79436 -2.26618,5.05923 -5.06054,5.0586 -2.79361,-4.4e-4 -5.05816,-2.26499 -5.0586,-5.0586 4.4e-4,-2.7936 2.265,-5.05815 5.0586,-5.05859 z m -161.86914,3.30078 c 1.88057,1.49348 4.24476,2.24543 6.64257,2.11328 h 5.73438 c 3.50303,-0.4131 6.82503,1.65463 8,4.98047 0.83368,1.57518 1.20029,3.35641 1.05664,5.13281 -0.59546,4.17976 -3.72342,7.55011 -7.84766,8.45313 h -1.05664 l 2.56641,6.49023 c -4.22639,1.0566 -8.60428,2.41439 -12.67969,3.92383 l -1.50976,-7.24414 h -1.50977 -4.22656 c -4.09366,0.53245 -7.82977,-2.38904 -8.30078,-6.49024 -0.0838,-0.85324 -0.0838,-1.7131 0,-2.5664 0.26174,-3.63649 2.71246,-6.74671 6.1875,-7.84961 3.17277,-1.25812 5.68524,-3.77055 6.94336,-6.94336 z m 105.08984,0 c 1.25812,3.17281 3.77055,5.68524 6.94336,6.94336 3.47504,1.1029 5.92576,4.21312 6.1875,7.84961 0.0838,0.8533 0.0838,1.71316 0,2.5664 -0.47101,4.1012 -4.20716,7.02269 -8.30078,6.49024 h -4.22656 -1.50977 l -1.50977,7.24414 c -4.07537,-1.50944 -8.45333,-2.86723 -12.67968,-3.92383 l 2.5664,-6.49023 h -1.05664 c -4.1242,-0.90302 -7.25219,-4.27337 -7.84765,-8.45313 -0.14365,-1.7764 0.22296,-3.55763 1.05664,-5.13281 1.17497,-3.32584 4.49697,-5.39357 8,-4.98047 h 5.73437 c 2.39785,0.13215 4.76197,-0.6198 6.64258,-2.11328 z m -156.61914,8.79492 c 3.91983,-0.0343 7.36025,1.9619 10.26367,5.58399 v 1.05664 h 1.05664 c 1.5861,-0.79331 3.38546,-1.05696 5.13281,-0.75391 1.12322,0.19929 2.19881,0.60847 3.16993,1.20703 2.81814,1.80436 4.48016,4.95801 4.37695,8.30274 -0.034,3.01061 -0.81131,5.96605 -2.26367,8.60351 v 1.35938 h 1.35742 c 1.68599,0.3756 3.15342,1.40709 4.07617,2.86718 0.6906,1.19272 1.05464,2.54557 1.05664,3.92383 0.0767,0.75277 0.0767,1.5109 0,2.26367 l -4.98242,3.16993 c -3.8849,-5.0481 -9.78827,-8.13631 -16.15039,-8.45118 h -0.30078 c 0.23763,-0.83776 0.38767,-1.6979 0.45117,-2.5664 0,-7.9999 -6.94289,-14.34058 -20.98047,-19.47266 3.14873,-4.46196 8.27539,-7.04595 13.73633,-7.09375 z m 208.14844,0 c 5.4609,0.0478 10.58763,2.63179 13.73632,7.09375 -14.03754,5.13208 -20.98046,11.47276 -20.98046,19.47266 0.0635,0.8685 0.21354,1.72864 0.45117,2.5664 h -0.30078 c -6.36216,0.31487 -12.26553,3.40308 -16.15039,8.45118 l -4.98243,-3.16993 c -0.0767,-0.75277 -0.0767,-1.5109 0,-2.26367 0.002,-1.37826 0.36608,-2.73111 1.05664,-3.92383 0.92275,-1.46009 2.39019,-2.49158 4.07618,-2.86718 h 1.35742 v -1.35938 c -1.45236,-2.63746 -2.22967,-5.5929 -2.26367,-8.60351 -0.10321,-3.34473 1.55877,-6.49838 4.37695,-8.30274 0.97112,-0.59856 2.0467,-1.00774 3.16992,-1.20703 1.74739,-0.30305 3.54675,-0.0394 5.13281,0.75391 h 1.05664 v -1.05664 c 2.90342,-3.62209 6.34381,-5.61831 10.26368,-5.58399 z m -104.07422,15.27539 c 29.59046,0.36829 58.6376,9.66233 82.87304,26.69922 1.78592,1.43701 2.07907,3.0301 1.28516,4.06445 -0.8788,1.14495 -3.00632,1.62541 -4.08398,0.9043 -24.05169,-16.84388 -52.03951,-25.33542 -80.07422,-25.54492 -28.03471,0.2095 -56.02257,8.70104 -80.07422,25.54492 -1.07766,0.72111 -3.20519,0.24065 -4.08399,-0.9043 -0.79387,-1.03435 -0.50076,-2.62744 1.28516,-4.06445 24.23548,-17.03689 53.28259,-26.33093 82.87305,-26.69922 z m -0.0625,12.47852 1.45703,4.27343 4.30469,1.36329 -4.27344,1.45898 -1.36328,4.30469 -1.45703,-4.27539 -4.30469,-1.36328 4.27344,-1.45703 z m -21.40235,6.3125 c 0.96859,0.11201 1.75482,0.83514 1.94727,1.79101 0.2444,1.21774 -0.54415,2.40319 -1.76172,2.64844 -11.14797,2.24641 -19.03404,4.87432 -27.73242,8.84766 -1.13045,0.51701 -2.46595,0.0194 -2.98242,-1.11133 -0.51676,-1.13097 -0.0182,-2.46669 1.11328,-2.98242 8.95587,-4.09096 17.29818,-6.8639 28.71289,-9.16407 0.23139,-0.0466 0.46866,-0.0565 0.70312,-0.0293 z m 42.92969,0 c 0.23446,-0.0272 0.47174,-0.0173 0.70313,0.0293 11.41469,2.30017 19.75702,5.07311 28.71289,9.16407 1.13144,0.51573 1.63004,1.85145 1.11328,2.98242 -0.51647,1.1307 -1.85197,1.62834 -2.98242,1.11133 -8.6984,-3.97334 -16.58446,-6.60125 -27.73243,-8.84766 -1.21756,-0.24526 -2.00611,-1.4307 -1.76171,-2.64844 0.19245,-0.95587 0.97867,-1.679 1.94726,-1.79101 z"
     sodipodi:nodetypes="ccccccccccccccccccccccccccccccccccccccccccccccccccccccccccccccccccccccccccccccccccccccccccccccccccssssscccccccccccccccccccccccccccccccccccccccccccccccccccccccccccccccccccccccccccccccccccccccccccccccccccccccccccccccccccccccccccccccccccccccccccccccccccccccccccccccccccccccccccccccccccccccccccccccccccccccccccccccccccccccccccccccccccccccccccccccccccccccccccccccccccccccscccccccccccccccccccccccccccccccccccccccccscccccccscccccccccccccccccccccccccccccccccccccccccccccscccccccccccccccccsscccccccccccccccccsccscccscccccccccccscccccssssccccccss" />
  <g
     id="g12891">
    <use
       x="0"
       y="0"
       xlink:href="#path192"
       id="use12848"
       transform="matrix(0.14804581,0,0,0.14804581,142.77708,306.49625)"
       style="stroke-width:6.75467" />
    <use
       x="0"
       y="0"
       xlink:href="#path192"
       id="use12854"
       transform="matrix(0.14804581,0,0,0.14804581,162.26147,354.16413)"
       style="stroke-width:6.75467" />
    <use
       x="0"
       y="0"
       xlink:href="#path192"
       id="use12856"
       transform="matrix(0.14804581,0,0,0.14804581,179.38085,403.37167)"
       style="stroke-width:6.75467" />
    <use
       x="0"
       y="0"
       xlink:href="#path192"
       id="use12866"
       transform="matrix(-0.14804581,0,0,0.14804581,324.3948,306.49625)"
       style="stroke-width:6.75467" />
    <use
       x="0"
       y="0"
       xlink:href="#path192"
       id="use12868"
       transform="matrix(-0.14804581,0,0,0.14804581,304.91041,354.16413)"
       style="stroke-width:6.75467" />
    <use
       x="0"
       y="0"
       xlink:href="#path192"
       id="use12870"
       transform="matrix(-0.14804581,0,0,0.14804581,287.79103,403.37167)"
       style="stroke-width:6.75467" />
    <use
       x="0"
       y="0"
       xlink:href="#path192"
       id="use12872"
       transform="matrix(-0.14804581,0,0,0.14804581,268.16736,450.84337)"
       style="stroke-width:6.75467" />
  </g>
  <g
     id="g15161"
     style="fill:#e30613;fill-opacity:1">
    <path
       style="color:#000000;font-weight:bold;font-size:53.3333px;font-family:'Big Caslon';-inkscape-font-specification:'Arial Bold';text-align:center;letter-spacing:13.9189px;text-anchor:middle;white-space:pre;fill:#e30613;fill-opacity:1;stroke:none;stroke-width:1;stroke-linecap:butt;-inkscape-stroke:none"
       d="m 206.6875,549.08398 c -0.80256,-0.0234 -1.63881,0.01 -2.50781,0.0977 l -0.47852,0.0469 0.44922,7.20703 0.53516,-0.0781 c 2.17737,-0.31414 3.87984,-0.11209 5.13476,0.53906 1.27863,0.66346 2.16496,1.66309 2.71094,3.07422 0.7478,1.9327 0.64528,3.70093 -0.30664,5.44922 -0.92221,1.69371 -3.09827,3.27613 -6.59961,4.63086 -3.29158,1.27356 -5.85065,1.52334 -7.67383,0.87305 l -0.002,-0.002 c -1.87689,-0.68114 -3.15248,-1.95239 -3.91602,-3.92579 -0.55057,-1.42296 -0.61195,-2.73364 -0.20898,-3.99804 0.39938,-1.27922 1.19749,-2.31978 2.44922,-3.16407 l 0.41797,-0.2832 -4.10157,-5.94922 -0.41601,0.31446 c -2.05581,1.54981 -3.47984,3.24299 -4.23047,5.09375 -1.25328,3.06018 -1.1779,6.40353 0.18945,9.9375 h 0.002 c 1.56451,4.04357 4.20814,6.85075 7.86718,8.31445 3.65979,1.47374 7.90918,1.25488 12.67188,-0.58789 4.51182,-1.74569 7.66289,-4.38655 9.35351,-7.91211 v -0.002 c 1.6712,-3.50752 1.75815,-7.24362 0.27149,-11.08594 -1.19798,-3.09624 -2.97318,-5.40115 -5.32031,-6.84961 v -0.002 c -1.77788,-1.09471 -3.88334,-1.66798 -6.29102,-1.73829 z"
       id="path14981" />
    <path
       style="color:#000000;font-weight:bold;font-size:53.3333px;font-family:'Big Caslon';-inkscape-font-specification:'Arial Bold';text-align:center;letter-spacing:13.9189px;text-anchor:middle;white-space:pre;fill:#e30613;fill-opacity:1;stroke:none;stroke-width:1;stroke-linecap:butt;-inkscape-stroke:none"
       d="m 251.72266,548.10938 -7.76758,20.24414 29.10351,11.16601 0.17774,-0.4668 2.36133,-6.15429 -11.97071,-4.59375 4.51172,-11.75977 -5.69922,-2.1875 -4.51172,11.75977 -5.73242,-2.19922 5.22657,-13.62305 z"
       id="path14979" />
    <path
       style="color:#000000;font-weight:bold;font-size:53.3333px;font-family:'Big Caslon';-inkscape-font-specification:'Arial Bold';text-align:center;letter-spacing:13.9189px;text-anchor:middle;white-space:pre;fill:#e30613;fill-opacity:1;stroke:none;stroke-width:1;stroke-linecap:butt;-inkscape-stroke:none"
       d="m 270.18359,499.99023 -2.54101,6.6211 16.05078,6.1582 c 2.21728,0.85071 3.77036,1.54704 4.61133,2.04883 0.79375,0.47362 1.33201,1.15979 1.65234,2.13672 0.29051,0.91801 0.18494,2.14426 -0.41015,3.69531 -0.5832,1.52005 -1.35478,2.53932 -2.28321,3.12305 -0.95572,0.57758 -1.96387,0.77265 -3.10156,0.59179 -0.66775,-0.11673 -2.28167,-0.64381 -4.69141,-1.56835 l -15.72265,-6.03126 -2.54102,6.61915 0.46875,0.17968 15.02539,5.76563 c 3.16956,1.21607 5.64372,1.95518 7.47071,2.21289 h 0.002 c 1.26933,0.17273 2.59424,0.031 3.96289,-0.41211 l 0.004,-0.002 h 0.002 c 1.37959,-0.45622 2.67241,-1.28846 3.875,-2.47461 l 0.002,-0.002 0.002,-0.004 c 1.23398,-1.24446 2.34097,-3.22164 3.38672,-5.94727 0.87027,-2.26826 1.30039,-4.23813 1.26563,-5.93164 v -0.002 -0.002 c -0.0474,-1.66732 -0.40939,-3.14547 -1.09766,-4.4121 -0.68339,-1.28015 -1.70563,-2.36597 -3.04297,-3.24805 -1.34908,-0.88983 -3.69195,-1.95684 -7.08789,-3.25977 z"
       id="path14977" />
    <path
       style="color:#000000;font-weight:bold;font-size:53.3333px;font-family:'Big Caslon';-inkscape-font-specification:'Arial Bold';text-align:center;letter-spacing:13.9189px;text-anchor:middle;white-space:pre;fill:#e30613;fill-opacity:1;stroke:none;stroke-width:1;stroke-linecap:butt;-inkscape-stroke:none"
       d="m 185.2832,473.76953 -5.67382,2.19531 5.46484,14.12696 -23.16602,8.96289 2.5586,6.61523 28.84179,-11.16015 -0.17968,-0.4668 z"
       id="path14975" />
    <path
       style="color:#000000;font-weight:bold;font-size:53.3333px;font-family:'Big Caslon';-inkscape-font-specification:'Arial Bold';text-align:center;letter-spacing:13.9189px;text-anchor:middle;white-space:pre;fill:#e30613;fill-opacity:1;stroke:none;stroke-width:1;stroke-linecap:butt;-inkscape-stroke:none"
       d="m 288.35938,452.61914 -8.94727,23.31836 5.69922,2.1875 3.20703,-8.35938 23.4043,8.98047 0.17773,-0.46679 2.36133,-6.1543 -23.40234,-8.97852 3.19921,-8.33984 z"
       id="path14973" />
    <path
       style="color:#000000;font-weight:bold;font-size:53.3333px;font-family:'Big Caslon';-inkscape-font-specification:'Arial Bold';text-align:center;letter-spacing:13.9189px;text-anchor:middle;white-space:pre;fill:#e30613;fill-opacity:1;stroke:none;stroke-width:1;stroke-linecap:butt;-inkscape-stroke:none"
       d="m 152.18164,403.11328 c -0.56538,-0.011 -1.14448,0.0299 -1.73828,0.1211 -1.59737,0.24542 -4.05111,1.02341 -7.44336,2.33593 l -15.24609,5.90039 2.56054,6.61328 16.03125,-6.20312 c 2.21487,-0.85697 3.83468,-1.38397 4.79492,-1.57617 0.90634,-0.18141 1.76519,-0.0328 2.65821,0.47656 0.83137,0.48577 1.57631,1.46822 2.17578,3.01758 0.5875,1.5184 0.69908,2.78992 0.40234,3.8457 h 0.002 c -0.32109,1.06953 -0.93938,1.89027 -1.9043,2.51953 -0.57345,0.3615 -2.12218,1.05303 -4.5293,1.98438 l -15.70703,6.07812 2.56055,6.61328 0.46484,-0.17968 15.01172,-5.80664 c 3.16611,-1.22502 5.49585,-2.33826 7.02344,-3.37305 h 0.002 c 1.05709,-0.7236 1.94457,-1.71996 2.66211,-2.9668 v -0.002 l 0.002,-0.002 c 0.71681,-1.26395 1.11708,-2.7511 1.21289,-4.4375 v -0.002 -0.002 c 0.08,-1.75072 -0.42703,-3.96094 -1.48046,-6.68359 -0.87667,-2.2658 -1.88088,-4.01567 -3.04297,-5.24805 l -0.002,-0.002 c -1.1539,-1.20447 -2.41321,-2.05779 -3.77343,-2.53516 -0.85354,-0.30666 -1.75496,-0.46797 -2.69727,-0.48633 z"
       id="path14971" />
    <path
       style="color:#000000;font-weight:bold;font-size:53.3333px;font-family:'Big Caslon';-inkscape-font-specification:'Arial Bold';text-align:center;letter-spacing:13.9189px;text-anchor:middle;white-space:pre;fill:#e30613;fill-opacity:1;stroke:none;stroke-width:1;stroke-linecap:butt;-inkscape-stroke:none"
       d="m 367.68359,315.9043 -5.42773,14.14258 -23.19141,-8.89844 -2.53906,6.62109 28.87109,11.07813 0.17969,-0.4668 7.78711,-20.29688 z"
       id="path14969" />
    <path
       style="color:#000000;font-weight:bold;font-size:53.3333px;font-family:'Big Caslon';-inkscape-font-specification:'Arial Bold';text-align:center;letter-spacing:13.9189px;text-anchor:middle;white-space:pre;fill:#e30613;fill-opacity:1;stroke:none;stroke-width:1;stroke-linecap:butt;-inkscape-stroke:none"
       d="m 291.22852,250.52734 v 31.17188 h 0.5 6.59179 v -31.17188 z"
       id="path14967" />
    <path
       style="color:#000000;font-weight:bold;font-size:53.3333px;font-family:'Big Caslon';-inkscape-font-specification:'Arial Bold';text-align:center;letter-spacing:13.9189px;text-anchor:middle;white-space:pre;fill:#e30613;fill-opacity:1;stroke:none;stroke-width:1;stroke-linecap:butt;-inkscape-stroke:none"
       d="m 167.05664,250.52734 v 0.5 16.09571 c 0,3.39483 0.19554,5.96755 0.60938,7.76562 v 0.002 0.002 c 0.29341,1.24698 0.90273,2.43557 1.80664,3.55469 l 0.002,0.002 0.002,0.002 c 0.92013,1.12462 2.161,2.03453 3.69922,2.73242 l 0.002,0.002 h 0.004 c 1.6039,0.70632 3.84822,1.02929 6.76758,1.02929 2.42947,0 4.42351,-0.3023 5.99219,-0.9414 h 0.002 l 0.002,-0.002 c 1.5393,-0.64135 2.78865,-1.50954 3.72461,-2.60546 0.95038,-1.0966 1.59887,-2.43934 1.94336,-4.00391 0.34752,-1.5783 0.50586,-4.14785 0.50586,-7.78516 V 250.5293 h -7.09375 v 17.1914 c 0,2.37488 -0.0906,4.07416 -0.25781,5.03907 -0.15786,0.91073 -0.60891,1.65761 -1.40625,2.30664 -0.75303,0.60007 -1.93635,0.9414 -3.59766,0.9414 -1.62808,0 -2.85485,-0.354 -3.73242,-1.01172 h -0.002 c -0.88161,-0.6854 -1.42343,-1.55662 -1.66211,-2.68359 -0.13021,-0.66526 -0.21485,-2.36039 -0.21485,-4.94141 V 250.5293 Z"
       id="path14965" />
    <path
       style="color:#000000;font-weight:bold;font-size:53.3333px;font-family:'Big Caslon';-inkscape-font-specification:'Arial Bold';text-align:center;letter-spacing:13.9189px;text-anchor:middle;white-space:pre;fill:#e30613;fill-opacity:1;stroke:none;stroke-width:1;stroke-linecap:butt;-inkscape-stroke:none"
       d="m 120.90625,250.52734 v 31.17188 h 0.5 6.16016 v -20.20899 l 5.07812,20.20899 h 6.64453 l 5.09961,-20.22266 v 20.22266 h 6.65821 v -31.17188 h -10.02149 l -5.03125,19.12305 -5.08594,-19.12305 z"
       id="path14963" />
    <path
       style="color:#000000;font-weight:bold;font-size:53.3333px;font-family:'Big Caslon';-inkscape-font-specification:'Arial Bold';text-align:center;letter-spacing:13.9189px;text-anchor:middle;white-space:pre;fill:#e30613;fill-opacity:1;stroke:none;stroke-width:1;stroke-linecap:butt;-inkscape-stroke:none"
       d="m 263.52344,250.01367 c -4.3357,0 -7.91026,1.45354 -10.59571,4.33789 -2.69506,2.88141 -4.02343,6.92254 -4.02343,12.0293 0,4.83777 1.32789,8.72923 4.00586,11.57812 v 0.002 h 0.002 c 2.66816,2.82427 6.12227,4.2539 10.24219,4.2539 3.3199,0 6.10881,-0.8239 8.30664,-2.49023 h 0.002 c 2.21666,-1.68409 3.78064,-4.24458 4.70703,-7.61328 l 0.12696,-0.46289 -6.88282,-2.18164 -0.11914,0.52734 c -0.49272,2.14403 -1.29535,3.65836 -2.35547,4.59375 -1.08016,0.95308 -2.33458,1.41992 -3.84765,1.41992 -2.07233,0 -3.68175,-0.73331 -4.96875,-2.25195 -1.24682,-1.47126 -1.93946,-4.07384 -1.93946,-7.82813 0,-3.52936 0.69072,-6.00501 1.95508,-7.4707 l 0.002,-0.002 c 1.31253,-1.50465 2.96022,-2.23438 5.07618,-2.23438 1.52577,0 2.76892,0.41401 3.80273,1.2461 v 0.002 h 0.002 c 1.04892,0.83409 1.73067,1.95373 2.06641,3.42578 l 0.11328,0.49219 7.0293,-1.67969 -0.14453,-0.50195 c -0.70357,-2.47655 -1.76941,-4.41532 -3.22461,-5.7832 -2.40177,-2.27311 -5.54667,-3.40821 -9.33594,-3.40821 z"
       id="path14846" />
    <path
       style="color:#000000;font-weight:bold;font-size:53.3333px;font-family:'Big Caslon';-inkscape-font-specification:'Arial Bold';text-align:center;letter-spacing:13.9189px;text-anchor:middle;white-space:pre;fill:#e30613;stroke:none;stroke-width:1;stroke-linecap:butt;-inkscape-stroke:none;fill-opacity:1"
       d="m 208.55819,250.52773 v 31.17172 h 0.50011 6.5909 v -12.59526 h 0.73472 c 1.3717,0 2.36116,0.12562 2.89722,0.31951 l 0.005,0.002 0.005,0.002 c 0.55249,0.18809 1.09394,0.55269 1.62689,1.1237 l 0.002,0.002 0.002,0.002 c 0.50889,0.53312 1.59717,2.01834 3.15654,4.35741 l 4.55343,6.78847 h 8.45549 l -4.16137,-6.64956 -0.002,-0.003 c -1.46013,-2.35524 -2.62156,-4.00005 -3.53469,-4.97172 l -0.002,-0.002 c -0.67258,-0.72656 -1.6063,-1.35392 -2.5422,-1.98036 2.20078,-0.47783 4.0341,-1.29724 5.26346,-2.65334 l 0.002,-0.002 c 1.41545,-1.57597 2.1239,-3.59005 2.1239,-5.95188 0,-1.86569 -0.46379,-3.55345 -1.39381,-5.02113 -0.92904,-1.46614 -2.19993,-2.51041 -3.76622,-3.08244 -1.56855,-0.5919 -3.94179,-0.85512 -7.19443,-0.85512 z m 7.09101,6.10468 h 4.25398 c 2.45981,0 3.98271,0.0444 4.36822,0.0973 0.89724,0.15049 1.53044,0.49116 1.98035,1.02182 l 0.005,0.005 0.003,0.005 c 0.4584,0.5157 0.69767,1.19098 0.69767,2.11619 0,0.82978 -0.18491,1.47435 -0.53097,1.9819 -0.35229,0.51668 -0.81865,0.8688 -1.45556,1.08511 -0.53405,0.18138 -2.40605,0.34421 -5.31439,0.34421 h -4.00702 z"
       id="path14860"
       sodipodi:nodetypes="cccccscccccsccccccccccssccccsccccsssscc" />
    <path
       style="color:#000000;font-weight:bold;font-size:53.3333px;font-family:'Big Caslon';-inkscape-font-specification:'Arial Bold';text-align:center;letter-spacing:13.9189px;text-anchor:middle;white-space:pre;fill:#e30613;stroke:none;stroke-width:1;stroke-linecap:butt;-inkscape-stroke:none;fill-opacity:1"
       d="m 322.96821,250.52773 -12.14146,31.17172 h 7.54326 l 2.49127,-6.8533 h 11.36506 l 2.63482,6.8533 h 7.70996 l -0.27475,-0.68688 -12.20629,-30.48484 z m 3.4943,8.98801 3.43437,9.24579 h -6.80082 z"
       id="path14878"
       sodipodi:nodetypes="cccccccccccccc" />
    <path
       style="color:#000000;font-weight:bold;font-size:53.3333px;font-family:'Big Caslon';-inkscape-font-specification:'Arial Bold';text-align:center;letter-spacing:63.9005px;text-anchor:middle;white-space:pre;fill:#e30613;stroke:none;stroke-width:1;stroke-linecap:butt;-inkscape-stroke:none;fill-opacity:1"
       d="m 107.56928,359.2979 0.46641,-0.18047 28.60512,-11.06776 -3.88717,-10.04655 -5.7e-4,-0.001 c -1.42835,-3.61542 -2.36687,-5.85868 -2.86482,-6.82253 l -5.7e-4,-0.001 c -0.7809,-1.504 -1.76552,-2.67207 -2.95897,-3.47271 l -0.002,-9e-4 c -1.2,-0.80072 -2.56801,-1.26809 -4.07287,-1.39826 l -0.001,5.7e-4 c -1.51721,-0.13709 -2.96406,0.0545 -4.31626,0.5777 -1.7132,0.66286 -3.05147,1.74864 -3.95446,3.22812 -0.74742,1.22461 -1.02974,2.68166 -1.0426,4.25634 -0.91081,-0.69474 -1.90568,-1.23358 -3.03905,-1.46394 l -0.002,-9e-4 c -1.46631,-0.3091 -2.92364,-0.18953 -4.32547,0.35286 -1.28857,0.49857 -2.3535,1.26529 -3.15954,2.28833 l -9.1e-4,0.002 c -0.80232,1.00752 -1.34583,2.10414 -1.61539,3.27641 l -3.6e-4,0.003 c -0.27318,1.15614 -0.27788,2.35943 -0.0192,3.5906 0.24018,1.2192 0.79325,2.92708 1.6599,5.16697 z m 3.05633,-8.78748 -1.08166,-2.79558 c -1.03331,-2.67063 -1.63373,-4.33809 -1.76507,-4.83996 -0.22909,-0.90676 -0.16571,-1.59892 0.13133,-2.15437 l 0.003,-0.006 0.003,-0.006 c 0.28895,-0.57426 0.77912,-1.00154 1.56238,-1.3046 0.81218,-0.31424 1.49333,-0.30886 2.15119,-0.018 0.64436,0.28483 1.18965,0.81937 1.64271,1.67485 0.2342,0.44147 0.81306,1.82762 1.66783,4.03681 l 1.25989,3.25625 z m 11.19099,-4.32996 -1.59408,-4.11997 c -0.99383,-2.56861 -1.48811,-4.32424 -1.51078,-5.0211 l 9.1e-4,-0.002 c -0.0301,-0.79912 0.14298,-1.44136 0.50978,-1.98469 0.36746,-0.5443 0.90823,-0.96212 1.6774,-1.25972 0.91438,-0.35379 1.67427,-0.37639 2.355,-0.12008 0.68705,0.25767 1.22712,0.71087 1.65827,1.41561 l 0.002,0.006 0.004,0.007 c 0.26037,0.40135 0.84433,1.69885 1.63309,3.73745 l 1.85419,4.79224 z"
       id="path14829"
       sodipodi:nodetypes="cccccssccccsscccsccccccccscccssscscccsccssccccscc" />
    <path
       style="color:#000000;font-weight:bold;font-size:53.3333px;font-family:'Big Caslon';-inkscape-font-specification:'Arial Bold';text-align:center;letter-spacing:28.4705px;text-anchor:middle;white-space:pre;fill:#e30613;stroke:none;stroke-width:1;stroke-linecap:butt;-inkscape-stroke:none;fill-opacity:1"
       d="m 297.47577,428.85705 0.46692,0.17915 28.63625,10.98695 3.85823,-10.05605 5.7e-4,-0.001 c 1.36678,-3.63914 2.17663,-5.93363 2.45413,-6.98242 0.43013,-1.63914 0.48437,-3.16734 0.13666,-4.56177 l -10e-4,-5.7e-4 c -0.35278,-1.39998 -1.05427,-2.66527 -2.08406,-3.77214 l 0.003,10e-4 c -1.03321,-1.12022 -2.23536,-1.94879 -3.58947,-2.46833 -1.71507,-0.65802 -3.43645,-0.74946 -5.09869,-0.25834 -1.37588,0.40652 -2.56231,1.29601 -3.62843,2.45497 -0.20956,-1.12787 -0.58731,-2.19543 -1.27488,-3.12772 -0.87964,-1.21186 -2.03866,-2.10147 -3.44112,-2.63955 -1.28997,-0.49493 -2.59404,-0.64097 -3.87815,-0.42325 l -0.002,9.1e-4 c -1.27093,0.2087 -2.40973,0.65714 -3.39618,1.34548 l -0.003,0.002 c -0.9779,0.67368 -1.78928,1.56361 -2.42344,2.64947 -3.6e-4,6e-4 -7.3e-4,0.002 -0.001,0.003 -0.63973,1.0652 -1.37522,2.701 -2.23505,4.94205 z m 8.16185,-4.46353 1.07431,-2.80007 c 1.02576,-2.67353 1.69939,-4.31279 1.93875,-4.77303 0.43838,-0.82512 0.95033,-1.29689 1.54292,-1.5093 l 0.006,-0.001 0.006,-0.003 c 0.59957,-0.23192 1.24972,-0.21984 2.03383,0.081 0.81306,0.31195 1.31451,0.77298 1.60717,1.43002 0.28665,0.64355 0.33287,1.40434 0.0948,2.34265 l -5.7e-4,10e-4 c -0.12256,0.48447 -0.62288,1.89923 -1.47141,4.11084 l -1.25124,3.26122 z m 11.20317,4.29836 1.58299,-4.12589 c 0.98658,-2.57141 1.79752,-4.20338 2.24829,-4.73529 l 0.002,-9.1e-4 5.6e-4,-10e-4 c 0.51389,-0.61272 1.07259,-0.97136 1.70913,-1.12811 0.63768,-0.15703 1.31899,-0.10399 2.089,0.19145 0.91537,0.3512 1.49397,0.84432 1.82675,1.49112 0.33653,0.65205 0.43289,1.35047 0.27971,2.1623 l -0.002,0.006 -7.3e-4,0.006 c -0.0762,0.47229 -0.51384,1.82618 -1.29685,3.867 l -1.8412,4.79889 z"
       id="path14784"
       sodipodi:nodetypes="ccccccccccssccsccsssccccsccccssccscccscccssccccscc" />
    <path
       style="color:#000000;font-weight:bold;font-size:53.3333px;font-family:'Big Caslon';-inkscape-font-specification:'Arial Bold';text-align:center;letter-spacing:28.4705px;text-anchor:middle;white-space:pre;fill:#e30613;stroke:none;stroke-width:1;stroke-linecap:butt;-inkscape-stroke:none;fill-opacity:1"
       d="m 320.91549,366.32918 c -0.8991,2.34337 -1.32052,4.57805 -1.2482,6.69618 0.047,1.60262 0.443,3.21124 1.17952,4.81547 l 10e-4,5.7e-4 9.1e-4,0.002 c 0.74122,1.59016 1.7294,3.00517 2.95892,4.23674 l 9.1e-4,0.002 c 1.68215,1.66915 3.98788,3.05268 6.90382,4.17144 4.56924,1.7531 8.72161,1.88663 12.36629,0.34037 l 5.7e-4,-0.001 c 3.62749,-1.54969 6.28464,-4.52185 7.92811,-8.80536 1.62444,-4.23392 1.61915,-8.19842 -0.0532,-11.77995 l 5.6e-4,-10e-4 c -1.68878,-3.59326 -4.90269,-6.28362 -9.53478,-8.06083 -4.67019,-1.79183 -8.8834,-1.93509 -12.55271,-0.36725 -3.65628,1.55157 -6.32267,4.5046 -7.95209,8.75152 z m 5.81681,2.16562 c 0.85895,-2.23876 2.25076,-3.67527 4.25094,-4.42652 l 10e-4,5.6e-4 5.5e-4,-0.001 c 1.97665,-0.75257 4.52732,-0.57258 7.68685,0.63965 3.19694,1.22658 5.24968,2.83371 6.25337,4.77661 1.01192,1.95653 1.10748,3.94326 0.2804,6.09895 -0.82674,2.15481 -2.23981,3.58125 -4.32557,4.3797 -2.06789,0.78178 -4.63533,0.61875 -7.75219,-0.5771 -3.172,-1.21701 -5.19802,-2.79935 -6.17229,-4.69922 l 5.6e-4,-10e-4 -10e-4,-5.7e-4 c -1.00141,-1.93388 -1.08092,-3.95214 -0.22263,-6.1892 z"
       id="path14790"
       sodipodi:nodetypes="ccccsccsccsccscccccccscscsccccc" />
  </g>
</svg>
