<?xml version="1.0" encoding="UTF-8" standalone="no"?>
<svg
   xmlns:dc="http://purl.org/dc/elements/1.1/"
   xmlns:cc="http://creativecommons.org/ns#"
   xmlns:rdf="http://www.w3.org/1999/02/22-rdf-syntax-ns#"
   xmlns:svg="http://www.w3.org/2000/svg"
   xmlns="http://www.w3.org/2000/svg"
   viewBox="0 0 1066.6667 876.33331"
   height="876.33331"
   width="1066.6667"
   xml:space="preserve"
   id="svg2"
   version="1.1"><metadata
     id="metadata8"><rdf:RDF><cc:Work
         rdf:about=""><dc:format>image/svg+xml</dc:format><dc:type
           rdf:resource="http://purl.org/dc/dcmitype/StillImage" /></cc:Work></rdf:RDF></metadata><defs
     id="defs6" /><g
     transform="matrix(1.3333333,0,0,-1.3333333,0,876.33333)"
     id="g10"><g
       transform="scale(0.1)"
       id="g12"><path
         id="path14"
         style="fill:#f7ca08;fill-opacity:1;fill-rule:nonzero;stroke:none"
         d="m 2996.53,4368.2 h 620.52 l -99.56,-475.36 c 231.54,355.36 482.37,533.05 752.5,533.05 95.7,0 198.35,-23.85 307.95,-71.53 l -254.7,-542.28 c -60.19,21.53 -124.26,32.31 -192.18,32.31 -114.21,0 -230.38,-43.08 -348.45,-129.23 -118.09,-86.15 -210.32,-201.15 -276.69,-344.98 -66.38,-143.84 -131.98,-371.91 -196.81,-684.19 l -162.08,-768.42 h -664.51 l 514.01,2450.63" /><path
         id="path16"
         style="fill:#203563;fill-opacity:1;fill-rule:nonzero;stroke:none"
         d="M 6278.91,6572.54 C 4710.65,6316.59 3760.22,5990.29 2972.88,5644.84 2393.5,5390.62 1907.67,5035.59 1556.02,4502.06 1018.61,3686.7 479.949,2394.77 0,542.43 798.105,2039.5 1596.38,3482.47 2568.07,4447.25 c 644.02,639.44 1930.96,1329.12 3710.84,2125.29" /><path
         id="path18"
         style="fill:#203563;fill-opacity:1;fill-rule:nonzero;stroke:none"
         d="M 461.211,0 C 2029.46,255.949 2979.89,582.25 3767.23,927.711 4346.61,1181.92 4832.45,1536.95 5184.09,2070.48 5721.49,2885.83 6260.17,4177.77 6740.12,6030.11 5942.01,4533.04 5143.73,3090.06 4172.05,2125.29 3528.02,1485.85 2241.08,796.172 461.211,0" /><path
         id="path20"
         style="fill:#203563;fill-opacity:1;fill-rule:nonzero;stroke:none"
         d="m 4426.23,326.719 97.55,-17.688 c -16.08,-48.761 -39.86,-85.851 -71.33,-111.269 -31.46,-25.43 -67.94,-38.133 -109.42,-38.133 -47.32,0 -84.85,15.851 -112.58,47.57 -27.74,31.723 -41.6,75.36 -41.6,130.93 0,45.351 8.39,88.203 25.16,128.562 16.79,40.372 42.07,72.149 75.87,95.348 33.8,23.203 70.86,34.801 111.18,34.801 43.82,0 78.78,-12.84 104.89,-38.539 26.1,-25.68 40.79,-59.5 44.05,-101.43 l -95.45,-11.41 c -2.32,23.328 -8.68,40.5 -19.05,51.508 -10.37,11.011 -23.95,16.519 -40.73,16.519 -19.35,0 -37.41,-8.136 -54.19,-24.386 -16.78,-16.25 -29.66,-40.551 -38.64,-72.93 -8.97,-32.371 -13.45,-62.711 -13.45,-91.012 0,-24.64 5.36,-43.648 16.08,-57.012 10.72,-13.367 24.12,-20.058 40.21,-20.058 16.08,0 31.58,6.551 46.49,19.66 14.92,13.102 26.57,32.762 34.96,58.98 v -0.011" /><path
         id="path22"
         style="fill:#f7ca08;fill-opacity:1;fill-rule:nonzero;stroke:none"
         d="m 4645.1,587 h 93.69 l -15.03,-80.988 c 34.96,60.547 72.83,90.828 113.62,90.828 14.46,0 29.95,-4.07 46.5,-12.192 l -38.46,-92.398 c -9.09,3.672 -18.76,5.5 -29.01,5.5 -17.25,0 -34.79,-7.34 -52.62,-22.02 -17.83,-14.671 -31.76,-34.261 -41.78,-58.781 -10.03,-24.5 -19.93,-63.359 -29.72,-116.57 l -24.47,-130.93 H 4567.48 L 4645.1,587" /><path
         id="path24"
         style="fill:#f7ca08;fill-opacity:1;fill-rule:nonzero;stroke:none"
         d="m 4928.28,587 h 100.34 l -45.8,-247.301 c -5.59,-29.617 -8.39,-48.097 -8.39,-55.437 0,-12.051 3.96,-22.41 11.89,-31.063 7.92,-8.648 18.06,-12.969 30.42,-12.969 8.85,0 17.59,1.899 26.22,5.7 8.62,3.8 17.47,9.57 26.56,17.289 9.09,7.742 17.26,16.59 24.47,26.551 7.23,9.96 13.99,23.062 20.29,39.312 4.42,12.059 9.21,31.719 14.33,58.977 L 5165.66,587 h 100.35 L 5188.4,169.449 h -93.7 l 10.49,56.633 c -41.03,-44.301 -85.66,-66.453 -133.91,-66.453 -30.53,0 -54.54,9.82 -72.02,29.48 -17.48,19.661 -26.22,46.012 -26.22,79.039 0,14.411 3.96,43.114 11.89,86.102 L 4928.28,587" /><path
         id="path26"
         style="fill:#f7ca08;fill-opacity:1;fill-rule:nonzero;stroke:none"
         d="m 5402.01,349.129 c 0,-31.707 6.35,-55.887 19.05,-72.539 12.71,-16.641 28.61,-24.961 47.73,-24.961 17.48,0 34.43,7.473 50.87,22.41 16.42,14.941 29.01,36.172 37.75,63.703 8.74,27.508 13.12,54.117 13.12,79.809 0,29.621 -7.11,53.469 -21.33,71.551 -14.22,18.089 -30.66,27.128 -49.3,27.128 -17.95,0 -34.43,-7.988 -49.47,-23.98 -15.03,-15.988 -27.44,-40.629 -37.24,-73.918 -7.45,-25.684 -11.18,-48.75 -11.18,-69.203 z m -118.17,-201.688 105.94,-17.3 c 0,-12.059 1.74,-21.161 5.24,-27.332 3.5,-6.1567 9.14,-11.3988 16.95,-15.727 7.82,-4.3203 18.47,-6.4804 31.99,-6.4804 21.22,0 38.23,4.707 51.05,14.1601 9.55,7.3283 17.36,19.1293 23.42,35.3793 3.73,10.218 8.5,32.5 14.33,66.839 l 3.5,19.661 c -34.73,-32.512 -70.63,-48.762 -107.69,-48.762 -36.35,0 -66.19,14.422 -89.49,43.25 -23.31,28.832 -34.96,71.043 -34.96,126.613 0,49.008 7.92,93.957 23.77,134.848 15.85,40.898 38.11,71.82 66.78,92.789 28.67,20.973 57.92,31.461 87.75,31.461 24.71,0 47.32,-7.348 67.82,-22.02 20.51,-14.679 36.48,-35.257 47.9,-61.73 l 13.99,73.91 h 94.04 l -64.32,-347.961 c -10.49,-55.828 -19.35,-95.66 -26.58,-119.519 -7.22,-23.8481 -15.49,-42.8481 -24.82,-57.0083 -9.32,-14.1523 -21.09,-26.0117 -35.31,-35.582 -14.22,-9.5703 -31,-16.4492 -50.35,-20.64064 C 5485.45,2.10156 5464.47,0 5441.87,0 5389.42,0 5349.8,10.0898 5323,30.2695 5296.19,50.4609 5282.79,84 5282.79,130.93 c 0,4.98 0.35,10.48 1.05,16.511 v 0" /><path
         id="path28"
         style="fill:#f7ca08;fill-opacity:1;fill-rule:nonzero;stroke:none"
         d="m 5859.31,339.699 c 0,-28.047 7.05,-50.847 21.15,-68.41 14.1,-17.57 30.7,-26.348 49.81,-26.348 16.79,0 32.82,6.821 48.08,20.45 15.26,13.629 27.97,35.379 38.11,65.269 10.13,29.879 15.2,60.02 15.2,90.422 0,29.617 -6.82,52.887 -20.45,69.789 -13.63,16.91 -30.13,25.359 -49.47,25.359 -25.17,0 -46.85,-13.101 -65.03,-39.32 -24.93,-35.898 -37.4,-81.648 -37.4,-137.211 z M 5724,169.449 5830.99,745.852 h 100.69 l -36.02,-192.661 c 18.42,15.731 35.61,26.938 51.58,33.618 15.96,6.691 33.39,10.031 52.26,10.031 39.15,0 70.51,-14.75 94.04,-44.238 23.55,-29.481 35.32,-72.403 35.32,-128.762 0,-38.008 -5.54,-74.899 -16.6,-110.68 -11.08,-35.781 -25.88,-64.879 -44.41,-87.281 -18.53,-22.41 -37.99,-39.059 -58.39,-49.938 -20.39,-10.871 -41.77,-16.312 -64.15,-16.312 -53.14,0 -92.18,26.211 -117.12,78.633 l -12.94,-68.813 H 5724" /><path
         id="path30"
         style="fill:#f7ca08;fill-opacity:1;fill-rule:nonzero;stroke:none"
         d="m 6195.63,587 h 100 l 25.17,-207.988 c 6.29,-53.461 9.79,-90.953 10.49,-112.442 13.05,42.731 31,87.809 53.84,135.25 l 88.8,185.18 h 106.28 L 6350.86,128.57 C 6331.98,90.5586 6317.13,63.9609 6306.29,48.75 6295.45,33.5508 6282.4,21.6211 6267.13,12.9688 6251.87,4.33203 6233.51,0 6212.07,0 c -21.21,0 -45.11,4.19141 -71.68,12.582 l 8.74,84.1368 c 12.12,-3.9375 23.9,-5.8985 35.31,-5.8985 30.77,0 56.06,26.2107 75.87,78.6287 L 6195.63,587" /><path
         id="path32"
         style="fill:#203563;fill-opacity:1;fill-rule:nonzero;stroke:none"
         d="m 6814.8,326.719 97.54,-17.688 c -16.08,-48.761 -39.85,-85.851 -71.31,-111.269 -31.47,-25.43 -67.94,-38.133 -109.44,-38.133 -47.31,0 -84.83,15.851 -112.58,47.57 -27.73,31.723 -41.6,75.36 -41.6,130.93 0,45.351 8.39,88.203 25.18,128.562 16.78,40.372 42.07,72.149 75.87,95.348 33.79,23.203 70.85,34.801 111.17,34.801 43.82,0 78.78,-12.84 104.88,-38.539 26.11,-25.68 40.79,-59.5 44.05,-101.43 l -95.43,-11.41 c -2.34,23.328 -8.7,40.5 -19.07,51.508 -10.37,11.011 -23.94,16.519 -40.72,16.519 -19.35,0 -37.41,-8.136 -54.19,-24.386 -16.79,-16.25 -29.66,-40.551 -38.63,-72.93 -8.98,-32.371 -13.47,-62.711 -13.47,-91.012 0,-24.64 5.36,-43.648 16.08,-57.012 10.73,-13.367 24.13,-20.058 40.21,-20.058 16.08,0 31.58,6.551 46.5,19.66 14.92,13.102 26.57,32.762 34.96,58.98 v -0.011" /><path
         id="path34"
         style="fill:#203563;fill-opacity:1;fill-rule:nonzero;stroke:none"
         d="m 6960.94,169.449 107.33,576.403 h 99.99 L 7061.28,169.449 h -100.34" /><path
         id="path36"
         style="fill:#203563;fill-opacity:1;fill-rule:nonzero;stroke:none"
         d="m 7237.14,587 h 100.33 l -45.79,-247.301 c -5.6,-29.617 -8.4,-48.097 -8.4,-55.437 0,-12.051 3.97,-22.41 11.9,-31.063 7.92,-8.648 18.05,-12.969 30.41,-12.969 8.85,0 17.59,1.899 26.22,5.7 8.62,3.8 17.48,9.57 26.57,17.289 9.09,7.742 17.25,16.59 24.47,26.551 7.23,9.96 13.99,23.062 20.28,39.312 4.43,12.059 9.2,31.719 14.33,58.977 L 7474.52,587 h 100.34 l -77.61,-417.551 h -93.7 l 10.49,56.633 c -41.02,-44.301 -85.65,-66.453 -133.9,-66.453 -30.53,0 -54.54,9.82 -72.02,29.48 -17.49,19.661 -26.23,46.012 -26.23,79.039 0,14.411 3.97,43.114 11.89,86.102 L 7237.14,587" /><path
         id="path38"
         style="fill:#203563;fill-opacity:1;fill-rule:nonzero;stroke:none"
         d="m 7730.44,339.699 c 0,-28.047 7.05,-50.847 21.15,-68.41 14.1,-17.57 30.71,-26.348 49.83,-26.348 16.77,0 32.8,6.821 48.06,20.45 15.28,13.629 27.97,35.379 38.12,65.269 10.13,29.879 15.2,60.02 15.2,90.422 0,29.617 -6.81,52.887 -20.45,69.789 -13.64,16.91 -30.12,25.359 -49.47,25.359 -25.17,0 -46.85,-13.101 -65.03,-39.32 -24.94,-35.898 -37.41,-81.648 -37.41,-137.211 z m -135.3,-170.25 106.98,576.403 h 100.69 l -36,-192.661 c 18.4,15.731 35.59,26.938 51.56,33.618 15.97,6.691 33.39,10.031 52.26,10.031 39.16,0 70.51,-14.75 94.06,-44.238 23.53,-29.481 35.3,-72.403 35.3,-128.762 0,-38.008 -5.54,-74.899 -16.6,-110.68 -11.08,-35.781 -25.87,-64.879 -44.41,-87.281 -18.52,-22.41 -37.98,-39.059 -58.37,-49.938 -20.4,-10.871 -41.79,-16.312 -64.16,-16.312 -53.14,0 -92.18,26.211 -117.12,78.633 l -12.94,-68.813 h -91.25" /></g></g></svg>