<?xml version="1.0" encoding="utf-8"?>
<!-- Generator: Adobe Illustrator 26.0.3, SVG Export Plug-In . SVG Version: 6.00 Build 0)  -->
<svg version="1.1" id="Capa_1" xmlns="http://www.w3.org/2000/svg" xmlns:xlink="http://www.w3.org/1999/xlink" x="0px" y="0px"
	 width="200px" height="200px" viewBox="0 0 200 200" style="enable-background:new 0 0 200 200;" xml:space="preserve">
<style type="text/css">
	.st0{fill:#FCC10D;}
	.st1{clip-path:url(#SVGID_00000025437932331133053030000012270877054674941859_);}
	.st2{fill:#961914;}
	.st3{fill:#FFFFFF;}
	.st4{fill:#00A3D6;stroke:#FFFFFF;stroke-miterlimit:10;}
	.st5{fill:none;stroke:#E30613;stroke-miterlimit:10;}
	.st6{fill:#271E46;}
</style>
<g id="XMLID_1_">
	<g id="XMLID_83_">
		<g id="XMLID_94_">
			<g id="XMLID_103_">
				<path id="XMLID_104_" class="st0" d="M91.3,165L4.9,105.5c0,0-8.8-5.8,0-11.5l88.1-60.2c0,0,6.2-5.8,14.3,0l88,60
					c0,0,9.1,5.5,0,11.9L109.8,165c0,0-7.3,7.3-17.3,0.7L91.3,165z"/>
			</g>
			<g id="XMLID_95_">
				<g>
					<defs>
						<path id="SVGID_1_" d="M91.6,165.2l-87-59.6c0,0-8.9-5.8,0-11.5l88.7-60.3c0,0,6.2-5.3,14.3,0.5l87.6,60.2c0,0,9.2,5,0,11.4
							l-85,59.5c0,0-7.5,7.3-17.4,0.7L91.6,165.2z"/>
					</defs>
					<clipPath id="SVGID_00000064342195690494379630000014305744687621775794_">
						<use xlink:href="#SVGID_1_"  style="overflow:visible;"/>
					</clipPath>
					<g id="XMLID_98_" style="clip-path:url(#SVGID_00000064342195690494379630000014305744687621775794_);">
						<rect id="XMLID_102_" x="15.9" y="43.1" class="st2" width="27.6" height="125.4"/>
						<rect id="XMLID_101_" x="62.8" y="27.6" class="st2" width="27.6" height="140.9"/>
						<rect id="XMLID_100_" x="110.7" y="27.6" class="st2" width="27.6" height="140.9"/>
						<rect id="XMLID_99_" x="156.6" y="27.6" class="st2" width="27.6" height="140.9"/>
					</g>
				</g>
			</g>
		</g>
		<path id="XMLID_93_" class="st3" d="M153.9,93c0,0-16.6-23.8-52.5-24.4l0,0c-0.2,0-0.5,0-0.7,0s-0.5,0-0.7,0l0,0
			C64,69.2,47.4,93,47.4,93c-5.5,7.2,0,12.9,0,12.9c20,25.4,48.5,25.8,53.2,25.7c4.6,0.1,33.1-0.4,53.2-25.7
			C153.9,106.1,159.4,100.3,153.9,93z"/>
		<path id="XMLID_92_" class="st4" d="M150.7,99.4c0,0-12.6-15.1-49.2-15.8l0,0c-0.5,0-0.9,0-1.5,0c-0.5,0-0.9,0-1.5,0l0,0
			c-36.6,0.8-49.2,15.8-49.2,15.8s12,13.9,49.2,16.7l0,0h0.7h1.5h0.7l0,0C138.7,113.3,150.7,99.4,150.7,99.4z"/>
		<path id="XMLID_91_" class="st5" d="M49.1,99.4"/>
		<path id="XMLID_90_" class="st6" d="M100.2,117.9c-35.7-0.2-52.3-16.5-52.3-16.5l1.3,2.3c17.4,24.7,46.5,25.5,51,25.5
			s33.5-0.8,51-25.5l1.3-2.3C152.3,101.4,135.7,117.7,100.2,117.9z"/>
		<path id="XMLID_89_" class="st6" d="M100.2,81.3c-35.7,0.2-52.3,16.5-52.3,16.5l1.3-2.3c17.4-24.7,46.5-24.4,51-24.4
			s33.5-0.2,51,24.4l1.3,2.3C152.3,97.8,135.7,81.5,100.2,81.3z"/>
		<g id="XMLID_84_">
			<path id="XMLID_88_" class="st3" d="M51.9,99.1c0,0,13.5-24.7,49.4-24.4c0,0,21.7,1.2,32.5,9.6l2.8-2c0,0,2.6,5.9,2.1,10
				l-0.7,0.8c0,0-3-14-37.7-16.5c0,0-27.1,0-31.3,11.5c0,0-2.5,9.1,7.3,8.8c0,0,5.9-0.1,6.6-4.9h1.3v13.6h-1.5c0,0-0.9-5-6.8-4.9
				c0,0-6.3,0.4-7.3,6.5c0,0-3.7,11.3,28.9,15.3c0,0,28.6,2,41.1-17.1c0,0-0.7,7.9-2,9.8l-2.6-1.3c0,0-17,11.1-36.9,10.2
				c0,0-26.4,0.1-44.6-23.9L51.9,99.1z"/>
			<g id="XMLID_86_">
				<path id="XMLID_87_" class="st3" d="M88.7,114.1l-2.1-9.1c0,0,0-2.1,2.1,0.9c0,0,6.6,9.1,14.8,9.1c0,0,8.3-0.5,8.3-6.6
					c0,0,0.1-5-8.3-6.6c0,0-17.1-4.9-15.8-12.3c0,0,2.3-8.5,13.8-7.9l12.2,0.8l0.6,10.3l-1.1-0.1c0,0-4.1-9-11.7-9
					c0,0-8.5,0-9.1,4.6c0,0-1.3,4,7.2,6.5l8.2,2.7c0,0,8.7,2.8,8.7,9.4c0,0,0.5,5.5-5.5,8.4c0,0-7,3.2-20,0l-2.1-0.5v-0.6H88.7z"/>
			</g>
			<path id="XMLID_85_" class="st3" d="M123.3,76l-4.1-1.4c0,0-1.4-0.5-1.8,0c0,0-0.1,0.2,0.9,0.9c0,0,1.8,1.4,1.8,4v34.4v5v2.8
				c0,0-4.7,3.7-20,3.8c-15.3-0.1-20-3.8-20-3.8v-2.8v-5V79.5c0.1-2.6,1.8-4,1.8-4c1.1-0.7,0.9-0.9,0.9-0.9c-0.4-0.5-1.8,0-1.8,0
				L76.8,76c-1.5,0.5-1.3,1.5-1.3,1.5c0,1.4,2.5,1.1,2.5,1.1v14.7l1.1,28.9c2.4,4.4,17.2,4.9,20.7,4.9l0,0c0,0,0.1,0,0.4,0
				c0.2,0,0.4,0,0.4,0l0,0c3.6,0,18.4-0.5,20.7-4.9l0.7-28.9V78.6c0,0,2.5,0.2,2.5-1.1C124.5,77.5,124.7,76.4,123.3,76z"/>
		</g>
	</g>
</g>
</svg>
