<?xml version="1.0" encoding="UTF-8" standalone="no"?>
<svg
   xmlns:dc="http://purl.org/dc/elements/1.1/"
   xmlns:cc="http://creativecommons.org/ns#"
   xmlns:rdf="http://www.w3.org/1999/02/22-rdf-syntax-ns#"
   xmlns:svg="http://www.w3.org/2000/svg"
   xmlns="http://www.w3.org/2000/svg"
   xmlns:xlink="http://www.w3.org/1999/xlink"
   xmlns:sodipodi="http://sodipodi.sourceforge.net/DTD/sodipodi-0.dtd"
   xmlns:inkscape="http://www.inkscape.org/namespaces/inkscape"
   inkscape:version="1.0 (4035a4f, 2020-05-01)"
   sodipodi:docname="Logo National FFF.svg"
   viewBox="0 0 646.26599 699.99999"
   height="700"
   width="646.26599"
   xml:space="preserve"
   id="svg833"
   version="1.1"><metadata
     id="metadata839"><rdf:RDF><cc:Work
         rdf:about=""><dc:format>image/svg+xml</dc:format><dc:type
           rdf:resource="http://purl.org/dc/dcmitype/StillImage" /><dc:title></dc:title></cc:Work></rdf:RDF></metadata><defs
     id="defs837"><linearGradient
       id="linearGradient12800"
       inkscape:collect="always"><stop
         id="stop12796"
         offset="0"
         style="stop-color:#18b7ef;stop-opacity:0.1254902" /><stop
         style="stop-color:#19b5f0;stop-opacity:0.20392157"
         offset="0.0541949"
         id="stop12810" /><stop
         style="stop-color:#1ab5f1;stop-opacity:1;"
         offset="0.11157437"
         id="stop12808" /><stop
         style="stop-color:#1ab5f1;stop-opacity:1"
         offset="0.51502371"
         id="stop12804" /><stop
         id="stop12806"
         offset="0.87364537"
         style="stop-color:#1ab5f1;stop-opacity:0.98823529" /><stop
         style="stop-color:#17b2f0;stop-opacity:0.12941177"
         offset="0.93819726"
         id="stop12812" /><stop
         id="stop12798"
         offset="1"
         style="stop-color:#18b7ef;stop-opacity:0.1254902" /></linearGradient><radialGradient
       id="radialGradient1033"
       spreadMethod="pad"
       gradientTransform="matrix(-28.244559,-29.18606,-29.18606,28.244559,137.99623,758.20673)"
       gradientUnits="userSpaceOnUse"
       r="1"
       cy="0"
       cx="0"
       fy="0"
       fx="0"><stop
         id="stop1027"
         offset="0"
         style="stop-opacity:1;stop-color:#cceffc" /><stop
         id="stop1029"
         offset="0.78923484"
         style="stop-opacity:1;stop-color:#4ebdef" /><stop
         id="stop1031"
         offset="1"
         style="stop-opacity:1;stop-color:#4ebdef" /></radialGradient><clipPath
       id="clipPath1043"
       clipPathUnits="userSpaceOnUse"><path
         id="path1041"
         d="m 81.515,676.189 h 76.006 v 82.325 H 81.515 Z" /></clipPath><clipPath
       id="clipPath1051"
       clipPathUnits="userSpaceOnUse"><path
         id="path1049"
         d="M 97.3267,758.514 H 143.787 V 714.162 H 97.3267 Z" /></clipPath><clipPath
       id="clipPath1055"
       clipPathUnits="userSpaceOnUse"><path
         id="path1053"
         d="m 97.327,714.162 h 46.461 v 44.352 H 97.327 Z" /></clipPath><clipPath
       id="clipPath1059"
       clipPathUnits="userSpaceOnUse"><path
         id="path1057"
         d="M 96.0947,758.751 H 145.164 V 713.852 H 96.0947 Z" /></clipPath><mask
       id="mask1061"
       height="1"
       width="1"
       y="0"
       x="0"
       maskUnits="userSpaceOnUse"><g
         id="g1081"><g
           id="g1079"
           clip-path="url(#clipPath1051)"><g
             id="g1077"><g
               id="g1075"
               clip-path="url(#clipPath1055)"><g
                 id="g1073"><g
                   id="g1063" /><g
                   id="g1071"><g
                     id="g1069"
                     clip-path="url(#clipPath1059)"><g
                       id="g1067"
                       transform="translate(98.8171,751.2263)"><path
                         id="path1065"
                         style="fill:#000000;fill-opacity:1;fill-rule:nonzero;stroke:none"
                         d="m 0,0 c 0,0 -2.722,-10.629 -0.808,-26.977 0.197,-1.651 0.759,-2.388 2.586,-3.292 1.964,-0.969 16.804,-6.171 17.354,-6.369 0.948,-0.342 2.414,-0.737 4.359,-0.045 2.159,0.768 13.542,4.902 19.873,7.253 0,0 2.983,11.216 0.818,26.727 -0.499,1.967 -1.073,2.248 -2.896,2.902 C 39.461,0.854 29.625,4.764 23.831,6.88 22.697,7.225 22.267,7.525 20.227,7.017 17.845,6.426 9.465,4.668 0,0" /></g></g></g></g></g></g></g></g></mask><clipPath
       id="clipPath1089"
       clipPathUnits="userSpaceOnUse"><path
         id="path1087"
         d="M 94.6368,756.343 H 141.421 V 712.014 H 94.6368 Z" /></clipPath><radialGradient
       id="radialGradient1103"
       spreadMethod="pad"
       gradientTransform="matrix(-26.859232,-32.713149,-32.713149,26.859232,131.52492,750.44542)"
       gradientUnits="userSpaceOnUse"
       r="1"
       cy="0"
       cx="0"
       fy="0"
       fx="0"><stop
         id="stop1095"
         offset="0"
         style="stop-opacity:1;stop-color:#59caf5" /><stop
         id="stop1097"
         offset="0.15304961"
         style="stop-opacity:1;stop-color:#59caf5" /><stop
         id="stop1099"
         offset="0.99537"
         style="stop-opacity:1;stop-color:#176fc1" /><stop
         id="stop1101"
         offset="1"
         style="stop-opacity:1;stop-color:#176fc1" /></radialGradient><radialGradient
       id="radialGradient1135"
       spreadMethod="pad"
       gradientTransform="matrix(185.66238,0,0,-185.66238,381.14132,653.83374)"
       gradientUnits="userSpaceOnUse"
       r="1"
       cy="0"
       cx="0"
       fy="0"
       fx="0"><stop
         id="stop1131"
         offset="0"
         style="stop-opacity:1;stop-color:#4ebdef" /><stop
         id="stop1133"
         offset="1"
         style="stop-opacity:1;stop-color:#2056ae" /></radialGradient><linearGradient
       gradientUnits="userSpaceOnUse"
       y2="311.70432"
       x2="527.64862"
       y1="311.70432"
       x1="120.08408"
       id="linearGradient12802"
       xlink:href="#linearGradient12800"
       inkscape:collect="always" /></defs><sodipodi:namedview
     inkscape:current-layer="g841"
     inkscape:window-maximized="0"
     inkscape:window-y="0"
     inkscape:window-x="0"
     inkscape:cy="395.86791"
     inkscape:cx="422.21707"
     inkscape:zoom="0.72567705"
     showgrid="false"
     id="namedview835"
     inkscape:window-height="900"
     inkscape:window-width="1440"
     inkscape:pageshadow="2"
     inkscape:pageopacity="0"
     guidetolerance="10"
     gridtolerance="10"
     objecttolerance="10"
     borderopacity="1"
     bordercolor="#666666"
     pagecolor="#ffffff" /><g
     transform="matrix(1.3333333,0,0,-1.3333333,-108.68666,1011.3519)"
     inkscape:label="Logo National FFF"
     inkscape:groupmode="layer"
     id="g841"><g
       transform="matrix(6.3771638,0,0,6.3771638,-438.31951,-4078.6541)"
       id="g935" /><path
       d="m 172.4119,692.24881 c 0,0 -14.55269,-62.00516 -2.32766,-166.41209 1.26267,-10.53507 8.02247,-14.85241 19.69268,-20.61737 12.5375,-6.1986 105.39538,-39.46189 108.94746,-40.57789 4.77012,-1.48588 14.71212,-4.71273 26.53538,-0.79715 13.89584,4.61707 86.4871,31.31188 126.92469,46.32372 0,0 20.82782,69.76617 6.08382,169.33921 -2.37231,12.32705 -4.62982,14.31673 -21.4464,20.68114 -11.57456,4.38749 -72.38081,28.36562 -109.38112,41.87883 -7.25083,2.20013 -9.99301,4.11327 -23.02156,0.87368 -15.20954,-3.77529 -82.40571,-21.86092 -132.00729,-50.69208"
       style="fill:#1ab5f1;fill-opacity:1;fill-rule:nonzero;stroke:none;stroke-width:6.37716"
       id="path1013" /><g
       transform="matrix(6.3771638,0,0,6.3771638,-438.31951,-4078.6541)"
       id="g1023"><g
         id="g1025"><path
           id="path1035"
           style="fill:url(#radialGradient1033);stroke:none"
           d="m 119.044,758.244 c -2.382,-0.592 -10.761,-2.35 -20.227,-7.018 v 0 c 0,0 -2.722,-10.629 -0.808,-26.977 v 0 c 0.198,-1.651 0.759,-2.389 2.586,-3.291 v 0 c 1.964,-0.97 16.804,-6.172 17.354,-6.37 v 0 c 0.948,-0.342 2.413,-0.737 4.359,-0.045 v 0 c 2.159,0.769 13.542,4.902 19.873,7.253 v 0 c 0,0 2.984,11.216 0.818,26.727 v 0 c -0.499,1.967 -1.074,2.248 -2.896,2.902 v 0 c -1.824,0.655 -11.661,4.565 -17.455,6.681 v 0 c -0.699,0.212 -1.13,0.408 -1.836,0.408 v 0 c -0.439,0 -0.985,-0.076 -1.768,-0.27" /></g></g><g
       transform="matrix(6.3771638,0,0,6.3771638,-438.31951,-4078.6541)"
       id="g1037"><g
         clip-path="url(#clipPath1043)"
         id="g1039"><g
           id="g1045"><g
             id="g1047" /><g
             mask="url(#mask1061)"
             id="g1083"><g
               id="g1085" /><g
               id="g1117"><g
                 id="g1115"
                 clip-path="url(#clipPath1089)"><g
                   id="g1113"><g
                     id="g1111"><g
                       id="g1109"><g
                         id="g1107"><path
                           id="path1105"
                           style="fill:url(#radialGradient1103);stroke:none"
                           d="m 118.213,756.343 c -0.435,-0.003 -0.975,-0.079 -1.744,-0.27 v 0 c -2.385,-0.593 -12.922,-3.428 -20.7,-7.95 v 0 c 0,0 -1.121,-4.773 -1.132,-13.261 v 0 -0.274 c 0.005,-3.569 0.207,-7.781 0.766,-12.56 v 0 c 0.199,-1.653 1.259,-2.33 3.089,-3.232 v 0 c 1.965,-0.973 16.526,-6.189 17.084,-6.363 v 0 c 0.748,-0.233 2.307,-0.74 4.161,-0.125 v 0 c 2.179,0.723 13.562,4.909 19.902,7.263 v 0 c 0,0 3.267,10.94 0.954,26.553 v 0 c -0.372,1.933 -0.726,2.247 -3.362,3.245 v 0 c -1.815,0.687 -11.351,4.447 -17.153,6.566 v 0 c -0.692,0.21 -1.122,0.403 -1.815,0.408 v 0 z" /></g></g></g></g></g></g></g></g></g></g><path
       id="path1137"
       style="fill:url(#radialGradient1135);stroke:none;stroke-width:6.37716"
       d="M 315.58879,730.25033 C 302.19037,726.92145 242.98478,710.9913 199.28846,685.58468 v 0 c 0,0 -12.82448,-54.62041 -2.05345,-146.60462 v 0 c 1.10963,-9.28515 7.0659,-13.07956 17.34589,-18.16216 v 0 c 11.058,-5.46523 92.96629,-34.48133 95.99544,-35.75038 v 0 c 3.0164,-1.26268 12.0082,-4.79563 23.37231,-0.69511 v 0 c 12.13574,4.36835 76.19435,27.58123 111.81719,40.80109 v 0 c 0,0 16.79107,63.11479 4.60431,150.38628 v 0 c -2.80595,11.06438 -6.0328,12.64591 -16.29365,16.32554 v 0 c -10.26086,3.67962 -65.60826,25.69359 -98.2147,37.59338 v 0 c -3.92196,1.1989 -6.35166,2.29577 -10.31825,2.29577 v 0 c -2.47434,0 -5.54176,-0.42727 -9.95476,-1.52414" /><g
       transform="matrix(6.3771638,0,0,6.3771638,355.20565,676.09227)"
       id="g1151"><g
         id="g12651"><path
           transform="matrix(0.15680952,0,0,0.15680952,-55.699628,-106.0177)"
           id="path1141"
           style="fill:#ffffff;fill-opacity:1;fill-rule:nonzero;stroke:none;stroke-width:6.37716"
           d="m 262.57225,538.12751 h 29.95992 v 73.93046 l -29.95992,39.27695 z" /><path
           d="M 0,0 V -13.278 L -8.733,-1.952 C -9.379,-1.108 -10.379,0 -12.546,0 H -15.85 L 0.027,-20.817 c 0.503,-0.612 0.88,-0.817 1.907,-0.817 H 4.698 V 0 Z"
           style="fill:#ffffff;fill-opacity:1;fill-rule:nonzero;stroke:none"
           id="path1153" /></g></g><g
       id="g12831"><g
         id="g12712"><g
           transform="matrix(6.3771638,0,0,6.3771638,270.67315,276.18798)"
           id="g921"><path
             id="path923"
             style="fill:#444141;fill-opacity:1;fill-rule:nonzero;stroke:none"
             d="M 0,0 C -2.984,0.305 -6.906,0.296 -9.641,0.01 -9.671,0.005 -9.69,0 -9.706,-0.009 -9.797,-0.045 -9.862,-0.136 -9.862,-0.241 v -2.557 h -0.508 c -0.135,0 -0.249,-0.11 -0.249,-0.249 v -1.095 c 0,-0.138 0.114,-0.251 0.249,-0.251 h 0.508 v -2.049 c 0,-0.14 0.113,-0.25 0.25,-0.25 h 1.094 c 0.136,0 0.249,0.11 0.249,0.25 v 2.049 h 6.141 c 0.138,0 0.251,0.113 0.251,0.251 v 1.095 c 0,0.139 -0.113,0.249 -0.251,0.249 h -6.141 v 1.154 c 0,10e-4 10e-4,10e-4 10e-4,10e-4 0,0.136 0.107,0.22 0.225,0.229 3.257,0.214 4.655,0.141 7.982,-0.192 0.198,-0.019 0.287,0.064 0.287,0.217 v 1.144 C 0.226,-0.163 0.165,-0.017 0,0" /></g><g
           transform="matrix(6.3771638,0,0,6.3771638,356.99891,276.18798)"
           id="g925"><path
             id="path927"
             style="fill:#444141;fill-opacity:1;fill-rule:nonzero;stroke:none"
             d="M 0,0 C -2.985,0.305 -6.907,0.296 -9.644,0.01 -9.671,0.005 -9.691,0 -9.708,-0.009 -9.798,-0.045 -9.861,-0.136 -9.861,-0.241 v -2.557 h -0.51 c -0.137,0 -0.251,-0.11 -0.251,-0.249 v -1.095 c 0,-0.138 0.114,-0.251 0.251,-0.251 h 0.51 v -2.049 c 0,-0.14 0.109,-0.25 0.246,-0.25 h 1.097 c 0.136,0 0.248,0.11 0.248,0.25 v 2.049 h 6.144 c 0.136,0 0.247,0.113 0.247,0.251 v 1.095 c 0,0.139 -0.111,0.249 -0.247,0.249 H -8.27 v 1.154 c 0,10e-4 0.003,10e-4 0.003,10e-4 0,0.136 0.104,0.22 0.224,0.229 3.254,0.214 4.655,0.141 7.982,-0.192 0.194,-0.019 0.287,0.064 0.287,0.217 v 1.144 C 0.226,-0.163 0.163,-0.017 0,0" /></g><g
           transform="matrix(6.3771638,0,0,6.3771638,443.32976,276.18798)"
           id="g929"><path
             id="path931"
             style="fill:#444141;fill-opacity:1;fill-rule:nonzero;stroke:none"
             d="M 0,0 C -2.989,0.305 -6.91,0.296 -9.645,0.01 -9.671,0.005 -9.695,0 -9.711,-0.009 -9.799,-0.045 -9.866,-0.136 -9.866,-0.241 v -2.557 h -0.508 c -0.138,0 -0.248,-0.11 -0.248,-0.249 v -1.095 c 0,-0.138 0.11,-0.251 0.248,-0.251 h 0.508 v -2.049 c 0,-0.14 0.114,-0.25 0.248,-0.25 h 1.096 c 0.136,0 0.25,0.11 0.25,0.25 v 2.049 h 6.144 c 0.136,0 0.248,0.113 0.248,0.251 v 1.095 c 0,0.139 -0.112,0.249 -0.248,0.249 h -6.144 v 1.154 c 0,10e-4 0,10e-4 0,10e-4 0,0.136 0.11,0.22 0.226,0.229 3.256,0.214 4.656,0.141 7.981,-0.192 0.199,-0.019 0.292,0.064 0.292,0.217 v 1.144 C 0.227,-0.163 0.161,-0.017 0,0" /></g></g><path
         d="m 120.08408,311.70432 h 407.56454 v -5.4461 H 120.08408 Z"
         style="fill:url(#linearGradient12802);fill-opacity:1;fill-rule:nonzero;stroke:none;stroke-width:6.37716"
         id="path1001" /><g
         id="g12669"><path
           d="m 340.6976,349.7779 c -10.64986,0 -15.9748,7.11691 -15.9748,21.34437 0,14.22745 5.36958,21.33799 16.08321,21.33799 5.38871,0 9.36806,-1.77923 11.9253,-5.33131 2.55724,-3.55846 3.84543,-8.89615 3.84543,-16.00668 0,-14.22746 -5.29943,-21.34437 -15.87914,-21.34437 m 24.27149,44.31491 c -2.59551,2.8761 -5.90526,5.10811 -9.93563,6.71515 -4.02399,1.60067 -8.80048,2.41057 -14.33586,2.41057 -5.529,0 -10.3055,-0.8099 -14.33586,-2.41057 -4.02399,-1.60704 -7.33374,-3.83905 -9.92925,-6.71515 -2.5955,-2.86972 -4.52141,-6.26875 -5.78409,-10.19071 -1.26905,-3.93471 -1.89401,-8.19465 -1.89401,-12.77983 0,-4.59156 0.62496,-8.81962 1.89401,-12.69056 1.26268,-3.87094 3.18859,-7.22533 5.78409,-10.06316 2.59551,-2.84422 5.90526,-5.06347 9.92925,-6.67689 4.03036,-1.60705 8.80686,-2.40419 14.33586,-2.40419 5.53538,0 10.31187,0.79714 14.33586,2.40419 4.03037,1.61342 7.34012,3.83267 9.93563,6.67689 2.5955,2.83783 4.5214,6.19222 5.78408,10.06316 1.26268,3.87094 1.89402,8.099 1.89402,12.69056 0,4.58518 -0.63134,8.84512 -1.89402,12.77983 -1.26268,3.92196 -3.18858,7.32099 -5.78408,10.19071"
           style="fill:#444141;fill-opacity:1;fill-rule:nonzero;stroke:none;stroke-width:6.37716"
           id="path1161" /><path
           d="m 212.229,391.03624 h 18.32797 v -50.71758 h 15.05011 v 50.71758 h 18.33434 v 10.94959 H 212.229 Z"
           style="fill:#444141;fill-opacity:1;fill-rule:nonzero;stroke:none;stroke-width:6.37716"
           id="path1157" /><path
           d="M 125.57291,362.56029 99.15232,399.1397 c 0,0 -1.683571,2.85059 -5.975402,2.85059 H 81.513085 l 3.207714,-4.55967 v -57.11388 h 13.213483 v 39.10477 l 26.465228,-36.08199 c 0,0 1.95141,-3.02278 5.54813,-3.02278 h 8.83875 v 61.67355 h -13.21348 z"
           style="fill:#444141;fill-opacity:1;fill-rule:nonzero;stroke:none;stroke-width:6.37716"
           id="path1165" /><path
           d="m 275.64543,401.98901 3.20771,-4.53416 v -57.13301 h 15.05011 v 57.81536 c 0,0 0.42727,3.85181 -3.46918,3.85181 z"
           style="fill:#444141;fill-opacity:1;fill-rule:nonzero;stroke:none;stroke-width:6.37716"
           id="path1169" /><path
           d="m 171.71105,362.90274 8.91527,25.98694 8.49439,-25.98694 z m 15.47738,39.08564 h -19.20802 l 3.10568,-4.413 -21.5867,-57.25418 h 14.53993 l 4.19618,12.16763 h 24.36714 l 4.10051,-12.16763 h 15.76435 l -22.21803,59.44792 c 0,0 -0.98847,2.21926 -3.06104,2.21926"
           style="fill:#444141;fill-opacity:1;fill-rule:nonzero;stroke:none;stroke-width:6.37716"
           id="path1173" /><path
           d="m 540.725,351.15728 h -0.0127 v 0.0191 47.32493 c 0,0 0.47191,3.48831 -3.38628,3.48831 h -14.55906 l 3.20771,-4.55967 v -52.0823 c 0,-2.53811 2.53173,-5.0252 5.02521,-5.0252 h 35.21469 v 10.8348 z"
           style="fill:#444141;fill-opacity:1;fill-rule:nonzero;stroke:none;stroke-width:6.37716"
           id="path1177" /><path
           d="m 474.29217,362.90274 8.91527,25.98694 8.49439,-25.98694 z m 15.47738,39.08564 h -19.20802 l 3.11206,-4.413 -21.59308,-57.25418 h 14.53993 l 4.20255,12.16763 h 24.36077 l 4.10051,-12.16763 H 515.055 l -22.22441,59.44792 c 0,0 -0.98209,2.21926 -3.06104,2.21926"
           style="fill:#444141;fill-opacity:1;fill-rule:nonzero;stroke:none;stroke-width:6.37716"
           id="path1181" /><path
           d="M 426.84479,362.56029 400.4242,399.1397 c 0,0 -1.68357,2.85059 -5.9754,2.85059 h -11.66383 l 3.20771,-4.55967 v -57.11388 h 13.2071 v 39.10477 l 26.47161,-36.08199 c 0,0 1.94504,-3.02278 5.54813,-3.02278 h 8.83875 v 61.67355 h -13.21348 z"
           style="fill:#444141;fill-opacity:1;fill-rule:nonzero;stroke:none;stroke-width:6.37716"
           id="path1185" /></g></g></g></svg>
