<?xml version="1.0" encoding="UTF-8" standalone="no"?>
<!-- Created with Inkscape (http://www.inkscape.org/) -->

<svg
   xmlns:svg="http://www.w3.org/2000/svg"
   xmlns="http://www.w3.org/2000/svg"
   version="1.1"
   width="282"
   height="355"
   id="svg2"
   xml:space="preserve"><defs
     id="defs6"><clipPath
       id="clipPath20"><path
         d="M 0,2806.84 0,0 l 2231.19,0 0,2806.84 -2231.19,0 z"
         id="path22" /></clipPath></defs><g
     transform="matrix(1.25,0,0,-1.25,10.550625,364.12765)"
     id="g12"><g
       transform="matrix(0.10756592,0,0,0.10756592,-8.4405,-10.618205)"
       id="g14"><g
         id="g16"><g
           clip-path="url(#clipPath20)"
           id="g18"><path
             d="m 20,21.8594 0,1851.3706 133.691,131.84 0,646.21 633.227,0 139.27,135.56 1145.722,0 0,-131.84 139.28,0 0,-2479.012 -590.51,0 L 1462.84,20.0117 20,21.8594"
             id="path24"
             style="fill:#e9e9e9;fill-opacity:1;fill-rule:evenodd;stroke:none" /><path
             d="m 20,21.8594 0,1851.3706 133.691,131.84 0,646.21 633.227,0 139.27,135.56 1145.722,0 0,-131.84 139.28,0 0,-2479.012 -590.51,0 L 1462.84,20.0117 20,21.8594 z"
             id="path26"
             style="fill:none;stroke:#e9e9e9;stroke-width:10;stroke-linecap:butt;stroke-linejoin:miter;stroke-miterlimit:4;stroke-opacity:1;stroke-dasharray:none" /><path
             d="m 165.258,176.961 1447.162,0 446.6,439.078 0,2021.351 -1258.739,0 -635.023,-635.93 0,-1824.499"
             id="path28"
             style="fill:#ffffff;fill-opacity:1;fill-rule:evenodd;stroke:none" /><path
             d="m 165.258,176.961 1447.162,0 446.6,439.078 0,2021.351 -1258.739,0 -635.023,-635.93 0,-1824.499 z"
             id="path30"
             style="fill:none;stroke:#ffffff;stroke-width:10;stroke-linecap:butt;stroke-linejoin:miter;stroke-miterlimit:4;stroke-opacity:1;stroke-dasharray:none" /><path
             d="m 1335.73,1002.02 c 104.69,103.93 701.18,701.56 722.09,722.51 0.37,0.37 0.58,0.57 0.58,0.57 l -0.69,536.52 -1.15,-1.15 -933.09,-932.95 c 87.37,-67.86 166.48,-170.38 212.26,-325.5"
             id="path32"
             style="fill:#ed1c24;fill-opacity:1;fill-rule:nonzero;stroke:none" /><path
             d="m 1335.73,1002.02 c 104.69,103.93 701.18,701.56 722.09,722.51 0.37,0.37 0.58,0.57 0.58,0.57 l -0.69,536.52 -1.15,-1.15 -933.09,-932.95 c 87.37,-67.86 166.48,-170.38 212.26,-325.5 z"
             id="path34"
             style="fill:none;stroke:#231f20;stroke-width:5;stroke-linecap:butt;stroke-linejoin:miter;stroke-miterlimit:4;stroke-opacity:1;stroke-dasharray:none" /><path
             d="m 1123.47,1327.52 933.09,932.95 1.15,1.15 -0.48,377.96 -184.89,0 L 708.949,1462.03 c 53.949,-1.75 249,-5.97 414.521,-134.51"
             id="path36"
             style="fill:#231f20;fill-opacity:1;fill-rule:nonzero;stroke:none" /><path
             d="m 1123.47,1327.52 933.09,932.95 1.15,1.15 -0.48,377.96 -184.89,0 L 708.949,1462.03 c 53.949,-1.75 249,-5.97 414.521,-134.51 z"
             id="path38"
             style="fill:none;stroke:#231f20;stroke-width:5;stroke-linecap:butt;stroke-linejoin:miter;stroke-miterlimit:4;stroke-opacity:1;stroke-dasharray:none" /><path
             d="m 1335.73,1002.02 c 38.19,-129.399 53.08,-295.5 30.28,-508.532 l 692.52,683.382 -0.71,547.66 c -20.91,-20.95 -617.4,-618.58 -722.09,-722.51"
             id="path40"
             style="fill:#e2ae4e;fill-opacity:1;fill-rule:nonzero;stroke:none" /><path
             d="m 1335.73,1002.02 c 38.19,-129.399 53.08,-295.5 30.28,-508.532 l 692.52,683.382 -0.71,547.66 c -20.91,-20.95 -617.4,-618.58 -722.09,-722.51 z"
             id="path42"
             style="fill:none;stroke:#231f20;stroke-width:5;stroke-linecap:butt;stroke-linejoin:miter;stroke-miterlimit:4;stroke-opacity:1;stroke-dasharray:none" /><path
             d="m 2103.49,1632.21 c 55.58,55.68 93.04,93.21 98,98.18 0.38,0.37 0.58,0.58 0.58,0.58 l -0.68,536.51 -1.16,-1.14 -96.74,-96.73 0,-537.4"
             id="path44"
             style="fill:#ed1c24;fill-opacity:1;fill-rule:nonzero;stroke:none" /><path
             d="m 2103.49,1632.21 c 55.58,55.68 93.04,93.21 98,98.18 0.38,0.37 0.58,0.58 0.58,0.58 l -0.68,536.51 -1.16,-1.14 -96.74,-96.73 0,-537.4 z"
             id="path46"
             style="fill:none;stroke:#231f20;stroke-width:5;stroke-linecap:butt;stroke-linejoin:miter;stroke-miterlimit:4;stroke-opacity:1;stroke-dasharray:none" /><path
             d="m 2200.23,2266.34 1.16,1.15 -0.49,377.96 -97.41,0 0,-475.84 96.74,96.73"
             id="path48"
             style="fill:#231f20;fill-opacity:1;fill-rule:nonzero;stroke:none" /><path
             d="m 2200.23,2266.34 1.16,1.15 -0.49,377.96 -97.41,0 0,-475.84 96.74,96.73 z"
             id="path50"
             style="fill:none;stroke:#231f20;stroke-width:5;stroke-linecap:butt;stroke-linejoin:miter;stroke-miterlimit:4;stroke-opacity:1;stroke-dasharray:none" /><path
             d="m 2103.49,1085.33 98.71,97.41 -0.71,547.65 c -4.96,-4.97 -42.42,-42.5 -98,-98.18 l 0,-546.88"
             id="path52"
             style="fill:#e2ae4e;fill-opacity:1;fill-rule:nonzero;stroke:none" /><path
             d="m 2103.49,1085.33 98.71,97.41 -0.71,547.65 c -4.96,-4.97 -42.42,-42.5 -98,-98.18 l 0,-546.88 z"
             id="path54"
             style="fill:none;stroke:#231f20;stroke-width:5;stroke-linecap:butt;stroke-linejoin:miter;stroke-miterlimit:4;stroke-opacity:1;stroke-dasharray:none" /><path
             d="m 20,21.8594 0,1851.3706 133.691,131.84 0,646.21 633.227,0 139.27,135.56 1145.722,0 0,-131.84 139.28,0 0,-2479.012 -590.51,0 L 1462.84,20.0117 20,21.8594 z"
             id="path56"
             style="fill:none;stroke:#231f20;stroke-width:40;stroke-linecap:butt;stroke-linejoin:miter;stroke-miterlimit:4;stroke-opacity:1;stroke-dasharray:none" /><path
             d="m 163.938,181.691 1447.152,0 446.62,439.09 0,2021.339 -1258.749,0 -635.023,-635.93 0,-1824.499 z"
             id="path58"
             style="fill:none;stroke:#231f20;stroke-width:20;stroke-linecap:butt;stroke-linejoin:miter;stroke-miterlimit:4;stroke-opacity:1;stroke-dasharray:none" /><path
             d="m 327.852,401.359 97.777,-8.41 -3.899,-28.519 c 0,0 -13.046,-16.211 -44.507,-17.93 -31.461,-1.719 -45.614,11.078 -45.614,11.078 l -3.757,43.781"
             id="path60"
             style="fill:#e9e9e9;fill-opacity:1;fill-rule:evenodd;stroke:none" /><path
             d="m 327.852,401.359 97.777,-8.41 -3.899,-28.519 c 0,0 -13.046,-16.211 -44.507,-17.93 -31.461,-1.719 -45.614,11.078 -45.614,11.078 l -3.757,43.781 z"
             id="path62"
             style="fill:none;stroke:#231f20;stroke-width:15;stroke-linecap:butt;stroke-linejoin:miter;stroke-miterlimit:4;stroke-opacity:1;stroke-dasharray:none" /><path
             d="m 1209.77,400.531 -97.78,-8.41 3.9,-28.519 c 0,0 13.05,-16.211 44.51,-17.93 31.46,-1.723 45.61,11.078 45.61,11.078 l 3.76,43.781"
             id="path64"
             style="fill:#e9e9e9;fill-opacity:1;fill-rule:evenodd;stroke:none" /><path
             d="m 1209.77,400.531 -97.78,-8.41 3.9,-28.519 c 0,0 13.05,-16.211 44.51,-17.93 31.46,-1.723 45.61,11.078 45.61,11.078 l 3.76,43.781 z"
             id="path66"
             style="fill:none;stroke:#231f20;stroke-width:15;stroke-linecap:butt;stroke-linejoin:miter;stroke-miterlimit:4;stroke-opacity:1;stroke-dasharray:none" /><path
             d="m 793.711,940.07 c -201.25,1.25 -493.023,-55.261 -493.023,-55.261 0,0 -1.211,133.161 56.562,240.881 180.988,337.46 626.422,323.82 813.26,33.46 72.3,-112.33 68.98,-275.4 68.98,-275.4 0,0 -244.529,55.07 -445.779,56.32"
             id="path68"
             style="fill:#e9e9e9;fill-opacity:1;fill-rule:evenodd;stroke:none" /><path
             d="m 628.367,935.578 93.5469,0 0,394.441 -93.5469,0 0,-394.441 z"
             id="path70"
             style="fill:#231f20;fill-opacity:1;fill-rule:nonzero;stroke:none" /><path
             d="m 721.773,935.32 93.543,0 0,394.789 -93.543,0 0,-394.789 z"
             id="path72"
             style="fill:#ed1c24;fill-opacity:1;fill-rule:nonzero;stroke:none" /><path
             d="m 815.504,935.488 93.543,0 0,394.531 -93.543,0 0,-394.531 z"
             id="path74"
             style="fill:#e2ae4e;fill-opacity:1;fill-rule:nonzero;stroke:none" /><path
             d="m 815.316,1330.11 0,-389.622"
             id="path76"
             style="fill:#231f20;fill-opacity:1;fill-rule:nonzero;stroke:none" /><path
             d="m 815.316,1330.11 0,-389.622"
             id="path78"
             style="fill:none;stroke:#231f20;stroke-width:5;stroke-linecap:butt;stroke-linejoin:miter;stroke-miterlimit:4;stroke-opacity:1;stroke-dasharray:none" /><path
             d="m 721.773,1330.11 0,-391.399"
             id="path80"
             style="fill:none;stroke:#231f20;stroke-width:5;stroke-linecap:butt;stroke-linejoin:miter;stroke-miterlimit:4;stroke-opacity:1;stroke-dasharray:none" /><path
             d="m 911.289,1330.07 0,-391.832"
             id="path82"
             style="fill:none;stroke:#231f20;stroke-width:5;stroke-linecap:butt;stroke-linejoin:miter;stroke-miterlimit:4;stroke-opacity:1;stroke-dasharray:none" /><path
             d="m 722.066,1329.81 -93.546,0 28.082,34.02 95.082,11.42 -29.618,-45.44"
             id="path84"
             style="fill:#231f20;fill-opacity:1;fill-rule:nonzero;stroke:none" /><path
             d="m 815.445,1329.77 -93.547,0 31.461,47.99 86.442,-6.13 -24.356,-41.86"
             id="path86"
             style="fill:#ed1c24;fill-opacity:1;fill-rule:nonzero;stroke:none" /><path
             d="m 909.199,1329.81 -93.547,0 26.364,44.61 80.867,-20.91 -13.684,-23.7"
             id="path88"
             style="fill:#e2ae4e;fill-opacity:1;fill-rule:nonzero;stroke:none" /><path
             d="m 839.801,1371.63 -24.684,-42.97"
             id="path90"
             style="fill:#231f20;fill-opacity:1;fill-rule:nonzero;stroke:none" /><path
             d="m 839.801,1371.63 -24.684,-42.97"
             id="path92"
             style="fill:none;stroke:#231f20;stroke-width:5;stroke-linecap:butt;stroke-linejoin:miter;stroke-miterlimit:4;stroke-opacity:1;stroke-dasharray:none" /><path
             d="m 751.406,1377.76 -30.953,-50.18"
             id="path94"
             style="fill:none;stroke:#231f20;stroke-width:5;stroke-linecap:butt;stroke-linejoin:miter;stroke-miterlimit:4;stroke-opacity:1;stroke-dasharray:none" /><path
             d="m 925.113,1353.23 -14.058,-24.88"
             id="path96"
             style="fill:none;stroke:#231f20;stroke-width:5;stroke-linecap:butt;stroke-linejoin:miter;stroke-miterlimit:4;stroke-opacity:1;stroke-dasharray:none" /><path
             d="m 304.492,888.59 c 0,0 -1.211,131.14 56.563,237.23 180.988,332.33 626.422,318.9 813.265,32.95 72.3,-110.63 68.98,-271.219 68.98,-271.219 l 18.33,-34.141 c 0,0 20.51,-110.422 11.04,-225.031 -9.45,-114.199 -50.78,-222.219 -50.78,-222.219 0,0 -219.04,-25.109 -439.781,-25.398 -231.773,-0.313 -465.793,24.218 -465.793,24.218 0,0 -27.531,100.301 -34.152,210.532 -7.508,124.769 6.961,239.968 6.961,239.968 l 15.367,33.11 z"
             id="path98"
             style="fill:none;stroke:#231f20;stroke-width:15;stroke-linecap:butt;stroke-linejoin:miter;stroke-miterlimit:4;stroke-opacity:1;stroke-dasharray:none" /><path
             d="m 305.953,887.648 c 0,0 262.656,50.532 478.848,50.532 231.089,0 456.169,-50.532 456.169,-50.532"
             id="path100"
             style="fill:none;stroke:#231f20;stroke-width:15;stroke-linecap:butt;stroke-linejoin:miter;stroke-miterlimit:4;stroke-opacity:1;stroke-dasharray:none" /><path
             d="m 777.828,407.578 c -105.187,-0.137 -255,10.223 -348.527,23.602 -60.75,8.699 -91.774,22.441 -91.774,22.441 0,0 -10.547,28.777 -15.539,61.879 -5.156,34.262 -7.586,75.672 -7.586,75.672 l 922.228,-0.262 c 0,0 -6.14,-41.07 -14.07,-80.219 -6.43,-31.761 -15.8,-60.652 -15.8,-60.652 0,0 -38.81,-12.027 -101.07,-20.609 -87.1,-11.989 -217.424,-21.7 -327.862,-21.852"
             id="path102"
             style="fill:#231f20;fill-opacity:1;fill-rule:evenodd;stroke:none" /><path
             d="M 777.828,886.469 C 672.641,886.672 523.484,876.391 429.961,857.102 369.211,844.539 320.586,835.07 320.586,835.07 c 0,0 -8.496,-50.379 -9.055,-96.968 -0.719,-60.512 1.246,-116.372 1.246,-116.372 l 926.563,0.211 c 0,0 5.57,63.129 1.87,124.688 -3.7,61.562 -15.73,90.633 -15.73,90.633 0,0 -53.43,10.797 -115.7,23.148 -87.1,17.301 -221.514,25.84 -331.952,26.059"
             id="path104"
             style="fill:#231f20;fill-opacity:1;fill-rule:evenodd;stroke:none" /><path
             d="m 335.512,572.93 77.785,0 0,-123.102 c 0,0 -14.625,-5.758 -49.086,11.152 -32.625,16 -28.699,111.95 -28.699,111.95"
             id="path106"
             style="fill:#ffffff;fill-opacity:1;fill-rule:evenodd;stroke:none" /><path
             d="m 597.258,601.891 0,-199.051"
             id="path108"
             style="fill:none;stroke:#ffffff;stroke-width:13;stroke-linecap:butt;stroke-linejoin:miter;stroke-miterlimit:4;stroke-opacity:1;stroke-dasharray:none" /><path
             d="m 955.559,598.16 0,-192.832"
             id="path110"
             style="fill:none;stroke:#ffffff;stroke-width:13;stroke-linecap:butt;stroke-linejoin:miter;stroke-miterlimit:4;stroke-opacity:1;stroke-dasharray:none" /><path
             d="m 1149.18,576.82 0,-119.39"
             id="path112"
             style="fill:none;stroke:#ffffff;stroke-width:40;stroke-linecap:butt;stroke-linejoin:miter;stroke-miterlimit:4;stroke-opacity:1;stroke-dasharray:none" /><path
             d="m 1140.22,462.43 51.92,0"
             id="path114"
             style="fill:none;stroke:#ffffff;stroke-width:10;stroke-linecap:butt;stroke-linejoin:miter;stroke-miterlimit:4;stroke-opacity:1;stroke-dasharray:none" /><path
             d="m 1214.89,558.352 c 0,0 -2.8,-20.493 -8.8,-40.903 -4.77,-16.23 -11.58,-32.41 -20.63,-38.109"
             id="path116"
             style="fill:none;stroke:#ffffff;stroke-width:10;stroke-linecap:butt;stroke-linejoin:miter;stroke-miterlimit:4;stroke-opacity:1;stroke-dasharray:none" /><path
             d="m 395.895,838.68 0,-124.352 -55.68,0 -11.133,108.57 c 0,0 -4.957,-53.558 -5.879,-100.238 -0.922,-46.68 1.235,-81.648 1.235,-81.648 l 90.945,0 0,197.668 -19.488,0"
             id="path118"
             style="fill:#ffffff;fill-opacity:1;fill-rule:evenodd;stroke:none" /><path
             d="m 1125.28,830.328 3.18,-188.387 49.72,0 0,184.668 -52.9,3.719"
             id="path120"
             style="fill:#ffffff;fill-opacity:1;fill-rule:evenodd;stroke:none" /><path
             d="m 1210.86,774.648 -3.71,-135.488 12.07,9.289 0.93,116.922 -9.29,9.277"
             id="path122"
             style="fill:#ffffff;fill-opacity:1;fill-rule:evenodd;stroke:none" /><path
             d="m 331.531,911.961 c 0,0 6.207,233.859 263.196,404.329 0,0 -89.786,-84.31 -141.559,-186.51 -48.809,-96.34 -58.539,-208.741 -58.539,-208.741 l -63.098,-9.078"
             id="path124"
             style="fill:#231f20;fill-opacity:1;fill-rule:evenodd;stroke:none" /><path
             d="m 409.332,922.379 c 0,0 10.809,191.151 149.613,347.761 0,0 -86.496,-129.99 -96.664,-218.01 -13.41,-117.11 110.68,-106.208 110.68,-106.208 L 409.332,922.379"
             id="path126"
             style="fill:#231f20;fill-opacity:1;fill-rule:evenodd;stroke:none" /><path
             d="m 1089.93,933.918 56.27,-10.359 c 0,0 -7.5,200.601 -142.55,340.931 0,0 63.83,-93.32 87.39,-183.6 19.11,-73.18 -1.11,-146.972 -1.11,-146.972"
             id="path128"
             style="fill:#231f20;fill-opacity:1;fill-rule:evenodd;stroke:none" /><path
             d="m 1179.97,917.91 43.15,-8.492 c 0,0 -1.88,240.172 -257.925,404.032 0,0 97.625,-82.57 149.785,-179.08 55.15,-102.06 64.99,-216.46 64.99,-216.46"
             id="path130"
             style="fill:#231f20;fill-opacity:1;fill-rule:evenodd;stroke:none" /><path
             d="m 1337.35,2492.08 c -33.92,47.99 -77.59,76.55 -122.96,80.4 -28.83,2.45 -72.55,-3.98 -117.07,-48.55 l -120.382,-120.53 0.003,0 -79.324,-79.43 c 0,0 19.531,-54.5 21.664,-60.43 -0.535,0.42 -46.191,35.89 -46.191,35.89 L 772.211,2198.39 570.316,1996.27 677.559,1844.66 522.512,1948.41 418.555,1844.3 540.102,1431.11 675,1566.16 c 0,0 -14.281,45.93 -18.301,58.87 6.16,6.18 6.946,6.96 13.863,13.88 1.102,-0.81 44.516,-32.59 44.516,-32.59 l 127.676,127.8 -0.004,0.01 71.359,71.44 c 0,0 -46.851,66.23 -65.222,92.2 25.054,25.08 86.363,86.46 86.363,86.46 0,0 -60.137,85.02 -62.414,88.24 2.285,2.3 4.703,4.71 6.797,6.8 l 182.047,-125.94 96.66,96.79 -53.11,171.89 93.2,-131.78 132.53,132.72 c 85.02,85.14 56.58,198.18 6.39,269.13"
             id="path132"
             style="fill:#e9e9e9;fill-opacity:1;fill-rule:nonzero;stroke:none" /><path
             d="m 1337.35,2492.08 c -33.92,47.99 -77.59,76.55 -122.96,80.4 -28.83,2.45 -72.55,-3.98 -117.07,-48.55 l -120.382,-120.53 0.003,0 -79.324,-79.43 c 0,0 19.531,-54.5 21.664,-60.43 -0.535,0.42 -46.191,35.89 -46.191,35.89 L 772.211,2198.39 570.316,1996.27 677.559,1844.66 522.512,1948.41 418.555,1844.3 540.102,1431.11 675,1566.16 c 0,0 -14.281,45.93 -18.301,58.87 6.16,6.18 6.946,6.96 13.863,13.88 1.102,-0.81 44.516,-32.59 44.516,-32.59 l 127.676,127.8 -0.004,0.01 71.359,71.44 c 0,0 -46.851,66.23 -65.222,92.2 25.054,25.08 86.363,86.46 86.363,86.46 0,0 -60.137,85.02 -62.414,88.24 2.285,2.3 4.703,4.71 6.797,6.8 l 182.047,-125.94 96.66,96.79 -53.11,171.89 93.2,-131.78 132.53,132.72 c 85.02,85.14 56.58,198.18 6.39,269.13 z"
             id="path134"
             style="fill:none;stroke:#231f20;stroke-width:10;stroke-linecap:butt;stroke-linejoin:miter;stroke-miterlimit:4;stroke-opacity:1;stroke-dasharray:none" /><path
             d="m 576.633,1689.68 50.004,50.08 -85.641,62.38 -0.543,-0.54 36.18,-111.92 z m 34.137,-107.69 -43.172,-43.23 -85.063,289.34 47.266,47.34 224.125,-150.09 -44.539,-44.59 -44.508,32.62 -72.402,-72.5 18.293,-58.89"
             id="path136"
             style="fill:#231f20;fill-opacity:1;fill-rule:nonzero;stroke:none" /><path
             d="m 576.633,1689.68 50.004,50.08 -85.641,62.38 -0.543,-0.54 36.18,-111.92 z m 34.137,-107.69 -43.172,-43.23 -85.063,289.34 47.266,47.34 224.125,-150.09 -44.539,-44.59 -44.508,32.62 -72.402,-72.5 18.293,-58.89 z"
             id="path138"
             style="fill:none;stroke:#231f20;stroke-width:30;stroke-linecap:butt;stroke-linejoin:miter;stroke-miterlimit:4;stroke-opacity:1;stroke-dasharray:none" /><path
             d="m 840.258,1811.8 -40.977,-41.03 -155.019,219.29 139.617,139.81 27.422,-38.78 -98.633,-98.77 34.973,-49.48 86.336,86.46 27.418,-38.8 -86.34,-86.46 65.203,-92.24"
             id="path140"
             style="fill:#231f20;fill-opacity:1;fill-rule:nonzero;stroke:none" /><path
             d="m 840.258,1811.8 -40.977,-41.03 -155.019,219.29 139.617,139.81 27.422,-38.78 -98.633,-98.77 34.973,-49.48 86.336,86.46 27.418,-38.8 -86.34,-86.46 65.203,-92.24 z"
             id="path142"
             style="fill:none;stroke:#231f20;stroke-width:30;stroke-linecap:butt;stroke-linejoin:miter;stroke-miterlimit:4;stroke-opacity:1;stroke-dasharray:none" /><path
             d="m 963.102,2309.36 42.628,42.68 88.34,-286.07 -39.07,-39.13 -221.117,153.1 43.976,44.06 159.511,-124.03 0.55,0.54 -74.818,208.85"
             id="path144"
             style="fill:#231f20;fill-opacity:1;fill-rule:nonzero;stroke:none" /><path
             d="m 963.102,2309.36 42.628,42.68 88.34,-286.07 -39.07,-39.13 -221.117,153.1 43.976,44.06 159.511,-124.03 0.55,0.54 -74.818,208.85 z"
             id="path146"
             style="fill:none;stroke:#231f20;stroke-width:30;stroke-linecap:butt;stroke-linejoin:miter;stroke-miterlimit:4;stroke-opacity:1;stroke-dasharray:none" /><path
             d="m 1219.19,2255.96 39.9,39.95 c 33.32,33.37 17.98,82.18 -7.49,118.2 -45.79,64.76 -77.05,42.32 -94.53,24.81 l -39.34,-39.41 101.46,-143.55 z m -168.39,141.22 86.6,86.72 c 66.12,66.21 124.26,16.98 153.61,-24.57 33.25,-47.03 64.51,-131.53 -0.24,-196.37 l -84.96,-85.1 -155.01,219.32"
             id="path148"
             style="fill:#231f20;fill-opacity:1;fill-rule:nonzero;stroke:none" /><path
             d="m 1219.19,2255.96 39.9,39.95 c 33.32,33.37 17.98,82.18 -7.49,118.2 -45.79,64.76 -77.05,42.32 -94.53,24.81 l -39.34,-39.41 101.46,-143.55 z m -168.39,141.22 86.6,86.72 c 66.12,66.21 124.26,16.98 153.61,-24.57 33.25,-47.03 64.51,-131.53 -0.24,-196.37 l -84.96,-85.1 -155.01,219.32 z"
             id="path150"
             style="fill:none;stroke:#231f20;stroke-width:30;stroke-linecap:butt;stroke-linejoin:miter;stroke-miterlimit:4;stroke-opacity:1;stroke-dasharray:none" /></g></g></g></g></svg>