<?xml version="1.0" encoding="UTF-8" standalone="no"?>
<!-- Generator: Adobe Illustrator 13.0.0, SVG Export Plug-In . SVG Version: 6.00 Build 14948)  -->

<svg
   xmlns:dc="http://purl.org/dc/elements/1.1/"
   xmlns:cc="http://creativecommons.org/ns#"
   xmlns:rdf="http://www.w3.org/1999/02/22-rdf-syntax-ns#"
   xmlns:svg="http://www.w3.org/2000/svg"
   xmlns="http://www.w3.org/2000/svg"
   xmlns:sodipodi="http://sodipodi.sourceforge.net/DTD/sodipodi-0.dtd"
   xmlns:inkscape="http://www.inkscape.org/namespaces/inkscape"
   version="1.0"
   id="Ebene_1"
   x="0px"
   y="0px"
   width="410"
   height="410"
   viewBox="0 0 409.99999 409.99999"
   enable-background="new 0 0 339.6 339.6"
   xml:space="preserve"
   inkscape:version="0.91 r13725"
   sodipodi:docname="Sligo_Rovers_FC.svg"><metadata
     id="metadata143"><rdf:RDF><cc:Work
         rdf:about=""><dc:format>image/svg+xml</dc:format><dc:type
           rdf:resource="http://purl.org/dc/dcmitype/StillImage" /><dc:title></dc:title></cc:Work></rdf:RDF></metadata><defs
     id="defs141" /><sodipodi:namedview
     pagecolor="#ffffff"
     bordercolor="#666666"
     borderopacity="1"
     objecttolerance="10"
     gridtolerance="10"
     guidetolerance="10"
     inkscape:pageopacity="0"
     inkscape:pageshadow="2"
     inkscape:window-width="1920"
     inkscape:window-height="1018"
     id="namedview139"
     showgrid="false"
     fit-margin-top="5"
     fit-margin-left="5"
     fit-margin-bottom="5"
     fit-margin-right="5"
     inkscape:zoom="0.69493521"
     inkscape:cx="174.8"
     inkscape:cy="174.8"
     inkscape:window-x="1358"
     inkscape:window-y="-8"
     inkscape:window-maximized="1"
     inkscape:current-layer="Ebene_1" /><circle
     cx="205"
     cy="205"
     r="200"
     id="circle3"
     style="fill:#c5071b" /><circle
     cx="205"
     cy="205"
     r="192.58891"
     id="circle5"
     style="fill:#ffffff" /><circle
     cx="205"
     cy="205"
     r="137.44994"
     id="circle7"
     style="fill:#c5071b" /><circle
     cx="205"
     cy="205"
     r="133.89282"
     id="circle9"
     style="fill:#ffffff" /><polygon
     points="65.104,239.637 56.574,224.469 31.055,238.815 31.302,239.254 32.725,241.786 44.499,235.168 50.733,246.256 53.598,244.647 47.362,233.559 55.383,229.05 62.241,241.247 "
     id="polygon11"
     transform="matrix(1.1778563,0,0,1.1778563,5,4.9999999)"
     style="fill:#c5071b" /><path
     d="m 95.747937,308.08244 c 0.0024,-3.00707 -1.061248,-6.01413 -3.371025,-8.75972 -2.759717,-3.2921 -6.345111,-4.80683 -10.108362,-4.80094 -4.387515,0.002 -9.003534,2.01178 -13.073027,5.45819 -4.731449,3.97644 -7.764429,9.03062 -7.771496,14.15665 -0.0024,2.9576 1.031802,5.91637 3.290931,8.59953 2.839811,3.38869 6.457008,4.93168 10.222614,4.93168 0.0071,0 0.01531,0 0.02238,0 4.386336,-0.004 8.951707,-2.02709 12.969375,-5.40047 4.789164,-4.03062 7.812721,-9.0636 7.81861,-14.18492 z m -3.925795,-0.0754 c 0.0035,3.5901 -2.138987,7.53946 -6.477032,11.18374 -3.295641,2.77268 -7.065959,4.55831 -10.493521,4.55124 -2.631331,-0.007 -5.071849,-1.00353 -7.149588,-3.46408 -1.661955,-1.98468 -2.359246,-4.02473 -2.362779,-6.08009 -0.0094,-3.8775 2.579505,-7.90577 6.441696,-11.14605 3.288574,-2.7715 7.115429,-4.57126 10.585394,-4.57126 0.0059,0 0.01178,0 0.01767,0 2.624264,0.006 5.04947,0.98468 7.08245,3.39222 1.592461,1.89988 2.352179,3.96702 2.355712,6.13428 z"
     id="path13"
     inkscape:connector-curvature="0"
     style="fill:#c5071b" /><path
     d="m 115.13074,321.20965 c -2.52415,-1.95524 -5.28504,-2.85984 -8.04711,-2.85748 -5.29211,0.007 -10.510016,3.26266 -14.465257,8.42285 -3.070671,3.97291 -4.890459,8.39458 -4.892815,12.6066 -0.0082,3.96937 1.658422,7.74322 5.342756,10.58068 2.611307,2.02002 5.424028,2.95053 8.216726,2.95053 0.004,0 0.007,0 0.0118,0 5.30742,-0.007 10.44994,-3.2874 14.35689,-8.33922 3.10836,-4.02592 4.9305,-8.4417 4.93286,-12.64665 0.009,-4.01649 -1.70318,-7.82567 -5.45583,-10.71731 z m 1.51708,10.66313 c 0.002,3.07067 -1.35925,6.60778 -4.17197,10.245 -3.15076,4.08127 -7.25206,6.90577 -11.26619,6.89281 -1.918731,-0.002 -3.844526,-0.61837 -5.743231,-2.08363 -2.707891,-2.10483 -3.800942,-4.66195 -3.810365,-7.46172 -0.0047,-3.29682 1.592462,-6.94346 4.142521,-10.23675 3.140165,-4.07538 7.314485,-6.93875 11.361605,-6.93875 0.009,0 0.02,0 0.0294,0 1.89871,0.001 3.79388,0.60542 5.64311,2.03181 2.56184,1.98939 3.80801,4.56301 3.81508,7.55123 z"
     id="path15"
     inkscape:connector-curvature="0"
     style="fill:#c5071b" /><polygon
     points="109.956,283.84 98.166,307 101.204,308.548 112.996,285.387 120.175,289.042 121.665,286.116 104.266,277.26 104.038,277.709 102.777,280.186 "
     id="polygon17"
     transform="matrix(1.1778563,0,0,1.1778563,5,4.9999999)"
     style="fill:#c5071b" /><path
     d="m 162.02827,346.43933 -10.91638,-3.33687 -10.0848,32.97173 0.56655,0.17433 11.70435,3.57832 c 1.47586,0.44759 2.90813,0.70554 4.27091,0.70554 0.0306,0 0.0624,0 0.0942,0 3.79152,0 6.98233,-2.20259 8.47468,-7.2179 0.36395,-1.19317 0.55477,-2.35336 0.55477,-3.45937 0.0141,-2.38044 -0.91755,-4.51472 -2.80095,-6.00353 2.2026,-0.43345 4.39459,-2.18846 5.47704,-5.79859 0.33097,-1.08716 0.51354,-2.15076 0.51354,-3.18139 0.0236,-3.7232 -2.4629,-6.82096 -7.85394,-8.43227 z m -1.63958,29.15783 c -0.74794,0.65253 -1.62309,0.93286 -2.82332,0.93758 -1.36043,0.004 -3.1013,-0.39576 -5.245,-1.05301 l -6.31919,-1.93168 3.52179,-11.51355 6.63722,2.02945 c 2.05535,0.62544 3.7338,1.32509 4.84687,2.22026 1.10954,0.90224 1.68552,1.92344 1.6973,3.46054 0,0.68551 -0.12604,1.47939 -0.40519,2.39458 -0.52297,1.70318 -1.16254,2.80094 -1.91048,3.45583 z m 0.27562,-14.68198 c -1.02003,0 -2.2556,-0.20612 -3.73145,-0.65724 l -6.27915,-1.91873 3.16961,-10.36396 5.68316,1.73852 c 2.33568,0.71143 3.96937,1.47114 4.96584,2.3086 0.99293,0.8457 1.38751,1.69611 1.39929,2.86101 0.001,0.58069 -0.11307,1.245 -0.34276,1.99882 -0.87396,2.68905 -2.11778,3.99294 -4.86454,4.03298 z"
     id="path19"
     inkscape:connector-curvature="0"
     style="fill:#c5071b" /><path
     d="m 186.87986,351.68786 -15.86926,32.95759 0.83392,0.0919 3.32038,0.36278 4.65017,-10.00707 12.72085,1.38751 2.29918,10.76561 4.14841,0.4523 -8.08128,-35.57126 -4.02237,-0.43934 z m 4.73144,20.80212 -10.02826,-1.09423 6.64428,-14.38987 3.38398,15.4841 z"
     id="path21"
     inkscape:connector-curvature="0"
     style="fill:#c5071b" /><polygon
     points="172.622,324.669 189.137,323.64 188.932,320.362 175.318,321.209 173.702,295.269 170.298,295.48 172.118,324.7 "
     id="polygon23"
     transform="matrix(1.1778563,0,0,1.1778563,5,4.9999999)"
     style="fill:#c5071b" /><polygon
     points="197.12,322.292 213.262,318.66 212.539,315.455 199.234,318.449 193.524,293.093 190.198,293.84 196.629,322.402 "
     id="polygon25"
     transform="matrix(1.1778563,0,0,1.1778563,5,4.9999999)"
     style="fill:#c5071b" /><path
     d="m 297.25559,348.59363 -3.66784,1.96584 0.13427,0.46054 c 0.41107,1.42521 0.62662,2.82332 0.62662,4.14135 -0.013,3.32155 -1.32273,6.07773 -4.3722,7.72791 -1.58775,0.84806 -3.06596,1.21084 -4.45112,1.21202 -4.58775,0.0294 -8.49352,-4.1331 -11.15783,-9.11897 -1.67256,-3.11425 -2.66431,-6.34158 -2.66314,-9.18139 0.0177,-3.36396 1.32156,-6.15076 4.57951,-7.91519 1.71731,-0.92109 3.28857,-1.39458 4.755,-1.39223 2.24971,0.005 4.35336,1.08716 6.55124,3.71378 l 0.3086,0.37103 0.42756,-0.22615 3.16726,-1.69965 -0.40283,-0.55006 c -2.7232,-3.7444 -6.22261,-5.61719 -9.89635,-5.6113 -2.02002,0 -4.07656,0.55948 -6.07774,1.63251 -4.53357,2.40989 -7.55123,6.31802 -7.53946,11.73144 0.002,3.19435 1.02827,6.87986 3.29447,11.10601 3.41343,6.36042 8.38516,11.19199 14.42049,11.21201 1.94347,0 3.97056,-0.51236 6.03416,-1.61955 5.12485,-2.72909 7.07774,-6.97408 7.05772,-11.43109 0,-1.92344 -0.34629,-3.89046 -0.92109,-5.83039 l -0.2073,-0.69847 z"
     id="path27"
     inkscape:connector-curvature="0"
     style="fill:#c5071b" /><polygon
     points="260.634,295.278 273.582,284.972 271.536,282.405 260.863,290.897 244.68,270.56 242.011,272.682 260.239,295.591 "
     id="polygon29"
     transform="matrix(1.1778563,0,0,1.1778563,5,4.9999999)"
     style="fill:#c5071b" /><path
     d="m 340.28739,307.2497 -16.06125,-14.07421 -2.64664,3.01885 15.36396,13.46643 c 3.53474,3.09187 5.27915,5.76914 5.26737,8.26855 -10e-4,1.64193 -0.72085,3.32273 -2.34511,5.17903 -1.82803,2.07303 -3.59835,3.03181 -5.55477,3.03534 -2.24028,0.008 -4.90813,-1.31096 -8.15901,-4.16726 l -15.36514,-13.46407 -2.64664,3.01884 0.44641,0.39223 15.61484,13.68551 c 3.32862,2.91637 6.66313,4.50766 9.91401,4.51119 0.004,0 0.008,0 0.0118,0 3.11072,0 6.05654,-1.4947 8.64782,-4.46054 2.23911,-2.55359 3.38045,-5.21908 3.38045,-7.90695 -0.005,-3.63369 -2.06478,-7.17079 -5.86808,-10.50294 z"
     id="path31"
     inkscape:connector-curvature="0"
     style="fill:#c5071b" /><path
     d="m 360.15783,280.92343 c -1.73499,-1.00589 -3.4947,-1.5583 -5.19082,-1.55948 -1.63015,-0.004 -3.18963,0.52414 -4.53945,1.60071 0.002,-0.0742 0.005,-0.14841 0.005,-0.22262 0.008,-2.19788 -1.24735,-4.61602 -4.40283,-6.43345 -1.57244,-0.91284 -3.17786,-1.43699 -4.78092,-1.43699 -3.01884,-0.006 -5.8563,1.8834 -8.19906,5.94347 l -5.73262,9.87161 29.82214,17.31802 0.298,-0.51354 6.14252,-10.58304 c 1.19081,-2.05418 1.91637,-4.11308 1.91637,-6.12368 0.0141,-2.97526 -1.64664,-5.73616 -5.33804,-7.86101 z m -18.10483,11.67609 -9.37456,-5.4417 2.98351,-5.14016 c 2.12485,-3.66549 3.8351,-5.12957 5.5689,-5.12957 0.0141,0 0.0271,0 0.0401,0 0.79623,-10e-4 1.69258,0.28505 2.74323,0.89518 1.99058,1.1755 2.98115,2.44405 2.99293,4.28739 0.002,1.25442 -0.49352,2.84806 -1.65606,4.85159 l -3.298,5.67727 z m 13.75736,7.98822 -10.41343,-6.04594 3.4841,-6.00235 c 1.88339,-3.2556 3.65253,-5.21437 5.89399,-5.21437 0.0141,0 0.0283,0 0.0436,10e-4 0.92933,0 2.01767,0.31331 3.32156,1.07067 2.50765,1.47585 3.34747,2.77149 3.35924,4.37456 0.0118,1.5265 -0.86454,3.51825 -2.37102,6.10129 l -3.31802,5.71496 z"
     id="path33"
     inkscape:connector-curvature="0"
     style="fill:#c5071b" /><path
     d="m 48.55477,138.14841 c 4.432273,-0.0177 7.447585,-3.28387 10.183745,-6.34394 2.745583,-3.11072 5.260306,-5.98468 8.286219,-5.94582 0.888104,0.001 1.855124,0.22851 2.948174,0.78563 2.420495,1.245 4.050648,3.30978 4.057715,6.13428 0,1.31802 -0.361602,2.8245 -1.219081,4.51001 -1.69258,3.2874 -4.093051,5.33805 -7.551237,5.34629 -1.339222,0 -2.856301,-0.31331 -4.570082,-1.02591 l -0.507656,-0.21084 -0.24735,0.48881 -1.706714,3.35336 0.526502,0.26855 c 2.339222,1.19081 4.583039,1.75501 6.674911,1.75501 0.0047,0 0.0094,0 0.01414,0 4.749116,0 8.599528,-2.93287 10.921083,-7.51944 1.309776,-2.57597 1.968198,-5.04122 1.968198,-7.32273 0.01413,-4.18375 -2.269729,-7.68905 -6.482921,-9.81508 -1.946996,-0.99057 -3.706714,-1.42874 -5.315665,-1.42874 -4.492344,0.0177 -7.491166,3.33569 -10.182568,6.44288 -2.698469,3.16136 -5.149588,6.07302 -8.120141,6.0318 -0.552415,0 -1.135454,-0.0931 -1.766785,-0.30271 -2.495877,-0.85512 -4.555948,-3.01885 -4.559481,-6.17197 0,-1.2815 0.343934,-2.74676 1.174323,-4.37927 1.366313,-2.67137 3.658421,-4.55594 6.583038,-4.55594 1.189635,0 2.504123,0.31095 3.93993,1.04122 l 0.528857,0.26973 1.952886,-3.8351 -0.522968,-0.27091 c -1.93404,-1.00471 -3.984688,-1.55006 -6.008245,-1.55006 -4.010601,-0.0118 -7.876325,2.19082 -10.287397,6.95996 -1.159011,2.27326 -1.681979,4.46054 -1.681979,6.46878 -0.0047,4.28151 2.387515,7.71261 5.803298,9.44406 1.881037,0.95524 3.594817,1.37809 5.167256,1.37809 z"
     id="path35"
     inkscape:connector-curvature="0"
     style="fill:#c5071b" /><polygon
     points="43.073,77.129 40.75,80.109 67.264,100.786 67.573,100.389 79.264,85.396 76.398,83.16 66.721,95.571 "
     id="polygon37"
     transform="matrix(1.1778563,0,0,1.1778563,5,4.9999999)"
     style="fill:#c5071b" /><polygon
     points="82.967,82.254 83.33,81.905 85.691,79.633 62.375,55.405 59.651,58.026 "
     id="polygon39"
     transform="matrix(1.1778563,0,0,1.1778563,5,4.9999999)"
     style="fill:#c5071b" /><path
     d="m 115.82214,88.328621 c 2.82215,0 5.55831,-0.897527 8.05536,-2.574794 5.00589,-3.340401 6.87044,-7.424028 6.8775,-11.86808 l 2.79035,4.151943 3.29681,-2.213192 -11.73027,-17.461719 -13.26266,8.908127 2.38516,3.55477 0.49235,-0.330978 9.18374,-6.169611 c 1.38398,2.209659 2.41225,4.383981 2.78563,6.693757 0.11308,0.683157 0.16608,1.338045 0.16608,1.964665 0,4.096584 -2.24382,7.10954 -4.8139,8.839811 -1.89399,1.270907 -3.88104,1.836278 -5.87868,1.837456 -4.61249,0.0094 -9.351,-3.085983 -12.57126,-7.88457 -3.04829,-4.534747 -4.75854,-8.857479 -4.753829,-12.573616 0.01178,-3.593639 1.533569,-6.646643 5.120139,-9.071849 1.7821,-1.196702 3.80448,-1.825677 5.84688,-1.825677 2.60306,0.0024 5.23675,1.015312 7.4735,3.233215 l 0.34511,0.342757 3.78328,-2.541814 -0.4947,-0.510012 c -3.30742,-3.411072 -7.04241,-5.008245 -10.77739,-5.004711 -3.0106,0 -5.99764,1.029446 -8.76325,2.886925 -4.888103,3.268552 -7.09305,7.790342 -7.083628,12.67609 0.0024,4.435806 1.769141,9.155476 4.804476,13.673733 5.144872,7.661955 11.045932,11.26384 16.723202,11.267374 z"
     id="path41"
     inkscape:connector-curvature="0"
     style="fill:#c5071b" /><path
     d="m 151.00353,70.135452 c 1.77503,0 3.62898,-0.321555 5.53239,-1.001178 7.24971,-2.566548 10.55831,-8.711425 10.53475,-15.712602 0,-3.042403 -0.60542,-6.257951 -1.74676,-9.46172 -3.10954,-8.749116 -9.26502,-15.017667 -17.21084,-15.025912 -1.82096,0 -3.72556,0.332155 -5.68669,1.031802 -7.0424,2.493522 -10.36985,8.624264 -10.34864,15.674911 0,3.056537 0.60895,6.29682 1.77974,9.53828 3.06242,8.618375 9.22968,14.945819 17.14605,14.956419 z M 136.5159,45.491165 c 0.0247,-5.249705 2.12485,-9.616018 7.43581,-11.525323 1.37691,-0.492344 2.71967,-0.727915 4.01766,-0.727915 5.44877,-0.0047 10.29447,4.207302 13.16137,12.216725 0.98351,2.759717 1.5371,5.566549 1.5371,8.168433 -0.0271,5.217903 -2.13899,9.522968 -7.52414,11.46172 -1.42874,0.510011 -2.77975,0.742049 -4.05301,0.742049 -5.96937,0.02002 -10.56419,-5.196702 -13.04358,-12.146054 -0.97997,-2.746761 -1.53121,-5.565371 -1.53121,-8.189635 z"
     id="path43"
     inkscape:connector-curvature="0"
     style="fill:#c5071b" /><path
     d="m 215.26973,43.277974 c 1.02944,0.605418 1.7762,1.584216 2.09305,3.558303 0.21083,1.380448 0.18963,3.926973 0.26619,6.434629 0.0883,2.525324 0.23557,4.994111 0.94935,6.524146 l 0.15548,0.325088 4.55477,0.133098 0.0353,-1.236749 -0.19906,-0.183746 c -0.55713,-0.447585 -1.03063,-1.85159 -1.0106,-7.237926 0,-0.171967 0,-0.345112 10e-4,-0.524146 0,-0.206125 0.001,-0.413428 0.001,-0.624264 -0.001,-1.972909 -0.0648,-4.104829 -0.64546,-6.003534 -0.46525,-1.541814 -1.3192,-2.954063 -2.75383,-3.890459 3.46054,-1.879859 5.08598,-4.681979 5.17668,-9.223792 0.002,-0.177857 0.006,-0.348646 0.006,-0.524147 0.007,-3.478209 -1.07421,-6.123674 -3.17668,-7.859834 -2.09658,-1.733805 -5.1013,-2.538281 -8.87279,-2.650177 l -14.12839,-0.41225 -1.15547,39.588927 4.44994,0.130743 0.50883,-17.442874 9.67845,0.283863 c 1.60188,0.04358 3.02944,0.23086 4.06596,0.835101 z m -13.61956,-5.39576 0.39694,-13.590106 9.77503,0.285041 c 2.08127,0.05772 4.02002,0.449941 5.37927,1.409894 1.34982,0.961131 2.2285,2.441696 2.24028,5.043581 0,0.108363 -0.001,0.219081 -0.004,0.333333 -0.0801,2.47821 -0.93522,4.117786 -2.28269,5.201414 -1.34982,1.080094 -3.26619,1.60424 -5.49587,1.603062 -0.14252,0 -0.28505,-0.0012 -0.42874,-0.0047 l -9.58069,-0.281508 z"
     id="path45"
     inkscape:connector-curvature="0"
     style="fill:#c5071b" /><path
     d="m 252.90812,25.40636 c -1.44405,-0.387515 -2.85159,-0.572438 -4.21083,-0.572438 -8.38045,0.0106 -14.67609,7 -17.15312,16.465253 -0.6973,2.60424 -1.05772,5.190813 -1.05772,7.660777 -0.0294,7.803298 3.702,14.552414 11.81037,16.70318 1.51354,0.404005 2.97762,0.598351 4.38751,0.598351 8.51708,-0.0106 14.66431,-7.047114 17.13663,-16.336867 0.70671,-2.654888 1.07538,-5.269729 1.07538,-7.758539 0.0294,-7.87868 -3.77856,-14.58775 -11.98822,-16.759717 z m 7.57951,16.566549 c 0,2.071849 -0.31449,4.353357 -0.96938,6.80212 -1.98586,7.393403 -6.46996,13.221436 -12.8987,13.200235 -1.00118,0 -2.05772,-0.138987 -3.17197,-0.435807 -6.11072,-1.656066 -8.5159,-6.43934 -8.55006,-12.374558 0,-2.147232 0.33334,-4.427562 0.947,-6.718492 1.9682,-7.360424 6.53946,-13.301531 12.93757,-13.301531 0.0141,0 0.0271,0 0.04,0 0.97291,0 1.99647,0.134276 3.07185,0.421673 5.57479,1.512367 8.56419,5.89517 8.59364,12.40636 z"
     id="path47"
     inkscape:connector-curvature="0"
     style="fill:#c5071b" /><polygon
     points="232.109,25.212 231.985,25.885 225.674,59.849 229.031,61.625 254.041,36.813 250.548,34.965 230.108,55.568 235.603,27.059 "
     id="polygon49"
     transform="matrix(1.1778563,0,0,1.1778563,5,4.9999999)"
     style="fill:#c5071b" /><polygon
     points="253.146,58.552 264.852,68.133 267.154,65.32 255.447,55.74 262.271,47.405 275.239,58.018 277.541,55.206 261.648,42.2 240.351,68.217 240.739,68.537 256.559,81.483 258.86,78.67 245.577,67.799 "
     id="polygon51"
     transform="matrix(1.1778563,0,0,1.1778563,5,4.9999999)"
     style="fill:#c5071b" /><path
     d="m 312.92226,107.48056 13.58775,-10.94817 6.07773,7.54063 c 1.20966,1.49353 2.08245,2.91402 2.07185,4.32863 0,0.95524 -0.36395,1.98586 -1.40636,3.20494 -0.91401,1.05536 -2.86337,2.69729 -4.71967,4.38398 -1.86219,1.70672 -3.64075,3.42286 -4.34158,4.96114 l -0.14723,0.33097 2.85984,3.54771 0.96466,-0.77739 0.008,-0.26973 c 0.0165,-0.39105 0.16961,-0.8669 0.93757,-1.77738 0.7609,-0.89989 2.09776,-2.1649 4.30742,-4.03534 2.61602,-2.2391 5.79623,-4.93875 5.8351,-8.62308 0,-0.26384 -0.0177,-0.53122 -0.053,-0.80212 1.27562,0.48527 2.48645,0.74558 3.68433,0.74558 2.25677,0.002 4.38634,-0.93758 6.6914,-2.79741 2.87515,-2.30742 4.3192,-4.91284 4.31449,-7.727915 -0.005,-2.760895 -1.351,-5.608952 -3.75383,-8.595995 l -8.87043,-11.004711 -30.84099,24.851591 2.7927,3.46407 z m 27.50765,-22.164896 6.13663,7.613663 c 1.4417,1.783275 2.45583,3.694935 2.44877,5.502945 -0.006,1.544169 -0.68552,3.095408 -2.65136,4.693758 -1.54063,1.23793 -3.00235,1.74794 -4.38398,1.74794 -2.19317,0.005 -4.31449,-1.32274 -6.12014,-3.56302 l -6.01649,-7.465251 10.58657,-8.530035 z"
     id="path53"
     inkscape:connector-curvature="0"
     style="fill:#c5071b" /><path
     d="m 370.68551,120.75854 c -2.51826,-4.97056 -6.51944,-7.22968 -10.42168,-7.22026 -1.68786,0 -3.351,0.41578 -4.8669,1.18728 -4.5371,2.27326 -5.9199,5.69847 -5.88928,9.18963 0.0153,4.33098 1.88457,8.9152 1.8669,12.52297 -0.0306,2.45465 -0.73616,4.33098 -3.44405,5.73969 -1.16137,0.59011 -2.3828,0.91638 -3.5795,0.91638 -2.44641,-0.013 -4.8622,-1.31567 -6.69494,-4.8834 -0.84923,-1.66549 -1.32391,-3.3192 -1.32155,-4.88692 0.0106,-2.70083 1.351,-5.23675 4.96348,-7.45701 l 0.46879,-0.28504 -0.24853,-0.48999 -1.70789,-3.35453 -0.5265,0.26972 c -5.06125,2.55595 -7.47232,6.55006 -7.45937,10.88575 0,2.21555 0.61367,4.50412 1.75619,6.74559 2.58304,5.106 6.4146,7.91519 10.79152,7.91519 0.004,0 0.007,0 0.0118,0 1.84687,0 3.77031,-0.49588 5.70789,-1.48174 4.60895,-2.31331 6.03651,-5.73381 6.00706,-9.21555 -0.0177,-4.45583 -2.07538,-9.15548 -2.05536,-12.78563 0.0153,-1.99882 0.54889,-3.57479 2.30507,-4.84335 1.14016,-0.80801 2.53003,-1.29564 3.95171,-1.29446 2.3192,0.0106 4.76678,1.25206 6.57126,4.76561 0.67373,1.32626 1.05536,2.74087 1.05536,4.10483 -0.0165,2.48056 -1.19906,4.82096 -4.40872,6.47349 l -0.52768,0.26855 1.94935,3.8351 0.52768,-0.26266 c 4.05536,-2.01649 6.82804,-5.66549 6.8245,-10.18374 -0.001,-1.93758 -0.50883,-4.01885 -1.60659,-6.1755 z"
     id="path55"
     inkscape:connector-curvature="0"
     style="fill:#c5071b" /><polygon
     points="130.006,258.57 137.866,258.571 137.866,256.899 128.202,256.899 128.202,271.898 128.455,271.898 138.059,271.898 138.059,270.226 130.006,270.226 130.006,264.972 137.102,264.972 137.102,263.301 130.006,263.301 "
     id="polygon57"
     transform="matrix(1.1778563,0,0,1.1778563,5,4.9999999)"
     style="fill:#c5071b" /><path
     d="m 176.40282,315.39104 c -1.20259,-0.29329 -2.40636,-0.51826 -3.31802,-0.92344 -0.91401,-0.41578 -1.50412,-0.94582 -1.66666,-1.93286 -0.0236,-0.15195 -0.0365,-0.30389 -0.0365,-0.45819 0.02,-1.4629 1.01649,-2.947 3.70789,-2.96937 1.97998,0.0283 3.67492,0.99528 3.69141,3.42756 l 0,0.29564 2.06596,0 -0.0106,-0.30507 c 0,-0.0106 0,-0.0224 0,-0.0424 0.001,-1.44052 -0.47938,-2.78209 -1.45111,-3.76443 -0.97056,-0.98115 -2.4205,-1.5795 -4.29565,-1.57832 -1.87279,-10e-4 -3.32626,0.57243 -4.30859,1.47703 -0.98234,0.90459 -1.48528,2.13192 -1.4841,3.39576 -0.0118,3.55477 2.71496,4.47114 5.16725,5.06478 1.24382,0.31095 2.46054,0.58068 3.32862,1.06831 0.86337,0.49824 1.38163,1.13075 1.39341,2.35572 -0.0271,1.73734 -1.04123,3.20966 -3.82568,3.23675 -2.39929,-0.033 -4.10365,-0.98469 -4.36867,-3.90106 l -0.0224,-0.27209 -0.27208,0 -1.78328,0 0,0.29682 c -0.002,1.91402 0.65607,3.39929 1.77268,4.38398 1.1166,0.98469 2.66195,1.46172 4.404,1.46172 1.91637,-10e-4 3.47114,-0.47467 4.55595,-1.38633 1.08481,-0.90931 1.66902,-2.25796 1.66549,-3.88929 0.0153,-3.4947 -2.52886,-4.4841 -4.90931,-5.04122 z"
     id="path59"
     inkscape:connector-curvature="0"
     style="fill:#c5071b" /><polygon
     points="156.498,271.897 156.498,258.571 160.858,258.571 160.858,256.899 150.333,256.899 150.333,257.152 150.333,258.571 154.693,258.571 154.693,271.897 "
     id="polygon61"
     transform="matrix(1.1778563,0,0,1.1778563,5,4.9999999)"
     style="fill:#c5071b" /><polygon
     points="162.403,269.623 162.403,271.897 162.655,271.897 164.302,271.897 164.302,269.623 "
     id="polygon63"
     transform="matrix(1.1778563,0,0,1.1778563,5,4.9999999)"
     style="fill:#c5071b" /><path
     d="m 214.70553,310.27796 c -0.21672,1.21084 -0.61955,1.78092 -1.20966,2.1225 -0.59364,0.34511 -1.45936,0.44759 -2.56537,0.51708 l -0.27562,0.0177 0,1.44641 3.77621,0 0,10.87397 1.92226,0 0,-15.22262 -1.60542,0 -0.0424,0.24499 z"
     id="path65"
     inkscape:connector-curvature="0"
     style="fill:#c5071b" /><path
     d="m 225.55948,310.03061 c -1.66078,-0.002 -2.9364,0.54771 -3.77503,1.48175 -0.83864,0.93286 -1.23322,2.2179 -1.23204,3.65135 -0.001,1.48292 0.46761,2.74087 1.31684,3.62662 0.84688,0.88693 2.06714,1.38163 3.50413,1.38045 1.49705,0.005 2.72556,-0.58304 3.63133,-1.63722 -0.0907,1.08952 -0.27798,2.26384 -0.69847,3.21672 -0.55477,1.22969 -1.40401,2.07068 -3.01531,2.08245 -1.50884,-0.0259 -2.23322,-0.68669 -2.55242,-2.14723 l -0.0471,-0.24028 -0.24382,0 -1.67491,0 0.0306,0.32509 c 0.2238,2.52061 2.14017,3.77738 4.48057,3.77738 0.0236,0 0.0459,0 0.0695,0 1.62898,0.004 3.06714,-0.69022 4.06361,-2.02591 0.99764,-1.33333 1.56537,-3.28033 1.56772,-5.8033 -0.002,-2.07302 -0.29446,-3.96584 -1.1272,-5.37809 -0.82686,-1.41814 -2.24382,-2.31802 -4.298,-2.30978 z m 2.98351,5.09188 c -0.0165,1.85983 -1.09188,3.32744 -2.98351,3.33451 -2.00236,-0.0283 -3.05536,-1.14488 -3.08599,-3.25088 l -0.001,0 c 0.0353,-2.18964 0.99646,-3.39223 3.09187,-3.46055 1.88575,0.0554 2.95524,1.32745 2.9788,3.37692 z"
     id="path67"
     inkscape:connector-curvature="0"
     style="fill:#c5071b" /><path
     d="m 236.0318,321.1272 c 2.05182,-1.60189 6.45347,-2.60071 6.48881,-6.7503 0,-1.18963 -0.41696,-2.28621 -1.23793,-3.07773 -0.81861,-0.7927 -2.02945,-1.26738 -3.56184,-1.2662 -1.50765,-10e-4 -2.78091,0.50295 -3.66902,1.40401 -0.88928,0.8987 -1.38045,2.18139 -1.38045,3.68669 l 0,0.29564 0.29682,0 1.7291,0 -0.0212,-0.31802 c -0.004,-0.0483 -0.004,-0.0978 -0.004,-0.15195 0.005,-1.7656 1.21555,-3.20023 2.88222,-3.20377 1.69022,0.0212 2.90812,0.97056 2.9199,2.71261 -0.007,1.58304 -0.87986,2.31331 -2.26384,3.18374 -1.37338,0.85041 -3.19199,1.74087 -4.76207,3.55477 -0.99293,1.14135 -1.19552,2.351 -1.21201,3.75854 l -0.006,0.30153 10.1649,0 0,-1.71496 -8.12604,0 c 0.16137,-1.06949 0.89635,-1.75147 1.76208,-2.4146 z"
     id="path69"
     inkscape:connector-curvature="0"
     style="fill:#c5071b" /><path
     d="m 251.76678,317.14251 c 1.11425,-0.73616 1.6384,-1.85748 1.62544,-3.24264 0.005,-1.34393 -0.60071,-2.34982 -1.4947,-2.96937 -0.89281,-0.62427 -2.05536,-0.89635 -3.22026,-0.89753 -0.0506,-0.005 -0.11425,-0.004 -0.16843,-0.004 -2.36514,0.004 -4.29446,1.71496 -4.30153,3.87043 -0.0247,1.61602 0.58657,2.39341 1.7126,3.15195 -1.44876,0.77149 -2.23675,2.22614 -2.23086,3.88221 0.004,3.06125 2.62898,4.61013 4.86337,4.61366 1.60542,-10e-4 2.96349,-0.40753 3.93051,-1.21672 0.96937,-0.80801 1.5159,-2.0212 1.51236,-3.52179 0.005,-1.61367 -0.85159,-2.95524 -2.2285,-3.66667 z m -2.90342,0.95406 c 1.86573,0.0259 3.19671,0.88222 3.21084,2.75501 -0.008,1.78445 -1.33333,2.96938 -3.12603,2.98115 -2.09776,-0.0141 -3.32509,-1.26148 -3.33687,-2.8987 0.0212,-1.98822 1.29918,-2.80448 3.25206,-2.83746 z m 0.0836,-1.71378 c -1.54535,-0.0247 -2.8139,-0.69846 -2.81743,-2.29682 0.0106,-1.54299 1.13074,-2.31684 2.67138,-2.33922 1.93993,0.0401 2.64075,0.73381 2.67138,2.04829 -0.0342,1.93875 -1.02474,2.54888 -2.52533,2.58775 z"
     id="path71"
     inkscape:connector-curvature="0"
     style="fill:#c5071b" /><path
     d="m 204.79976,304.37219 c -34.8881,-12.5265 -60.37102,-38.57361 -73.51001,-88.10247 l 0,0 c -6.8033,-25.63604 -9.93286,-76.63015 -9.9364,-76.64899 l 0,0 -0.053,-0.86219 0.82332,0.2603 c 0.0177,0.004 7.57597,2.39341 16.57715,4.78563 l 0,0 c 8.99176,2.39341 19.44994,4.77974 25.02474,4.77268 l 0,0 c 11.62779,0.013 28.93286,-6.96113 36.80447,-10.45466 l 0,0 c 2.6278,-1.16254 4.20495,-1.93404 4.20966,-1.93639 l 0,0 0.25913,-0.12721 0.26148,0.12721 c 0.004,0.002 1.58069,0.77385 4.20966,1.93639 l 0,0 c 2.6278,1.16255 6.298,2.71496 10.45583,4.2662 l 0,0 c 8.31096,3.10483 18.60424,6.19317 26.34747,6.18846 l 0,0 c 5.57597,0.006 16.03416,-2.38045 25.02356,-4.77268 l 0,0 c 9.00117,-2.39222 16.56183,-4.77974 16.57832,-4.78563 l 0,0 0.82215,-0.26148 -0.0518,0.86337 c -0.004,0.02 -3.13074,51.01413 -9.93757,76.64899 l 0,0 c -13.13546,49.52886 -38.61956,75.57597 -73.50884,88.10247 l 0,0 -0.20141,0.0719 -0.19788,-0.0719 0,0 z"
     id="path73"
     inkscape:connector-curvature="0"
     style="fill:#c5071b;stroke:#000000;stroke-width:2.12014127" /><path
     d="m 158.89399,154.83039 0,12.21907 -0.96466,0 c -0.31214,-2.34511 -0.8728,-4.21201 -1.68081,-5.6007 -0.808,-1.38987 -1.95877,-2.49234 -3.45229,-3.30978 -1.4947,-0.81625 -3.04005,-1.22497 -4.6384,-1.22497 -1.80683,0 -3.30035,0.55124 -4.48174,1.65489 -1.18139,1.10365 -1.7715,2.35807 -1.7715,3.76443 0,1.07774 0.37338,2.05889 1.12132,2.94464 1.07656,1.30271 3.6384,3.04004 7.68551,5.21083 3.30036,1.7715 5.55359,3.13075 6.76208,4.07656 1.2073,0.947 2.13545,2.06243 2.78798,3.34865 0.65136,1.28504 0.97762,2.63133 0.97762,4.03887 0,2.67491 -1.03769,4.98115 -3.11425,6.91755 -2.07538,1.93757 -4.74558,2.90577 -8.01178,2.90577 -1.02591,0 -1.9894,-0.0777 -2.89281,-0.23439 -0.53828,-0.0872 -1.65489,-0.40401 -3.34865,-0.95171 -1.69376,-0.54653 -2.76561,-0.82097 -3.21672,-0.82097 -0.43463,0 -0.77739,0.13074 -1.02945,0.39105 -0.25206,0.26031 -0.43934,0.79859 -0.56066,1.61602 l -0.96349,0 0,-12.11543 0.96349,0 c 0.4523,2.53592 1.05889,4.43345 1.82332,5.69258 0.76443,1.25913 1.93286,2.30624 3.5053,3.13899 1.57126,0.83392 3.29564,1.25088 5.17197,1.25088 2.17079,0 3.88575,-0.57362 5.14605,-1.71967 1.26031,-1.14605 1.88928,-2.50177 1.88928,-4.06478 0,-0.86808 -0.2391,-1.74559 -0.71613,-2.63133 -0.47821,-0.88575 -1.22026,-1.71143 -2.22733,-2.47586 -0.67727,-0.52061 -2.52768,-1.62897 -5.55006,-3.32155 -3.02238,-1.69376 -5.17196,-3.04476 -6.44876,-4.05183 -1.2768,-1.00706 -2.24499,-2.11896 -2.90459,-3.33569 -0.66078,-1.21554 -0.99058,-2.55241 -0.99058,-4.01177 0,-2.53593 0.97291,-4.71967 2.91873,-6.55242 1.94464,-1.83274 4.42049,-2.74793 7.4252,-2.74793 1.87633,0 3.86455,0.46054 5.96584,1.38044 0.97291,0.43463 1.6596,0.65136 2.0589,0.65136 0.45229,0 0.82096,-0.13428 1.10718,-0.40401 0.28622,-0.26973 0.51708,-0.81154 0.69023,-1.62779 l 0.96466,0 z"
     id="path75"
     inkscape:connector-curvature="0"
     style="fill:#ffffff" /><path
     d="m 203.20494,190.96701 -9.43109,0 -11.95878,-16.51825 c -0.88574,0.0353 -1.60659,0.0518 -2.16254,0.0518 -0.22497,0 -0.46879,-0.004 -0.72909,-0.013 -0.26031,-0.009 -0.53004,-0.0224 -0.80801,-0.04 l 0,10.26619 c 0,2.2238 0.24264,3.60424 0.72909,4.14252 0.66078,0.76443 1.65018,1.14606 2.97055,1.14606 l 1.38045,0 0,0.96348 -15.13781,0 0,-0.96348 1.32862,0 c 1.49353,0 2.56184,-0.48646 3.20495,-1.45937 0.36514,-0.53828 0.54653,-1.81507 0.54653,-3.82921 l 0,-22.82331 c 0,-2.22262 -0.24382,-3.60424 -0.73027,-4.14252 -0.67727,-0.76443 -1.68434,-1.14606 -3.02121,-1.14606 l -1.32862,0 0,-0.96348 12.87044,0 c 3.75265,0 6.51825,0.27326 8.29917,0.82096 1.77974,0.54653 3.29093,1.55477 4.53357,3.02238 1.24146,1.46761 1.86219,3.2179 1.86219,5.24971 0,2.17196 -0.70789,4.05653 -2.12249,5.6537 -1.41697,1.59835 -3.60896,2.72674 -6.57951,3.38634 l 7.29564,10.13545 c 1.66785,2.32745 3.10012,3.87279 4.29918,4.63722 1.19906,0.76443 2.76207,1.25089 4.68904,1.45937 l 0,0.96348 z M 178.11543,172.808 c 0.3298,0 0.61602,0.004 0.85983,0.013 0.24382,0.009 0.44288,0.013 0.59953,0.013 3.36985,0 5.90931,-0.73028 7.62073,-2.18846 1.71025,-1.45819 2.56655,-3.31684 2.56655,-5.57479 0,-2.20613 -0.69022,-4 -2.07185,-5.38045 -1.38045,-1.38045 -3.20848,-2.07067 -5.4841,-2.07067 -1.00707,0 -2.37102,0.16608 -4.09069,0.4947 l 0,14.69375 z"
     id="path77"
     inkscape:connector-curvature="0"
     style="fill:#ffffff" /><path
     d="m 216.69493,157.56537 0,13.88692 6.43463,0 c 1.47703,0 2.55713,-0.32509 3.24382,-0.97644 0.68551,-0.65136 1.14134,-1.94111 1.36867,-3.86926 l 0.96348,0 0,11.95877 -0.96348,0 c -0.0189,-1.3722 -0.19671,-2.37927 -0.53475,-3.02238 -0.33922,-0.64193 -0.80801,-1.12485 -1.40754,-1.4464 -0.59953,-0.32156 -1.48999,-0.48175 -2.67138,-0.48175 l -6.43463,0 0,11.09894 c 0,1.78917 0.11308,2.96938 0.33805,3.543 0.17432,0.43462 0.53946,0.808 1.09423,1.12014 0.76443,0.41696 1.56301,0.62544 2.39693,0.62544 l 1.2768,0 0,0.96348 -15.16254,0 0,-0.96348 1.25088,0 c 1.45936,0 2.51826,-0.42521 3.17786,-1.2768 0.41696,-0.55595 0.62544,-1.89281 0.62544,-4.01178 l 0,-22.82331 c 0,-1.78799 -0.1119,-2.96938 -0.33805,-3.543 -0.17314,-0.43462 -0.53003,-0.808 -1.06831,-1.12131 -0.74794,-0.41697 -1.54653,-0.62545 -2.39694,-0.62545 l -1.25088,0 0,-0.96348 26.28857,0 0.33922,7.76443 -0.91166,0 c -0.45229,-1.65018 -0.97762,-2.86102 -1.57715,-3.63369 -0.59835,-0.77267 -1.33804,-1.33333 -2.21437,-1.6808 -0.8775,-0.34747 -2.23675,-0.52061 -4.07656,-0.52061 l -7.79034,0 z"
     id="path79"
     inkscape:connector-curvature="0"
     style="fill:#ffffff" /><path
     d="m 270.6219,154.83039 0.80801,12.01059 -0.80801,0 c -1.07774,-3.59481 -2.61484,-6.18374 -4.61248,-7.76442 -1.99765,-1.58069 -4.39341,-2.37103 -7.19081,-2.37103 -2.34512,0 -4.46408,0.59482 -6.35689,1.78563 -1.89282,1.18964 -3.38399,3.08716 -4.46761,5.69258 -1.08599,2.60542 -1.62898,5.8457 -1.62898,9.71849 0,3.19553 0.51355,5.96584 1.53828,8.31213 1.02474,2.34511 2.56537,4.14252 4.62427,5.39341 2.05771,1.25088 4.40753,1.87632 7.04711,1.87632 2.29329,0 4.31684,-0.49116 6.07067,-1.47232 1.75501,-0.98115 3.68316,-2.93051 5.78445,-5.84923 l 0.80801,0.52061 c -1.77149,3.1437 -3.83863,5.44523 -6.20141,6.90459 -2.36278,1.45937 -5.16726,2.18846 -8.41578,2.18846 -5.85277,0 -10.38634,-2.17079 -13.59953,-6.51355 -2.39812,-3.23085 -3.596,-7.03415 -3.596,-11.41107 0,-3.5265 0.79034,-6.7656 2.37103,-9.71849 1.58068,-2.95288 3.75618,-5.24146 6.5265,-6.86572 2.77032,-1.62309 5.79741,-2.43581 9.08009,-2.43581 2.55359,0 5.07185,0.62545 7.55595,1.87515 0.72909,0.3828 1.25088,0.57362 1.56302,0.57362 0.46878,0 0.8775,-0.1649 1.22497,-0.4947 0.45229,-0.46879 0.77267,-1.12132 0.96348,-1.95407 l 0.91166,0 z"
     id="path81"
     inkscape:connector-curvature="0"
     style="fill:#ffffff" /><path
     d="m 169.27915,204.60305 -7.41107,6.22498 88.58539,61.14369 c 5.99764,-7.17668 11.3298,-15.50412 15.95524,-25.14487 l -97.12956,-42.2238 z"
     id="path83"
     inkscape:connector-curvature="0"
     style="fill:#ffffff" /><path
     d="m 204.36042,252.72555 c -0.24499,-1.03062 -0.61484,-1.93051 -1.23086,-2.55006 -0.40872,-0.41107 -0.96113,-0.68198 -1.5795,-0.67609 -0.004,0 -0.008,0 -0.013,0 -0.0153,-1.16607 -0.18021,-2.31095 -0.56891,-3.32273 -0.40753,-1.06243 -1.08009,-1.98822 -2.08598,-2.55124 -0.66784,-0.37455 -1.47232,-0.5795 -2.39694,-0.57832 -0.0872,0 -0.1755,0.004 -0.26384,0.007 -0.0931,-0.32862 -0.20259,-0.63839 -0.33333,-0.92815 -0.33569,-0.74205 -0.82921,-1.35924 -1.5053,-1.76914 -0.67609,-0.40989 -1.50766,-0.60542 -2.49234,-0.60542 -0.43463,0 -0.90224,0.0389 -1.40519,0.11308 -0.1649,-0.2556 -0.35571,-0.49235 -0.57715,-0.69965 -0.54181,-0.51119 -1.28268,-0.81743 -2.14841,-0.81272 -1.20965,0 -2.13309,0.57833 -2.72791,1.12368 -0.17904,0.1649 -0.33098,0.32862 -0.45819,0.47703 -0.12603,-0.14841 -0.27915,-0.31213 -0.45936,-0.47703 -0.596,-0.54535 -1.51826,-1.12368 -2.72792,-1.12368 -0.86454,-0.005 -1.60541,0.30153 -2.14841,0.81272 -0.22143,0.2073 -0.41225,0.44288 -0.57715,0.69965 -0.50176,-0.0742 -0.97055,-0.11308 -1.404,-0.11308 -0.98351,0 -1.81625,0.19553 -2.49234,0.60542 -0.67609,0.4099 -1.16962,1.02709 -1.5053,1.76914 -0.12957,0.29093 -0.24029,0.59953 -0.33334,0.92815 -0.0883,-0.004 -0.17668,-0.007 -0.26384,-0.007 -0.92344,0 -1.72791,0.20377 -2.39694,0.57832 -1.00588,0.56302 -1.67844,1.48881 -2.08598,2.55124 -0.38869,1.01178 -0.55359,2.15666 -0.5689,3.32273 -0.005,0 -0.008,0 -0.013,0 -0.6172,-0.005 -1.17197,0.26502 -1.57951,0.67609 -0.61601,0.61955 -0.98351,1.51944 -1.22968,2.55006 -0.24381,1.0318 -0.34864,2.20259 -0.34982,3.3722 l 0,0 c 0.0283,2.56066 1.1119,4.75972 2.24146,6.50766 1.15666,1.76089 2.43934,3.1437 3.56419,4.23793 0.351,0.33451 0.68669,0.64075 1.00471,0.9199 -0.006,0.033 -0.0106,0.0683 -0.0106,0.1013 l 0,0 0,7.60188 c 0,1.47586 1.19553,2.6702 2.6702,2.67138 l 7.37103,0 1.5689,1.68316 0.0471,0.0448 c 0.0459,0.0259 0.69611,0.61248 1.67962,0.62779 0.98351,-0.0153 1.63369,-0.60188 1.67845,-0.62779 l 0.0471,-0.0448 1.56773,-1.68316 7.37102,0 c 1.47468,0 2.6702,-1.19435 2.6702,-2.6702 l 0,-7.60306 c 0,-0.0342 -0.004,-0.0683 -0.0106,-0.1013 0.3192,-0.28033 0.65371,-0.58657 1.00471,-0.92108 1.12603,-1.09305 2.40754,-2.47703 3.56655,-4.23793 1.12839,-1.74794 2.21202,-3.94699 2.24028,-6.50765 0,-1.16844 -0.10718,-2.33923 -0.34982,-3.37103 z"
     id="path85"
     inkscape:connector-curvature="0" /><g
     id="g87"
     transform="matrix(1.1778563,0,0,1.1778563,5,4.9999999)"><path
       d="m 169.619,218.049 c -1.303,1.467 -2.66,2.672 -3.806,3.648 -2.252,1.944 -3.771,2.994 -3.694,3.1 0.042,0.064 0.781,-0.296 1.966,-1.089 l -0.767,5.872 c -0.102,0.763 -0.804,1.378 -1.574,1.38 l -5.542,0 3.168,-3.09 c 0.197,-0.186 0.211,-0.476 0.031,-0.649 -0.182,-0.173 -0.489,-0.164 -0.687,0.022 l -5.43,5.438 c -0.097,0.071 -0.479,0.317 -0.827,0.307 -0.209,0.002 -0.429,-0.077 -0.592,-0.165 -0.082,-0.043 -0.149,-0.086 -0.193,-0.118 -0.018,-0.012 -0.031,-0.022 -0.041,-0.03 l -5.35,-5.433 c -0.195,-0.187 -0.503,-0.196 -0.687,-0.022 -0.183,0.173 -0.173,0.464 0.022,0.649 l 3.125,3.09 -5.541,0 c -0.769,-0.002 -1.463,-0.618 -1.554,-1.381 l -0.684,-5.872 c 1.174,0.793 1.908,1.153 1.952,1.089 0.079,-0.106 -1.425,-1.155 -3.65,-3.1 -1.133,-0.976 -2.473,-2.182 -3.755,-3.648 -1.291,-1.458 -2.581,-3.229 -2.956,-5.149 -0.236,-1.267 -0.268,-2.532 -0.01,-3.43 0.128,-0.449 0.331,-0.8 0.573,-1.018 0.25,-0.217 0.502,-0.311 0.855,-0.315 0.01,0 0.02,0.001 0.029,0.002 0.95,4.41 3.872,8.076 6.222,10.284 2.416,2.384 4.319,3.406 4.382,3.308 0.093,-0.104 -1.625,-1.287 -3.821,-3.696 -2.268,-2.373 -5.086,-6.167 -5.744,-10.655 l 0,0 c -0.202,-1.305 -0.071,-2.543 0.517,-3.405 0.297,-0.433 0.701,-0.773 1.239,-1.013 0.542,-0.239 1.227,-0.38 2.116,-0.38 0.012,0 0.025,0 0.038,0 -0.106,0.99 -0.033,2.143 0.114,3.45 l 0,0 c 0.498,4.191 2.578,7.786 4.255,10.159 1.635,2.394 2.992,3.654 3.096,3.579 0.119,-0.076 -1.004,-1.449 -2.423,-3.859 -1.456,-2.394 -3.303,-5.895 -3.73,-9.879 l 0,0 c -0.167,-1.583 -0.203,-2.905 0.023,-3.9 0.233,-1.001 0.699,-1.635 1.488,-2 0.534,-0.245 1.255,-0.387 2.26,-0.388 0.33,0 0.689,0.016 1.079,0.047 -0.172,0.381 -0.292,0.789 -0.375,1.21 -0.203,1.053 -0.186,2.204 -0.12,3.251 0.432,8.267 3.896,14.581 4.214,14.412 0.208,-0.048 -2.664,-6.315 -2.998,-14.412 l 0,0 c -0.075,-1.36 -0.042,-2.872 0.406,-3.976 0.226,-0.555 0.552,-0.995 0.972,-1.285 0.425,-0.288 0.929,-0.45 1.682,-0.454 1.023,0 1.83,0.351 2.405,0.729 0.284,0.188 0.502,0.377 0.645,0.518 0.05,0.05 0.09,0.091 0.121,0.125 l -0.012,7.227 c -0.012,7.245 0.212,13.107 0.5,13.107 0.288,0 0.595,-5.863 0.685,-13.107 l 0,0 0.09,-7.227 c 0.032,-0.034 0.072,-0.075 0.122,-0.125 0.146,-0.14 0.367,-0.33 0.653,-0.518 0.581,-0.377 1.392,-0.729 2.415,-0.729 0.753,0.004 1.254,0.166 1.676,0.454 0.416,0.29 0.736,0.73 0.953,1.285 0.434,1.104 0.445,2.616 0.351,3.976 l 0,0 c -0.449,8.097 -3.409,14.363 -3.201,14.412 0.315,0.169 3.868,-6.145 4.417,-14.412 0.082,-1.048 0.115,-2.199 -0.074,-3.251 -0.078,-0.421 -0.191,-0.829 -0.357,-1.21 0.389,-0.032 0.749,-0.047 1.078,-0.047 1.005,0 1.724,0.143 2.254,0.388 0.783,0.365 1.241,0.999 1.46,2 0.21,0.995 0.157,2.316 -0.033,3.9 l 0,0 c -0.484,3.984 -2.379,7.485 -3.869,9.879 -1.453,2.41 -2.596,3.783 -2.479,3.859 0.103,0.075 1.479,-1.186 3.146,-3.579 1.71,-2.373 3.841,-5.968 4.398,-10.159 l 0,0 c 0.166,-1.307 0.254,-2.459 0.163,-3.45 0.012,0 0.025,0 0.037,0 0.889,0 1.572,0.142 2.11,0.38 0.536,0.24 0.934,0.581 1.226,1.013 0.576,0.862 0.688,2.1 0.468,3.405 -0.721,4.487 -3.593,8.282 -5.894,10.655 -2.231,2.409 -3.964,3.592 -3.874,3.696 0.062,0.098 1.979,-0.924 4.429,-3.308 2.381,-2.208 5.355,-5.874 6.367,-10.284 0.009,0 0.019,-0.002 0.029,-0.002 0.354,0.004 0.604,0.098 0.851,0.315 0.239,0.218 0.438,0.569 0.56,1.018 0.245,0.898 0.195,2.164 -0.06,3.43 -0.403,1.922 -1.717,3.693 -3.029,5.151 z"
       id="path89"
       inkscape:connector-curvature="0"
       style="fill:#c5071b" /><path
       d="m 169.619,218.049 c -1.303,1.467 -2.66,2.672 -3.806,3.648 -2.252,1.944 -3.771,2.994 -3.694,3.1 0.042,0.064 0.781,-0.296 1.966,-1.089 l -0.767,5.872 c -0.102,0.763 -0.804,1.378 -1.574,1.38 l -5.542,0 3.168,-3.09 c 0.197,-0.186 0.211,-0.476 0.031,-0.649 -0.182,-0.173 -0.489,-0.164 -0.687,0.022 l -5.43,5.438 c -0.097,0.071 -0.479,0.317 -0.827,0.307 -0.209,0.002 -0.429,-0.077 -0.592,-0.165 -0.082,-0.043 -0.149,-0.086 -0.193,-0.118 -0.018,-0.012 -0.031,-0.022 -0.041,-0.03 l -5.35,-5.433 c -0.195,-0.187 -0.503,-0.196 -0.687,-0.022 -0.183,0.173 -0.173,0.464 0.022,0.649 l 3.125,3.09 -5.541,0 c -0.769,-0.002 -1.463,-0.618 -1.554,-1.381 l -0.684,-5.872 c 1.174,0.793 1.908,1.153 1.952,1.089 0.079,-0.106 -1.425,-1.155 -3.65,-3.1 -1.133,-0.976 -2.473,-2.182 -3.755,-3.648 -1.291,-1.458 -2.581,-3.229 -2.956,-5.149 -0.236,-1.267 -0.268,-2.532 -0.01,-3.43 0.128,-0.449 0.331,-0.8 0.573,-1.018 0.25,-0.217 0.502,-0.311 0.855,-0.315 0.01,0 0.02,0.001 0.029,0.002 0.95,4.41 3.872,8.076 6.222,10.284 2.416,2.384 4.319,3.406 4.382,3.308 0.093,-0.104 -1.625,-1.287 -3.821,-3.696 -2.268,-2.373 -5.086,-6.167 -5.744,-10.655 l 0,0 c -0.202,-1.305 -0.071,-2.543 0.517,-3.405 0.297,-0.433 0.701,-0.773 1.239,-1.013 0.542,-0.239 1.227,-0.38 2.116,-0.38 0.012,0 0.025,0 0.038,0 -0.106,0.99 -0.033,2.143 0.114,3.45 l 0,0 c 0.498,4.191 2.578,7.786 4.255,10.159 1.635,2.394 2.992,3.654 3.096,3.579 0.119,-0.076 -1.004,-1.449 -2.423,-3.859 -1.456,-2.394 -3.303,-5.895 -3.73,-9.879 l 0,0 c -0.167,-1.583 -0.203,-2.905 0.023,-3.9 0.233,-1.001 0.699,-1.635 1.488,-2 0.534,-0.245 1.255,-0.387 2.26,-0.388 0.33,0 0.689,0.016 1.079,0.047 -0.172,0.381 -0.292,0.789 -0.375,1.21 -0.203,1.053 -0.186,2.204 -0.12,3.251 0.432,8.267 3.896,14.581 4.214,14.412 0.208,-0.048 -2.664,-6.315 -2.998,-14.412 l 0,0 c -0.075,-1.36 -0.042,-2.872 0.406,-3.976 0.226,-0.555 0.552,-0.995 0.972,-1.285 0.425,-0.288 0.929,-0.45 1.682,-0.454 1.023,0 1.83,0.351 2.405,0.729 0.284,0.188 0.502,0.377 0.645,0.518 0.05,0.05 0.09,0.091 0.121,0.125 l -0.012,7.227 c -0.012,7.245 0.212,13.107 0.5,13.107 0.288,0 0.595,-5.863 0.685,-13.107 l 0,0 0.09,-7.227 c 0.032,-0.034 0.072,-0.075 0.122,-0.125 0.146,-0.14 0.367,-0.33 0.653,-0.518 0.581,-0.377 1.392,-0.729 2.415,-0.729 0.753,0.004 1.254,0.166 1.676,0.454 0.416,0.29 0.736,0.73 0.953,1.285 0.434,1.104 0.445,2.616 0.351,3.976 l 0,0 c -0.449,8.097 -3.409,14.363 -3.201,14.412 0.315,0.169 3.868,-6.145 4.417,-14.412 0.082,-1.048 0.115,-2.199 -0.074,-3.251 -0.078,-0.421 -0.191,-0.829 -0.357,-1.21 0.389,-0.032 0.749,-0.047 1.078,-0.047 1.005,0 1.724,0.143 2.254,0.388 0.783,0.365 1.241,0.999 1.46,2 0.21,0.995 0.157,2.316 -0.033,3.9 l 0,0 c -0.484,3.984 -2.379,7.485 -3.869,9.879 -1.453,2.41 -2.596,3.783 -2.479,3.859 0.103,0.075 1.479,-1.186 3.146,-3.579 1.71,-2.373 3.841,-5.968 4.398,-10.159 l 0,0 c 0.166,-1.307 0.254,-2.459 0.163,-3.45 0.012,0 0.025,0 0.037,0 0.889,0 1.572,0.142 2.11,0.38 0.536,0.24 0.934,0.581 1.226,1.013 0.576,0.862 0.688,2.1 0.468,3.405 -0.721,4.487 -3.593,8.282 -5.894,10.655 -2.231,2.409 -3.964,3.592 -3.874,3.696 0.062,0.098 1.979,-0.924 4.429,-3.308 2.381,-2.208 5.355,-5.874 6.367,-10.284 0.009,0 0.019,-0.002 0.029,-0.002 0.354,0.004 0.604,0.098 0.851,0.315 0.239,0.218 0.438,0.569 0.56,1.018 0.245,0.898 0.195,2.164 -0.06,3.43 -0.403,1.922 -1.717,3.693 -3.029,5.151 z"
       id="path91"
       inkscape:connector-curvature="0"
       style="fill:none;stroke:#ffffff;stroke-width:1.79999995" /></g><path
     d="m 156.31213,215.85865 c -0.88928,-0.91991 -1.64311,-1.97762 -2.2285,-3.14134 -1.18846,-0.20377 -2.02356,-0.73852 -2.49235,-1.1225 1.31096,3.40754 3.93522,6.16137 7.25442,7.64311 -0.13546,-0.32744 -0.32627,-0.88104 -0.45937,-1.65371 -0.75147,-0.49706 -1.4464,-1.07656 -2.0742,-1.72556 z"
     id="path93"
     inkscape:connector-curvature="0"
     style="fill:#ffffff" /><path
     d="m 173.25441,216.32744 c -1.42402,1.32273 -3.14958,2.30742 -5.05771,2.83274 -0.11072,0.1119 -0.58893,0.59482 -1.12132,1.02002 2.78563,-0.53592 5.27326,-1.90695 7.18963,-3.8457 -0.18256,0.0342 -0.351,0.0483 -0.49705,0.0483 -0.23911,0 -0.41932,-0.033 -0.51355,-0.0554 z"
     id="path95"
     inkscape:connector-curvature="0"
     style="fill:#ffffff" /><path
     d="m 164.4252,194.15547 c 0.19788,-0.0106 0.39694,-0.0153 0.59835,-0.0153 1.99883,0 3.88693,0.49352 5.55595,1.36631 0.17433,-0.0954 0.69494,-0.35453 1.36278,-0.4417 -2.15547,-1.39458 -4.7232,-2.20494 -7.48174,-2.20494 -0.4523,0 -0.89988,0.0224 -1.34158,0.066 0.29564,0.24381 0.79152,0.67844 1.30624,1.22968 z"
     id="path97"
     inkscape:connector-curvature="0"
     style="fill:#ffffff" /><path
     d="m 156.03298,198.16843 c 0.006,-1.14724 0.18256,-2.13781 0.29564,-2.65371 -3.03416,2.22025 -5.12603,5.65135 -5.56655,9.58186 0.44994,-0.41932 1.38752,-1.25089 2.48292,-1.96467 0.55713,-1.87514 1.52179,-3.56772 2.78799,-4.96348 z"
     id="path99"
     inkscape:connector-curvature="0"
     style="fill:#ffffff" /><path
     d="m 177.33922,206.86336 c 0,0.28386 -0.009,0.56537 -0.0271,0.84452 0.38987,0.17668 0.66902,0.36867 0.84452,0.50648 0.0577,-0.5159 0.0895,-1.03887 0.0895,-1.57008 0,-1.69022 -0.30507,-3.3086 -0.86101,-4.80565 -0.18964,0.0342 -0.55949,0.0895 -1.00118,0.10129 0.61484,1.5159 0.95524,3.17904 0.95524,4.92344 z"
     id="path101"
     inkscape:connector-curvature="0"
     style="fill:#ffffff" /><path
     d="m 173.67373,210.99057 c -0.42874,-0.17197 -2.48528,-1.04594 -4.02709,-2.5477 -0.39694,0.30977 -2.15548,1.60777 -4.86337,2.66784 -0.0141,2.65607 -0.64429,4.83863 -0.77856,5.27091 0.005,0.006 0.009,0.009 0.0153,0.0153 0.0471,0.0412 0.11661,0.10365 0.20966,0.18257 0.18492,0.15547 0.45936,0.37691 0.81979,0.63251 0.7126,0.5053 1.75736,1.14841 3.08834,1.702 1.87632,-0.51708 3.57243,-1.48763 4.97173,-2.79505 0.0141,-0.0518 0.0436,-0.16255 0.0813,-0.32391 0.0542,-0.2344 0.12839,-0.56891 0.20259,-0.98234 0.14723,-0.82567 0.29447,-1.96113 0.29447,-3.19434 -0.001,-0.20731 -0.007,-0.41814 -0.0141,-0.6278 z"
     id="path103"
     inkscape:connector-curvature="0"
     style="fill:#ffffff" /><path
     d="m 163.76678,216.32155 c 0.02,-0.0683 0.0577,-0.1861 0.10248,-0.35454 0.0742,-0.26973 0.17314,-0.66313 0.27208,-1.14723 0.19552,-0.9576 0.38987,-2.27562 0.39576,-3.73145 -1.69022,-1.28975 -3.39105,-3.63133 -3.66196,-4.0106 -2.20612,0.007 -4.0954,0.35218 -4.90341,0.52768 -0.1649,0.0353 -0.28269,0.0624 -0.35218,0.0789 -0.36278,1.0742 -0.6914,2.29917 -0.93168,3.2603 -0.20966,0.83864 -0.34865,1.47468 -0.38516,1.64311 0.57479,1.14723 1.31566,2.19199 2.19199,3.09541 0.61719,0.6384 1.30035,1.2073 2.03769,1.69376 2.69376,-0.37221 4.32391,-0.79035 4.97055,-0.97527 0.12485,-0.0365 0.21202,-0.0648 0.26384,-0.0801 z"
     id="path105"
     inkscape:connector-curvature="0"
     style="fill:#ffffff" /><path
     d="m 173.45818,200.83274 c -0.55595,-0.20848 -0.96466,-0.351 -1.12838,-0.40636 -0.28387,0.34393 -1.61013,1.91755 -3.22144,3.29682 0.0824,0.38044 0.47468,2.24499 0.66431,4.50176 1.25677,1.24382 2.9152,2.06832 3.66549,2.40165 0.15783,0.0707 0.27444,0.11779 0.3404,0.1437 1.31802,-0.83863 2.5159,-2.13663 3.0318,-2.73616 0.12368,-0.14252 0.20848,-0.24499 0.24617,-0.29211 0.02,-0.28975 0.0306,-0.58304 0.0306,-0.87868 0,-1.75972 -0.35336,-3.43345 -0.9894,-4.95053 -0.96938,-0.43581 -1.92462,-0.81154 -2.63958,-1.08009 z"
     id="path107"
     inkscape:connector-curvature="0"
     style="fill:#ffffff" /><path
     d="m 154.10012,204.89516 c 0.37691,0.91049 0.90223,1.96231 1.46407,2.55006 0.42521,-0.10365 2.62309,-0.60424 5.29329,-0.61366 1.14016,-2.64782 2.49352,-4.12839 2.82332,-4.46643 -1.13192,-1.61013 -2.1755,-4.02474 -2.36632,-4.47703 -0.16725,-0.0106 -0.61719,-0.0342 -1.21554,-0.0342 -1.09541,0 -2.6808,0.0824 -3.87044,0.47232 -1.24853,1.37338 -2.19788,3.03769 -2.74558,4.88339 0.0224,0.0695 0.0754,0.23675 0.15665,0.47232 0.11072,0.31567 0.2662,0.74558 0.46055,1.21319 z"
     id="path109"
     inkscape:connector-curvature="0"
     style="fill:#ffffff" /><path
     d="m 161.53828,197.79033 c 0.033,0.0766 0.0919,0.21555 0.17432,0.40165 0.13074,0.29447 0.31802,0.70436 0.54299,1.16961 0.44405,0.9152 1.0424,2.04359 1.65607,2.90695 0.37573,0.0636 2.76796,0.48646 5.03416,1.27209 1.34511,-1.14959 2.49705,-2.44641 2.99175,-3.02709 0.10365,-0.1225 0.17903,-0.21202 0.22026,-0.26149 -0.26031,-1.49705 -1.07656,-3.30035 -1.47232,-4.10954 -0.0978,-0.19905 -0.16726,-0.33686 -0.19906,-0.39693 -1.64075,-0.86337 -3.49705,-1.35101 -5.46525,-1.35101 -0.19906,0 -0.39576,0.006 -0.59246,0.0153 -1.49941,1.63839 -2.39812,2.75029 -2.75383,3.20494 -0.0624,0.0777 -0.10719,0.13663 -0.13663,0.1755 z"
     id="path111"
     inkscape:connector-curvature="0"
     style="fill:#ffffff" /><path
     d="m 177.31095,207.70906 c 0.0177,-0.27915 0.0271,-0.56066 0.0271,-0.84452 0,-1.74441 -0.3404,-3.40872 -0.95642,-4.92226 0.4417,-0.013 0.81037,-0.0683 1.00118,-0.1013 -0.0306,-0.0789 -0.0601,-0.15901 -0.0919,-0.24028 -1.0106,-2.57008 -2.77268,-4.76207 -5.01414,-6.3086 -0.11189,-0.0766 -0.22379,-0.15194 -0.33686,-0.22615 -0.66667,0.0872 -1.18846,0.34511 -1.36278,0.4417 -1.66903,-0.87279 -3.55831,-1.36631 -5.55595,-1.36631 -0.20024,0 -0.39929,0.005 -0.59835,0.0153 -0.51473,-0.55124 -1.0106,-0.98587 -1.30507,-1.22968 -0.11896,0.0106 -0.23557,0.0236 -0.35335,0.0377 -2.25678,0.27679 -4.34394,1.09894 -6.12721,2.3298 -0.10483,0.0718 -0.20848,0.14605 -0.31096,0.22143 -0.11307,0.5159 -0.28975,1.50648 -0.29564,2.65371 -1.26619,1.39694 -2.23086,3.08834 -2.78798,4.96349 -1.09541,0.71378 -2.03298,1.54535 -2.48293,1.96466 -0.0141,0.12721 -0.0259,0.25442 -0.0377,0.38399 -0.0318,0.38398 -0.0495,0.77149 -0.0495,1.1649 0,1.55241 0.25678,3.04358 0.73027,4.43816 0.0589,0.17197 0.12132,0.34275 0.18611,0.51237 0.46878,0.3828 1.30388,0.91755 2.49234,1.12249 0.58539,1.1649 1.33804,2.22262 2.2285,3.14135 0.6278,0.65017 1.32274,1.2285 2.07421,1.72555 0.1331,0.77268 0.32391,1.32509 0.45936,1.65371 0.11425,0.0506 0.22851,0.10012 0.34394,0.14724 1.62308,0.67255 3.404,1.04476 5.26973,1.04476 0.702,0 1.39222,-0.053 2.06478,-0.1543 0.18492,-0.0283 0.36749,-0.0613 0.55006,-0.0954 0.53239,-0.42521 1.0106,-0.90813 1.12132,-1.02002 1.90812,-0.52533 3.63368,-1.51002 5.05771,-2.83275 0.0942,0.0224 0.27444,0.0554 0.51237,0.0554 0.14605,0 0.31449,-0.0141 0.49705,-0.0483 0.11779,-0.12014 0.23086,-0.23911 0.34394,-0.3616 1.86101,-2.02356 3.12249,-4.60307 3.51001,-7.46054 0.013,-0.0989 0.0247,-0.19788 0.0365,-0.29682 -0.16961,-0.14017 -0.44994,-0.33216 -0.83981,-0.50884 z m -0.22379,-0.8457 c 0,0.29447 -0.0106,0.58893 -0.0306,0.87868 -0.0389,0.0471 -0.12249,0.14841 -0.24617,0.29211 -0.5159,0.59953 -1.71378,1.89635 -3.0318,2.73616 -0.066,-0.0259 -0.18257,-0.073 -0.3404,-0.1437 -0.75147,-0.33333 -2.40872,-1.15783 -3.66549,-2.40165 -0.19081,-2.25795 -0.58186,-4.12249 -0.66431,-4.50176 1.61131,-1.3781 2.93757,-2.95289 3.22144,-3.29682 0.16254,0.0554 0.57126,0.19788 1.12838,0.40636 0.71614,0.26855 1.6702,0.64428 2.64076,1.08009 0.63486,1.51708 0.98822,3.19081 0.98822,4.95053 z m -12.65725,-12.45465 c 0.19671,-0.009 0.39341,-0.0153 0.59247,-0.0153 1.96702,0 3.8245,0.48763 5.46525,1.351 0.0318,0.0601 0.1013,0.19788 0.19906,0.39694 0.39458,0.80918 1.21083,2.6113 1.47232,4.10954 -0.0412,0.0495 -0.11661,0.14016 -0.22026,0.26148 -0.4947,0.58068 -1.64664,1.8775 -2.99176,3.02709 -2.26619,-0.78563 -4.65842,-1.2073 -5.03415,-1.27208 -0.61367,-0.86337 -1.21202,-1.99058 -1.65607,-2.90695 -0.22497,-0.46526 -0.41225,-0.87515 -0.54299,-1.16961 -0.0825,-0.18611 -0.14134,-0.32509 -0.17432,-0.40165 0.0294,-0.0389 0.0742,-0.0978 0.1378,-0.17668 0.35454,-0.45348 1.25324,-1.56655 2.75265,-3.20377 z m -8.20023,3.91873 c 1.18963,-0.38987 2.77503,-0.4735 3.87043,-0.47232 0.59836,0 1.0483,0.0247 1.21555,0.0342 0.19199,0.4523 1.2344,2.86691 2.36632,4.47704 -0.33098,0.33804 -1.68434,1.81861 -2.82333,4.46643 -2.6702,0.0106 -4.86808,0.51119 -5.29328,0.61366 -0.56302,-0.58775 -1.08716,-1.63958 -1.46408,-2.55006 -0.19434,-0.46761 -0.351,-0.8987 -0.45936,-1.21201 -0.0813,-0.23557 -0.13428,-0.40401 -0.15666,-0.47232 0.54653,-1.84806 1.49588,-3.51237 2.74441,-4.88457 z m 0.26384,17.35453 c -0.87633,-0.90459 -1.6172,-1.94817 -2.19199,-3.09541 0.0365,-0.16843 0.1755,-0.80329 0.38516,-1.6431 0.24028,-0.96114 0.5689,-2.18611 0.93168,-3.26031 0.0695,-0.0177 0.18846,-0.0448 0.35218,-0.0789 0.80919,-0.17432 2.69847,-0.52061 4.90342,-0.52768 0.2709,0.37927 1.97291,2.72203 3.66195,4.0106 -0.006,1.45583 -0.20023,2.77386 -0.39576,3.73145 -0.0989,0.4841 -0.19788,0.87751 -0.27208,1.14723 -0.0448,0.16844 -0.0824,0.28622 -0.10248,0.35454 -0.0518,0.0165 -0.13898,0.0436 -0.26501,0.0801 -0.64547,0.18493 -2.2768,0.60307 -4.97056,0.97527 -0.73498,-0.48646 -1.41931,-1.05536 -2.03651,-1.69376 z m 16.69611,0.1119 c -0.0389,0.16254 -0.0683,0.27208 -0.0813,0.32391 -1.39929,1.30742 -3.09541,2.27797 -4.97173,2.79505 -1.33098,-0.55359 -2.37574,-1.1967 -3.08834,-1.702 -0.36042,-0.25442 -0.63487,-0.47586 -0.81979,-0.63251 -0.0931,-0.0777 -0.16254,-0.14134 -0.20966,-0.18257 -0.006,-0.006 -0.0106,-0.009 -0.0153,-0.0153 0.1331,-0.43227 0.76443,-2.61484 0.77856,-5.27091 2.70907,-1.05889 4.46643,-2.35807 4.86337,-2.66784 1.54299,1.50177 3.59953,2.37573 4.02709,2.5477 0.008,0.20966 0.013,0.41932 0.013,0.62544 0,1.23322 -0.14723,2.36867 -0.29446,3.19435 -0.0719,0.41578 -0.14606,0.75029 -0.20142,0.98469 z"
     id="path113"
     inkscape:connector-curvature="0" /><path
     d="m 193.7338,134.12249 c 0.60424,-1.59599 1.03887,-3.73616 1.39341,-5.42756 0.37573,-1.79269 -0.15784,-3.97408 1.71731,-4.54652 1.79741,-0.54888 4.06243,-1.30036 5.93051,-1.2238 0.80801,0.0342 1.5689,-0.25795 2.37338,-0.18845 1.43816,0.12485 1.10011,0.75971 1.34746,1.7656 0.3192,1.29682 8.28387,-3.75029 9.42403,-4.16961 1.76207,-0.64664 3.22379,-1.49234 4.58422,0.28976 0.47585,0.62308 0.71378,1.21437 0.9576,1.94581 0.33568,1.00236 1.16843,1.50648 1.84334,2.26502 2.3192,2.60071 -0.9576,7.63722 -2.47232,10.02474 -1.05183,1.65842 -4.6596,6.46525 -0.0777,5.22497 0.68551,-0.1861 1.51001,-0.12132 2.12957,-0.52297 0.74793,-0.48528 1.23675,-1.33216 2.18139,-1.48881 1.2497,-0.20848 -0.46055,-2.7397 -0.0495,-3.63722 1.47585,-3.22733 5.43934,-5.36867 5.38633,-9.32038 2.25442,0.20142 2.11779,4.35454 2.5642,5.87633 0.52532,1.79269 0.89752,2.20966 0.0271,4.07067 -0.44288,0.94582 -1.58304,2.84452 -1.6596,3.82685 1.66902,0.0848 3.67726,0.69729 5.20259,-0.28975 0.58775,-0.38045 1.78916,-2.76089 1.53003,-3.39812 -0.59835,-1.47467 -1.48881,-2.65253 -0.702,-4.34982 0.70554,-1.52532 -0.14723,-3.43934 -0.21319,-5.13192 -0.0754,-1.94111 -1.64311,-2.90813 -1.88693,-4.61484 -0.16725,-1.1755 -1.12603,-2.57833 -1.57008,-3.69022 -0.66431,-1.66549 -0.0448,-3.56773 -0.70082,-5.31802 -0.35336,-0.94582 -0.1861,-1.58775 0.26384,-2.45466 0.54534,-1.053 0.26148,-2.41814 0.35335,-3.57361 0.15195,-1.9152 -0.91284,-3.28033 -1.80447,-4.80212 -0.89517,-1.528859 1.20023,-1.454654 1.82214,-2.159012 1.28975,-1.459364 2.61602,-1.757362 2.12485,-4.081272 -0.34864,-1.646643 -1.29799,-3.004712 -2.7868,-3.80801 -6.03063,-3.254417 -13.40872,1.453475 -19.66196,-0.902238 -3.053,-1.150765 2.40165,-2.478209 3.48528,-2.312132 3.07774,0.471143 7.72438,0.984688 10.07774,-1.783274 1.1755,-1.383981 -0.0707,-1.217903 -1.04358,-0.938751 -1.2132,0.348645 -2.28269,-0.778563 -3.61485,-0.420495 -1.26737,0.3404 -1.87043,1.833922 -2.99411,2.043581 -1.98468,0.369846 -3.93993,-1.051826 -5.89399,-0.219082 -3.2073,1.367491 -3.3934,5.391048 0.68905,5.605418 4.23675,0.222615 8.58657,0.253239 12.80094,-0.229682 1.70553,-0.195524 7.39223,-0.45583 7.00589,2.780919 -0.56655,4.742049 -6.12603,2.896349 -9.11308,3.497055 -3.49234,0.703181 -6.2921,-2.500589 -10.04593,-0.925795 -3.24028,1.358069 -7.55948,1.656066 -11.11661,1.767963 -1.38751,0.04358 -3.30153,-0.06478 -4.6278,-0.368669 -0.59246,-0.135454 -0.97526,-0.621909 -1.55595,-0.753828 -0.80447,-0.182568 -1.45583,0.03416 -2.27208,-0.297998 -1.62073,-0.660777 -2.58422,-0.09776 -4.11896,0.448763 -1.94347,0.690224 -2.58422,-0.843345 -4.33216,-1.260306 -0.87986,-0.209659 -1.75854,-0.391048 -2.60895,-0.707892 -0.8245,-0.30742 -0.50412,-1.123675 -0.69022,-1.770318 -0.41225,-1.433451 -1.67256,-2.230859 -2.58069,-3.318021 -0.28857,-0.345112 -2.12485,-3.388692 -2.53121,-1.402827 -0.34865,1.700825 2.298,2.634865 1.45936,4.528858 -0.77856,1.759717 -2.52414,0.27444 -3.78563,0.29682 -1.89517,0.03416 -3.93404,0.150765 -5.79623,0.575971 -1.34982,0.308599 -3.18963,0.618375 -4.24146,-0.57126 -1.17314,-1.328622 -0.0483,-3.495878 -1.29682,-4.812721 -0.95759,-1.011778 -1.86101,2.716137 -2.00353,3.246172 -0.39812,1.480565 -0.34394,3.398115 1.07538,4.335689 0.80094,0.52768 1.72556,0.837456 2.65253,1.04947 -0.20141,0.625442 -0.11896,1.232038 0.30036,1.744404 1.06125,1.29093 3.31684,2.48646 2.6007,4.54181 -0.28622,0.82215 0.21084,1.61249 -0.42756,2.34747 -0.59835,0.69023 -0.82685,1.48057 -0.66313,2.37809 0.28151,1.54653 1.8669,2.35454 3.41107,2.19671 0.70318,-0.0718 1.49352,-0.40754 2.15783,0.0365 0.90106,0.59952 0.57833,0.97997 1.68905,1.2815 1.92579,0.5265 2.09541,3.14606 2.91166,4.7503 0.71614,1.40871 2.53239,2.26619 3.85984,3.0424 1.75265,1.02474 2.31566,2.37927 3.51707,3.91755 0.89046,1.14134 2.35572,-0.2285 2.23322,2.08127 -0.11072,2.07656 0.1967,3.22379 0.95406,5.14488 0.46997,1.19199 1.14017,2.91166 0.30625,4.10365 -0.65607,0.9364 -1.94818,2.65135 -1.92698,3.87397 0.0295,1.7126 2.77857,0.83392 3.61484,0.63369 1.95053,-0.46644 2.37103,0.30153 3.82215,-1.61131 0.85865,-1.13899 0.007,-3.65371 -0.91402,-4.73734"
     id="path115"
     inkscape:connector-curvature="0" /><path
     d="m 190.93757,139.6113 c -0.11661,-2.27797 1.50177,-4.02002 1.10954,-6.42402 -0.36749,-2.24971 -1.41932,-3.76914 -1.27091,-5.97527 0.14606,-2.1755 -0.8245,-4.64193 -2.3192,-6.1755 -0.49352,-0.50648 -3.65371,-2.29917 -4.35453,-2.03298 0.65253,0.63015 0.59246,1.63133 1.7609,1.44876 0.39222,0.85159 1.57597,0.74794 1.95524,1.6596 0.39693,0.95407 -1.01767,0.94229 -1.52768,0.57833 -0.99058,-0.70907 -1.29447,-2.38045 -2.57126,-2.76207 -2.98351,-0.89635 -3.92933,-4.14252 -4.91166,-6.61131 -0.25442,-0.63957 -1.88104,-1.56419 -1.13781,-2.16254 0.19788,-0.15901 1.32391,-1.33216 1.36631,-1.46526 0.2874,-0.89046 1.45348,-1.00589 1.68669,-2.053 0.32627,-1.46879 -0.20259,-2.95053 -0.1861,-4.42285 0.0165,-1.5159 1.27797,-1.12368 2.34747,-1.6066 1.61719,-0.73027 1.38869,-2.104825 2.36867,-3.138983 0.78563,-0.830388 2.2285,0.542992 2.80918,0.951708 1.34276,0.944645 3.10248,-0.288575 4.3616,-0.869258 2.36278,-1.090695 5.83157,1.845703 8.42403,1.644283 3.1013,-0.241456 6.24853,0.42639 9.30507,-0.360419 1.51943,-0.392226 2.89163,-0.303887 4.36396,-0.961131 1.50765,-0.673734 4.04711,-1.239105 5.59952,-0.368669 0.97409,0.546525 2.20495,1.267373 3.34512,1.411072 1.52061,0.190807 3.01884,-0.804476 4.70435,-0.537103 2.67374,0.421673 3.18139,4.05418 4.09305,6.3192 1.00825,2.50412 -1.42638,4.87279 -0.3298,7.60895 0.4947,1.23204 0.73616,2.38398 0.91284,3.69729 0.2344,1.73852 0.89164,2.71614 1.62309,4.22733 1.31213,2.71378 2.31449,6.97997 1.4417,9.90459 -0.4629,1.5477 0.9623,6.00236 -1.57009,6.5053 -1.01884,-2.13899 0.78446,-3.2874 0.41932,-5.32627 -0.2179,-1.21908 -0.60895,-2.31802 -0.72909,-3.56065 -0.10012,-1.02827 -0.89164,-1.63487 -1.04358,-2.57715 -0.16844,-1.02356 -2.16844,-3.58187 -2.93404,-4.2238 -1.64076,-1.37691 -0.23793,-4.05653 0.39222,-5.61719 0.44288,-1.09777 1.35454,-4.50648 -1.16136,-3.9152 -1.81626,0.42639 -1.38987,3.66431 -1.40048,4.95996 -0.0106,1.24499 -0.28857,2.47114 -0.2179,3.72084 0.0683,1.19317 0.99647,2.00825 1.17315,3.15195 0.36278,2.35453 -1.36985,4.24617 -2.4417,6.11778 -0.71967,1.25677 -2.03298,3.17079 -2.46879,4.49588 -0.44523,1.35218 -0.29682,3.9364 -2.65017,3.89281 -2.04241,-0.0401 0.6219,-3.44994 1.15312,-3.91755 0,-0.99764 0.81036,-2.06478 1.09305,-3.01413 0.35218,-1.17668 0.69258,-2.36631 1.23204,-3.47468 1.05064,-2.15547 -1.3887,-4.31448 -2.1437,-6.16961 -0.45112,-1.10483 -2.71614,-4.56772 -4.01531,-4.99882 -0.86691,-0.28857 -1.01885,-1.34276 -2.07185,-1.31095 -1.13899,0.0342 -2.04241,0.76914 -2.85277,1.48645 -0.75619,0.66785 -1.53475,1.43581 -2.35218,2.02591 -0.76796,0.5536 -1.99293,0.22144 -1.94229,1.57833 0.19671,-0.12367 0.40401,-0.22144 0.62427,-0.29211 1.06125,0.26267 -0.9894,1.54417 -1.07185,1.60189 -1.33569,0.93404 -1.94346,-0.51473 -3.22379,-0.80566 -1.92815,-0.43816 -4.86455,0.17079 -6.50413,1.0377 -4.80801,2.54181 -1.01649,-7.8139 -4.01413,-8.37692 -0.93404,0.53946 -0.28504,1.68905 -0.0153,2.39341 0.61837,1.61719 -0.13546,2.9623 -0.41579,4.53239 -0.18139,1.02002 -0.15665,2.07774 -0.44523,3.07891 -0.31566,1.08952 -1.4146,1.41343 -0.65253,2.59718 0.58775,0.91283 0.14135,1.86454 -0.27915,2.73969 -0.65724,1.36867 -0.89164,2.63722 -0.60542,4.14252 0.45819,2.41107 1.0695,5.48763 -1.83392,5.99764"
     id="path117"
     inkscape:connector-curvature="0"
     style="fill:#ffffff" /><path
     d="m 190.21319,134.01884 c -0.2179,-2.17785 -2.38869,-4.71849 -0.82803,-6.8351 1.06124,0.56066 0.6808,2.07421 0.8987,3.01885 0.26148,1.1331 0.80801,2.13427 0.95878,3.29917 0.21436,1.64429 0.10954,4.51591 -2.06479,4.76325 0.13781,-1.47232 1.18728,-2.7232 1.03534,-4.24617"
     id="path119"
     inkscape:connector-curvature="0"
     style="fill:#ffffff" /><path
     d="m 182.65253,98.705534 c 2.00707,-0.255594 -0.67256,2.559486 0,0"
     id="path121"
     inkscape:connector-curvature="0"
     style="fill:#c5071b" /><path
     d="m 182.13427,95.495876 c -0.11189,0.873969 -1.50648,1.29093 -2.16136,1.594817 -0.73027,0.338045 -1.36161,0.88457 -2.18846,0.994111 -0.1861,-0.39576 -0.67256,-1.130742 -0.19552,-1.541814 1.02591,-0.878681 2.81978,-0.0012 3.35571,-1.777385 0.40754,-1.349823 1.28504,-0.02356 1.18963,0.730271"
     id="path123"
     inkscape:connector-curvature="0"
     style="fill:#ffffff" /><path
     d="m 163.80094,93.216724 c 0.56419,0.790342 0.80094,1.770318 1.43109,2.519435 0.26502,0.313309 3.05301,0.817432 2.12839,1.489988 -2.20259,1.603062 -4.56184,-2.128386 -3.55948,-4.009423"
     id="path125"
     inkscape:connector-curvature="0"
     style="fill:#ffffff" /><path
     d="m 180.68315,92.906948 c 0.25678,0.168433 0.298,0.710247 0.10365,0.931684 -0.63486,0 -0.56065,-0.636042 -0.10365,-0.931684"
     id="path127"
     inkscape:connector-curvature="0"
     style="fill:#ffffff" /><path
     d="m 221.49352,87.107184 c 0,-1.070672 1.90106,-1.330978 2.69258,-1.242639 -0.13546,1.207303 -1.75619,1.376914 -2.69258,1.242639"
     id="path129"
     inkscape:connector-curvature="0"
     style="fill:#ffffff" /><path
     d="m 178.93993,101.55948 c 1.72084,-2.492344 0.71024,-1.824499 -1.48764,-2.911661 -0.85983,-0.425206 -1.22026,-1.484099 -1.2391,-2.376914 -0.0212,-0.94464 -2.71732,-0.77974 -3.31331,-0.800942 -2.33216,-0.08481 -4.51355,1.441696 -4.64782,3.951708 -0.0624,1.155479 0.71496,1.034159 1.41578,1.579509 0.52297,0.40871 0.38987,1.74558 0.38634,2.3027 -0.0106,1.66785 -0.73145,3.26738 1.28151,3.79035 1.5689,0.40753 3.42756,-0.20613 3.77385,1.80565 0.26973,1.57951 3.29328,-0.72085 3.57361,-1.49706 0.35218,-0.97879 0.44052,-2.16372 1.27562,-2.89517 -0.62662,-0.81861 -1.79152,-1.83038 -1.01884,-2.94817"
     id="path131"
     inkscape:connector-curvature="0"
     style="fill:#ffffff" /><path
     d="m 173.9199,107.32391 c -0.47232,-0.0106 -0.93286,0.0542 -1.3828,0.19434 0.39105,0.23793 0.8775,0.97763 0.22379,1.28387 -0.61837,0.28975 -0.67844,-0.65371 -0.99646,-0.89635 -1.17786,-0.89635 -2.95289,0.6278 -2.6066,1.93404 0.32155,1.21319 2.91048,0.92108 3.74558,0.77738 0.71143,-0.12249 1.66549,-0.25323 1.54771,-1.13427 -0.02,-0.15194 -0.24971,-1.91873 0.39222,-1.50059 -0.17196,-0.41225 -0.47939,-0.63133 -0.92344,-0.65842"
     id="path133"
     inkscape:connector-curvature="0"
     style="fill:#ffffff" /><path
     d="m 183.99764,117.65724 c 0.2556,-0.62897 -0.17903,-1.26384 -0.77974,-1.24617 -0.8881,0.0247 -0.19435,1.93286 0.77974,1.24617"
     id="path135"
     inkscape:connector-curvature="0"
     style="fill:#111211" /><path
     d="m 175.91872,101.81272 c 0.47115,0.30153 1.649,-0.066 1.5536,-0.72556 -0.19317,-1.333334 -2.76914,-0.0554 -1.5536,0.72556 z"
     id="path137"
     inkscape:connector-curvature="0"
     style="fill:#111211" /></svg>