<?xml version="1.0" encoding="utf-8"?>
<!-- Generator: Adobe Illustrator 27.0.1, SVG Export Plug-In . SVG Version: 6.00 Build 0)  -->
<svg version="1.1" id="Layer_1" xmlns="http://www.w3.org/2000/svg" xmlns:xlink="http://www.w3.org/1999/xlink" x="0px" y="0px"
	 viewBox="0 0 595.3 595.3" style="enable-background:new 0 0 595.3 595.3;" xml:space="preserve">
<style type="text/css">
	.st0{fill:#FFFFFF;}
	.st1{fill:#FFDA00;}
	.st2{fill:#00558C;}
	.st3{fill:#DADADA;}
	.st4{fill:#020203;}
	.st5{fill:#575756;}
	.st6{fill:#878787;}
</style>
<g>
	<g>
		<g id="XMLID_00000173119174568176457640000004029350603807807109_">
			<g>
				<polygon class="st0" points="96.7,245.6 82,143 295.9,47.9 519.8,146.8 461,398.7 297.3,551.7 174.5,439.7 130,366.2 				"/>
				<path class="st1" d="M533.1,134.8l-54.4,275L297.6,567.7L116.6,409.8l-54.4-275L297.6,27.5L533.1,134.8z M461.3,397.1
					l48.3-243.8l-212-96.6l-212,96.6l48.3,243.8l0.3,1.6l163.4,142.5L461,398.7L461.3,397.1z"/>
				<g>
					<path class="st2" d="M297.6,27.5L62.1,134.8l54.4,275l181.1,157.9l181.1-157.9l54.4-275L297.6,27.5z M473,406.3l-175.4,153
						l-175.4-153L69.5,140L297.6,36L525.7,140L473,406.3z"/>
				</g>
				<polygon class="st2" points="483.3,168 440.4,387.3 297.6,513.2 154.9,387.3 112,168 297.6,82.4 				"/>
			</g>
		</g>
	</g>
	<g>
		<path class="st2" d="M511.8,303.8c-0.4,0-0.7,0-1.1,0c-24.6,4.5-49.3,8.2-74,11.1c-6.3,0.8-11.5,5.4-12.6,11.4
			c-0.1,0.3-0.1,0.7-0.2,1c0,0.7,0,1.3,0,2c-16.5,1.5-33,2.7-49.6,3.6c-5.5,0.3-10.9,0.6-16.4,0.8c-2.4,0.1-4.7,0.2-7.1,0.3
			c-6.4,0.2-12.7,0.4-19.1,0.6c-7,0.2-14,0.3-21,0.4c-0.6,0-1.3,0-1.9,0c-20.2,0.2-40.4-0.1-60.7-0.8c-0.8,0-1.5-0.1-2.3-0.1
			c-7.1-0.3-14.2-0.6-21.3-0.9c-0.9,0-1.7-0.1-2.6-0.1c-7-0.4-14-0.8-21-1.3c-6.7-0.5-13.4-1-20.1-1.5c-2.2-0.2-4.4-0.4-6.6-0.6
			c-1.8-0.2-3.7-0.3-5.5-0.5c-2.9-5.7-9.7-14-25.2-16c-0.5-0.1-0.9-0.1-1.4-0.2c-2.7-0.4-5.4-0.7-8.2-1.1
			c-7.9-1.1-15.7-2.3-23.6-3.5c-4.2-0.7-8.4-1.4-12.7-2.1c-4.2-0.7-8.5-1.5-12.7-2.2c-6.3-1.2-11.4,2.7-12.6,9.4
			c-0.1,0.4-0.1,0.8-0.2,1.1c0,50.4,0,100.9,0,151.3c0.1,0.4,0.2,0.8,0.2,1.2c4,21.8,18.5,20.6,22.9,19.9c0.6-0.1,1.2-0.2,1.7-0.3
			c4-0.7,8.1-1.4,12.1-2c8.2-1.3,16.5-2.5,24.7-3.7c2-0.3,4.1-0.6,6.1-0.8c2.6-0.3,5.2-0.7,7.8-1c4.7-0.6,15.2-3.4,20.8-15.4
			c0.5,0,1-0.1,1.6-0.1c3.8-0.3,7.5-0.7,11.3-1c6.5-0.5,13-1,19.4-1.5c3.8-0.3,7.6-0.5,11.3-0.7c4.1-0.2,8.1-0.5,12.2-0.7
			c5-0.3,9.9-0.5,14.9-0.7c5.7-0.2,11.4-0.4,17.2-0.6c17-0.5,34.1-0.7,51.1-0.5c4.1,0,8.1,0.1,12.2,0.1c3.6,0.1,7.1,0.1,10.7,0.2
			c6.7,0.2,13.5,0.4,20.2,0.6c3.8,0.1,7.6,0.3,11.3,0.5c13,0.6,26,1.4,39,2.3c1.7,0.1,3.4,0.3,5.1,0.4c2.4,0.2,4.8,0.4,7.2,0.6
			c3.4,0.3,6.9,0.6,10.3,0.9c0,0.3,0,0.7,0,1c0,6.7,5.6,12.5,12.8,13.4c21.5,2.5,42.9,5.7,64.2,9.4c0.4,0,0.9-0.1,1.3-0.1
			c12.6-0.8,20.1-9.6,20.1-23.7c0-16.8,0-33.5,0-50.3c0-8.5,0-17.1,0-25.6c0-6.4,0-12.7,0-19.1c0-17.6,0-35.2,0-52.9
			C522.4,308.8,518.1,303.9,511.8,303.8z"/>
		<g>
			<g>
				<g>
					<path class="st3" d="M247.7,345.5c20.1,0.6,40.2,0.8,60.2,0.7c0.5,0.1,0.7,0.3,0.7,0.6c0,11,0,21.9,0,32.9
						c0,0.4-0.2,0.6-0.7,0.6c-3.5,0-6.9,0-10.4,0c-4.9,0-8.3-2.2-10.1-6.6c-0.2-1.3-0.3-2.4-0.3-3.3c0-2.1,0-4.2,0-6.3
						c-6.2,0-12.4-0.1-18.6-0.1c0,22,0,44,0,66c6.2-0.1,12.4-0.1,18.6-0.1c0-5.1,0-10.2,0-15.3c-0.9,0-1.7,0-2.6,0
						c-6.2-0.9-9.3-4.1-9.3-9.6c0-2.6,0-5.2,0-7.8c0.1-0.4,0.3-0.6,0.8-0.6c10.6,0,21.3,0,31.9,0c0.5,0.1,0.7,0.3,0.7,0.6
						c0,16.6,0,33.3,0,49.9c0,0.4-0.2,0.6-0.7,0.6c-17.2-0.1-34.5,0-51.7,0.5c-5.5,0.1-8.6-3.3-9.3-10.4c0-30.6,0-61.2,0-91.8
						C247.1,345.7,247.3,345.5,247.7,345.5z"/>
				</g>
				<g>
					<path class="st4" d="M256.3,446.1c-1.6,0-6,0.1-6.8-8.4c0-30,0-60,0-90.1c18.9,0.5,37.8,0.7,56.7,0.6c0,10,0,19.9,0,29.9
						c-2.9,0-5.7,0-8.6,0c-3.7,0-6.2-1.6-7.6-5c-0.2-1.1-0.3-2.1-0.3-2.8c0-2.8,0-5.6,0-8.4c-7.9,0-15.8-0.1-23.6-0.2
						c0,23.4,0,46.9,0,70.3c7.9-0.1,15.8-0.2,23.6-0.2c0-6.5,0-12.9,0-19.4c-1.6,0-3.2,0-4.8,0c-4.9-0.8-7.1-3.1-7.1-7.5
						c0-2.1,0-4.2,0-6.3c9.5,0,18.9,0,28.4,0c0,15.6,0,31.3,0,46.9C289.6,445.6,272.9,445.8,256.3,446.1z"/>
				</g>
				<g>
					<path class="st1" d="M256.3,444c-1.1,0-3.6,0.1-4.3-6.5c0-29.2,0-58.5,0-87.7c17.2,0.4,34.5,0.6,51.7,0.5c0,8.6,0,17.2,0,25.7
						c-2,0-4.1,0-6.1,0c-1.9,0-3.8-0.4-5.2-3.4c-0.1-1-0.2-1.7-0.2-2.3c0-3.5,0-7,0-10.4c-9.5,0-19.1-0.1-28.6-0.2
						c0,24.8,0,49.7,0,74.5c9.5-0.1,19.1-0.2,28.6-0.2c0-7.9,0-15.7,0-23.6c-2.4,0-4.7,0-7.1,0c-3.5-0.6-4.8-2.1-4.8-5.4
						c0-1.4,0-2.8,0-4.2c7.8,0,15.6,0,23.4,0c0,14.2,0,28.5,0,42.7C287.9,443.5,272.1,443.7,256.3,444z"/>
				</g>
			</g>
			<g>
				<g>
					<path class="st3" d="M311,346.1c6.7-0.1,13.4-0.1,20.1-0.3c0.5,0.1,0.7,0.3,0.7,0.6c0,15.2,0,30.5,0,45.7
						c0.4-0.1,6.7-5.4,19-16.1c0-10,0-20,0-30.1c0.1-0.4,0.3-0.6,0.7-0.6c2.4-0.1,4.8-0.2,7.1-0.2c9.1-0.3,13.6,2.5,13.6,8.7
						c0,29,0,58.1,0,87.1c-1.4,5.5-4.5,8.1-9.3,8c-3.8-0.1-7.7-0.3-11.5-0.4c-0.5,0-0.7-0.2-0.7-0.6c0-15.3,0-30.6,0-45.8
						c-0.4,0.1-6.7,5.5-19,15.9c0,9.8,0,19.6,0,29.5c0,0.4-0.2,0.6-0.7,0.6c-3.6-0.1-7.2-0.1-10.8-0.2c-4.9-0.1-8.2-2.4-10-7
						c0-31.4,0-62.8,0-94.2C310.4,346.3,310.6,346.2,311,346.1z"/>
				</g>
				<g>
					<path class="st4" d="M353.3,446.5c0-15.8,0-31.5,0-47.3c-1.1,0.3-2.2,0.6-3.3,0.9c-0.8,0.2-1.1,0.4-20,16.4
						c-0.2,0.2-0.5,0.4-0.7,0.6c0,9.6,0,19.2,0,28.8c-3-0.1-6-0.1-9-0.1c-2.3,0-5.6-0.6-7.5-5.2c0-30.8,0-61.6,0-92.4
						c5.5,0,11-0.1,16.5-0.2c0,15.7,0,31.4,0,47.1c1.1-0.3,2.2-0.6,3.3-0.9c0.8-0.3,1.1-0.2,20-16.7c0.2-0.2,0.5-0.4,0.7-0.6
						c0-9.8,0-19.6,0-29.5c1.8-0.1,3.6-0.1,5.3-0.2c9.9-0.3,11.1,3.4,11.1,6.7c0,28.9,0,57.8,0,86.7c-1.6,5.7-4.6,6.2-6.8,6.2
						C359.8,446.7,356.6,446.6,353.3,446.5z"/>
				</g>
				<g>
					<path class="st1" d="M355.8,444.5c0-16.1,0-32.1,0-48.2c-2.2,0.6-4.4,1.2-6.6,1.9c-1.5,0.4-1.7,0.6-21,17
						c-0.5,0.4-1,0.8-1.4,1.2c0,9.2,0,18.4,0,27.5c-2.2,0-4.3-0.1-6.5-0.1c-1.2,0-3.4,0-5-3.5c0-30,0-60,0-90
						c3.8,0,7.7-0.1,11.5-0.1c0,16,0,31.9,0,47.9c2.2-0.6,4.4-1.2,6.6-1.8c1.5-0.5,1.7-0.4,21-17.2c0.5-0.4,1-0.8,1.4-1.3
						c0-9.4,0-18.8,0-28.2c0.9,0,1.9-0.1,2.8-0.1c8.7-0.3,8.7,2.7,8.7,4.7c0,28.8,0,57.5,0,86.3c-1.3,4.5-3.3,4.4-4.3,4.4
						C360.6,444.6,358.2,444.5,355.8,444.5z"/>
				</g>
			</g>
			<g>
				<g>
					<path class="st3" d="M223.8,344.7c6.8,0.3,13.6,0.5,20.5,0.7c0.5,0.1,0.7,0.3,0.7,0.6c0,30.3,0,60.6,0,91
						c0,6.3-2.6,10.2-7.9,11.8c-4.4,0.2-8.8,0.3-13.3,0.5c-0.5,0-0.7-0.2-0.7-0.6c0-34.5,0-69,0-103.5
						C223.2,344.8,223.5,344.6,223.8,344.7z"/>
				</g>
				<g>
					<path class="st4" d="M225.6,447.1c0-33.4,0-66.8,0-100.2c5.6,0.2,11.3,0.4,16.9,0.6c0,29.9,0,59.7,0,89.6
						c0,6.8-3.2,8.8-5.8,9.6C233,446.8,229.3,446.9,225.6,447.1z"/>
				</g>
				<g>
					<path class="st1" d="M228.1,444.8c0-31.9,0-63.8,0-95.7c4,0.1,7.9,0.3,11.9,0.4c0,29.2,0,58.4,0,87.6c0,5.7-2.4,7-3.7,7.5
						C233.6,444.7,230.9,444.7,228.1,444.8z"/>
				</g>
			</g>
			<g>
				<g>
					<path class="st3" d="M82.7,318.1c8.2,1.2,16.4,2.4,24.5,3.5c0.6,0.2,0.9,0.5,0.9,1c0,22.4,0,44.8,0,67.3
						c0.5-0.1,8.2-8.1,23.3-22.3c0-14,0-28.1,0-42.1c0.1-0.5,0.4-0.8,0.9-0.7c3.2,0.4,6.5,0.7,9.7,1.1c8.3,0.9,13.5,4.3,15.4,10.2
						c0.1,0.8,0.3,1.7,0.4,2.5c0,13.5,0,26.9,0,40.4c-6.3,5.8-12.6,11.8-18.9,18c2.3,0,4.7,0,7,0c6.4,0,10.3,3.8,11.8,11.4
						c0,15.8,0,31.6,0,47.4c-1.8,7.2-5.6,11.1-11.4,11.8c-4.7,0.5-9.4,1-14.1,1.6c-0.6,0.1-0.9-0.2-0.9-0.7c0-15.3,0-30.6,0-45.9
						c-6.3,0.3-12.6,0.5-18.9,0.8c-0.4,0-1.8,1.5-4.4,4.6c0,14.5,0,28.9,0,43.4c0,0.6-0.3,0.9-0.9,1c-4.7,0.6-9.4,1.3-14,2
						c-6,0.9-9.8-2.8-11.4-11.3c0-48,0-96,0-144C82,318.3,82.3,318.1,82.7,318.1z"/>
				</g>
				<g>
					<path class="st4" d="M134.5,465.9c0-15.5,0-31,0-46.5c-7.3,0.3-14.6,0.5-22,0.8c-1.6,0.1-2.7,1-6.7,5.8
						c-0.3,0.3-0.5,0.6-0.8,0.9c0,14.2,0,28.4,0,42.5c-3.9,0.5-7.9,1-11.8,1.6c-2.7,0.4-6.6-0.1-8.3-8.8c0-46.9,0-93.7,0-140.6
						c6.7,1,13.4,1.9,20.2,2.8c0,23.2,0,46.5,0,69.7c1.3-0.4,2.7-0.9,4-1.3c1-0.1,1.4-1,24.5-23c0.3-0.3,0.6-0.5,0.9-0.8
						c0-13.7,0-27.3,0-41c2.5,0.3,5,0.5,7.5,0.8c9,1,11.4,4.8,12.4,7.7c0.1,0.7,0.2,1.4,0.3,2.1c0,13.1,0,26.1,0,39.2
						c-7.7,7.2-15.4,14.5-23,22.2c4.8,0,9.5,0,14.3-0.1c3.2,0,7.1,1,8.8,8.8c0,15.7,0,31.3,0,47c-1.9,7.4-5.7,8.7-8.4,9
						C142.4,465.1,138.4,465.5,134.5,465.9z"/>
				</g>
				<g>
					<path class="st1" d="M137.5,462.7c0-15.4,0-30.8,0-46.3c-8.3,0.3-16.7,0.5-25,0.8c-3.2,0.1-5.1,2.2-9,6.9
						c-0.5,0.6-1,1.2-1.5,1.8c0,13.6,0,27.2,0,40.8c-2.9,0.4-5.9,0.8-8.8,1.1c-1.2,0.2-3.8,0.5-5.3-6.4c0-45.4,0-90.8,0-136.2
						c4.7,0.6,9.4,1.3,14.1,1.9c0,23.8,0,47.5,0,71.3c2.7-0.9,5.4-1.8,8-2.7c1.8-0.4,2.1-1.2,25.7-23.8c0.6-0.5,1.2-1.1,1.7-1.6
						c0-13,0-26,0-39.1c1.5,0.2,3,0.3,4.4,0.5c7.5,0.8,8.9,3.6,9.4,5.2c0.1,0.5,0.2,1.1,0.3,1.6c0,12.7,0,25.3,0,38
						c-9.1,8.5-18.2,17.3-27.2,26.5c7.2-0.1,14.3-0.1,21.5-0.2c1.6,0,4.3,0,5.7,6.3c0,15.5,0,31,0,46.5c-1.6,5.8-4,6-5.3,6.2
						C143.4,462.1,140.5,462.3,137.5,462.7z"/>
				</g>
			</g>
			<g>
				<g>
					<path class="st3" d="M160.3,340.8c6.4,0.5,12.9,1,19.3,1.4c2.3,0.1,6.6,3.7,12.9,10.4c2.3,2,4.5,4,6.8,6c0-4.8,0-9.7,0-14.5
						c0.1-0.4,0.3-0.6,0.7-0.6c6.7,0.4,13.4,0.7,20.1,1c0.5,0.1,0.7,0.3,0.7,0.6c0,32.1,0,64.2,0,96.3c-1.4,5.4-4.5,8.2-9.3,8.4
						c-3.8,0.2-7.6,0.4-11.5,0.6c-0.5,0-0.7-0.2-0.7-0.6c0-21.5,0-43,0-64.5c-0.4-0.6-6.5-5.9-18.3-16.7c0,27.4,0,54.9,0,82.3
						c0,0.4-0.2,0.6-0.7,0.7c-3.8,0.3-7.6,0.5-11.5,0.8c-5.5,0.4-8.6-3.2-9.3-10.9c0-33.4,0-66.8,0-100.2
						C159.7,341,159.9,340.8,160.3,340.8z"/>
				</g>
				<g>
					<path class="st4" d="M201.8,448.2c0-21.1,0-42.2,0-63.4c-0.1-0.2-0.2-0.3-0.3-0.5c-0.3-0.6-0.8-1-18.7-17.2
						c-1.4-1.3-2.8-2.6-4.2-3.9c0,28.8,0,57.5,0,86.3c-3.2,0.2-6.4,0.4-9.7,0.7c-1.6,0.1-5.9,0.4-6.8-8.9c0-32.7,0-65.4,0-98.1
						c5.8,0.4,11.7,0.8,17.5,1.2c0.2,0,2.7,0.6,11,9.5c0,0,0.1,0.1,0.1,0.1c3.7,3.3,7.4,6.5,11.1,9.7c0-6,0-12,0-18
						c5.5,0.3,11,0.6,16.5,0.8c0,31.6,0,63.1,0,94.7c-1.6,5.5-4.6,6.3-6.8,6.4C208.3,447.8,205.1,448,201.8,448.2z"/>
				</g>
				<g>
					<path class="st1" d="M204.3,445.9c0-20.5,0-41.1,0-61.6c-0.2-0.3-0.4-0.7-0.6-1c-0.5-0.9-0.9-1.2-19.1-17.6
						c-2.8-2.6-5.6-5.2-8.5-7.8c0,29.9,0,59.7,0,89.6c-2.4,0.2-4.8,0.3-7.2,0.5c-1.1,0.1-3.6,0.3-4.3-6.8c0-31.8,0-63.6,0-95.4
						c4.9,0.3,9.8,0.7,14.7,1c0.6,0.3,3.2,2,9.5,8.6c0.1,0.1,0.1,0.1,0.2,0.2c5.1,4.6,10.3,9,15.4,13.4c0-6.9,0-13.9,0-20.8
						c3.8,0.2,7.7,0.4,11.5,0.5c0,30.8,0,61.6,0,92.5c-1.3,4.3-3.2,4.4-4.3,4.4C209.1,445.6,206.7,445.7,204.3,445.9z"/>
				</g>
			</g>
			<g>
				<g>
					<path class="st3" d="M375.3,344.5c19.8-0.9,39.6-2.1,59.3-3.6c0.5,0,0.8,0.2,0.8,0.6c0,6.2,0,12.4,0,18.5
						c0,0.4-0.3,0.7-0.8,0.7c-6.3,0.3-12.6,0.6-18.9,0.9c0,29.9,0,59.7,0,89.6c0,0.4-0.3,0.6-0.8,0.6c-3.8-0.3-7.6-0.5-11.4-0.7
						c-6.2-1.4-9.4-4.9-9.4-10.6c0-26,0-52,0-78c-3.5,0.1-6.9,0.2-10.4,0.4c-6.2-1.1-9.3-3.7-9.3-7.7c0-3.3,0-6.6,0-9.9
						C374.6,344.7,374.8,344.5,375.3,344.5z"/>
				</g>
				<g>
					<path class="st4" d="M403.8,448.8c-4.9-1.1-7.1-3.7-7.1-8.3c0-26.8,0-53.6,0-80.4c-4.2,0.2-8.4,0.3-12.6,0.5
						c-6.4-1.2-7.1-3.8-7.1-5.6c0-2.8,0-5.6,0-8.4c18.6-0.8,37.3-1.9,55.9-3.3c0,5.1,0,10.1,0,15.2c-6.5,0.3-13.1,0.7-19.7,1
						c0,30,0,60,0,89.9C410.1,449.1,406.9,448.9,403.8,448.8z"/>
				</g>
				<g>
					<path class="st1" d="M404,446.6c-3.5-0.8-4.8-2.5-4.8-6c0-27.6,0-55.2,0-82.8c-4.9,0.2-9.8,0.4-14.7,0.6
						c-4.9-1-4.9-2.7-4.9-3.6c0-2.1,0-4.1,0-6.2c17-0.7,33.9-1.7,50.9-2.9c0,3.5,0,7,0,10.5c-6.5,0.4-13.1,0.7-19.7,1
						c0,29.9,0,59.8,0,89.7C408.5,446.8,406.3,446.7,404,446.6z"/>
				</g>
			</g>
			<g>
				<g>
					<path class="st3" d="M438.4,327.4c24.7-2.5,49.3-5.6,73.8-9.3c0.6,0,0.9,0.3,0.9,0.8c0,17.1,0,34.1,0,51.2c0,0.6-0.3,0.9-0.9,1
						c-4.7,0.2-9.3,0.5-14,0.7c-6.1,0.3-9.9-3.9-11.4-12.3c0-3.7,0-7.4,0-11.1c-7.9,0.7-15.8,1.3-23.7,1.9c0,10.4,0,20.7,0,31.1
						c24.1,6.7,40.8,12.4,50,16.1c0,21.5,0,43,0,64.5c0,7.6-3.7,11.7-11,12.3c-21.2-3.1-42.4-5.7-63.7-7.8c-0.6-0.1-0.9-0.4-0.9-0.9
						c0-15,0-29.9,0-44.9c0.1-0.6,0.4-0.9,0.9-0.8c2.9,0.1,5.9,0.2,8.8,0.3c8.4,0.3,13.5,2.9,15.4,7.8c0.8,1.5,1.2,2.9,1.2,4.3
						c0,3.8,0,7.7,0,11.5c7.6,0.6,15.3,1.2,22.9,1.9c0-10.2,0-20.4,0-30.5c-32.8-11.5-49.2-16.2-49.2-16.9c0-23.3,0-46.6,0-69.8
						C437.6,327.8,437.9,327.5,438.4,327.4z"/>
				</g>
				<g>
					<path class="st4" d="M440.6,463.9c0-13.7,0-27.4,0-41.1c2.2,0.1,4.4,0.2,6.6,0.3c10.5,0.4,12,4.5,12.5,5.8
						c0,0.1,0.1,0.1,0.1,0.2c0,0.1,0.1,0.1,0.1,0.2c0.6,1,0.9,2,0.9,2.8c0,4.8,0,9.6,0,14.4c9.7,0.8,19.3,1.6,29,2.5
						c0-12,0-24,0-36.1c-0.7-0.3-1.4-0.5-2.1-0.7C455,401,444,397.9,440.6,396.4c0-22.1,0-44.2,0-66.4c23.2-2.2,46.3-5,69.4-8.4
						c0,15.4,0,30.8,0,46.2c-3.9,0.2-7.9,0.4-11.8,0.6c-1.8,0.1-6.5,0.3-8.3-9.6c0-4.7,0-9.3,0-14c-9.9,0.9-19.9,1.8-29.9,2.6
						c0,12,0,24,0,36c0.7,0.2,1.4,0.4,2.1,0.6c22.3,6.3,38.4,11.8,47.9,15.5c0,20.6,0,41.3,0,61.9c0,5.9-2.6,8.9-8.3,9.5
						C481.4,468.2,461,465.8,440.6,463.9z"/>
				</g>
				<g>
					<path class="st1" d="M443.7,461.3c0-11.8,0-23.7,0-35.5c1.2,0.1,2.4,0.1,3.6,0.2c5.5,0.2,8.8,1.5,9.7,3.8
						c0.1,0.1,0.1,0.3,0.2,0.4c0.1,0.1,0.1,0.3,0.2,0.4c0.4,0.8,0.5,1.2,0.5,1.4c0,5.8,0,11.5,0,17.3c11.7,1,23.4,2,35.1,3.2
						c0-13.9,0-27.8,0-41.7c-1.4-0.5-2.8-1-4.3-1.5c-28-9.5-40-13-45-14.8c0-20.6,0-41.2,0-61.8c21.1-2,42.2-4.4,63.3-7.3
						c0,13.2,0,26.4,0,39.6c-2.9,0.2-5.8,0.4-8.8,0.5c-1.3,0.1-3.9,0.2-5.3-7c0-5.6,0-11.3,0-16.9c-12,1.2-24,2.3-36,3.3
						c0,13.6,0,27.3,0,40.9c1.4,0.4,2.9,0.8,4.3,1.2c20.8,6,36.1,11.2,45.7,14.9c0,19.8,0,39.5,0,59.3c0,4.2-1.5,6.1-5.6,6.6
						C482.2,465.3,462.9,463.1,443.7,461.3z"/>
				</g>
			</g>
		</g>
	</g>
	<g>
		<g>
			<g>
				<path class="st3" d="M379.9,217.7l-0.1-0.1c-0.1-0.2-9-17.1-9.3-28.9c-0.2-6.7,1-11.7,2.5-17.4c1.6-6.4,3.4-13.6,3.6-24.8
					c0.8-1.3,2.9-5.6,2.9-13.1c0-7.7-3.1-13.5-4.2-15.2l-0.6-1.3c-18.5-51.4-40.5-59-60-65.7c-1-0.3-2-0.7-2.9-1
					c-4.1-1.4-6.4-3.4-8.3-5c-1.8-1.5-3.4-3-5.8-3s-4.1,1.4-5.8,3c-1.9,1.6-4.2,3.6-8.3,5c-1,0.3-2,0.7-2.9,1
					c-19.4,6.7-41.4,14.3-60,65.7l-0.6,1.3c-1.1,1.7-4.2,7.5-4.2,15.2c0,7.5,2.1,11.7,2.9,13.1c0.2,11.2,2,18.4,3.6,24.8
					c1.4,5.7,2.7,10.7,2.5,17.4c-0.4,11.7-9.2,28.7-9.3,28.9l-0.1,0.1c-0.1,0.2-1,2.4,0.3,5c1.4,2.6,4.5,4.6,9.4,5.8
					c0,0.3,0,0.6,0,0.8l0,0c-0.1,3.8,3.6,10.2,36.5,22.2c16.3,6,32.9,10.7,35.3,11.4c0.2,0.1,0.4,0.1,0.6,0.2l0.2,0.1l0.2-0.1
					c0.2,0,0.4-0.1,0.6-0.2c2.4-0.7,19-5.4,35.2-11.3c32.9-12,36.6-18.4,36.5-22.2c0-0.3,0-0.5,0-0.8c4.8-1.2,8-3.1,9.4-5.8
					C380.9,220.2,380,218,379.9,217.7z"/>
			</g>
			<g>
				<path class="st5" d="M379.9,217.7l-0.1-0.1c-0.1-0.2-9-17.1-9.3-28.9c-0.2-6.7,1-11.7,2.5-17.4c1.6-6.4,3.4-13.6,3.6-24.8
					c0.8-1.3,2.9-5.6,2.9-13.1c0-7.7-3.1-13.5-4.2-15.2l-0.6-1.3c-18.5-51.4-40.5-59-60-65.7c-1-0.3-2-0.7-2.9-1
					c-4.1-1.4-6.4-3.4-8.3-5c-1.8-1.5-3.4-3-5.8-3s-4.1,1.4-5.8,3c-1.9,1.6-4.2,3.6-8.3,5c-1,0.3-2,0.7-2.9,1
					c-19.4,6.7-41.4,14.3-60,65.7l-0.6,1.3c-1.1,1.7-4.2,7.5-4.2,15.2c0,7.5,2.1,11.7,2.9,13.1c0.2,11.2,2,18.4,3.6,24.8
					c1.4,5.7,2.7,10.7,2.5,17.4c-0.4,11.7-9.2,28.7-9.3,28.9l-0.1,0.1c-0.1,0.2-1,2.4,0.3,5c1.4,2.6,4.5,4.6,9.4,5.8
					c0,0.3,0,0.6,0,0.8l0,0c-0.1,3.8,3.6,10.2,36.5,22.2c16.3,6,32.9,10.7,35.3,11.4c0.2,0.1,0.4,0.1,0.6,0.2l0.2,0.1l0.2-0.1
					c0.2,0,0.4-0.1,0.6-0.2c2.4-0.7,19-5.4,35.2-11.3c32.9-12,36.6-18.4,36.5-22.2c0-0.3,0-0.5,0-0.8c4.8-1.2,8-3.1,9.4-5.8
					C380.9,220.2,380,218,379.9,217.7z M281.9,55c1-0.3,2-0.7,3-1c4.8-1.7,7.6-4.1,9.6-5.8c0.5-0.5,1-0.8,1.4-1.1l1.9,25.4l1.9-25.4
					c0.4,0.3,0.8,0.7,1.4,1.1c2,1.7,4.7,4.1,9.6,5.8c1,0.3,2,0.7,3,1c18.4,6.3,39.1,13.5,56.9,61.4c-2.3-0.5-5.6-1.5-7.9-3.7
					c-25.6-23.6-63.6-39.4-64-39.5l-0.7-0.3l-0.7,0.3c-0.4,0.2-38.4,15.9-64,39.5c-2.3,2.2-5.6,3.2-7.9,3.7
					C242.8,68.5,263.5,61.3,281.9,55z M219.3,221c-0.5-0.8-0.3-1.5-0.3-1.6c0.9-1.6,9.4-18.2,9.7-30.5c0.2-7.3-1.1-12.7-2.6-18.5
					c-1.5-5.8-3.1-12.3-3.4-22.1c1.5,0.8,3.8,2.7,6.2,7.7c5.9,12.2,1.5,38.6-1.5,56c-0.8,4.8-1.5,9.1-1.9,12.5
					C221.2,223.4,219.8,221.8,219.3,221z M299.6,258.5l-1.9-113.4l-1.9,113.3c-32.7-9.4-66.9-22.9-66.7-29c0-0.7,0.1-1.4,0.2-2.3
					c0.3-3.6,1.2-8.6,2.2-14.5c3.2-19,7.5-45.1,1.1-58.4c-4-8.3-8.3-10.1-10.6-10.4c-0.7-1.5-2-4.9-2-10.4c0-6.1,2.4-11,3.4-12.8
					c2.4-0.3,8.3-1.3,12.4-5.1C256.8,96.1,286.7,82,295.7,78c0,0.1,0,0.2,0,0.3l2,59.3l2-59.3c0,0,0-0.1,0-0.1c0-0.1,0-0.1,0-0.2
					c9,4,38.9,18.1,60.1,37.6c4.1,3.8,10,4.8,12.4,5.1c1,1.8,3.4,6.6,3.4,12.8c0,5.6-1.3,9-2,10.4c-2.3,0.3-6.6,2.1-10.6,10.4
					c-6.4,13.3-2.1,39.3,1.1,58.4c1,5.8,1.8,10.9,2.2,14.5c0.1,0.8,0.1,1.6,0.2,2.3C366.4,235.7,332.2,249.2,299.6,258.5z M376,221
					c-0.5,0.9-1.9,2.4-6.2,3.6c-0.4-3.4-1.1-7.7-1.9-12.5c-2.9-17.5-7.3-43.8-1.5-56c2.4-4.9,4.7-6.9,6.2-7.7
					c-0.3,9.7-2,16.3-3.4,22.1c-1.4,5.8-2.8,11.2-2.6,18.5c0.4,12.2,8.8,28.7,9.7,30.5C376.3,219.5,376.5,220.2,376,221z"/>
				<path class="st5" d="M313.7,143v-1.3l-16.1-2.7l-16.1,2.7v1.3c-13.9-0.5-31.8-5.7-32-5.8l-2.5-0.7v15.9l38.4,13.4V145l12.2-2.1
					l12.2,2.1v20.8l38.4-13.4v-15.9l-2.5,0.7C345.5,137.3,327.6,142.5,313.7,143z"/>
			</g>
			<g>
				<path class="st1" d="M303,192.9v59.2c0,0,33.1-10.2,36.8-12.2c0,0-24.6,5.7-29.2,0C306.1,234.2,303,192.9,303,192.9z"/>
				<path class="st1" d="M292.2,192.9v59.2c0,0-33.1-10.2-36.8-12.2c0,0,24.6,5.7,29.2,0S292.2,192.9,292.2,192.9z"/>
			</g>
			<g>
				<path class="st2" d="M253.5,239c0,0-10.4-2.4-19.2-9.9c-2.5-2.1,3.9-31.3,4.4-36.3c0.9-9.3,1.7-24.7,1.7-24.7s1.2,12.8,7.4,16.7
					h-5c0,0,1.3,5.8,5.9,7.9c0,0-3,2-6.5,1c0,0,1.6,7.6,6.9,10.1c0,0-4.3,1.4-7.4-0.1c0,0,1.4,10.3,9,13.2c0,0-5.8,0.9-9.3,0.4
					c0,0,4.4,8.1,11.8,10.7c-2,1.8-10.5,0.2-10.5,0.2S245.6,235.6,253.5,239z"/>
				<path class="st2" d="M341.8,239c0,0,10.4-2.4,19.2-9.9c2.5-2.1-3.9-31.3-4.4-36.3c-0.9-9.3-1.7-24.7-1.7-24.7
					s-1.2,12.8-7.4,16.7h5c0,0-1.3,5.8-5.9,7.9c0,0,3,2,6.5,1c0,0-1.6,7.6-6.9,10.1c0,0,4.3,1.4,7.4-0.1c0,0-1.4,10.3-9,13.2
					c0,0,5.8,0.9,9.3,0.4c0,0-4.4,8.1-11.8,10.7c2,1.8,10.5,0.2,10.5,0.2S349.6,235.6,341.8,239z"/>
			</g>
			<g>
				<path class="st6" d="M229.9,124.2c0,0-7,1.3-6.1,10.5s7.9,7.9,7.9,7.9S223.8,135.1,229.9,124.2z"/>
				<path class="st6" d="M365.4,124.2c0,0,7,1.3,6.1,10.5s-7.9,7.9-7.9,7.9S371.5,135.1,365.4,124.2z"/>
			</g>
			<g>
				<path class="st1" d="M302.2,53.1L301.3,72c0,0,2.7-7.6,7.8-7.8c5.1-0.3,18.3,3.6,28.1,7.7c0,0-3.1-7.3-26.2-13.9
					C306.4,56.6,305.4,53.1,302.2,53.1z"/>
				<path class="st1" d="M293,53.1L294,72c0,0-2.7-7.6-7.8-7.8c-5.1-0.3-18.3,3.6-28.1,7.7c0,0,3.1-7.3,26.2-13.9
					C288.9,56.6,289.8,53.1,293,53.1z"/>
			</g>
			<g>
				<path class="st1" d="M303.8,86.7l-1.3,36.2c0,0,4.4-19.6,10.5-22.3c5-2.2,23.3,4.2,23.3,4.2S320.2,91.3,303.8,86.7z"/>
				<path class="st1" d="M291.5,86.7l1.3,36.2c0,0-4.4-19.6-10.5-22.3c-5-2.2-23.3,4.2-23.3,4.2S275.1,91.3,291.5,86.7z"/>
			</g>
			<g>
				<path class="st2" d="M231.9,108.4c0,0,13.4-26.7,22.3-33.7c-1.6,7-0.1,11.1,16.1,7C270.2,81.8,245.9,93.7,231.9,108.4z"/>
				<path class="st2" d="M363.4,108.4c0,0-13.4-26.7-22.3-33.7c1.6,7,0.1,11.1-16.1,7C325,81.8,349.4,93.7,363.4,108.4z"/>
			</g>
		</g>
		<g>
			<g>
				<g>
					<circle cx="254.4" cy="171" r="2.7"/>
					<circle cx="267.5" cy="175.9" r="2.7"/>
					<circle cx="280.6" cy="180.7" r="2.7"/>
				</g>
				<g>
					<circle cx="254.4" cy="187" r="2.7"/>
					<circle cx="267.5" cy="191.9" r="2.7"/>
					<circle cx="280.6" cy="196.7" r="2.7"/>
				</g>
				<g>
					<circle cx="254.4" cy="203" r="2.7"/>
					<circle cx="267.5" cy="207.8" r="2.7"/>
					<circle cx="280.6" cy="212.7" r="2.7"/>
				</g>
			</g>
			<g>
				<g>
					<circle cx="340.9" cy="171" r="2.7"/>
					<circle cx="327.8" cy="175.9" r="2.7"/>
					<circle cx="314.6" cy="180.7" r="2.7"/>
				</g>
				<g>
					<circle cx="340.9" cy="187" r="2.7"/>
					<circle cx="327.8" cy="191.9" r="2.7"/>
					<circle cx="314.6" cy="196.7" r="2.7"/>
				</g>
				<g>
					<circle cx="340.9" cy="203" r="2.7"/>
					<circle cx="327.8" cy="207.8" r="2.7"/>
					<circle cx="314.6" cy="212.7" r="2.7"/>
				</g>
			</g>
		</g>
		<g>
			<g>
				<g>
					<circle class="st5" cx="254.4" cy="171" r="2.7"/>
					<circle class="st5" cx="267.5" cy="175.9" r="2.7"/>
					<circle class="st5" cx="280.6" cy="180.7" r="2.7"/>
				</g>
				<g>
					<circle class="st5" cx="254.4" cy="187" r="2.7"/>
					<circle class="st5" cx="267.5" cy="191.9" r="2.7"/>
					<circle class="st5" cx="280.6" cy="196.7" r="2.7"/>
				</g>
				<g>
					<circle class="st5" cx="254.4" cy="203" r="2.7"/>
					<circle class="st5" cx="267.5" cy="207.8" r="2.7"/>
					<circle class="st5" cx="280.6" cy="212.7" r="2.7"/>
				</g>
			</g>
			<g>
				<g>
					<circle class="st5" cx="340.9" cy="171" r="2.7"/>
					<circle class="st5" cx="327.8" cy="175.9" r="2.7"/>
					<circle class="st5" cx="314.6" cy="180.7" r="2.7"/>
				</g>
				<g>
					<circle class="st5" cx="340.9" cy="187" r="2.7"/>
					<circle class="st5" cx="327.8" cy="191.9" r="2.7"/>
					<circle class="st5" cx="314.6" cy="196.7" r="2.7"/>
				</g>
				<g>
					<circle class="st5" cx="340.9" cy="203" r="2.7"/>
					<circle class="st5" cx="327.8" cy="207.8" r="2.7"/>
					<circle class="st5" cx="314.6" cy="212.7" r="2.7"/>
				</g>
			</g>
		</g>
	</g>
	<g>
		<path class="st0" d="M210.9,319.3l-8.1,10.4h-35.6v-40.3h12.5v29.9H210.9z"/>
		<path class="st0" d="M261.8,319.3l-8,10.4H215v-40.3h46.7l-8.1,10.5h-26.1v4.8h31.9l-7.2,9.2h-24.8v5.5H261.8z"/>
		<path class="st0" d="M312.9,319.3l-8,10.4h-38.8v-40.3h46.7l-8.1,10.5h-26.1v4.8h31.9l-7.2,9.2h-24.8v5.5H312.9z"/>
		<path class="st0" d="M344.1,329.6h-27v-25.1h12.5v14.8h14.5c6.9,0,11.9-3.9,11.9-9.6c0-5.7-5.2-9.8-11.9-9.8h-27l7.9-10.5h19
			c14.1,0,24.3,8.1,24.3,19.8C368.4,320.8,358.1,329.6,344.1,329.6z"/>
		<path class="st0" d="M412.1,305.4c9.8,0,15.1,3.7,15.1,11c0,8.2-5,13.2-17.3,13.2h-37.5l8-10.4h30.5c3,0,4.3-0.8,4.3-3
			c0-2-1.3-2.9-4.3-2.9h-21.9c-10.4,0-15.1-4.6-15.1-11.6c0-7.6,5.1-12.5,17.3-12.5h35l-8,10.5h-27.9c-2.9,0-4.3,0.7-4.3,2.8
			s1.4,2.8,4.3,2.8H412.1z"/>
	</g>
</g>
</svg>
