<?xml version="1.0" encoding="UTF-8" standalone="no"?>
<!-- Generator: Adobe Illustrator 15.1.0, SVG Export Plug-In  -->

<svg
   xmlns:dc="http://purl.org/dc/elements/1.1/"
   xmlns:cc="http://creativecommons.org/ns#"
   xmlns:rdf="http://www.w3.org/1999/02/22-rdf-syntax-ns#"
   xmlns:svg="http://www.w3.org/2000/svg"
   xmlns="http://www.w3.org/2000/svg"
   xmlns:sodipodi="http://sodipodi.sourceforge.net/DTD/sodipodi-0.dtd"
   xmlns:inkscape="http://www.inkscape.org/namespaces/inkscape"
   version="1.1"
   x="0px"
   y="0px"
   width="875"
   height="1000"
   viewBox="-63.658 0 875 1000"
   overflow="visible"
   enable-background="new -63.658 0 1000 1000"
   xml:space="preserve"
   id="svg2"
   inkscape:version="0.91 r13725"
   sodipodi:docname="Italie_Rugby.svg"
   style="overflow:visible"><metadata
     id="metadata140"><rdf:RDF><cc:Work
         rdf:about=""><dc:format>image/svg+xml</dc:format><dc:type
           rdf:resource="http://purl.org/dc/dcmitype/StillImage" /><dc:title></dc:title></cc:Work></rdf:RDF></metadata><sodipodi:namedview
     pagecolor="#ffffff"
     bordercolor="#666666"
     borderopacity="1"
     objecttolerance="10"
     gridtolerance="10"
     guidetolerance="10"
     inkscape:pageopacity="0"
     inkscape:pageshadow="2"
     inkscape:window-width="1920"
     inkscape:window-height="1018"
     id="namedview138"
     showgrid="false"
     inkscape:zoom="3.776"
     inkscape:cx="763.23822"
     inkscape:cy="900.3136"
     inkscape:window-x="1358"
     inkscape:window-y="-8"
     inkscape:window-maximized="1"
     inkscape:current-layer="svg2" /><defs
     id="defs4" /><path
     d="m 690.587,54.374 0,-30.619 13.668,0 c 3.405,0 5.917,0.268 7.463,0.829 1.561,0.558 2.795,1.539 3.717,2.94 0.936,1.416 1.397,3.029 1.397,4.838 0,2.308 -0.714,4.196 -2.134,5.694 -1.404,1.501 -3.516,2.438 -6.31,2.824 1.382,0.784 2.526,1.654 3.456,2.572 0.914,0.937 2.118,2.59 3.664,4.965 l 3.925,5.958 -7.745,0 -4.683,-6.637 c -1.65,-2.382 -2.795,-3.88 -3.39,-4.504 -0.624,-0.617 -1.285,-1.037 -1.977,-1.263 -0.685,-0.231 -1.755,-0.35 -3.256,-0.35 l -1.293,0 0,12.754 -6.502,0 z m 6.504,-17.627 4.771,0 c 3.137,0 5.039,-0.123 5.827,-0.372 0.773,-0.246 1.383,-0.688 1.828,-1.305 0.446,-0.613 0.654,-1.39 0.654,-2.319 0,-1.044 -0.297,-1.88 -0.877,-2.513 -0.58,-0.639 -1.397,-1.059 -2.438,-1.233 -0.521,-0.052 -2.096,-0.067 -4.712,-0.067 l -5.055,0 0,7.809 z"
     id="path6"
     inkscape:connector-curvature="0"
     style="fill:#9f8946;fill-opacity:1" /><path
     d="m 704.078,11.417 c -15.252,0 -27.635,12.398 -27.635,27.642 0,15.245 12.383,27.657 27.635,27.657 15.267,0 27.649,-12.412 27.649,-27.657 0,-15.245 -12.383,-27.642 -27.649,-27.642 m 0,50.467 c -12.591,0 -22.817,-10.261 -22.817,-22.826 0,-12.587 10.227,-22.81 22.817,-22.81 12.59,0 22.833,10.223 22.833,22.81 0,12.566 -10.243,22.826 -22.833,22.826"
     id="path8"
     inkscape:connector-curvature="0"
     style="fill:#9f8946;fill-opacity:1" /><path
     d="m 4.277,447.933 c 0,0 14.118,20.696 15.411,28.601 1.279,7.923 4.508,11.044 4.508,11.044 0,0 11.583,-16.849 15.434,-21.402 3.857,-4.538 12.825,-15.679 15.802,-18.273 2.951,-2.605 10.372,-5.002 10.372,-5.002 0,0 0.792,6.578 -0.624,15.802 -1.417,9.224 -1.531,15.861 -2.282,20.153 -0.68,3.791 -2.557,14.301 -3.333,17.69 -0.762,3.4 -0.116,4.3 -0.116,4.3 0,0 4.62,-2.353 7.838,-9.774 3.229,-7.384 5.162,-11.417 6.054,-14.386 0.902,-3.007 7.633,-6.348 7.633,-6.348 0,0 3.174,7.492 2.668,18.671 -0.524,11.164 0.505,22.216 -2.319,31.447 -2.839,9.217 -3.471,11.135 -1.167,19.191 2.323,8.057 4.125,8.845 3.876,14.716 -0.26,5.843 -0.26,14.465 0.13,15.044 1.962,2.929 0.792,0.327 10.124,5.85 0,0 0,22.462 -0.61,34.799 -0.16,3.493 5.534,6.362 7.73,7.626 2.178,1.309 2.824,2.854 2.824,2.854 0,0 -0.138,11.832 -0.138,16.901 0,5.055 -0.126,10.644 1.807,16.872 1.925,6.243 13.769,21.719 18.904,25.851 5.144,4.177 9.652,11.03 17.512,15.713 7.864,4.668 35.004,10.896 42.076,14.672 7.075,3.775 16.719,11.543 23.654,20.759 6.964,9.217 11.867,16.627 13.654,17.407 1.813,0.773 38.75,30.013 38.75,30.013 0,0 -44.7,38.709 -56.886,57.157 -8.744,13.236 -20.696,31.075 -50.965,12.947 -5.943,-3.561 -29.712,-20.127 -32.283,-20.648 -2.58,-0.489 -16.98,-8.948 -23.922,-9.959 -6.964,-1.056 -13.137,-2.765 -20.982,-9.647 -7.856,-6.897 -13.137,-10.123 -18.931,-11.172 -5.79,-1.019 -8.47,-3.247 -9.514,-6.102 -1.019,-2.869 -2.832,-2.46 -8.484,-2.988 -5.664,-0.505 -9.083,-3.359 -9.083,-3.359 0,0 3.928,-1.561 5.102,-5.872 1.141,-4.251 -3.478,-5.559 -9.027,-10.777 -5.526,-5.188 -14.285,-15.311 -19.818,-21.033 -5.526,-5.694 -10.458,-9.039 -10.458,-9.039 0,0 2.493,-0.416 3.902,-2.631 1.416,-2.215 1.806,-1.68 -4.895,-13.512 -6.697,-11.811 -20.009,-32.027 -30.563,-51.069 -10.056,-18.181 -12.583,-26.431 -15.542,-33.447 -2.962,-7.017 -5.251,-21.153 -5.251,-21.153 0,0 8.225,3.435 12.473,6.69 4.255,3.239 9.157,4.83 9.157,4.83 0,0 0.275,-9.722 -2.564,-22.55 -2.839,-12.874 -5.396,-29.642 -5.147,-39.356 0.252,-9.767 6.819,-10.42 7.194,-15.986 0.395,-5.583 -0.505,-22.321 -1.278,-30.757 -0.769,-8.466 -2.308,-12.077 -2.575,-14.791 -1.223,-12.977 -0.015,-11.836 0.078,-15.801 0,0 8.213,2.107 12.476,11.866 2.82,6.455 6.102,12.342 7.38,13.234 1.293,0.951 3.1,-1.16 3.869,-5.427 0.773,-4.263 6.125,-20.799 8.231,-27.671 2.409,-7.834 4.683,-18.626 5.452,-22.119 0.769,-3.51 6.682,-10.649 6.682,-10.649"
     id="path10"
     inkscape:connector-curvature="0"
     style="fill:#86743a" /><path
     d="m 4.277,447.933 -3.144,2.144 c 0.003,0.004 0.855,1.256 2.182,3.29 1.984,3.051 5.005,7.826 7.604,12.494 2.604,4.597 4.768,9.41 5.013,11.287 1.401,8.771 5.128,12.713 5.619,13.167 l 3.233,3.125 2.549,-3.705 c 0.004,-0.007 2.884,-4.196 6.244,-8.953 3.341,-4.734 7.247,-10.134 8.96,-12.148 1.966,-2.312 5.158,-6.217 8.235,-9.871 1.535,-1.825 3.04,-3.579 4.319,-5.017 1.263,-1.423 2.371,-2.571 2.842,-2.973 l 0.027,-0.022 -0.008,0.007 c 0.751,-0.717 3.185,-1.996 5.232,-2.817 1.037,-0.431 2,-0.792 2.694,-1.041 0.699,-0.249 1.093,-0.375 1.097,-0.379 l -1.171,-3.62 -3.779,0.454 0.026,0.238 c 0.052,0.557 0.167,2.048 0.167,4.229 0,2.598 -0.167,6.173 -0.798,10.306 -1.442,9.432 -1.595,16.322 -2.271,20.075 l -0.003,0.022 0.008,-0.041 c -0.673,3.761 -2.572,14.356 -3.296,17.511 l -0.008,0.026 0.003,-0.007 c -0.331,1.479 -0.464,2.664 -0.464,3.664 -0.007,1.68 0.409,2.914 0.974,3.691 l 1.906,2.648 2.91,-1.482 c 0.543,-0.26 5.965,-3.244 9.6,-11.65 3.207,-7.347 5.14,-11.309 6.209,-14.802 l -0.531,-0.16 0.495,0.256 0.037,-0.097 -0.531,-0.16 0.495,0.256 c -0.015,-0.178 1.508,-1.65 2.965,-2.534 0.729,-0.476 1.438,-0.889 1.955,-1.174 l 0.606,-0.328 0.189,-0.096 -1.691,-3.408 -3.504,1.483 0.004,0.015 c 0.178,0.428 2.423,6.207 2.419,14.762 0,0.724 -0.018,1.475 -0.052,2.241 -0.495,11.498 0.401,22.351 -2.156,30.504 -1.631,5.344 -2.716,8.584 -2.739,12.509 0.004,2.734 0.564,5.389 1.553,8.844 1.145,3.977 2.226,6.422 2.865,8.109 0.628,1.725 0.859,2.475 0.885,4.52 l -0.019,0.885 -0.004,0.036 0.004,-0.052 c -0.119,2.698 -0.186,5.924 -0.186,8.748 0,1.731 0.022,3.308 0.078,4.556 l 0.119,1.658 0.119,0.795 c 0.108,0.327 0.041,0.588 0.647,1.584 l -0.038,-0.053 0.03,0.046 c 0.539,0.779 0.963,1.456 1.854,2.207 l 1.862,1.04 c 0.698,0.26 1.186,0.408 2.319,0.915 1.111,0.504 2.779,1.345 5.31,2.846 l 1.94,-3.277 -3.806,0 c 0,0.015 0,5.597 -0.074,12.731 -0.079,7.136 -0.23,15.816 -0.532,21.882 l -0.007,0.326 c 0.004,1.919 0.773,3.501 1.631,4.684 1.316,1.776 2.929,2.966 4.411,3.962 1.472,0.973 2.88,1.724 3.598,2.14 l 1.899,-3.3 -1.958,3.264 1.201,1.011 0.145,0.208 1.238,-0.706 -1.312,0.55 0.074,0.156 1.238,-0.706 -1.312,0.55 3.511,-1.472 -3.806,-0.045 c 0,0.007 -0.137,11.825 -0.137,16.946 l -0.003,1.776 c 0.003,4.624 0.085,10.123 1.981,16.226 0.676,2.141 1.888,4.393 3.43,6.941 2.315,3.791 5.384,8.043 8.41,11.812 3.055,3.782 5.931,6.993 8.313,8.933 l -0.041,-0.036 0.026,0.022 c 4.486,3.53 9.28,10.799 17.965,16.031 2.453,1.442 5.73,2.713 9.603,4.059 5.779,1.992 12.773,4.028 18.964,5.916 6.143,1.852 11.673,3.688 13.665,4.787 6.477,3.426 15.898,11 22.405,19.688 3.453,4.564 6.399,8.696 8.759,11.855 1.186,1.583 2.215,2.921 3.148,3.999 l 1.386,1.464 c 0.494,0.438 0.955,0.862 1.876,1.286 l 0.026,0.015 0.003,0 1.07,-2.505 -1.349,2.363 0.279,0.142 1.07,-2.505 -1.349,2.363 0.004,0.007 c 0.25,0.157 1.234,0.856 2.501,1.808 4.526,3.381 13.468,10.36 21.243,16.463 7.782,6.108 14.396,11.35 14.412,11.356 l 2.364,-2.98 -2.49,-2.876 c -0.026,0.022 -11.231,9.722 -23.996,21.77 -12.788,12.094 -27.025,26.305 -33.573,36.167 -3.029,4.602 -6.321,9.477 -10.302,13.044 -4.01,3.575 -8.439,5.865 -14.526,5.895 -5.333,0.008 -12.189,-1.88 -21.008,-7.157 -2.75,-1.643 -10.257,-6.719 -17.255,-11.372 -3.515,-2.333 -6.931,-4.578 -9.67,-6.295 -1.372,-0.855 -2.568,-1.584 -3.568,-2.149 l -1.39,-0.728 c -0.464,-0.208 -0.803,-0.394 -1.602,-0.572 l -0.019,0 -0.026,-0.007 -0.175,0.913 0.268,-0.892 -0.093,-0.021 -0.175,0.913 0.268,-0.892 c -0.22,-0.044 -1.747,-0.714 -3.512,-1.583 -2.72,-1.315 -6.388,-3.182 -10.068,-4.823 -3.713,-1.644 -7.313,-3.1 -10.599,-3.605 l 0.022,0.008 c -6.704,-1.078 -11.654,-2.356 -19.042,-8.748 -7.99,-7.017 -13.925,-10.814 -20.763,-12.056 l -0.044,-0.008 0.026,0.008 c -2.535,-0.446 -4.128,-1.122 -5.047,-1.762 -0.921,-0.646 -1.263,-1.167 -1.549,-1.903 l 0.008,0.022 0.003,0.016 c -0.375,-1.063 -0.967,-2.201 -1.955,-3.122 -1.539,-1.405 -3.303,-1.762 -4.723,-1.947 -1.483,-0.186 -3.007,-0.245 -5.039,-0.438 l -0.015,0 c -2.263,-0.2 -4.081,-0.877 -5.311,-1.486 l -1.36,-0.789 -0.297,-0.207 -0.044,-0.03 -1.011,1.271 1.041,-1.248 -0.03,-0.023 -1.011,1.271 1.041,-1.248 -2.438,2.92 1.405,3.538 c 0.249,-0.104 1.561,-0.64 3.125,-1.918 1.549,-1.271 3.4,-3.389 4.244,-6.488 l 0.004,-0.015 c 0.193,-0.722 0.305,-1.464 0.305,-2.222 0.019,-1.651 -0.598,-3.256 -1.412,-4.401 -1.237,-1.738 -2.687,-2.794 -4.181,-3.961 -1.505,-1.16 -3.122,-2.371 -4.809,-3.954 C 22.819,760.608 14.038,750.47 8.393,744.628 2.592,738.66 -2.522,735.189 -2.663,735.085 l -2.136,3.15 0.628,3.754 c 0.238,-0.045 1.182,-0.208 2.43,-0.803 1.238,-0.587 2.85,-1.649 4.054,-3.537 l 0.777,-1.271 c 0.342,-0.624 0.684,-1.68 0.669,-2.69 -0.063,-1.97 -0.71,-3.204 -1.631,-5.114 -0.959,-1.902 -2.401,-4.459 -4.608,-8.354 -6.82,-12.026 -20.083,-32.161 -30.544,-51.04 -9.963,-18.032 -12.301,-25.806 -15.363,-33.082 -1.29,-3.025 -2.612,-8.229 -3.523,-12.524 -0.461,-2.155 -0.833,-4.109 -1.089,-5.515 -0.256,-1.406 -0.39,-2.245 -0.39,-2.245 l -3.758,0.609 -1.467,3.509 c 0.003,0.008 0.468,0.2 1.271,0.558 2.386,1.04 7.756,3.619 10.354,5.641 l 0.011,0.008 c 4.895,3.701 10.075,5.336 10.287,5.426 l 4.835,1.568 0.145,-5.085 0.007,-0.847 c -0.004,-2.69 -0.204,-11.513 -2.661,-22.632 -2.672,-12.063 -5.091,-27.872 -5.077,-37.171 l 0.019,-1.263 c 0.183,-4.028 1.212,-5.367 2.68,-7.24 0.747,-0.921 1.691,-1.888 2.616,-3.241 0.925,-1.345 1.761,-3.202 1.892,-5.351 0.074,-1.077 0.104,-2.386 0.104,-3.909 -0.003,-7.529 -0.736,-20.276 -1.39,-27.449 -0.795,-8.733 -2.483,-13.118 -2.579,-14.816 l 0.003,0.056 -0.003,-0.037 c -0.398,-4.237 -0.528,-6.887 -0.524,-8.6 0.003,-1.747 0.108,-2.449 0.234,-3.248 0.134,-0.792 0.353,-1.917 0.386,-3.508 l -3.805,-0.089 -0.944,3.687 0.197,-0.769 -0.223,0.762 0.026,0.007 0.197,-0.769 -0.223,0.762 c 0.156,0.044 1.858,0.572 3.879,2.025 2.026,1.464 4.378,3.806 6.08,7.685 1.457,3.334 3.021,6.508 4.43,9.035 0.707,1.264 1.371,2.363 2,3.285 0.688,0.944 1.081,1.62 2.259,2.512 l 2.178,-3.121 -2.256,3.062 c 0.758,0.58 1.843,0.981 2.906,0.967 1.427,0 2.554,-0.61 3.315,-1.227 1.152,-0.966 1.81,-2.059 2.385,-3.301 0.558,-1.24 0.974,-2.652 1.264,-4.251 0.282,-1.635 1.824,-6.972 3.508,-12.416 1.691,-5.504 3.549,-11.342 4.616,-14.816 2.482,-8.091 4.761,-18.938 5.53,-22.417 0.019,-0.174 0.387,-1.1 0.959,-2.077 0.854,-1.505 2.114,-3.296 3.14,-4.66 l 1.293,-1.676 0.505,-0.624 -2.935,-2.435 -3.144,2.144 3.144,-2.144 -2.933,-2.427 c -0.037,0.044 -1.561,1.884 -3.226,4.236 -0.836,1.178 -1.706,2.482 -2.46,3.81 -0.755,1.345 -1.416,2.631 -1.78,4.214 -0.77,3.504 -3.04,14.241 -5.375,21.814 -1.041,3.4 -2.909,9.265 -4.615,14.817 -1.713,5.604 -3.233,10.673 -3.724,13.297 -0.253,1.449 -0.673,2.49 -0.929,2.898 l -0.12,0.179 0.792,0.646 -0.524,-0.854 -0.268,0.208 0.792,0.646 -0.524,-0.854 1.308,2.125 0,-2.475 -1.308,0.35 1.308,2.125 0,-2.475 0,2.698 1.606,-2.186 -1.606,-0.513 0,2.698 1.606,-2.186 -0.041,-0.022 -0.038,-0.029 -1.007,1.442 1.241,-1.257 -0.234,-0.186 -1.007,1.442 1.241,-1.257 -0.242,-0.297 c -0.557,-0.729 -1.575,-2.394 -2.657,-4.438 -1.089,-2.052 -2.29,-4.526 -3.408,-7.087 -2.449,-5.623 -6.128,-9.165 -9.19,-11.224 -3.073,-2.07 -5.522,-2.724 -5.827,-2.805 l -4.634,-1.189 -0.116,4.787 c -0.029,1.059 -0.119,1.442 -0.286,2.453 -0.167,1.003 -0.342,2.401 -0.335,4.482 0,2.081 0.149,4.935 0.562,9.313 l 0,0.014 c 0.438,3.731 1.828,6.571 2.571,14.762 0.632,6.875 1.364,19.674 1.36,26.758 0,1.42 -0.03,2.608 -0.089,3.39 l -0.603,1.612 c -0.605,0.966 -2.137,2.363 -3.683,4.667 -1.55,2.305 -2.832,5.59 -2.917,9.879 l -0.019,1.456 c 0.019,10.428 2.508,26.304 5.254,38.813 2.3,10.376 2.483,18.693 2.483,20.989 l -0.008,0.639 3.806,0.104 1.174,-3.619 -0.138,-0.045 c -0.788,-0.268 -4.727,-1.769 -7.89,-4.192 l 0.011,0.008 c -2.535,-1.933 -5.771,-3.635 -8.473,-4.965 -2.69,-1.315 -4.802,-2.2 -4.846,-2.223 l -6.312,-2.627 1.093,6.757 c 0.007,0.036 0.587,3.619 1.549,8.131 0.978,4.526 2.278,9.9 3.954,13.892 2.851,6.756 5.567,15.482 15.716,33.811 10.647,19.206 24.007,39.504 30.581,51.106 2.196,3.872 3.627,6.422 4.438,8.028 0.405,0.802 0.65,1.366 0.757,1.664 l 0.071,0.23 0.993,-0.208 -1.007,0 0.015,0.208 0.993,-0.208 -1.007,0 1.732,0 -1.554,-0.804 -0.178,0.804 1.732,0 -1.554,-0.804 -0.085,0.142 -0.346,0.528 -0.91,0.765 -0.428,0.164 0.034,0.111 -0.019,-0.111 -0.015,0 0.034,0.111 -0.019,-0.111 -9.376,1.568 7.867,5.336 0.167,0.112 c 0.889,0.624 5.095,3.687 9.696,8.428 5.418,5.59 14.156,15.706 19.945,21.153 2.72,2.557 5.203,4.237 6.648,5.44 0.725,0.588 1.156,1.057 1.29,1.257 l 0.074,0.119 0.134,-0.044 -0.145,0 0.011,0.044 0.134,-0.044 -0.145,0 -0.045,0.244 0.007,-0.029 -0.003,0.015 c -0.331,1.211 -1.029,2.029 -1.739,2.616 l -0.899,0.617 -0.227,0.119 -0.022,0.007 0.81,1.896 -0.758,-1.917 -0.052,0.021 0.81,1.896 -0.758,-1.917 -5.942,2.363 4.909,4.095 c 0.346,0.275 4.363,3.598 11.183,4.229 l -0.015,0 c 2.932,0.253 4.894,0.35 5.407,0.521 l 0.119,0.029 0.138,-0.386 -0.215,0.342 0.078,0.044 0.138,-0.386 -0.215,0.342 0.535,-0.848 -0.822,0.587 0.287,0.261 0.535,-0.848 -0.822,0.587 -0.003,0 0.093,0.223 0.011,0.038 c 0.758,2.118 2.278,4.14 4.404,5.574 2.129,1.449 4.772,2.393 8.027,2.966 l -0.048,-0.008 0.03,0.008 c 4.749,0.854 9.376,3.508 17.095,10.286 8.306,7.373 15.701,9.514 22.926,10.547 l 0.018,0.008 c 2.479,0.305 7.849,2.563 12.498,4.838 2.36,1.131 4.604,2.26 6.474,3.159 0.932,0.454 1.772,0.848 2.519,1.167 0.777,0.319 1.335,0.572 2.271,0.766 l 0.71,-3.739 -0.755,3.731 0.383,-1.902 -0.702,1.813 0.319,0.089 0.383,-1.902 -0.702,1.813 c 0.037,0.007 0.776,0.372 1.672,0.899 3.248,1.888 9.454,5.99 15.381,9.944 5.969,3.984 11.628,7.797 14.349,9.425 9.595,5.745 17.768,8.235 24.918,8.243 8.194,0.029 14.724,-3.397 19.622,-7.85 4.932,-4.451 8.5,-9.893 11.554,-14.508 5.638,-8.585 19.845,-22.951 32.451,-34.821 6.314,-5.962 12.26,-11.357 16.623,-15.259 4.363,-3.903 7.121,-6.289 7.128,-6.296 l 3.475,-3.01 -3.601,-2.848 c -0.003,-0.008 -9.243,-7.32 -18.712,-14.73 -4.738,-3.709 -9.528,-7.44 -13.267,-10.31 -1.87,-1.428 -3.471,-2.646 -4.69,-3.546 l -1.542,-1.106 -0.595,-0.402 -0.817,-0.438 0.026,0.008 0.007,0.008 -0.732,1.672 1.085,-1.479 -0.353,-0.192 -0.732,1.672 1.085,-1.479 -0.089,-0.081 c -0.617,-0.528 -2.371,-2.713 -4.482,-5.597 -2.155,-2.914 -4.831,-6.638 -7.923,-10.732 -7.359,-9.737 -17.229,-17.697 -24.9,-21.822 -2.24,-1.182 -5.318,-2.267 -9.067,-3.486 -5.593,-1.813 -12.52,-3.799 -18.756,-5.761 -6.191,-1.925 -11.837,-3.961 -14.1,-5.336 -7.031,-4.133 -11.253,-10.569 -17.054,-15.394 l -0.015,-0.015 c -2.003,-1.575 -6.303,-6.451 -9.989,-11.438 -1.866,-2.505 -3.631,-5.076 -5.01,-7.336 -1.378,-2.237 -2.371,-4.259 -2.653,-5.232 -1.528,-4.921 -1.643,-9.439 -1.643,-13.974 l 0.003,-1.776 c 0,-5.017 0.138,-16.842 0.138,-16.857 l 0.008,-0.787 -0.301,-0.729 c -0.208,-0.506 -1.327,-2.811 -4.378,-4.646 l -0.029,-0.015 -0.03,-0.022 c -1.193,-0.677 -2.933,-1.605 -4.252,-2.632 l -1.401,-1.345 -0.186,-0.312 -0.286,0.104 0.297,0 -0.011,-0.104 -0.286,0.104 0.297,0 -0.817,0 0.817,0.046 0,-0.046 -0.817,0 0.817,0.046 c 0.617,-12.517 0.614,-34.956 0.614,-34.985 l 0,-2.171 -1.866,-1.106 c -4.783,-2.84 -7.262,-3.769 -8.466,-4.2 l -0.409,-0.148 -0.587,1.278 1.022,-0.966 -0.435,-0.312 -0.587,1.278 1.022,-0.966 -0.004,-0.008 -0.457,-0.646 0.033,0.052 -0.041,-0.059 -2.627,1.768 3.122,-0.646 c -0.059,-0.104 0.056,-0.208 -0.494,-1.121 l -2.627,1.768 3.122,-0.646 -0.554,0.119 0.562,-0.089 -0.008,-0.03 -0.554,0.119 0.562,-0.089 c -0.022,-0.119 -0.09,-0.915 -0.115,-1.888 -0.034,-0.996 -0.048,-2.245 -0.048,-3.605 0,-2.705 0.063,-5.856 0.178,-8.406 l 0.004,-0.074 -0.004,0.06 0.026,-1.196 c 0.026,-2.914 -0.602,-5.219 -1.379,-7.21 -0.765,-2.021 -1.635,-3.939 -2.668,-7.521 -0.921,-3.204 -1.256,-5.113 -1.256,-6.741 -0.019,-2.268 0.707,-4.816 2.405,-10.272 3.092,-10.316 1.929,-21.569 2.482,-32.391 0.041,-0.892 0.059,-1.75 0.059,-2.59 -0.007,-10.54 -2.895,-17.426 -3.024,-17.742 l -1.576,-3.724 -3.62,1.798 c -0.093,0.044 -1.884,0.933 -3.913,2.3 -1.022,0.688 -2.104,1.494 -3.107,2.464 -0.985,0.993 -1.988,2.093 -2.568,3.895 -0.718,2.446 -2.646,6.548 -5.894,13.958 -1.409,3.245 -3.059,5.263 -4.296,6.467 l -1.457,1.223 -0.338,0.223 0.104,0.175 -0.093,-0.182 -0.011,0.007 0.104,0.175 -0.093,-0.182 1.728,3.394 3.088,-2.223 -2.282,1.643 2.728,-0.77 -0.446,-0.874 -2.282,1.643 2.728,-0.77 -0.662,0.189 0.688,-0.089 -0.026,-0.101 -0.662,0.189 0.688,-0.089 -0.011,-0.22 c 0,-0.309 0.044,-0.955 0.279,-2 l -0.011,0.049 0.007,-0.03 c 0.829,-3.624 2.683,-14.047 3.371,-17.868 l 0.003,-0.019 c 0.821,-4.834 0.903,-11.216 2.293,-20.231 0.703,-4.579 0.888,-8.533 0.888,-11.458 0,-3.271 -0.23,-5.248 -0.246,-5.374 l -0.554,-4.589 -4.396,1.423 c -0.063,0.018 -1.996,0.643 -4.371,1.631 -2.401,1.026 -5.151,2.249 -7.351,4.137 l 0.015,-0.011 0.004,-0.004 c -1.015,0.896 -2.148,2.111 -3.523,3.649 -4.059,4.552 -9.837,11.688 -12.676,15.029 -2.145,2.546 -5.958,7.849 -9.369,12.676 -3.393,4.805 -6.295,9.027 -6.303,9.034 l 3.136,2.155 2.646,-2.734 -1.583,1.634 1.635,-1.583 -0.052,-0.052 -1.583,1.634 1.635,-1.583 -0.074,-0.085 c -0.417,-0.506 -2.43,-3.077 -3.375,-8.882 -0.479,-2.761 -1.724,-5.652 -3.296,-8.882 -4.72,-9.54 -12.684,-21.179 -12.728,-21.257 l -2.851,-4.177 -3.226,3.895 2.931,2.425 z"
     id="path12"
     inkscape:connector-curvature="0"
     style="fill:#9f8946" /><path
     d="m 744.392,447.933 c 0,0 -14.114,20.696 -15.4,28.601 -1.293,7.923 -4.504,11.044 -4.504,11.044 0,0 -11.58,-16.849 -15.445,-21.402 -3.85,-4.538 -12.828,-15.679 -15.786,-18.273 -2.958,-2.605 -10.376,-5.002 -10.376,-5.002 0,0 -0.788,6.578 0.624,15.802 1.412,9.224 1.517,15.861 2.274,20.153 0.685,3.791 2.558,14.301 3.329,17.69 0.759,3.4 0.119,4.3 0.119,4.3 0,0 -4.623,-2.353 -7.849,-9.774 -3.211,-7.384 -5.144,-11.417 -6.035,-14.386 -0.907,-3.007 -7.641,-6.348 -7.641,-6.348 0,0 -3.182,7.492 -2.66,18.671 0.505,11.164 -0.521,22.216 2.318,31.447 2.839,9.217 3.464,11.135 1.159,19.191 -2.319,8.057 -4.117,8.845 -3.865,14.716 0.254,5.843 0.254,14.465 -0.134,15.044 -1.962,2.929 -0.787,0.327 -10.122,5.85 0,0 0,22.462 0.595,34.799 0.163,3.493 -5.53,6.362 -7.716,7.626 -2.186,1.309 -2.825,2.854 -2.825,2.854 0,0 0.135,11.832 0.135,16.901 0,5.055 0.134,10.644 -1.813,16.872 -1.933,6.243 -13.765,21.719 -18.894,25.851 -5.159,4.177 -9.67,11.03 -17.512,15.713 -7.863,4.668 -35.007,10.896 -42.083,14.672 -7.076,3.775 -16.724,11.543 -23.666,20.759 -6.963,9.217 -11.847,16.627 -13.646,17.407 -1.799,0.773 -38.739,30.013 -38.739,30.013 0,0 44.7,38.709 56.889,57.157 8.742,13.236 20.693,31.075 50.943,12.947 5.961,-3.561 29.73,-20.127 32.303,-20.648 2.571,-0.489 16.976,-8.948 23.918,-9.959 6.949,-1.056 13.141,-2.765 20.975,-9.647 7.856,-6.897 13.141,-10.123 18.938,-11.172 5.783,-1.019 8.475,-3.247 9.515,-6.102 1.026,-2.869 2.824,-2.46 8.473,-2.988 5.679,-0.505 9.098,-3.359 9.098,-3.359 0,0 -3.938,-1.561 -5.099,-5.872 -1.145,-4.251 3.479,-5.559 9.008,-10.777 5.546,-5.188 14.301,-15.311 19.831,-21.033 5.529,-5.694 10.465,-9.039 10.465,-9.039 0,0 -2.498,-0.416 -3.91,-2.631 -1.412,-2.215 -1.813,-1.68 4.892,-13.512 6.688,-11.811 20.008,-32.027 30.562,-51.069 10.063,-18.181 12.591,-26.431 15.549,-33.447 2.951,-7.017 5.247,-21.153 5.247,-21.153 0,0 -8.22,3.435 -12.472,6.69 -4.251,3.239 -9.156,4.83 -9.156,4.83 0,0 -0.268,-9.722 2.571,-22.55 2.824,-12.874 5.396,-29.642 5.144,-39.356 -0.253,-9.767 -6.823,-10.42 -7.21,-15.986 -0.387,-5.583 0.521,-22.321 1.278,-30.757 0.788,-8.466 2.319,-12.077 2.571,-14.791 1.234,-12.977 0.03,-11.836 -0.073,-15.801 0,0 -8.207,2.107 -12.473,11.866 -2.824,6.455 -6.109,12.342 -7.373,13.234 -1.293,0.951 -3.092,-1.16 -3.864,-5.427 -0.773,-4.263 -6.124,-20.799 -8.236,-27.671 -2.407,-7.834 -4.683,-18.626 -5.455,-22.119 -0.775,-3.51 -6.691,-10.649 -6.691,-10.649"
     id="path14"
     inkscape:connector-curvature="0"
     style="fill:#86743a" /><path
     d="m 744.392,447.933 -3.144,-2.145 c -0.023,0.037 -3.583,5.255 -7.336,11.524 -1.881,3.14 -3.812,6.537 -5.389,9.733 -1.568,3.229 -2.817,6.125 -3.285,8.878 -0.58,3.542 -1.561,5.879 -2.327,7.284 -0.379,0.702 -0.713,1.17 -0.914,1.435 l -0.2,0.249 -0.015,0.012 1.635,1.575 -1.584,-1.627 -0.051,0.052 1.635,1.575 -1.584,-1.627 2.654,2.728 3.136,-2.155 c -0.007,-0.007 -2.906,-4.229 -6.302,-9.034 -3.419,-4.832 -7.225,-10.134 -9.381,-12.676 -1.88,-2.219 -5.098,-6.15 -8.213,-9.852 -1.561,-1.854 -3.1,-3.654 -4.46,-5.177 -1.366,-1.535 -2.496,-2.75 -3.5,-3.642 -2.2,-1.881 -4.95,-3.103 -7.351,-4.129 -2.371,-0.988 -4.304,-1.613 -4.371,-1.631 l -4.392,-1.423 -0.55,4.589 c -0.016,0.126 -0.253,2.103 -0.253,5.366 0,2.921 0.186,6.879 0.892,11.465 1.383,9.012 1.457,15.393 2.289,20.239 l 0.007,0.063 -0.007,-0.049 c 0.691,3.813 2.542,14.241 3.366,17.861 l -0.014,-0.049 0.007,0.03 c 0.238,1.048 0.282,1.699 0.282,2.011 l -0.008,0.223 1.108,0.137 -1.041,-0.379 -0.067,0.242 1.108,0.137 -1.041,-0.379 2.914,1.067 -2.527,-1.788 -0.387,0.721 2.914,1.067 -2.527,-1.788 3.106,2.201 1.725,-3.394 -0.089,0.179 0.104,-0.175 -0.016,-0.004 -0.089,0.179 0.104,-0.175 c -0.417,-0.256 -3.635,-2.26 -6.096,-7.901 -3.232,-7.414 -5.165,-11.521 -5.886,-13.966 -0.58,-1.806 -1.584,-2.906 -2.572,-3.895 -2.973,-2.828 -6.86,-4.656 -7.016,-4.764 l -3.62,-1.795 -1.576,3.716 c -0.134,0.32 -3.018,7.18 -3.024,17.686 0,0.859 0.022,1.743 0.066,2.65 0.527,10.822 -0.632,22.083 2.482,32.383 1.695,5.456 2.416,8.006 2.394,10.266 0,1.635 -0.334,3.545 -1.256,6.764 -1.033,3.574 -1.896,5.492 -2.661,7.506 -0.78,1.992 -1.404,4.296 -1.375,7.203 l 0.029,1.226 c 0.104,2.534 0.171,5.664 0.171,8.362 0,1.672 -0.029,3.181 -0.074,4.251 l -0.074,1.174 -0.015,0.112 1.048,0.155 -1.025,-0.26 -0.022,0.104 1.048,0.155 -1.025,-0.26 3.225,0.811 -2.764,-1.836 c -0.432,0.699 -0.409,0.892 -0.461,1.025 l 3.225,0.811 -2.764,-1.836 0.021,-0.029 -0.007,0.015 -0.438,0.624 -0.03,0.037 1.026,0.952 -0.796,-1.145 -0.23,0.192 1.026,0.952 -0.796,-1.145 0.788,1.121 -0.579,-1.248 -0.209,0.127 0.788,1.121 -0.579,-1.248 -0.617,0.23 c -1.316,0.468 -3.739,1.442 -8.258,4.118 l -1.866,1.106 0,2.171 c 0,0.029 0,22.469 0.603,34.985 l -0.008,-0.022 0.335,-0.016 -0.335,0 0,0.016 0.335,-0.016 -0.335,0 0.306,0 -0.29,-0.111 -0.016,0.111 0.306,0 -0.29,-0.111 c 0.015,0.135 -0.833,1.189 -2.097,2.037 -1.248,0.884 -2.683,1.657 -3.73,2.26 l -0.016,0.007 -0.037,0.022 c -3.062,1.829 -4.177,4.147 -4.385,4.66 l -0.298,0.721 0.008,0.78 c 0,0.016 0.134,11.833 0.134,16.857 l 0,1.858 c 0,4.504 -0.111,8.994 -1.643,13.877 -0.289,0.988 -1.278,3.01 -2.661,5.247 -2.065,3.39 -5.002,7.47 -7.841,11.008 -2.817,3.53 -5.679,6.607 -7.144,7.767 -5.826,4.839 -10.056,11.275 -17.079,15.408 -1.472,0.892 -4.535,2.156 -8.184,3.403 -5.508,1.903 -12.45,3.926 -18.7,5.828 -6.303,1.933 -11.722,3.62 -15.036,5.352 -7.671,4.125 -17.549,12.085 -24.915,21.829 -3.515,4.653 -6.495,8.83 -8.77,11.878 -1.13,1.523 -2.096,2.757 -2.803,3.574 l -0.803,0.855 -0.104,0.089 1.085,1.486 -0.729,-1.68 -0.356,0.193 1.085,1.486 -0.729,-1.68 -0.06,0.03 0.074,-0.03 -0.811,0.438 c -0.697,0.445 -1.628,1.13 -2.979,2.141 -9.291,6.95 -35.788,27.932 -35.811,27.946 l -3.604,2.848 3.479,3.01 c 0.007,0.007 2.765,2.393 7.127,6.296 6.541,5.849 16.649,15.065 26.223,24.505 9.559,9.402 18.642,19.168 22.855,25.575 3.055,4.615 6.622,10.057 11.551,14.508 4.897,4.452 11.423,7.879 19.614,7.85 7.15,-0.008 15.318,-2.498 24.906,-8.243 3.203,-1.917 10.554,-6.904 17.571,-11.558 3.492,-2.319 6.875,-4.534 9.506,-6.184 1.308,-0.825 2.438,-1.501 3.249,-1.962 l 0.936,-0.491 0.156,-0.074 -0.698,-1.813 0.378,1.902 0.32,-0.089 -0.698,-1.813 0.378,1.902 -0.75,-3.731 0.714,3.739 c 0.929,-0.193 1.493,-0.446 2.267,-0.766 2.557,-1.106 6.562,-3.211 10.77,-5.173 4.133,-1.963 8.57,-3.724 10.718,-3.991 l 0.022,-0.008 c 7.203,-1.033 14.619,-3.174 22.914,-10.547 7.716,-6.771 12.354,-9.432 17.103,-10.286 l -0.015,0 c 3.248,-0.573 5.887,-1.517 8.02,-2.966 2.126,-1.435 3.649,-3.449 4.408,-5.582 l 0.008,-0.015 0,-0.008 0.11,-0.253 -0.765,-0.46 0.438,0.758 0.327,-0.298 -0.765,-0.46 0.438,0.758 -0.208,-0.35 0.149,0.379 0.059,-0.029 -0.208,-0.35 0.149,0.379 c 0.059,-0.118 2.155,-0.282 5.522,-0.55 l -0.06,0 0.037,0 c 6.831,-0.632 10.852,-3.954 11.201,-4.229 l 4.912,-4.103 -5.945,-2.355 -0.758,1.902 0.81,-1.881 -0.052,-0.021 -0.758,1.902 0.81,-1.881 -1.285,-0.854 c -0.662,-0.587 -1.294,-1.36 -1.6,-2.49 l -0.044,-0.244 -0.148,0 0.142,0.044 0.007,-0.044 -0.148,0 0.142,0.044 0.35,-0.453 c 0.913,-1.086 4.087,-3.048 7.647,-6.37 l 0.022,-0.015 -0.03,0.029 c 5.812,-5.455 14.546,-15.571 19.964,-21.168 2.624,-2.705 5.129,-4.868 6.958,-6.332 0.913,-0.736 1.656,-1.301 2.162,-1.673 l 0.58,-0.409 0.164,-0.119 7.878,-5.343 -9.388,-1.562 -0.015,0.104 0.03,-0.11 -0.016,0.007 -0.015,0.104 0.03,-0.11 -1.338,-0.915 -0.35,-0.535 -0.09,-0.148 -1.1,0.616 1.197,-0.363 -0.098,-0.253 -1.1,0.616 1.197,-0.363 -1.813,0.558 1.895,0 -0.081,-0.558 -1.813,0.558 1.895,0 -0.996,0 0.981,0.208 0.021,-0.208 -1.003,0 0.981,0.208 c -0.015,-0.022 0.305,-0.943 1.159,-2.542 0.848,-1.628 2.186,-3.991 4.103,-7.388 6.571,-11.596 19.935,-31.894 30.585,-51.1 10.161,-18.328 12.874,-27.055 15.729,-33.811 1.664,-3.991 2.966,-9.365 3.946,-13.892 0.959,-4.504 1.538,-8.095 1.546,-8.131 l 1.101,-6.765 -6.318,2.646 c -0.053,0.015 -2.163,0.899 -4.854,2.215 -2.697,1.33 -5.931,3.032 -8.466,4.957 -1.799,1.376 -3.857,2.476 -5.44,3.196 -0.796,0.357 -1.464,0.633 -1.925,0.803 l -0.521,0.193 -0.133,0.045 1.174,3.619 3.806,-0.11 0,-0.59 c 0,-2.259 0.178,-10.599 2.49,-21.02 2.734,-12.517 5.232,-28.377 5.247,-38.805 l -0.015,-1.472 c -0.075,-5.738 -2.453,-9.611 -4.43,-11.9 -0.975,-1.159 -1.763,-2.015 -2.179,-2.653 l -0.609,-1.598 c -0.06,-0.773 -0.089,-1.933 -0.082,-3.314 -0.007,-7.062 0.729,-19.935 1.353,-26.84 0.759,-8.19 2.148,-11.03 2.572,-14.78 0.416,-4.399 0.565,-7.261 0.565,-9.346 0.008,-2.066 -0.172,-3.456 -0.335,-4.456 -0.171,-1.011 -0.26,-1.393 -0.29,-2.453 l -0.126,-4.775 -4.623,1.189 c -0.305,0.082 -2.757,0.735 -5.82,2.805 -3.062,2.059 -6.741,5.601 -9.193,11.224 -1.367,3.118 -2.854,6.12 -4.11,8.373 -0.624,1.13 -1.197,2.066 -1.636,2.705 l -0.498,0.676 -0.066,0.082 1.241,1.249 -1.011,-1.435 -0.23,0.186 1.241,1.249 -1.011,-1.435 -0.03,0.015 -0.029,0.022 1.605,2.186 0,-2.698 -1.605,0.513 1.605,2.186 0,-2.698 0,2.304 1.486,-1.828 c -0.148,-0.118 -0.654,-0.468 -1.486,-0.476 l 0,2.304 1.486,-1.828 -0.506,0.617 0.595,-0.527 -0.089,-0.09 -0.506,0.617 0.595,-0.527 c -0.036,0 -0.743,-1.183 -1.048,-3.085 -0.49,-2.624 -2.007,-7.693 -3.724,-13.301 -1.709,-5.548 -3.575,-11.413 -4.623,-14.813 -2.326,-7.578 -4.601,-18.31 -5.373,-21.822 -0.365,-1.579 -1.033,-2.862 -1.785,-4.207 -2.251,-3.928 -5.626,-7.957 -5.692,-8.046 l -3.226,-3.895 -2.847,4.177 3.144,2.144 -2.928,2.427 c 0,0.003 0.326,0.401 0.869,1.089 0.803,1.029 2.044,2.675 3.107,4.3 1.062,1.568 1.901,3.341 1.924,3.649 0.774,3.479 3.048,14.327 5.538,22.421 1.062,3.471 2.928,9.309 4.615,14.813 1.68,5.444 3.226,10.781 3.508,12.416 0.395,2.134 0.989,3.924 1.881,5.441 0.454,0.757 0.989,1.464 1.762,2.103 0.766,0.624 1.888,1.234 3.322,1.234 1.055,0.015 2.147,-0.394 2.899,-0.96 l -2.253,-3.068 2.193,3.106 c 1.166,-0.892 1.553,-1.561 2.244,-2.505 1.836,-2.713 4.214,-7.291 6.422,-12.312 1.813,-4.136 4.37,-6.529 6.481,-7.964 1.048,-0.709 1.983,-1.167 2.623,-1.434 l 0.714,-0.268 0.142,-0.044 -0.224,-0.77 0.193,0.777 0.03,-0.007 -0.224,-0.77 0.193,0.777 -0.943,-3.687 -3.806,0.1 c 0.037,1.583 0.26,2.706 0.386,3.49 0.127,0.795 0.231,1.49 0.238,3.218 0,1.713 -0.126,4.37 -0.535,8.633 -0.082,1.684 -1.754,6.068 -2.571,14.802 -0.647,7.203 -1.384,20.016 -1.384,27.531 0,1.486 0.022,2.771 0.098,3.835 0.134,2.147 0.974,4.006 1.902,5.343 1.413,2.03 2.766,3.22 3.635,4.594 0.877,1.376 1.562,2.855 1.665,5.888 l 0.015,1.278 c 0.016,9.298 -2.408,25.1 -5.069,37.162 -2.467,11.164 -2.668,20.009 -2.668,22.662 l 0.008,0.817 0.147,5.077 4.832,-1.568 c 0.215,-0.09 5.396,-1.725 10.287,-5.426 1.724,-1.331 4.727,-2.973 7.202,-4.17 1.233,-0.609 2.355,-1.122 3.166,-1.479 0.803,-0.357 1.264,-0.55 1.264,-0.558 l -1.465,-3.509 -3.753,-0.609 c 0,0 -0.142,0.84 -0.394,2.245 -0.743,4.177 -2.654,13.461 -4.608,18.039 -3.062,7.276 -5.404,15.05 -15.371,33.082 -10.465,18.879 -23.731,39.014 -30.548,51.04 -2.2,3.895 -3.642,6.451 -4.608,8.347 -0.914,1.91 -1.561,3.151 -1.628,5.121 -0.014,1.011 0.328,2.066 0.669,2.69 l 0.781,1.271 c 1.211,1.888 2.824,2.95 4.059,3.537 1.256,0.595 2.191,0.758 2.438,0.803 l 0.624,-3.754 -2.133,-3.15 c -0.142,0.104 -5.263,3.567 -11.061,9.535 -5.648,5.857 -14.427,15.988 -19.703,20.909 l -0.038,0.036 0.03,-0.021 c -2.244,2.117 -4.355,3.537 -6.266,5.105 -0.951,0.796 -1.888,1.635 -2.705,2.795 -0.811,1.145 -1.428,2.749 -1.412,4.408 0,0.758 0.118,1.508 0.312,2.222 0.833,3.114 2.684,5.232 4.236,6.503 1.568,1.278 2.885,1.813 3.13,1.918 l 1.404,-3.538 -2.438,-2.92 1.049,1.248 -1.018,-1.271 -0.031,0.023 1.049,1.248 -1.018,-1.271 c -0.045,0.045 -2.78,2.148 -7.024,2.513 l -0.022,0 c -2.713,0.275 -4.482,0.237 -6.54,0.713 -1.019,0.253 -2.223,0.751 -3.204,1.681 -0.988,0.913 -1.583,2.044 -1.955,3.106 l 0.008,-0.022 c -0.282,0.722 -0.625,1.249 -1.546,1.896 -0.921,0.64 -2.52,1.315 -5.055,1.762 l -0.052,0.007 0.037,-0.007 c -6.846,1.241 -12.776,5.031 -20.773,12.056 -7.374,6.392 -12.339,7.67 -19.035,8.748 l 0.022,-0.008 c -4.467,0.706 -9.767,3.182 -14.695,5.515 -2.43,1.167 -4.704,2.312 -6.48,3.166 -0.885,0.425 -1.65,0.781 -2.208,1.02 l -0.653,0.268 -0.134,0.044 0.268,0.899 -0.179,-0.921 -0.089,0.021 0.268,0.899 -0.179,-0.921 -0.022,0.007 -0.021,0 c -0.796,0.179 -1.138,0.364 -1.599,0.572 -1.575,0.759 -3.754,2.104 -6.57,3.895 -4.17,2.669 -9.491,6.229 -14.293,9.432 -4.786,3.196 -9.12,6.072 -11.037,7.21 -8.815,5.285 -15.668,7.173 -20.997,7.165 -6.088,-0.029 -10.51,-2.319 -14.523,-5.895 -3.977,-3.567 -7.27,-8.442 -10.295,-13.044 -6.547,-9.862 -20.788,-24.073 -33.579,-36.167 -12.763,-12.048 -23.963,-21.747 -23.993,-21.77 l -2.49,2.876 2.363,2.98 c 0.016,-0.015 9.225,-7.298 18.679,-14.701 4.721,-3.701 9.507,-7.418 13.2,-10.257 1.851,-1.42 3.427,-2.616 4.579,-3.464 l 1.36,-0.981 0.334,-0.224 0.007,-0.007 -1.353,-2.363 1.07,2.498 0.282,-0.135 -1.353,-2.363 1.07,2.498 0.015,0 c 0.923,-0.424 1.391,-0.855 1.888,-1.294 1.599,-1.509 3.22,-3.701 5.441,-6.689 2.192,-2.973 4.824,-6.637 7.834,-10.621 6.525,-8.696 15.943,-16.271 22.424,-19.696 1.294,-0.706 4.267,-1.821 7.834,-2.966 5.396,-1.754 12.339,-3.738 18.692,-5.737 6.4,-2.029 12.071,-3.933 15.706,-6.059 8.673,-5.232 13.468,-12.501 17.964,-16.024 3.122,-2.557 7.307,-7.478 11.306,-12.82 1.977,-2.662 3.857,-5.39 5.396,-7.917 1.546,-2.542 2.758,-4.801 3.434,-6.948 1.896,-6.058 1.985,-11.528 1.985,-16.137 l 0,-1.858 c 0,-5.121 -0.134,-16.939 -0.134,-16.946 l -3.807,0.045 3.517,1.457 -1.338,-0.558 1.263,0.721 0.075,-0.163 -1.338,-0.558 1.263,0.721 c 0.031,-0.053 0.35,-0.616 1.338,-1.211 l -1.954,-3.264 1.902,3.292 c 0.967,-0.563 3.093,-1.656 5.092,-3.202 1.012,-0.788 2.029,-1.703 2.898,-2.892 0.855,-1.175 1.628,-2.757 1.628,-4.676 l 0,-0.312 -0.007,-0.037 0,0.015 c -0.29,-6.065 -0.438,-14.746 -0.514,-21.882 -0.074,-7.135 -0.074,-12.717 -0.074,-12.731 l -3.805,0 1.939,3.277 c 4.549,-2.684 6.154,-3.219 7.188,-3.598 0.498,-0.192 1.367,-0.453 2.304,-1.211 0.893,-0.751 1.315,-1.42 1.851,-2.199 l -0.015,0.021 0.022,-0.037 c 0.602,-0.996 0.535,-1.249 0.64,-1.576 0.17,-0.951 0.2,-1.739 0.252,-2.942 0.038,-1.168 0.06,-2.572 0.06,-4.096 0,-2.811 -0.067,-6.014 -0.186,-8.696 l -0.016,-0.892 c 0.022,-2.037 0.253,-2.795 0.885,-4.512 0.633,-1.688 1.718,-4.126 2.854,-8.095 0.988,-3.463 1.554,-6.124 1.554,-8.866 -0.022,-3.918 -1.101,-7.15 -2.736,-12.502 -2.563,-8.153 -1.679,-18.998 -2.155,-30.496 -0.036,-0.792 -0.052,-1.553 -0.052,-2.301 0,-4.545 0.633,-8.302 1.256,-10.884 0.312,-1.29 0.617,-2.286 0.841,-2.944 l 0.252,-0.717 0.067,-0.152 0,-0.016 -3.501,-1.486 -1.695,3.408 0.224,0.115 c 0.551,0.286 2.073,1.119 3.404,2.081 l 1.665,1.394 0.394,0.472 0.045,0.074 0.558,-0.278 -0.595,0.182 0.037,0.096 0.558,-0.278 -0.595,0.182 c 1.062,3.49 2.995,7.447 6.184,14.802 3.649,8.407 9.075,11.387 9.617,11.651 l 2.93,1.486 1.902,-2.68 c 0.55,-0.776 0.958,-1.995 0.951,-3.66 0,-0.997 -0.134,-2.185 -0.461,-3.668 l -0.008,-0.019 c -0.721,-3.158 -2.616,-13.754 -3.292,-17.518 l 0.008,0.063 -0.008,-0.048 c -0.685,-3.739 -0.817,-10.632 -2.259,-20.068 -0.633,-4.137 -0.803,-7.715 -0.803,-10.313 0,-1.453 0.052,-2.597 0.104,-3.367 l 0.066,-0.858 0.022,-0.234 -3.775,-0.454 -1.167,3.62 c 0,0 0.394,0.13 1.093,0.379 1.04,0.372 2.69,1 4.273,1.731 1.568,0.71 3.106,1.609 3.664,2.126 0.476,0.413 1.583,1.561 2.848,2.988 3.849,4.33 9.617,11.432 12.553,14.892 1.71,2.014 5.627,7.41 8.964,12.145 3.359,4.757 6.236,8.945 6.243,8.953 l 2.557,3.716 3.233,-3.144 c 0.49,-0.453 4.191,-4.389 5.604,-13.159 0.171,-1.201 1.175,-3.861 2.608,-6.734 2.148,-4.366 5.218,-9.499 7.723,-13.49 1.256,-1.996 2.379,-3.717 3.182,-4.932 0.803,-1.215 1.278,-1.914 1.278,-1.914 l -3.144,-2.145 -2.928,2.427 2.928,-2.427 z"
     id="path16"
     inkscape:connector-curvature="0"
     style="fill:#9f8946" /><path
     d="m 56.416,498.545 c -4.144,5.467 -8.276,10.956 -11.58,15.883 -3.3,4.98 -5.812,9.135 -6.726,13.053 l 0.011,-0.046 -0.007,0.03 c -1.297,5.864 -4.095,14.494 -6.56,21.555 -1.23,3.537 -2.378,6.689 -3.218,8.964 -0.84,2.267 -1.364,3.635 -1.364,3.642 l 3.552,1.359 -2.396,-2.957 c -0.03,0.029 -5.727,4.652 -11.618,9.945 -2.947,2.652 -5.935,5.47 -8.339,8.02 -1.204,1.285 -2.26,2.497 -3.122,3.663 -0.855,1.205 -1.576,2.2 -1.992,3.873 -0.535,2.438 -1.561,8.214 -2.486,14.486 -0.914,6.28 -1.724,12.836 -1.735,17.058 0.003,0.869 0.033,1.658 0.141,2.445 0.736,5.366 3.88,33.565 4.649,39.192 0.204,1.36 0.65,2.497 1.234,3.85 4.08,9.038 16.705,26.98 23.223,33.899 1.208,1.25 3.003,2.698 5.552,4.653 17.679,13.453 69.413,47.465 87.716,56.941 20.325,10.524 43.135,22.826 52.467,27.56 l 0.015,0.008 c 4.619,2.312 17.73,8.92 29.682,14.954 11.948,6.028 22.717,11.462 22.74,11.477 l 3.434,-6.793 c -0.004,0 -43.169,-21.801 -52.448,-26.446 l 0.018,0.008 c -9.13,-4.631 -32.03,-16.977 -52.41,-27.53 -9.856,-5.077 -31.255,-18.507 -50.832,-31.455 -9.803,-6.481 -19.187,-12.858 -26.523,-18.046 -3.664,-2.586 -6.823,-4.883 -9.242,-6.734 -2.401,-1.82 -4.147,-3.292 -4.664,-3.851 -3.118,-3.247 -8.804,-10.762 -13.605,-17.934 -2.408,-3.598 -4.627,-7.135 -6.247,-10.041 -0.807,-1.45 -1.468,-2.743 -1.914,-3.754 -0.454,-0.989 -0.665,-1.784 -0.65,-1.8 -0.74,-5.381 -3.883,-33.579 -4.656,-39.206 l -0.067,-1.397 c -0.007,-3.3 0.755,-9.87 1.658,-15.95 0.892,-6.095 1.933,-11.914 2.386,-13.959 l -0.788,-0.178 0.75,0.312 0.037,-0.134 -0.788,-0.178 0.75,0.312 c 0.022,-0.088 0.446,-0.816 1.138,-1.672 2.456,-3.1 7.9,-8.183 12.598,-12.285 2.356,-2.067 4.548,-3.926 6.143,-5.255 1.599,-1.338 2.59,-2.142 2.59,-2.142 l 0.792,-0.646 0.364,-0.952 c 0.026,-0.096 8.589,-22.334 11.468,-35.229 l 0.004,-0.015 c 0.309,-1.718 2.468,-5.828 5.604,-10.429 3.133,-4.667 7.198,-10.086 11.327,-15.534 l -6.066,-4.594 z"
     id="path18"
     inkscape:connector-curvature="0"
     style="fill:#9f8946" /><path
     d="m 20.554,486.482 c -0.974,3.226 -1.201,3.854 -1.509,5.173 -0.282,1.234 -0.561,2.746 -1.746,8.112 -0.958,4.408 -3.627,11.205 -6.34,17.834 -2.716,6.682 -5.463,13.179 -6.715,17.994 -0.257,0.967 -0.732,1.673 -1.713,2.632 -1.438,1.42 -4.002,2.921 -6.493,5.44 -2.508,2.497 -4.652,6.459 -4.589,11.625 0.003,2.49 0.427,5.247 1.323,8.406 2.553,8.971 4.129,21.524 5.01,31.715 0.446,5.099 0.725,9.625 0.892,12.873 0.167,3.24 0.224,5.173 0.224,5.181 l 7.61,-0.224 C 6.505,613.199 6.274,605.18 5.367,594.752 4.449,584.309 2.891,571.518 0.094,561.617 c -0.751,-2.639 -1.033,-4.713 -1.033,-6.325 0.015,-2.237 0.487,-3.554 1.167,-4.698 1.003,-1.701 2.88,-3.1 5.203,-4.875 1.145,-0.893 2.382,-1.888 3.523,-3.211 1.133,-1.315 2.155,-3.003 2.664,-5.024 0.963,-3.806 3.665,-10.346 6.392,-17.014 2.728,-6.719 5.497,-13.586 6.723,-19.062 1.189,-5.381 1.513,-7.097 1.732,-8.041 0.193,-0.858 0.372,-1.36 1.375,-4.687 l -7.286,-2.198 z"
     id="path20"
     inkscape:connector-curvature="0"
     style="fill:#9f8946" /><path
     d="m 0.542,447.208 c -0.004,0.008 -2.925,15.051 -5.958,31.882 -3.036,16.895 -6.165,35.316 -6.633,42.912 -0.082,1.286 -0.116,2.631 -0.116,4.006 0.019,14.694 4.003,33.559 4.018,33.692 l 7.448,-1.562 c 0,0 -0.234,-1.122 -0.599,-3.076 -1.092,-5.842 -3.267,-19.006 -3.255,-29.055 0,-1.24 0.03,-2.43 0.101,-3.545 0.375,-6.585 3.508,-25.308 6.525,-42.024 1.513,-8.384 2.996,-16.333 4.103,-22.183 1.108,-5.849 1.836,-9.588 1.836,-9.599 l -7.47,-1.448 z"
     id="path22"
     inkscape:connector-curvature="0"
     style="fill:#9f8946" /><path
     d="m -46.038,567.698 c 0.015,0.015 6.607,7.292 13.765,15.252 7.135,7.945 14.906,16.664 16.954,19.184 l 0.033,0.037 -0.041,-0.053 c 2.539,3.123 6.377,6.557 9.682,9.366 3.292,2.787 5.998,4.868 6.031,4.891 l 4.631,-6.036 c 0,0 -0.632,-0.49 -1.68,-1.322 -3.111,-2.461 -9.93,-8.154 -12.748,-11.685 l -0.007,-0.015 c -2.353,-2.877 -10.004,-11.445 -17.196,-19.451 -7.169,-7.975 -13.784,-15.281 -13.784,-15.281 l -5.64,5.113 z"
     id="path24"
     inkscape:connector-curvature="0"
     style="fill:#9f8946" /><path
     d="m 91.773,572.396 c -1.182,1.085 -1.884,2.207 -2.813,3.709 -3.077,5.128 -7.228,14.389 -10.933,23.04 -3.683,8.63 -6.831,16.516 -7.592,18.448 -0.435,1.138 -0.628,2.215 -0.922,3.783 -0.94,5.329 -2.043,15.147 -3.059,24.229 -0.505,4.526 -0.981,8.853 -1.389,12.257 -0.204,1.702 -0.395,3.174 -0.554,4.312 -0.156,1.114 -0.312,1.977 -0.357,2.125 -0.06,0.253 -0.416,1.375 -0.921,2.817 -1.799,5.157 -5.642,15.386 -9.016,24.268 -3.375,8.89 -6.289,16.455 -6.295,16.47 l 7.105,2.736 c 0,-0.008 3.817,-9.923 7.778,-20.389 1.981,-5.231 3.995,-10.605 5.59,-14.954 0.795,-2.17 1.489,-4.088 2.021,-5.619 0.539,-1.553 0.899,-2.623 1.115,-3.456 0.223,-0.899 0.379,-1.954 0.591,-3.471 0.714,-5.203 1.735,-15.028 2.779,-24.067 0.517,-4.511 1.041,-8.822 1.521,-12.188 0.241,-1.688 0.468,-3.137 0.676,-4.229 l 0.279,-1.33 0.1,-0.388 0.03,-0.104 c 0.851,-2.155 4.824,-12.1 9.105,-21.933 2.14,-4.921 4.362,-9.812 6.288,-13.647 0.958,-1.917 1.847,-3.567 2.579,-4.786 l 0.944,-1.449 0.305,-0.387 0.075,-0.082 -0.052,-0.051 0.048,0.059 0.004,-0.008 -0.052,-0.051 0.048,0.059 -5.026,-5.723 z"
     id="path26"
     inkscape:connector-curvature="0"
     style="fill:#9f8946" /><path
     d="m 78.09,536.927 c -0.06,0.045 -6.366,4.438 -13.899,10.777 -7.544,6.362 -16.296,14.538 -21.432,22.722 -5.147,8.302 -8.031,19.703 -9.897,29.878 -1.836,10.146 -2.535,19.058 -2.769,21.853 -0.041,0.557 -0.052,1.138 -0.052,1.902 0.004,5.463 0.732,19.771 1.46,33.521 0.365,6.868 0.729,13.557 1.004,18.834 0.271,5.255 0.453,9.231 0.449,10.25 l -0.003,0.126 0.003,-0.03 0,0.016 c -0.066,1.896 -0.278,4.646 -0.476,6.883 -0.193,2.244 -0.372,3.983 -0.372,3.983 l 3.787,0.387 -3.241,-1.999 c -0.048,0.082 -1.735,2.824 -3.512,6.585 -1.757,3.805 -3.671,8.503 -3.965,13.178 l 0.004,-0.015 c -0.149,2.535 -0.197,4.675 -0.197,6.414 0,3.479 0.197,5.352 0.212,5.485 l 7.566,-0.832 -0.022,-0.224 c -0.044,-0.543 -0.145,-2.036 -0.145,-4.43 0,-1.598 0.045,-3.59 0.182,-5.968 l 0,-0.016 c 0.112,-2.728 1.654,-7.017 3.256,-10.354 0.792,-1.68 1.579,-3.158 2.163,-4.207 l 0.698,-1.219 0.242,-0.401 0.457,-0.743 0.089,-0.87 c 0,-0.044 0.721,-7.075 0.877,-11.371 l 0,-0.016 0.008,-0.363 c -0.004,-1.509 -0.186,-5.307 -0.461,-10.644 -0.821,-15.839 -2.46,-44.439 -2.453,-51.962 l 0.03,-1.278 c 0.227,-2.765 0.907,-11.386 2.668,-21.123 1.731,-9.707 4.667,-20.544 8.863,-27.203 4.23,-6.831 12.618,-14.851 19.875,-20.931 3.631,-3.048 6.987,-5.648 9.425,-7.484 1.219,-0.914 2.208,-1.636 2.891,-2.125 l 1.041,-0.743 -4.354,-6.243 z"
     id="path28"
     inkscape:connector-curvature="0"
     style="fill:#9f8946" /><path
     d="m 1.065,616.79 c 1.019,0.476 2.602,1.042 5.047,1.844 7.229,2.341 20.64,6.058 32.247,6.771 l 0.044,0 -0.026,0 c 1.862,0.104 3.794,0.148 5.756,0.148 14.152,-0.008 30.106,-2.267 30.199,-2.274 l -1.062,-7.536 c 0,0 -0.952,0.134 -2.631,0.342 -5.032,0.617 -16.471,1.857 -26.505,1.857 -1.851,0 -3.649,-0.044 -5.34,-0.134 l 0.019,0 c -6.894,-0.408 -15.084,-2.125 -21.763,-3.895 -3.341,-0.884 -6.318,-1.776 -8.581,-2.512 -2.23,-0.721 -3.917,-1.367 -4.132,-1.479 l -3.272,6.868 z"
     id="path30"
     inkscape:connector-curvature="0"
     style="fill:#9f8946" /><path
     d="m -22.547,700.042 c 0.007,0.008 1.94,0.625 5.024,1.703 4.624,1.612 11.785,4.244 18.515,7.201 6.7,2.906 13.1,6.378 15.59,8.823 3.809,3.597 9.893,12.338 15.683,21.107 5.861,8.823 11.509,17.698 15.579,22.589 4.441,5.27 10.885,8.926 16.92,11.684 6.028,2.728 11.725,4.475 14.497,5.344 l 0.011,0 c 2.193,0.661 5.686,2.431 8.496,4.542 2.873,2.059 4.928,4.697 5.099,5.834 0.635,2.58 2.326,10.688 3.824,18.023 1.505,7.352 2.839,14.011 2.843,14.026 l 7.462,-1.502 c -0.011,-0.044 -5.333,-26.615 -6.741,-32.369 -1.189,-4.37 -4.445,-7.425 -7.934,-10.115 -3.553,-2.632 -7.466,-4.66 -10.804,-5.708 l 0.011,0 c -2.754,-0.854 -8.105,-2.513 -13.627,-5.01 -5.515,-2.476 -11.123,-5.872 -14.215,-9.626 -3.46,-4.116 -9.224,-13.08 -15.077,-21.918 -5.924,-8.896 -11.851,-17.652 -16.768,-22.401 -2.731,-2.58 -6.563,-4.84 -10.945,-7.076 -13.069,-6.607 -31.019,-12.354 -31.109,-12.39 l -2.334,7.239 z"
     id="path32"
     inkscape:connector-curvature="0"
     style="fill:#9f8946" /><path
     d="m 103.085,655.737 c 0,0 -0.085,0.469 -0.271,1.397 -0.561,2.787 -2.014,9.483 -4.489,17.69 -1.472,4.941 -5.946,12.598 -10.287,19.592 -2.174,3.516 -4.311,6.912 -6.061,9.914 -1.747,3.048 -3.107,5.523 -3.791,7.939 -0.483,1.932 -0.524,4.058 -0.55,7.046 0.011,13.713 2.739,42.173 3.4,48.356 0.839,7.752 2.482,11.55 2.646,11.907 l 6.935,-3.137 -1.431,0.646 1.442,-0.617 -0.011,-0.029 -1.431,0.646 1.442,-0.617 c -0.022,-0.06 -1.315,-3.092 -2.025,-9.618 -0.646,-5.931 -3.363,-34.636 -3.356,-47.538 -0.022,-2.669 0.183,-4.817 0.287,-5.062 0.211,-0.893 1.379,-3.309 3.021,-6.095 2.472,-4.244 6.002,-9.692 9.261,-15.186 3.263,-5.522 6.276,-11.022 7.793,-15.942 3.427,-11.357 4.95,-19.853 4.969,-19.957 l -7.493,-1.335 z"
     id="path34"
     inkscape:connector-curvature="0"
     style="fill:#9f8946" /><path
     d="m -37.836,630.957 c 0.018,0 0.798,0.714 1.731,1.665 3.39,3.427 10.12,10.718 16.504,17.511 3.2,3.397 6.318,6.683 8.938,9.336 2.661,2.684 4.634,4.623 6.199,5.775 l 0.044,0.029 -0.03,-0.021 c 2.702,1.932 7.02,4.54 10.759,6.749 3.724,2.192 6.816,3.931 6.827,3.938 l 3.738,-6.63 c -0.007,-0.007 -3.044,-1.717 -6.704,-3.872 -3.642,-2.141 -7.945,-4.765 -10.19,-6.369 l -0.044,-0.038 0.055,0.045 c -0.309,-0.216 -1.219,-1.004 -2.323,-2.066 -3.943,-3.769 -10.918,-11.216 -17.18,-17.913 -3.136,-3.359 -6.11,-6.541 -8.481,-9.03 -1.188,-1.248 -2.226,-2.318 -3.077,-3.174 -0.873,-0.862 -1.453,-1.441 -2.129,-1.969 l -4.637,6.034 z"
     id="path36"
     inkscape:connector-curvature="0"
     style="fill:#9f8946" /><path
     d="m 147.655,698.49 c -0.011,0.037 -1.892,6.035 -3.78,13.297 -1.884,7.328 -3.816,15.66 -3.854,21.347 l 0.079,1.724 c 0.401,4.162 0.921,12.22 1.338,19.169 0.413,6.957 0.725,12.828 0.725,12.844 l 7.604,-0.401 c -0.004,-0.037 -1.249,-23.562 -2.092,-32.347 l -0.041,-0.988 c -0.033,-3.999 1.762,-12.421 3.608,-19.43 0.918,-3.529 1.84,-6.778 2.531,-9.134 0.691,-2.356 1.145,-3.807 1.145,-3.807 l -7.263,-2.274 z"
     id="path38"
     inkscape:connector-curvature="0"
     style="fill:#9f8946" /><path
     d="m 173.052,708.211 c 0.003,0.008 0.672,4.14 1.349,9.395 0.676,5.24 1.338,11.64 1.334,15.772 0.018,1.687 -0.157,3.069 -0.25,3.284 l -0.007,0.022 0.015,-0.036 c -0.327,1.122 -0.417,2.11 -0.509,3.389 -0.082,1.256 -0.116,2.721 -0.116,4.362 0.008,13.707 2.331,40.806 2.334,40.865 l 7.581,-0.654 c 0,-0.015 -0.576,-6.756 -1.152,-15.191 -0.58,-8.414 -1.152,-18.53 -1.152,-25.02 0,-1.538 0.033,-2.86 0.097,-3.864 l 0.115,-1.227 0.059,-0.35 0.019,-0.096 -0.003,0.021 0.011,-0.037 c 0.487,-1.717 0.55,-3.411 0.569,-5.47 -0.019,-9.589 -2.776,-26.282 -2.78,-26.386 l -7.514,1.221 z"
     id="path40"
     inkscape:connector-curvature="0"
     style="fill:#9f8946" /><path
     d="m 142.422,765.272 c -0.044,0.222 -6.826,17.087 -6.886,31.893 0,1.174 0.044,2.349 0.145,3.501 l 0.019,0.224 0.044,0.222 c 0.852,4.096 1.673,7.054 2.234,9.321 0.572,2.273 0.851,3.753 0.847,5.15 0,1.888 -0.494,4.155 -2.304,8.57 -2.263,5.499 -3.415,8.525 -4.024,10.249 -0.305,0.862 -0.476,1.404 -0.587,1.807 -0.104,0.438 -0.193,0.616 -0.215,1.36 l 7.611,0 -3.397,0 3.34,0.639 0.057,-0.639 -3.397,0 3.34,0.639 -1.617,-0.312 1.603,0.379 0.014,-0.066 -1.617,-0.312 1.603,0.379 c -0.015,-0.007 0.665,-2.363 4.329,-11.23 1.937,-4.734 2.869,-8.087 2.873,-11.461 -0.004,-2.431 -0.476,-4.593 -1.074,-6.994 -0.602,-2.416 -1.36,-5.158 -2.163,-9.023 l -3.728,0.773 3.791,-0.327 c -0.079,-0.914 -0.115,-1.865 -0.115,-2.847 -0.011,-6.243 1.561,-13.632 3.169,-19.354 0.803,-2.861 1.606,-5.322 2.208,-7.054 0.301,-0.861 0.55,-1.546 0.721,-2.014 l 0.261,-0.677 -7.085,-2.796 z"
     id="path42"
     inkscape:connector-curvature="0"
     style="fill:#9f8946" /><path
     d="m 121.058,679.499 c -0.004,0.016 -1.457,8.221 -3.044,17.133 -1.583,8.904 -3.311,18.544 -3.835,21.265 l 0.004,-0.015 c -0.242,1.293 -0.283,2.631 -0.29,4.318 0.011,10.004 2.471,31.262 2.475,31.343 l 7.559,-0.862 c 0,-0.014 -0.605,-5.314 -1.215,-11.802 -0.609,-6.482 -1.211,-14.204 -1.208,-18.679 -0.007,-1.435 0.085,-2.587 0.149,-2.848 l 0.007,-0.044 -0.003,0.03 c 1.085,-5.664 6.89,-38.494 6.894,-38.516 l -7.493,-1.323 z"
     id="path44"
     inkscape:connector-curvature="0"
     style="fill:#9f8946" /><path
     d="m 67.866,766.58 c -0.007,0 -2.312,0.052 -5.794,0.052 -3.835,0 -9.082,-0.06 -14.096,-0.312 -4.995,-0.237 -9.852,-0.706 -12.49,-1.36 l 0.115,0.031 -0.123,-0.031 c -3.794,-0.892 -8.451,-3.485 -11.977,-5.9 -1.772,-1.196 -3.285,-2.342 -4.341,-3.174 l -1.223,-0.988 -0.398,-0.342 -5.001,5.737 c 0.077,0.066 2.764,2.408 6.692,5.069 3.947,2.653 9.064,5.679 14.464,7.001 l -0.111,-0.029 0.104,0.029 c 3.672,0.877 8.682,1.293 13.914,1.561 5.21,0.253 10.554,0.32 14.471,0.32 3.553,0 5.932,-0.053 5.95,-0.053 l -0.156,-7.611 z"
     id="path46"
     inkscape:connector-curvature="0"
     style="fill:#9f8946" /><path
     d="m 70.115,620.455 c 0,0.008 3.649,14.301 7.6,28.913 1.977,7.306 4.028,14.693 5.749,20.446 0.862,2.877 1.639,5.345 2.301,7.232 0.334,0.944 0.635,1.747 0.933,2.438 l 0.483,0.997 0.903,1.24 0.056,-0.044 -0.056,0.044 0.007,0.008 0.048,-0.052 -0.056,0.044 c 0.179,0.186 0.892,1.36 1.539,2.758 1.011,2.134 2.114,4.912 2.943,7.121 0.832,2.207 1.39,3.835 1.39,3.842 l 0.011,0.038 0.015,0.028 c 0.007,0.022 4.679,12.881 9.536,26.408 2.427,6.765 4.898,13.691 6.849,19.244 1.94,5.507 3.408,9.825 3.665,10.799 l 7.343,-1.991 c -0.45,-1.636 -1.854,-5.709 -3.828,-11.335 -5.875,-16.73 -16.412,-45.719 -16.415,-45.726 l -3.575,1.301 3.601,-1.234 c -0.015,-0.036 -1.122,-3.27 -2.557,-6.867 -0.717,-1.807 -1.516,-3.694 -2.33,-5.366 -0.866,-1.702 -1.527,-3.062 -2.813,-4.408 l -1.527,1.538 1.921,-1.055 -0.39,-0.476 -1.531,1.53 1.921,-1.055 c -0.107,-0.156 -0.699,-1.605 -1.315,-3.493 -2.26,-6.778 -6.05,-20.552 -9.239,-32.525 -3.192,-11.98 -5.801,-22.208 -5.809,-22.23 l -7.373,1.888 z"
     id="path48"
     inkscape:connector-curvature="0"
     style="fill:#9f8946" /><path
     d="m 20.599,488.823 c 0.003,0.008 0.922,2.665 2.308,6.801 2.077,6.198 5.199,15.697 7.785,24.342 1.293,4.317 2.453,8.429 3.274,11.772 0.833,3.286 1.29,6.028 1.26,6.749 0.015,1.167 0.245,2.073 0.546,3.106 1.145,3.739 3.761,9.068 7.157,15.735 5.077,9.923 11.844,22.477 17.348,34.16 2.753,5.835 5.188,11.453 6.923,16.352 1.746,4.884 2.75,9.112 2.798,11.767 l 7.611,-0.193 c -0.189,-5.843 -2.59,-12.963 -5.927,-21.05 -5.028,-12.062 -12.35,-25.954 -18.4,-37.579 -3.021,-5.812 -5.727,-11.053 -7.637,-15.125 -0.955,-2.036 -1.713,-3.783 -2.196,-5.1 l -0.509,-1.59 -0.093,-0.432 -0.011,-0.088 -0.383,0.036 0.383,0 0,-0.036 -0.383,0.036 0.383,0 c -0.011,-1.546 -0.293,-3.188 -0.717,-5.263 -1.498,-7.112 -5.058,-18.707 -8.269,-28.683 -3.207,-9.956 -6.054,-18.187 -6.058,-18.205 l -7.195,2.489 0,-0.001 z"
     id="path50"
     inkscape:connector-curvature="0"
     style="fill:#9f8946" /><path
     d="m 144.738,763.064 c 0,0 -9.904,3.367 -20.399,6.979 -5.251,1.806 -10.647,3.664 -15.032,5.202 -4.411,1.546 -7.711,2.721 -9.086,3.271 l 0.048,-0.015 -0.03,0.015 c -0.78,0.319 -4.318,1.42 -8.755,2.72 -6.73,1.985 -15.924,4.624 -23.681,6.95 -3.879,1.159 -7.395,2.245 -10.101,3.145 -1.353,0.445 -2.501,0.847 -3.434,1.211 l -1.271,0.535 -1.341,0.803 4.764,5.932 -1.129,-1.405 0.84,1.605 0.29,-0.2 -1.129,-1.405 0.84,1.605 c 0.148,-0.089 1.226,-0.528 2.627,-1.003 5.017,-1.74 15.077,-4.698 24.297,-7.381 4.616,-1.346 9.034,-2.631 12.568,-3.679 3.568,-1.07 6.087,-1.836 7.44,-2.371 l 0.019,-0.008 c 0.981,-0.394 4.397,-1.62 8.737,-3.137 6.548,-2.296 15.393,-5.337 22.599,-7.804 7.206,-2.468 12.758,-4.356 12.772,-4.356 l -2.453,-7.209 z"
     id="path52"
     inkscape:connector-curvature="0"
     style="fill:#9f8946" /><path
     d="m 522.432,812.052 c 0.022,-0.015 10.785,-5.448 22.729,-11.477 11.944,-6.034 25.056,-12.643 29.671,-14.954 l 0.045,-0.021 -0.03,0.014 c 9.35,-4.733 32.153,-17.035 52.475,-27.56 10.51,-5.434 31.797,-18.827 51.544,-31.871 9.856,-6.51 19.288,-12.925 26.721,-18.18 3.709,-2.624 6.928,-4.958 9.462,-6.891 2.549,-1.955 4.341,-3.403 5.545,-4.646 3.761,-3.961 9.417,-11.497 14.427,-18.96 2.496,-3.724 4.801,-7.396 6.57,-10.568 0.885,-1.592 1.643,-3.056 2.229,-4.386 0.579,-1.346 1.026,-2.482 1.227,-3.851 0.766,-5.619 3.917,-33.811 4.646,-39.199 0.104,-0.772 0.134,-1.546 0.134,-2.416 -0.008,-4.214 -0.811,-10.77 -1.725,-17.058 -0.922,-6.273 -1.947,-12.063 -2.49,-14.508 l 0,0.015 c -0.416,-1.681 -1.137,-2.676 -1.991,-3.881 -2.974,-3.983 -8.593,-9.148 -13.661,-13.63 -5.033,-4.431 -9.403,-7.976 -9.425,-7.998 l -2.401,2.957 3.554,-1.359 c 0,0 -0.521,-1.367 -1.36,-3.642 -2.505,-6.779 -7.812,-21.688 -9.752,-30.519 -0.914,-3.902 -3.434,-8.057 -6.727,-13.037 -3.308,-4.92 -7.439,-10.412 -11.587,-15.883 l -6.064,4.601 c 4.132,5.448 8.197,10.859 11.326,15.526 3.145,4.601 5.3,8.711 5.619,10.436 2.877,12.896 11.409,35.142 11.438,35.237 l 0.365,0.952 0.787,0.646 c 0.008,0 1.39,1.122 3.509,2.906 3.182,2.677 7.989,6.808 12.033,10.674 2.014,1.924 3.843,3.79 5.136,5.299 0.646,0.751 1.16,1.42 1.472,1.896 l 0.305,0.52 0.029,0.06 0.988,-0.363 -1.024,0.223 0.036,0.141 0.988,-0.363 -1.024,0.223 0.007,0.06 -0.007,-0.045 c 0.461,2.037 1.493,7.864 2.385,13.966 0.907,6.08 1.665,12.658 1.65,15.95 l -0.06,1.39 c -0.758,5.612 -3.909,33.812 -4.645,39.199 0.014,0.016 -0.201,0.811 -0.655,1.8 -3.166,7.35 -16.247,26.044 -21.763,31.729 -0.52,0.559 -2.259,2.03 -4.659,3.851 -16.999,12.984 -69.28,47.323 -86.604,56.235 -20.381,10.554 -43.273,22.899 -52.415,27.53 l -0.022,0.015 0.037,-0.022 c -9.283,4.646 -52.422,26.446 -52.43,26.446 l 3.432,6.791 z"
     id="path54"
     inkscape:connector-curvature="0"
     style="fill:#9f8946" /><path
     d="m 749.789,613.468 c 0,-0.008 0.051,-1.94 0.223,-5.181 0.483,-9.699 2.044,-31.098 5.901,-44.588 0.892,-3.151 1.316,-5.909 1.316,-8.392 0.014,-3.435 -0.863,-6.37 -2.268,-8.659 -2.118,-3.441 -5.017,-5.329 -7.039,-6.935 -1.033,-0.795 -1.857,-1.509 -2.415,-2.163 -0.565,-0.661 -0.877,-1.219 -1.07,-1.955 -1.249,-4.815 -4.007,-11.312 -6.72,-17.994 -2.712,-6.63 -5.381,-13.427 -6.332,-17.827 -1.189,-5.374 -1.472,-6.894 -1.754,-8.124 -0.312,-1.312 -0.535,-1.932 -1.501,-5.158 l -7.285,2.185 c 0.996,3.326 1.175,3.832 1.368,4.693 0.223,0.948 0.55,2.657 1.739,8.042 1.219,5.471 3.984,12.338 6.719,19.057 2.728,6.668 5.426,13.208 6.392,17.014 0.685,2.713 2.268,4.764 3.836,6.25 2.386,2.23 4.771,3.635 6.28,5.233 1.479,1.627 2.371,3.003 2.438,6.34 0,1.612 -0.275,3.687 -1.025,6.317 -2.803,9.894 -4.363,22.685 -5.278,33.128 -0.906,10.428 -1.137,18.447 -1.137,18.491 l 7.612,0.226 z"
     id="path56"
     inkscape:connector-curvature="0"
     style="fill:#9f8946" /><path
     d="m 756.828,559.701 c 0.014,-0.126 4.006,-19.05 4.021,-33.744 0,-1.36 -0.037,-2.684 -0.111,-3.962 -0.469,-7.596 -3.605,-26.01 -6.646,-42.9 -3.04,-16.832 -5.968,-31.875 -5.968,-31.886 l -7.478,1.457 c 0.008,0.007 0.736,3.746 1.844,9.596 1.665,8.774 4.177,22.271 6.354,34.881 2.178,12.569 4.014,24.423 4.296,29.314 0.066,1.101 0.097,2.275 0.097,3.501 0.008,6.689 -0.951,14.812 -1.925,21.191 -0.483,3.188 -0.974,5.952 -1.338,7.915 -0.356,1.954 -0.595,3.084 -0.595,3.092 l 7.449,1.545 z"
     id="path58"
     inkscape:connector-curvature="0"
     style="fill:#9f8946" /><path
     d="m 748.301,616.375 c 0.03,-0.022 2.736,-2.104 6.028,-4.891 3.308,-2.81 7.144,-6.243 9.685,-9.366 l -0.007,0.016 c 2.051,-2.52 9.817,-11.238 16.953,-19.184 7.158,-7.96 13.751,-15.237 13.758,-15.252 l -5.634,-5.113 c -0.008,0.007 -6.623,7.307 -13.788,15.281 -7.187,8.006 -14.842,16.574 -17.19,19.451 l -0.008,0.015 c -1.858,2.319 -5.561,5.701 -8.688,8.347 -1.576,1.331 -3.018,2.505 -4.066,3.338 -1.04,0.832 -1.68,1.322 -1.68,1.322 l 4.637,6.036 z"
     id="path60"
     inkscape:connector-curvature="0"
     style="fill:#9f8946" /><path
     d="m 700.763,707.854 c -0.008,-0.021 -3.812,-9.899 -7.767,-20.343 -1.978,-5.225 -3.984,-10.576 -5.567,-14.88 -0.788,-2.155 -1.473,-4.043 -1.984,-5.515 -0.506,-1.449 -0.87,-2.564 -0.93,-2.825 l 0.007,0.016 c -0.059,-0.179 -0.244,-1.256 -0.423,-2.639 -0.677,-4.95 -1.71,-14.828 -2.758,-23.903 -0.521,-4.548 -1.048,-8.896 -1.546,-12.397 -0.253,-1.747 -0.49,-3.285 -0.729,-4.556 -0.26,-1.302 -0.438,-2.215 -0.832,-3.233 l 0.015,0.021 c -0.877,-2.222 -4.853,-12.204 -9.201,-22.179 -2.171,-4.994 -4.43,-9.975 -6.459,-14.018 -1.019,-2.029 -1.97,-3.82 -2.861,-5.299 -0.937,-1.502 -1.636,-2.624 -2.817,-3.709 l -5.024,5.723 0.044,-0.059 -0.052,0.051 0.008,0.008 0.044,-0.059 -0.052,0.051 c 0.149,0.127 0.841,1.056 1.569,2.334 2.683,4.563 6.829,13.743 10.383,22.09 3.561,8.369 6.607,16.01 7.328,17.846 l 0.016,0.022 0,0.015 c 0.088,0.238 0.342,1.338 0.579,2.758 0.869,5.062 1.978,14.827 2.958,23.695 0.491,4.444 0.959,8.681 1.368,12.062 0.201,1.688 0.387,3.167 0.557,4.363 0.179,1.219 0.312,2.081 0.498,2.868 l 0.008,0.016 c 0.216,0.825 0.579,1.896 1.114,3.448 3.725,10.637 15.394,40.939 15.401,40.962 l 7.105,-2.735 z"
     id="path62"
     inkscape:connector-curvature="0"
     style="fill:#9f8946" /><path
     d="m 723.485,727.663 c 0.015,-0.127 0.208,-1.992 0.208,-5.471 0,-1.731 -0.053,-3.872 -0.193,-6.399 -0.298,-4.667 -2.208,-9.373 -3.97,-13.171 -1.769,-3.768 -3.448,-6.503 -3.5,-6.584 l -3.24,1.991 3.782,-0.379 c 0,-0.008 -0.171,-1.739 -0.364,-3.983 -0.2,-2.245 -0.408,-5.003 -0.476,-6.898 l -0.007,-0.119 c 0,-1.04 0.178,-5.017 0.453,-10.264 0.817,-15.869 2.453,-44.105 2.46,-52.288 0,-0.78 -0.015,-1.376 -0.06,-1.94 -0.223,-2.795 -0.922,-11.706 -2.765,-21.853 -1.866,-10.175 -4.758,-21.576 -9.907,-29.878 -5.121,-8.177 -13.877,-16.352 -21.414,-22.722 -7.536,-6.333 -13.84,-10.732 -13.898,-10.777 l -4.355,6.244 1.04,0.743 c 2.387,1.716 8.555,6.279 15.081,11.98 6.519,5.686 13.4,12.591 17.088,18.56 4.206,6.659 7.143,17.496 8.882,27.203 1.762,9.737 2.438,18.358 2.668,21.123 l 0.03,1.316 c 0,5.009 -0.722,19.442 -1.45,33.097 -0.363,6.838 -0.729,13.513 -1.003,18.805 -0.268,5.321 -0.453,9.127 -0.461,10.65 l 0.008,0.402 c 0.163,4.288 0.877,11.319 0.885,11.356 l 0.082,0.87 0.46,0.742 0.237,0.409 c 0.58,0.974 2.081,3.628 3.449,6.727 1.375,3.069 2.557,6.674 2.668,9.068 0.134,2.378 0.179,4.378 0.179,5.968 0,1.598 -0.045,2.795 -0.089,3.583 l -0.053,0.854 -0.022,0.231 7.567,0.804 z"
     id="path64"
     inkscape:connector-curvature="0"
     style="fill:#9f8946" /><path
     d="m 674.354,623.279 c 0.09,0.008 16.032,2.267 30.192,2.274 1.962,0 3.895,-0.045 5.76,-0.148 l 0.022,0 c 7.745,-0.469 16.263,-2.289 23.242,-4.132 3.492,-0.922 6.585,-1.852 8.992,-2.64 2.446,-0.795 4.037,-1.368 5.047,-1.836 l -3.255,-6.882 c -0.23,0.119 -1.918,0.766 -4.147,1.486 -6.786,2.222 -19.979,5.805 -30.34,6.406 l 0.045,0 -0.022,0 c -1.694,0.09 -3.493,0.134 -5.344,0.134 -6.689,0 -14.011,-0.549 -19.63,-1.099 -2.81,-0.275 -5.195,-0.551 -6.875,-0.759 -1.673,-0.208 -2.623,-0.342 -2.631,-0.342 l -1.056,7.538 z"
     id="path66"
     inkscape:connector-curvature="0"
     style="fill:#9f8946" /><path
     d="m 649.151,820.919 c 0,-0.016 1.338,-6.675 2.839,-14.026 1.502,-7.336 3.196,-15.443 3.829,-18.031 0.17,-1.129 2.222,-3.768 5.098,-5.826 2.802,-2.119 6.295,-3.881 8.488,-4.542 l -0.066,0.022 0.074,-0.022 c 2.779,-0.869 8.473,-2.616 14.508,-5.344 6.036,-2.758 12.479,-6.414 16.925,-11.684 4.065,-4.891 9.714,-13.766 15.571,-22.589 5.789,-8.77 11.869,-17.511 15.683,-21.107 1.642,-1.598 5.069,-3.754 9.119,-5.782 6.087,-3.092 13.64,-6.104 19.615,-8.318 2.995,-1.099 5.597,-2.014 7.447,-2.646 1.85,-0.632 2.928,-0.974 2.936,-0.981 l -2.333,-7.238 c -0.046,0.014 -8.065,2.594 -17.252,6.25 -4.601,1.829 -9.483,3.925 -13.854,6.14 -4.379,2.236 -8.214,4.496 -10.941,7.076 -4.913,4.749 -10.844,13.505 -16.768,22.401 -5.85,8.838 -11.61,17.802 -15.066,21.918 -3.092,3.754 -8.703,7.15 -14.219,9.626 -5.522,2.497 -10.881,4.155 -13.631,5.01 l 0.007,0 c -3.337,1.041 -7.246,3.076 -10.799,5.708 -3.486,2.69 -6.749,5.745 -7.932,10.115 -1.411,5.754 -6.733,32.325 -6.741,32.369 l 7.463,1.501 z"
     id="path68"
     inkscape:connector-curvature="0"
     style="fill:#9f8946" /><path
     d="m 664.983,779.586 c 0.163,-0.356 1.82,-4.162 2.652,-11.922 0.669,-6.169 3.391,-34.554 3.405,-48.29 -0.03,-3.024 -0.067,-5.165 -0.558,-7.104 -0.685,-2.416 -2.045,-4.898 -3.791,-7.939 -2.624,-4.496 -6.132,-9.906 -9.291,-15.235 -3.159,-5.3 -5.946,-10.592 -7.046,-14.278 -1.65,-5.463 -2.847,-10.265 -3.627,-13.684 -0.395,-1.71 -0.684,-3.076 -0.87,-4.007 -0.193,-0.937 -0.274,-1.404 -0.274,-1.404 l -7.492,1.353 c 0.022,0.098 1.561,8.6 4.979,19.949 2.015,6.533 6.697,14.234 11.082,21.384 2.193,3.553 4.311,6.928 5.961,9.752 1.643,2.786 2.81,5.202 3.025,6.102 0.104,0.245 0.312,2.424 0.29,5.113 0.007,12.926 -2.705,41.563 -3.36,47.473 -0.371,3.493 -0.921,5.976 -1.352,7.544 -0.208,0.78 -0.402,1.338 -0.521,1.672 l -0.134,0.35 -0.021,0.044 1.464,0.64 -1.449,-0.661 -0.015,0.021 1.464,0.64 -1.449,-0.661 6.928,3.148 z"
     id="path70"
     inkscape:connector-curvature="0"
     style="fill:#9f8946" /><path
     d="m 735.548,675.939 c 0.007,-0.008 3.092,-1.746 6.814,-3.938 3.739,-2.209 8.058,-4.817 10.763,-6.742 l 0.045,-0.037 -0.022,0.022 c 0.929,-0.677 1.896,-1.561 3.129,-2.735 4.252,-4.073 11.194,-11.498 17.481,-18.225 3.137,-3.352 6.103,-6.525 8.429,-8.972 1.167,-1.219 2.17,-2.267 2.95,-3.04 0.751,-0.757 1.368,-1.315 1.376,-1.308 l -4.624,-6.05 c -0.765,0.602 -1.449,1.293 -2.512,2.356 -3.59,3.627 -10.265,10.873 -16.634,17.645 -3.182,3.382 -6.273,6.63 -8.815,9.209 -2.497,2.549 -4.631,4.534 -5.24,4.95 l 0.022,-0.015 c -2.259,1.612 -6.562,4.236 -10.205,6.377 -3.656,2.155 -6.697,3.865 -6.704,3.872 l 3.747,6.631 z"
     id="path72"
     inkscape:connector-curvature="0"
     style="fill:#9f8946" /><path
     d="m 606.51,766.87 c 0,-0.016 0.312,-5.887 0.729,-12.844 0.416,-6.949 0.937,-15.007 1.345,-19.184 l 0.074,-1.717 c -0.036,-5.687 -1.97,-14.019 -3.857,-21.339 -1.888,-7.262 -3.769,-13.26 -3.775,-13.297 l -7.27,2.273 c 0.008,0.008 0.461,1.45 1.152,3.807 1.033,3.53 2.595,9.074 3.88,14.567 1.293,5.463 2.282,11.022 2.26,13.988 l -0.044,0.988 c -0.849,8.801 -2.089,32.317 -2.089,32.354 l 7.595,0.404 z"
     id="path74"
     inkscape:connector-curvature="0"
     style="fill:#9f8946" /><path
     d="m 571.48,785.257 c 0,-0.059 2.319,-27.182 2.327,-40.871 0,-1.644 -0.038,-3.1 -0.112,-4.356 -0.096,-1.271 -0.186,-2.259 -0.505,-3.374 -0.089,-0.215 -0.268,-1.599 -0.246,-3.3 -0.007,-4.133 0.655,-10.524 1.331,-15.758 0.677,-5.254 1.346,-9.372 1.346,-9.387 l -7.507,-1.219 c -0.008,0.104 -2.766,16.775 -2.78,26.363 0.015,2.074 0.082,3.775 0.572,5.492 l 0.022,0.104 c 0.141,0.633 0.274,2.78 0.268,5.435 0,6.48 -0.572,16.604 -1.145,25.025 -0.58,8.437 -1.152,15.191 -1.152,15.206 l 7.581,0.64 z"
     id="path76"
     inkscape:connector-curvature="0"
     style="fill:#9f8946" /><path
     d="m 616.982,837.569 c -0.021,-0.744 -0.11,-0.922 -0.214,-1.36 -0.328,-1.175 -1.22,-3.791 -4.624,-12.063 -1.799,-4.407 -2.289,-6.667 -2.289,-8.562 -0.008,-1.397 0.274,-2.877 0.84,-5.158 0.564,-2.26 1.375,-5.225 2.223,-9.313 l 0.044,-0.222 0.022,-0.224 c 0.097,-1.159 0.149,-2.327 0.149,-3.508 -0.061,-14.799 -6.831,-31.664 -6.883,-31.879 l -7.076,2.78 0.252,0.684 c 1.22,3.195 6.133,17.444 6.096,28.415 0,0.988 -0.045,1.939 -0.12,2.854 l 3.791,0.327 -3.724,-0.773 c -0.803,3.865 -1.561,6.615 -2.163,9.023 -0.587,2.401 -1.062,4.563 -1.062,6.994 0,3.382 0.929,6.733 2.862,11.453 2.244,5.441 3.359,8.385 3.901,9.9 0.268,0.759 0.387,1.16 0.424,1.294 l 0.015,0.044 2.943,-0.705 -3.018,0 0.074,0.705 2.943,-0.705 -3.018,0 7.612,0 z"
     id="path78"
     inkscape:connector-curvature="0"
     style="fill:#9f8946" /><path
     d="m 632.316,753.542 c 0,-0.081 2.46,-21.346 2.468,-31.351 -0.008,-1.688 -0.044,-3.018 -0.29,-4.304 l 0.008,0.008 c -0.527,-2.721 -2.252,-12.36 -3.836,-21.265 -1.582,-8.912 -3.032,-17.117 -3.039,-17.133 l -7.492,1.324 c 0,0.021 5.805,32.852 6.89,38.516 l -0.008,-0.067 0.016,0.074 c 0.06,0.268 0.148,1.413 0.142,2.847 0.007,4.475 -0.595,12.197 -1.205,18.679 -0.608,6.495 -1.219,11.796 -1.219,11.81 l 7.565,0.862 z"
     id="path80"
     inkscape:connector-curvature="0"
     style="fill:#9f8946" /><path
     d="m 731.147,754.554 -0.4,0.342 c -0.975,0.81 -3.635,2.95 -6.942,5.075 -3.293,2.134 -7.292,4.208 -10.6,4.987 l -0.007,0.008 c -2.631,0.646 -7.471,1.115 -12.442,1.353 -4.995,0.253 -10.228,0.312 -14.07,0.312 -3.522,0 -5.856,-0.052 -5.864,-0.052 l -0.163,7.61 c 0.021,0 2.431,0.053 6.027,0.053 3.925,0 9.254,-0.06 14.442,-0.32 5.217,-0.268 10.204,-0.684 13.869,-1.568 l -0.008,0.008 c 5.396,-1.322 10.51,-4.34 14.464,-7.001 3.925,-2.661 6.615,-5.003 6.689,-5.069 l -4.995,-5.738 z"
     id="path82"
     inkscape:connector-curvature="0"
     style="fill:#9f8946" /><path
     d="m 671.196,618.567 c -0.008,0.03 -3.643,14.263 -7.573,28.816 -1.97,7.269 -4.014,14.612 -5.694,20.246 -0.847,2.817 -1.598,5.203 -2.191,6.897 -0.298,0.847 -0.551,1.517 -0.729,1.933 l -0.172,0.364 1.918,1.047 -1.538,-1.522 -0.38,0.476 1.918,1.047 -1.538,-1.522 0.021,-0.023 c -1.293,1.354 -1.954,2.714 -2.824,4.416 -2.415,4.973 -4.854,12.167 -4.891,12.233 l 3.604,1.234 -3.575,-1.301 c 0,0 -4.682,12.896 -9.551,26.438 -2.431,6.771 -4.905,13.713 -6.86,19.288 -1.977,5.626 -3.382,9.699 -3.827,11.335 l 7.344,1.991 c 0.26,-0.974 1.724,-5.3 3.664,-10.799 2.921,-8.325 7.023,-19.749 10.383,-29.077 3.367,-9.335 5.99,-16.56 5.998,-16.575 l 0.016,-0.036 0.008,-0.03 c 0.007,-0.007 0.26,-0.765 0.698,-1.97 0.662,-1.813 1.701,-4.601 2.771,-7.075 0.535,-1.241 1.078,-2.401 1.554,-3.285 l 0.617,-1.056 0.193,-0.283 0.045,-0.052 -0.224,-0.2 0.208,0.216 0.016,-0.016 -0.224,-0.2 0.208,0.216 0.03,-0.03 -0.008,0.008 0.899,-1.241 c 0.646,-1.219 1.145,-2.653 1.858,-4.75 4.741,-14.285 15.185,-55.217 15.2,-55.269 l -7.372,-1.889 z"
     id="path84"
     inkscape:connector-curvature="0"
     style="fill:#9f8946" /><path
     d="m 720.89,486.337 c -0.008,0.019 -3.724,10.77 -7.447,22.554 -1.865,5.901 -3.731,12.049 -5.144,17.281 -0.713,2.623 -1.308,5.01 -1.731,7.053 -0.424,2.074 -0.706,3.717 -0.721,5.263 l 0.155,0 -0.155,-0.015 0,0.015 0.155,0 -0.155,-0.015 c 0,0.305 -0.528,2.074 -1.486,4.259 -3.367,7.879 -11.544,22.64 -18.895,37.386 -3.679,7.396 -7.164,14.821 -9.796,21.547 -2.616,6.757 -4.437,12.702 -4.594,17.75 l 7.611,0.193 c 0.045,-3.813 2.111,-10.651 5.345,-18.314 4.815,-11.573 12.062,-25.36 18.12,-36.999 3.033,-5.82 5.761,-11.112 7.774,-15.4 1.011,-2.155 1.836,-4.051 2.445,-5.709 0.595,-1.694 1.048,-2.987 1.086,-4.697 -0.016,-0.445 0.17,-1.896 0.557,-3.701 1.345,-6.444 4.884,-18.062 8.058,-27.909 3.181,-9.871 6.005,-18.035 6.012,-18.054 l -7.194,-2.482 0,-0.006 z"
     id="path86"
     inkscape:connector-curvature="0"
     style="fill:#9f8946" /><path
     d="m 601.485,770.273 c 0.022,0.008 9.9,3.367 20.381,6.965 5.24,1.807 10.629,3.664 14.991,5.195 4.341,1.517 7.76,2.743 8.741,3.137 l 0.015,0.008 c 1.568,0.624 4.861,1.605 9.425,2.958 6.779,1.999 15.957,4.63 23.65,6.941 3.843,1.146 7.321,2.223 9.893,3.077 1.278,0.424 2.341,0.795 3.077,1.078 l 0.788,0.334 0.097,0.045 1.062,-1.888 -1.353,1.688 0.29,0.2 1.062,-1.888 -1.353,1.688 4.772,-5.932 c -0.789,-0.595 -1.175,-0.714 -1.739,-0.981 -1.97,-0.847 -5.382,-1.947 -9.782,-3.308 -6.556,-2.021 -15.08,-4.488 -22.38,-6.614 -3.642,-1.063 -6.986,-2.044 -9.603,-2.832 -2.586,-0.781 -4.57,-1.42 -5.084,-1.628 l -0.044,-0.022 0.06,0.022 c -1.376,-0.55 -4.676,-1.725 -9.083,-3.271 -13.156,-4.601 -35.424,-12.175 -35.432,-12.182 l -2.451,7.21 z"
     id="path88"
     inkscape:connector-curvature="0"
     style="fill:#9f8946" /><path
     d="m 376.446,861.895 c 0,0 27.132,0 57.74,1.13 30.532,1.13 70.69,4.979 70.69,4.979 0,0 1.108,35.134 3.807,48.097 2.683,13.007 30.956,23.323 52.748,22.922 21.793,-0.371 43.964,2.312 78.325,8.429 34.397,6.109 68.781,34.814 68.781,34.814 l -25.984,-73.404 87.08,-9.187 c 0,0 -19.414,-14.137 -47.346,-27.062 -27.887,-13.007 -64.552,-19.146 -87.481,-20.291 -22.952,-1.145 -64.218,2.676 -64.218,2.676 0,0 -0.356,-25.583 -1.13,-35.914 -0.787,-10.331 -2.289,-44.358 -2.289,-44.358 0,0 -30.221,-9.543 -78.741,-15.638 -48.505,-6.132 -113.871,-6.511 -113.871,-6.511 l -0.387,0 c 0,0 -65.347,0.379 -113.875,6.511 -48.545,6.095 -78.722,15.638 -78.722,15.638 0,0 -1.531,34.027 -2.289,44.358 -0.77,10.331 -1.152,35.914 -1.152,35.914 0,0 -41.28,-3.82 -64.195,-2.676 -22.918,1.145 -59.625,7.284 -87.512,20.291 -27.902,12.926 -47.386,27.062 -47.386,27.062 l 87.121,9.187 -25.984,73.404 c 0,0 34.394,-28.705 68.789,-34.814 34.394,-6.117 56.573,-8.8 78.339,-8.429 21.77,0.401 50.059,-9.915 52.738,-22.922 2.672,-12.963 3.828,-48.097 3.828,-48.097 0,0 40.095,-3.85 70.676,-4.979 30.597,-1.13 57.722,-1.13 57.722,-1.13 l 4.178,0 z"
     id="path90"
     inkscape:connector-curvature="0"
     style="fill:#0053a1" /><path
     d="m 376.446,861.895 0,5.708 c 0.019,0 6.737,0 17.313,0.142 10.576,0.142 24.974,0.424 40.218,0.98 15.117,0.565 32.741,1.807 46.551,2.906 13.811,1.101 23.777,2.052 23.807,2.052 l 0.542,-5.679 -5.708,0.179 c 0.008,0.03 0.283,8.853 0.899,19.347 0.64,10.539 1.546,22.521 3.025,29.73 1.062,4.995 4.191,8.927 8.034,12.175 5.82,4.868 13.684,8.525 22.306,11.172 8.621,2.615 17.987,4.132 26.757,4.132 l 1.338,-0.008 c 1.294,-0.021 2.58,-0.037 3.872,-0.037 20.024,0 41.185,2.646 73.353,8.377 16.024,2.817 32.764,11.2 45.302,18.938 6.273,3.865 11.521,7.552 15.178,10.265 1.828,1.354 3.256,2.46 4.222,3.226 l 1.085,0.87 0.342,0.282 15.988,13.35 -30.519,-86.219 94.639,-9.989 -11.996,-8.733 c -0.2,-0.142 -19.859,-14.456 -48.304,-27.627 l 0.015,0.007 c -29.003,-13.475 -66.001,-19.606 -89.615,-20.818 -3.113,-0.155 -6.504,-0.223 -10.056,-0.223 -23.651,0.008 -54.883,2.913 -54.973,2.913 l 0.528,5.687 5.708,-0.082 c -0.007,-0.067 -0.349,-25.531 -1.145,-36.256 -0.387,-5.017 -0.958,-16.137 -1.434,-25.903 -0.469,-9.788 -0.849,-18.262 -0.849,-18.283 l -0.17,-3.992 -3.813,-1.196 c -0.253,-0.082 -30.785,-9.707 -79.744,-15.861 -49.048,-6.191 -114.436,-6.547 -114.551,-6.555 l -0.42,0 -0.052,0 0.019,0 c -0.115,0.008 -65.489,0.363 -114.559,6.555 -48.98,6.154 -79.473,15.779 -79.726,15.861 l -3.802,1.196 -0.178,3.984 c -0.004,0.022 -0.383,8.503 -0.862,18.284 -0.476,9.773 -1.048,20.894 -1.42,25.918 -0.791,10.71 -1.163,36.174 -1.167,36.24 l 5.708,0.09 0.528,-5.687 c -0.089,0 -31.332,-2.905 -54.964,-2.913 -3.549,0 -6.931,0.067 -10.045,0.223 -23.599,1.212 -60.643,7.344 -89.637,20.818 l 0.011,-0.007 c -28.415,13.171 -48.145,27.485 -48.338,27.619 l -12.04,8.741 94.717,9.989 -30.519,86.211 15.988,-13.342 0.338,-0.282 c 1.806,-1.464 10.655,-8.51 22.896,-15.816 12.223,-7.313 27.88,-14.836 42.897,-17.481 32.202,-5.73 53.37,-8.377 73.375,-8.377 1.293,0 2.58,0.016 3.865,0.037 l 1.337,0.008 c 11.684,-0.015 24.438,-2.676 35.071,-7.12 5.318,-2.245 10.104,-4.929 13.984,-8.184 3.839,-3.248 6.972,-7.18 8.035,-12.182 1.468,-7.195 2.382,-19.177 3.025,-29.724 0.628,-10.486 0.918,-19.302 0.918,-19.34 l -5.705,-0.186 0.546,5.679 c 0.008,0 2.482,-0.238 6.705,-0.609 12.657,-1.138 40.905,-3.508 63.638,-4.349 15.237,-0.557 29.626,-0.839 40.199,-0.98 10.573,-0.142 17.292,-0.142 17.311,-0.142 l 4.178,0 0,-5.709 0,-5.709 -4.178,0 c -0.041,0 -27.214,0 -57.933,1.131 -30.846,1.145 -70.955,5.002 -71.011,5.009 l -4.995,0.476 -0.164,5.018 c 0,0.008 -0.07,2.163 -0.219,5.634 -0.227,5.211 -0.625,13.334 -1.211,21.316 -0.58,7.953 -1.386,15.884 -2.282,20.18 -0.253,1.383 -1.516,3.509 -4.207,5.753 -3.973,3.374 -10.703,6.697 -18.274,8.979 -7.574,2.305 -16.002,3.649 -23.431,3.643 l -1.133,-0.008 c -1.36,-0.022 -2.712,-0.037 -4.069,-0.037 -21.064,0.008 -42.957,2.787 -75.374,8.555 -18.373,3.293 -36.029,12.316 -49.285,20.455 -13.238,8.153 -22.016,15.475 -22.161,15.593 l 3.657,4.386 5.381,1.902 28.4,-80.228 -94.319,-9.944 -0.598,5.679 3.352,4.623 0.817,-0.58 c 3.921,-2.757 21.651,-14.828 45.618,-25.925 l 0.011,-0.007 c 26.78,-12.539 63.147,-18.687 85.386,-19.765 2.858,-0.141 6.068,-0.208 9.473,-0.208 11.375,0 24.903,0.715 35.539,1.436 5.318,0.356 9.918,0.713 13.189,0.988 3.267,0.268 5.177,0.446 5.181,0.446 l 6.143,0.564 0.093,-6.169 c 0,-0.008 0.093,-6.37 0.286,-14.025 0.189,-7.634 0.479,-16.619 0.851,-21.548 0.773,-10.546 2.296,-44.483 2.296,-44.528 l -5.701,-0.253 1.721,5.44 c 0.003,0 0.409,-0.126 1.293,-0.386 6.203,-1.844 34.327,-9.744 76.418,-15.029 23.978,-3.032 52.337,-4.66 74.646,-5.515 11.156,-0.431 20.804,-0.669 27.661,-0.795 6.853,-0.134 10.881,-0.156 10.892,-0.156 l 0.354,0 -0.052,0 0.019,0 c 0.011,0 4.039,0.022 10.896,0.156 20.551,0.387 66.336,1.762 102.295,6.31 24.044,3.018 43.539,6.891 56.993,10.005 6.727,1.554 11.943,2.913 15.467,3.887 1.755,0.484 3.092,0.87 3.977,1.138 0.893,0.26 1.301,0.386 1.301,0.386 l 1.717,-5.44 -5.7,0.253 c 0,0.045 1.493,33.968 2.297,44.536 0.371,4.913 0.661,13.899 0.839,21.54 0.186,7.655 0.275,14.011 0.275,14.025 l 0.089,6.169 6.146,-0.564 c 0,0 1.918,-0.179 5.181,-0.446 9.789,-0.811 31.641,-2.424 48.736,-2.424 3.411,0 6.622,0.067 9.491,0.208 22.245,1.078 58.568,7.226 85.348,19.765 l 0.016,0.007 c 13.706,6.34 25.36,13 33.551,18.054 4.095,2.527 7.328,4.66 9.527,6.146 1.093,0.743 1.934,1.323 2.498,1.718 l 0.811,0.579 3.359,-4.615 -0.603,-5.679 -94.274,9.944 28.4,80.228 5.381,-1.902 3.656,-4.386 c -0.141,-0.111 -8.919,-7.439 -22.156,-15.593 -13.253,-8.139 -30.905,-17.162 -49.286,-20.455 -32.384,-5.768 -54.272,-8.547 -75.352,-8.555 -1.359,0 -2.712,0.015 -4.064,0.037 l -1.146,0.008 c -9.915,0.022 -21.6,-2.4 -30.659,-6.229 -4.534,-1.902 -8.406,-4.154 -11.053,-6.392 -2.69,-2.244 -3.954,-4.37 -4.206,-5.753 -1.219,-5.761 -2.216,-17.83 -2.803,-28.095 -0.305,-5.158 -0.527,-9.923 -0.677,-13.394 -0.141,-3.472 -0.208,-5.627 -0.208,-5.634 l -0.163,-5.025 -5.002,-0.476 c -0.052,-0.007 -40.226,-3.864 -71.025,-5.009 -30.727,-1.131 -57.907,-1.131 -57.948,-1.131 l 0,5.707 z"
     id="path92"
     inkscape:connector-curvature="0"
     style="fill:#9f8946" /><path
     d="m 243.491,862.311 c -0.014,0 -7.979,0.521 -17.317,1.271 -9.376,0.75 -19.979,1.688 -25.814,2.624 l 0.026,-0.008 0.007,0 c -5.139,0.817 -11.494,1.925 -17.203,4.615 -2.847,1.368 -5.607,3.166 -7.804,5.842 -2.2,2.646 -3.631,6.288 -3.598,10.176 -0.019,3.738 0.94,7.307 2.992,10.115 1.52,2.104 3.538,3.665 5.656,4.743 6.399,3.128 13.624,3.092 21.305,3.166 2.349,0 4.731,-0.022 7.105,-0.022 8.172,0 16.456,0.11 22.684,0.223 6.232,0.111 10.391,0.223 10.402,0.223 l 0.305,-11.416 c -0.03,0 -16.846,-0.446 -33.391,-0.446 -2.453,0 -4.838,0.022 -7.105,0.022 -6.552,0.045 -12.215,-0.327 -15.137,-1.494 -1.486,-0.564 -2.167,-1.138 -2.583,-1.701 -0.398,-0.573 -0.799,-1.412 -0.818,-3.412 0.034,-1.375 0.331,-2.044 1.029,-2.959 1.03,-1.337 3.568,-2.876 6.942,-3.976 3.345,-1.115 7.344,-1.858 10.963,-2.416 l 0.034,-0.008 c 4.991,-0.803 15.687,-1.783 24.907,-2.511 9.253,-0.744 17.143,-1.257 17.162,-1.265 l -0.749,-11.386 z"
     id="path94"
     inkscape:connector-curvature="0"
     style="fill:#9f8946" /><path
     d="m 172.428,854.775 c 0,0.045 -0.721,18.678 -0.725,28.481 0,1.345 0.015,2.527 0.049,3.53 l 11.409,-0.386 c -0.026,-0.795 -0.041,-1.881 -0.041,-3.145 0,-4.66 0.178,-11.707 0.357,-17.549 0.181,-5.841 0.36,-10.479 0.36,-10.486 l -11.409,-0.445 z"
     id="path96"
     inkscape:connector-curvature="0"
     style="fill:#9f8946" /><path
     d="m 504.499,873.698 c 0.021,0.008 7.907,0.514 17.161,1.241 9.224,0.721 19.927,1.68 24.937,2.482 l 0.015,0 c 4.816,0.729 10.339,1.858 14.018,3.65 1.852,0.877 3.159,1.865 3.865,2.749 0.698,0.914 0.996,1.591 1.026,2.966 -0.016,1.992 -0.416,2.832 -0.811,3.404 -0.32,0.431 -0.751,0.832 -1.591,1.264 -2.452,1.412 -8.637,1.992 -15.973,1.917 -2.312,0 -4.749,-0.029 -7.255,-0.029 -16.536,0 -33.409,0.513 -33.438,0.513 l 0.342,11.417 c 0.015,0 4.185,-0.135 10.421,-0.261 6.235,-0.126 14.522,-0.253 22.676,-0.253 2.424,0 4.861,0.03 7.255,0.03 6.801,-0.045 13.223,-0.097 19.05,-2.229 2.892,-1.078 5.745,-2.877 7.774,-5.694 2.037,-2.802 2.98,-6.354 2.966,-10.078 0.03,-3.887 -1.39,-7.521 -3.59,-10.168 -3.314,-4.006 -7.767,-6.095 -12.16,-7.596 -4.422,-1.471 -8.972,-2.281 -12.821,-2.884 l 0.015,0 c -5.841,-0.914 -16.448,-1.843 -25.82,-2.579 -9.343,-0.736 -17.304,-1.249 -17.317,-1.249 l -0.745,11.387 z"
     id="path98"
     inkscape:connector-curvature="0"
     style="fill:#9f8946" /><path
     d="m 564.887,855.229 c 0,0.007 0.186,4.614 0.371,10.428 0.18,5.805 0.365,12.827 0.365,17.495 0,1.286 -0.016,2.394 -0.044,3.203 l 11.416,0.401 c 0.029,-1.018 0.044,-2.229 0.044,-3.604 0,-9.833 -0.75,-28.34 -0.75,-28.385 l -11.402,0.462 z"
     id="path100"
     inkscape:connector-curvature="0"
     style="fill:#9f8946" /><polygon
     points="283.784,784.567 289.311,850.985 269.978,852.575 264.444,786.157 "
     id="polygon102"
     transform="translate(-62,0)"
     style="fill:#9f8946" /><polygon
     points="324.191,847.505 320.545,797.41 300.864,798.868 299.667,782.47 358.393,778.204 359.582,794.585 339.9,796.012 343.561,846.093 "
     id="polygon104"
     transform="translate(-62,0)"
     style="fill:#9f8946" /><path
     d="m 347.875,831.927 -22.093,0.579 -2.725,11.075 -19.863,0.527 21.818,-67.272 21.257,-0.565 25.345,66.002 -20.291,0.551 -3.448,-10.897 z m -4.49,-14.301 -7.503,-23.77 -6.236,24.127 13.739,-0.357 z"
     id="path106"
     inkscape:connector-curvature="0"
     style="fill:#9f8946" /><polygon
     points="496.721,826.902 496.29,843.284 446.621,841.991 448.379,775.35 467.763,775.855 466.455,826.099 "
     id="polygon108"
     transform="translate(-62,0)"
     style="fill:#9f8946" /><polygon
     points="534.389,779.185 530.725,845.737 511.363,844.652 515.02,778.1 "
     id="polygon110"
     transform="translate(-62,0)"
     style="fill:#9f8946" /><path
     d="m 528.208,839.464 -22.001,-2.216 -4.118,10.645 -19.74,-1.993 30.161,-63.965 21.168,2.141 16.754,68.677 -20.173,-2.021 -2.051,-11.268 z m -2.646,-14.732 -4.43,-24.558 -9.231,23.19 13.661,1.368 z"
     id="path112"
     inkscape:connector-curvature="0"
     style="fill:#9f8946" /><path
     d="m 107.992,182.976 0,268.127 c 0,38.308 9.558,130.591 108.861,196.785 25.39,16.916 46.989,29.226 64.79,38.383 l 0,-503.295 -173.651,0 z"
     id="path114"
     inkscape:connector-curvature="0"
     style="fill:#00795d" /><path
     d="m 467.022,182.976 0,503.295 c 17.81,-9.157 39.394,-21.467 64.798,-38.383 99.299,-66.194 108.873,-158.478 108.873,-196.785 l 0,-268.127 -173.671,0 z"
     id="path116"
     inkscape:connector-curvature="0"
     style="fill:#dd052b" /><path
     d="m 281.646,182.976 0,503.279 c 25.766,13.216 43.529,19.815 52.731,23.77 16.842,7.225 39.895,15.46 39.895,15.46 l 0.123,0 c 0,0 23.06,-8.235 39.887,-15.46 9.217,-3.954 26.98,-10.554 52.741,-23.77 l 0,-503.279 -185.377,0 z"
     id="path118"
     inkscape:connector-curvature="0"
     style="fill:#ffffff" /><rect
     x="107.987"
     y="11.417"
     width="532.69"
     height="171.552"
     id="rect120"
     style="fill:#0053a1" /><polygon
     points="303.956,88.036 303.956,109.241 263.122,109.241 263.122,151.908 230.738,151.908 230.738,47.212 310.798,47.212 310.798,69.792 263.122,69.792 263.122,88.036 "
     id="polygon122"
     transform="translate(-62,0)"
     style="fill:#9f8946" /><rect
     x="274.48499"
     y="127.042"
     width="26.471001"
     height="24.865999"
     id="rect124"
     style="fill:#9f8946" /><rect
     x="330.52301"
     y="47.212002"
     width="32.395"
     height="104.696"
     id="rect126"
     style="fill:#9f8946" /><rect
     x="394.54099"
     y="127.042"
     width="26.459999"
     height="24.865999"
     id="rect128"
     style="fill:#9f8946" /><path
     d="m 449.675,151.912 0,-104.7 53.871,0 c 9.989,0 17.646,0.862 22.937,2.576 5.263,1.717 9.514,4.883 12.74,9.543 3.24,4.649 4.861,10.298 4.861,16.972 0,5.816 -1.25,10.837 -3.717,15.062 -2.498,4.214 -5.901,7.633 -10.271,10.234 -2.78,1.684 -6.556,3.07 -11.41,4.151 3.858,1.3 6.623,2.594 8.392,3.879 1.189,0.866 2.898,2.702 5.144,5.534 2.246,2.832 3.731,5.017 4.504,6.537 l 15.802,30.21 -36.508,0 -17.311,-31.953 c -2.179,-4.133 -4.141,-6.82 -5.85,-8.054 -2.35,-1.62 -4.98,-2.442 -7.938,-2.442 l -2.869,0 0,42.448 -32.377,0 z m 32.376,-62.275 13.706,0 c 1.472,0 4.34,-0.472 8.637,-1.416 2.11,-0.427 3.909,-1.516 5.262,-3.273 1.354,-1.766 2.066,-3.78 2.066,-6.058 0,-3.363 -1.1,-5.957 -3.255,-7.763 -2.155,-1.802 -6.199,-2.702 -12.146,-2.702 l -14.271,0 0,21.212 z"
     id="path130"
     inkscape:connector-curvature="0"
     style="fill:#9f8946" /><rect
     x="571.40601"
     y="127.042"
     width="26.459999"
     height="24.865999"
     id="rect132"
     style="fill:#9f8946" /><polyline
     points="169.984,194.385 702.677,194.385 702.677,171.552 169.984,171.552 "
     id="polyline134"
     transform="translate(-62,0)"
     style="fill:#9f8946" /><path
     d="m 374.409,725.477 3.843,10.748 c 0.111,-0.038 23.186,-8.272 40.541,-15.713 7.321,-3.151 21.733,-8.556 41.771,-18.27 20.098,-9.729 46.074,-23.865 77.581,-44.862 51.59,-34.339 80.391,-76.051 95.903,-114.023 15.556,-37.98 18.039,-72.156 18.046,-92.261 L 652.094,0 375.208,0 373.472,0 96.579,0 l 0,451.096 c 0.003,20.105 2.494,54.281 18.046,92.261 15.512,37.973 44.316,79.685 95.895,114.023 31.503,20.997 57.48,35.134 77.585,44.862 20.046,9.714 34.462,15.118 41.768,18.27 17.381,7.44 40.463,15.675 40.57,15.713 l 1.866,0.669 2.1,0 1.98,0 1.862,-0.669 -3.842,-10.748 0,-11.416 -0.123,0 0,11.416 3.839,-10.747 c -0.005,-0.008 -1.394,-0.505 -3.791,-1.376 -7.172,-2.616 -23.223,-8.584 -35.461,-13.831 -8.239,-3.531 -21.521,-8.488 -40.816,-17.823 -19.239,-9.32 -44.246,-22.915 -74.876,-43.317 -47.71,-31.849 -73.337,-69.376 -87.43,-103.678 C 121.7,500.411 119.407,469.288 119.41,451.096 l 0,-428.263 254.061,0 1.736,0 254.053,0 0,428.263 c 0.008,18.191 -2.289,49.315 -16.337,83.609 -14.092,34.302 -39.72,71.829 -87.438,103.678 -30.637,20.402 -55.641,33.997 -74.875,43.317 -19.296,9.335 -32.569,14.3 -40.812,17.823 -8.146,3.493 -18.01,7.32 -25.784,10.249 -3.891,1.465 -7.266,2.705 -9.658,3.582 -2.393,0.871 -3.787,1.368 -3.791,1.376 l 3.844,10.747 0,-11.416 0,11.416 z"
     id="path136"
     inkscape:connector-curvature="0"
     style="fill:#9f8946;fill-opacity:1" /></svg>