<?xml version="1.0" encoding="UTF-8" standalone="no"?>
<!-- Created with Inkscape (http://www.inkscape.org/) -->

<svg
   xmlns:dc="http://purl.org/dc/elements/1.1/"
   xmlns:cc="http://creativecommons.org/ns#"
   xmlns:rdf="http://www.w3.org/1999/02/22-rdf-syntax-ns#"
   xmlns:svg="http://www.w3.org/2000/svg"
   xmlns="http://www.w3.org/2000/svg"
   xmlns:sodipodi="http://sodipodi.sourceforge.net/DTD/sodipodi-0.dtd"
   xmlns:inkscape="http://www.inkscape.org/namespaces/inkscape"
   width="105.83mm"
   height="179.29mm"
   viewBox="0 0 105.83 179.29"
   version="1.1"
   id="svg4616"
   inkscape:version="0.92.3 (2405546, 2018-03-11)"
   sodipodi:docname="Ligue B masculine de volley 2016 logo.svg">
  <defs
     id="defs4610" />
  <sodipodi:namedview
     id="base"
     pagecolor="#ffffff"
     bordercolor="#666666"
     borderopacity="1.0"
     inkscape:pageopacity="0.0"
     inkscape:pageshadow="2"
     inkscape:zoom="0.49497"
     inkscape:cx="-195.42"
     inkscape:cy="458.22"
     inkscape:document-units="mm"
     inkscape:current-layer="layer1"
     showgrid="false"
     fit-margin-top="0"
     fit-margin-left="0"
     fit-margin-right="0"
     fit-margin-bottom="0"
     inkscape:window-width="1680"
     inkscape:window-height="904"
     inkscape:window-x="-5"
     inkscape:window-y="-5"
     inkscape:window-maximized="1" />
  <metadata
     id="metadata4613">
    <rdf:RDF>
      <cc:Work
         rdf:about="">
        <dc:format>image/svg+xml</dc:format>
        <dc:type
           rdf:resource="http://purl.org/dc/dcmitype/StillImage" />
        <dc:title></dc:title>
      </cc:Work>
    </rdf:RDF>
  </metadata>
  <g
     inkscape:label="Calque 1"
     inkscape:groupmode="layer"
     id="layer1"
     transform="translate(-5.2939,-101.52)">
    <rect
       style="opacity:0.975;fill:#ffffff;fill-opacity:1;fill-rule:evenodd;stroke:none;stroke-width:0.04976;stroke-linecap:round;stroke-linejoin:round;stroke-miterlimit:4;stroke-dasharray:none;stroke-dashoffset:30.23622;stroke-opacity:1"
       id="rect2321-6"
       width="105.83"
       height="179.29"
       x="5.2939"
       y="101.52"
       ry="11.614" />
    <path
       id="path2411"
       d="m 80.884,109.22 c 1.443,-1.32 3.507,-0.3 5.181,-0.1 -3.042,2.38 -4.34,6.18 -4.845,9.87 -1.686,0.68 -3.442,1.14 -5.221,1.43 0.411,-4.09 1.727,-8.41 4.885,-11.23 z"
       inkscape:connector-curvature="0"
       style="opacity:1;fill:#74b841;fill-opacity:1;stroke-width:0.57955" />
    <path
       id="path2413"
       d="m 71.136,118.81 c 0.232,-3.9 2.794,-7.38 6.19,-9.19 -1.901,3.3 -3.251,6.94 -3.57,10.76 -0.864,-0.5 -2.121,-0.64 -2.62,-1.57 z"
       inkscape:connector-curvature="0"
       style="opacity:1;fill:#74b841;fill-opacity:1;stroke-width:0.57955" />
    <path
       id="path2415"
       d="m 88.476,110.41 c 3.321,2.31 5.263,6.31 4.921,10.35 -1.652,-3.49 -4.301,-6.41 -7.424,-8.64 0.828,-0.57 1.663,-1.14 2.503,-1.71 z"
       inkscape:connector-curvature="0"
       style="opacity:1;fill:#74b841;fill-opacity:1;stroke-width:0.57955" />
    <path
       id="path2417"
       d="m 84.819,114.05 c 3.275,2.34 6.236,5.58 7.146,9.6 0.626,1.97 -1.281,3.41 -2.463,4.66 -0.533,-3.85 -3.268,-6.76 -6.131,-9.13 0.336,-1.75 0.788,-3.47 1.448,-5.13 z"
       inkscape:connector-curvature="0"
       style="opacity:1;fill:#74b841;fill-opacity:1;stroke-width:0.57955" />
    <path
       id="path2419"
       d="m 71.2,121.85 c 3.576,1.4 7.47,0.65 10.901,-0.79 1.42,1.12 2.701,2.41 3.837,3.82 -3.756,1.69 -8.166,2.68 -12.176,1.32 -1.838,-0.56 -1.965,-2.84 -2.562,-4.35 z"
       inkscape:connector-curvature="0"
       style="opacity:1;fill:#74b841;fill-opacity:1;stroke-width:0.57955" />
    <path
       id="path2421"
       d="m 75.929,129.1 c 3.785,0.1 7.586,-0.57 11.006,-2.25 0.104,1.03 0.191,2.08 0.272,3.12 -3.634,1.57 -7.963,1.37 -11.278,-0.87 z"
       inkscape:connector-curvature="0"
       style="opacity:1;fill:#74b841;fill-opacity:1;stroke-width:0.57955" />
    <path
       id="path2423"
       d="m 14.769,186.5 c 28.931,0.1 57.868,0.1 86.821,0 0.1,1.75 0.1,3.5 0,5.26 -27.817,0 -55.624,0 -83.436,0 -1.113,-0.1 -2.365,0.24 -3.385,-0.21 -0.15,-1.68 -0.06,-3.38 0,-5.06 z"
       inkscape:connector-curvature="0"
       style="opacity:1;fill:#74b841;fill-opacity:1;stroke-width:0.57955" />
    <path
       id="path2425"
       d="m 14.717,233.19 c 28.966,0 57.932,0 86.933,0 -0.1,1.72 -0.1,3.45 -0.1,5.17 -28.941,0 -57.901,0 -86.867,0 0,-1.73 0,-3.46 0,-5.18 z"
       inkscape:connector-curvature="0"
       style="opacity:1;fill:#74b841;fill-opacity:1;stroke-width:0.57955" />
    <path
       id="path2430"
       d="m 60.115,165 c 15.688,-8.29 29.028,-20.71 39.18,-35.19 -2.973,7.98 -8.279,14.81 -13.668,21.32 -8.575,9.95 -17.397,20.04 -28.814,26.81 -1.972,1.03 -3.828,2.74 -6.194,2.59 -10.251,0 -20.518,0 -30.769,0 -3.27,-4.04 -3.5,-9.62 -2.481,-14.51 1.314,-6.32 4.189,-12.24 7.738,-17.61 -1.627,5.44 -2.941,11.71 0,16.97 2.349,4.36 7.524,6.23 12.255,6.22 8.05,0 15.754,-3.01 22.818,-6.62 z"
       inkscape:connector-curvature="0"
       style="opacity:1;fill:#10069f;fill-opacity:1;stroke-width:0.57955" />
    <path
       id="path2438"
       d="m 48.615,145.49 c 3.696,-1.01 7.705,1.31 8.97,4.86 2.3,5.55 -1.315,12.98 -7.459,13.83 -4.222,0.72 -8.181,-2.8 -8.69,-6.9 -0.92,-4.95 2.152,-10.56 7.179,-11.79 z"
       inkscape:connector-curvature="0"
       style="opacity:1;fill:#10069f;fill-opacity:1;stroke-width:0.57955" />
    <path
       id="path2452"
       d="m 14.708,197.62 c 3.203,0 6.39,0 9.61,0 0.164,7.23 0,14.46 0,21.68 3.351,0 6.686,0 10.037,0 0,2.67 0,5.33 0,7.99 -6.554,0 -13.109,0 -19.664,0 0,-9.89 0,-19.76 0,-29.64 z"
       inkscape:connector-curvature="0"
       style="opacity:1;fill:#10069f;fill-opacity:1;stroke-width:0.57955" />
    <path
       id="path2454"
       d="m 37.822,197.62 c 4.846,0 9.692,-0.16 14.539,0.16 3.137,0.17 6.801,0.87 8.526,3.83 2.152,3.44 0.624,8.22 -2.842,10.17 1.955,0.82 3.942,2.04 4.747,4.11 1.232,3.09 0.526,7.16 -2.283,9.18 -2.497,1.84 -5.717,2.27 -8.723,2.25 -4.666,0 -9.299,0 -13.948,0 0,-9.87 0,-19.74 0,-29.62 m 9.66,6.98 c 0,1.45 0,2.9 0,4.34 1.298,-0.16 2.76,0.18 3.943,-0.46 1.38,-0.75 1.182,-3.1 -0.313,-3.61 -1.182,-0.32 -2.431,-0.22 -3.63,-0.27 m 0,10.76 c 0,1.58 0,3.14 0,4.72 1.593,0 3.253,0.18 4.797,-0.31 1.873,-0.64 1.758,-3.75 -0.181,-4.21 -1.528,-0.34 -3.088,-0.18 -4.633,-0.2 z"
       inkscape:connector-curvature="0"
       style="opacity:1;fill:#10069f;fill-opacity:1;stroke-width:0.57955" />
    <path
       id="path2456"
       d="m 67.606,197.64 c 4.14,0 8.296,0 12.436,0 1.248,5.27 2.349,10.59 3.729,15.83 1.248,-5.29 2.448,-10.59 3.745,-15.88 4.124,0 8.247,0 12.371,0 0.573,9.89 1.153,19.76 1.713,29.65 -3.175,0 -6.346,0 -9.517,0 -0.213,-5.44 0,-10.89 -0.525,-16.3 -1.068,5.46 -2.432,10.85 -3.598,16.28 -2.809,0 -5.602,0 -8.395,0 -1.265,-5.43 -2.415,-10.9 -3.745,-16.34 -0.263,5.45 -0.247,10.91 -0.395,16.34 -3.17,0 -6.357,0 -9.528,0 0.575,-9.87 1.167,-19.73 1.709,-29.6 z"
       inkscape:connector-curvature="0"
       style="opacity:1;fill:#10069f;fill-opacity:1;stroke-width:0.57955" />
    <path
       id="path2506"
       d="m 14.757,244.32 c 0.394,0 1.166,0 1.544,0 0,1.78 0,3.55 0,5.31 0.756,0 1.511,0 2.267,0 0,0.33 0,0.97 0,1.3 -1.298,0 -2.579,0 -3.86,0 0,-2.22 0,-4.44 0,-6.65 z"
       inkscape:connector-curvature="0"
       style="opacity:1;fill:#10069f;fill-opacity:1;stroke-width:0.57955" />
    <path
       id="path2508"
       d="m 22.954,244.87 c 1.15,-0.79 2.711,-0.79 3.943,-0.18 1.101,0.21 0.411,2.1 -0.624,1.28 -0.953,-0.43 -2.366,-0.59 -2.826,0.57 -0.936,1.51 0.477,3.83 2.3,3.14 1.627,-0.34 0.214,-1.76 -0.805,-1.45 -0.164,-1.7 1.955,-0.82 3.007,-1.05 0,0.94 0,1.89 0,2.85 -1.348,0.96 -3.187,1.47 -4.732,0.65 -2.135,-1.07 -2.3,-4.52 -0.328,-5.81 z"
       inkscape:connector-curvature="0"
       style="opacity:1;fill:#10069f;fill-opacity:1;stroke-width:0.57955" />
    <path
       id="path2510"
       d="m 32.893,244.36 c 0.378,0 1.167,0 1.545,0 0,1.71 0.197,3.41 -0.165,5.11 -0.591,2.28 -4.616,2.3 -5.24,0 -0.263,-1.68 -0.164,-3.39 -0.164,-5.08 0.394,0 1.182,0 1.577,0 0.328,1.71 -0.822,4.32 0.903,5.39 0.312,0 0.937,-0.25 1.249,-0.35 0.378,-1.64 0.213,-3.35 0.23,-5.02 z"
       inkscape:connector-curvature="0"
       style="opacity:1;fill:#10069f;fill-opacity:1;stroke-width:0.57955" />
    <path
       id="path2512"
       d="m 35.62,244.32 c 1.463,0 2.925,0 4.387,0 0,0.32 -0.165,0.92 -0.165,1.22 -1.232,0 -2.973,-0.43 -2.743,1.4 0.871,0 1.741,0 2.628,0 0,0.33 0,0.97 0,1.28 -0.87,0 -1.724,0 -2.579,0 0,0.38 0,1.1 0,1.48 0.92,0 1.857,0 2.777,0 0,0.31 0,0.95 0,1.26 -1.479,0 -2.941,0 -4.403,0 0,-2.22 0,-4.43 0,-6.67 z"
       inkscape:connector-curvature="0"
       style="opacity:1;fill:#10069f;fill-opacity:1;stroke-width:0.57955" />
    <path
       id="path2514"
       d="m 42.504,244.29 c 1.429,0.18 3.17,-0.31 4.353,0.72 0.674,0.74 0.164,1.65 -0.181,2.42 0.658,0.71 1.315,1.76 0.641,2.69 -1.199,1.37 -3.236,0.69 -4.813,0.89 -0.165,-2.23 0,-4.48 0,-6.72 m 1.528,1.15 c 0,0.41 0,1.23 0,1.64 0.706,0 1.61,-0.16 1.692,-1.03 -0.46,-0.46 -1.134,-0.46 -1.709,-0.61 m 0,4.45 c 0.657,-0.16 1.347,-0.21 1.972,-0.52 0.262,-1.28 -1.068,-1.15 -1.906,-1.37 0,0.63 0,1.25 0,1.89 z"
       inkscape:connector-curvature="0"
       style="opacity:1;fill:#10069f;fill-opacity:1;stroke-width:0.57955" />
    <path
       id="path2516"
       d="m 50.192,244.32 c 0.657,0 1.331,0 1.988,0 0.378,1.37 0.805,2.73 1.429,4.03 0.427,-1.35 0.854,-2.69 1.265,-4.04 0.657,0 1.314,0 1.988,0 0.164,2.2 0.328,4.42 0.493,6.62 -0.395,0 -1.167,0 -1.561,0 -0.164,-1.35 -0.164,-2.71 -0.246,-4.06 -0.575,1.38 -1.019,2.81 -1.479,4.24 -2.086,-0.21 -1.741,-2.96 -2.596,-4.4 -0.164,1.41 -0.164,2.82 -0.213,4.24 -0.394,0 -1.166,0 -1.561,0 0.165,-2.22 0.329,-4.44 0.493,-6.66 z"
       inkscape:connector-curvature="0"
       style="opacity:1;fill:#10069f;fill-opacity:1;stroke-width:0.57955" />
    <path
       id="path2518"
       d="m 60.197,244.34 c 0.558,0 1.117,0 1.692,0 0.772,2.2 1.593,4.39 2.448,6.56 -0.592,0 -1.167,0 -1.758,0 -0.164,-0.35 -0.378,-1.04 -0.493,-1.38 -0.674,0 -1.314,0 -1.955,0.18 -0.641,0.72 -1.314,1.44 -2.398,1.34 0.755,-2.28 1.642,-4.51 2.464,-6.76 m 0.164,3.87 c 0.591,1.09 2.004,-0.16 1.314,-1.02 -0.525,-1.34 -1.889,0.17 -1.314,1.02 z"
       inkscape:connector-curvature="0"
       style="opacity:1;fill:#10069f;fill-opacity:1;stroke-width:0.57955" />
    <path
       id="path2520"
       d="m 65.963,244.49 c 1.101,-0.51 2.267,0 3.351,0.34 -0.164,0.32 -0.46,0.92 -0.608,1.24 -0.46,-0.17 -1.38,-0.41 -1.84,-0.56 -1.56,0.93 0.855,1.41 1.495,1.89 1.495,0.52 1.233,2.81 -0.164,3.38 -1.216,0.67 -2.546,0 -3.729,-0.29 0.181,-0.51 0.361,-1.01 0.559,-1.5 0.903,0.41 1.971,1.25 2.842,0.3 -0.625,-1.14 -2.218,-1.1 -2.974,-2.09 -0.542,-0.99 0,-2.33 1.002,-2.71 z"
       inkscape:connector-curvature="0"
       style="opacity:1;fill:#10069f;fill-opacity:1;stroke-width:0.57955" />
    <path
       id="path2522"
       d="m 71.466,244.7 c 1.282,-0.77 2.777,-0.33 4.107,0 -0.164,0.35 -0.312,1.02 -0.41,1.37 -0.953,-0.18 -2.07,-0.92 -2.957,-0.17 -1.101,0.74 -1.068,2.63 0,3.37 0.969,0.67 2.07,0 3.055,-0.25 0,0.38 0.214,1.1 0.296,1.47 -1.331,0.39 -2.842,0.85 -4.124,0.16 -2.217,-1.13 -2.234,-4.83 0,-5.96 z"
       inkscape:connector-curvature="0"
       style="opacity:1;fill:#10069f;fill-opacity:1;stroke-width:0.57955" />
    <path
       id="path2524"
       d="m 76.263,244.34 c 0.378,0 1.15,0 1.545,0 0,1.68 -0.165,3.39 0.23,5.04 0.673,0.48 1.33,0.45 1.954,0 0.345,-1.64 0.181,-3.33 0.23,-4.99 0.395,0 1.183,0 1.578,0 0,1.63 0.164,3.25 -0.165,4.86 -0.394,2.53 -4.879,2.57 -5.306,0 -0.23,-1.62 -0.164,-3.28 -0.164,-4.91 z"
       inkscape:connector-curvature="0"
       style="opacity:1;fill:#10069f;fill-opacity:1;stroke-width:0.57955" />
    <path
       id="path2526"
       d="m 87.336,244.34 c 0.394,0 1.183,0 1.577,0 0,2.24 0,4.45 0,6.7 -0.378,0 -1.15,0 -1.528,0 0,-2.2 0,-4.38 0,-6.58 z"
       inkscape:connector-curvature="0"
       style="opacity:1;fill:#10069f;fill-opacity:1;stroke-width:0.57955" />
    <path
       id="path2528"
       d="m 90.129,244.34 c 0.41,0 1.199,0 1.609,0 0.953,1.45 1.873,2.91 2.826,4.35 0,-1.42 0,-2.87 0,-4.28 0.394,0 1.183,0 1.577,0 0,2.18 0,4.37 0,6.55 -0.575,0 -1.15,0 -1.692,0 -0.838,-1.39 -1.692,-2.76 -2.727,-4.01 0,1.33 0,2.66 0,4.01 -0.378,0 -1.133,0 -1.511,0 0,-2.22 0,-4.43 0,-6.64 z"
       inkscape:connector-curvature="0"
       style="opacity:1;fill:#10069f;fill-opacity:1;stroke-width:0.57955" />
    <path
       id="path2530"
       d="m 97.291,244.34 c 1.413,0 2.829,0 4.239,0 0,0.31 0,0.95 0.16,1.27 -0.95,0 -1.853,0 -2.772,0 0,0.34 0,1 0,1.33 0.887,0 1.772,0 2.642,0 0.3,1.82 -1.624,1.16 -2.725,1.38 0,0.36 0.181,1.1 0.23,1.48 0.855,0 1.695,-0.17 2.495,-0.19 0.17,0.35 0.18,1.02 0.18,1.37 -1.46,0 -2.921,0 -4.383,0 0,-2.22 0,-4.42 0,-6.62 z"
       inkscape:connector-curvature="0"
       style="opacity:1;fill:#10069f;fill-opacity:1;stroke-width:0.57955" />
    <path
       id="path2540"
       d="m 19.16,244.36 c 0.394,0 1.182,0 1.577,0 0,2.18 0,4.38 0,6.59 -0.559,0 -1.101,0 -1.627,0 0,-2.19 0,-4.39 0,-6.58 z"
       inkscape:connector-curvature="0"
       style="opacity:1;fill:#10069f;fill-opacity:1;stroke-width:0.57955" />
    <path
       id="path2542"
       d="m 82.917,244.36 c 0.394,0 1.199,0 1.61,0 0,1.76 0,3.53 0,5.3 0.739,0 1.495,0 2.25,0 v 1.3 c -1.281,0 -2.563,0 -3.827,0 0,-2.22 0,-4.42 0,-6.62 z"
       inkscape:connector-curvature="0"
       style="opacity:1;fill:#10069f;fill-opacity:1;stroke-width:0.57955" />
    <path
       id="path2568"
       d="m 14.708,257.02 c 1.363,0 2.743,0 4.107,0 1.265,3.7 2.546,7.41 3.762,11.14 1.462,-3.65 2.562,-7.42 3.86,-11.14 1.364,0 2.744,0 4.107,0 -2.037,5.51 -4.025,11.04 -6.127,16.53 -1.216,0 -2.432,0 -3.647,0 -2.005,-5.49 -4.058,-10.97 -6.062,-16.46 z"
       inkscape:connector-curvature="0"
       style="opacity:1;fill:#10069f;fill-opacity:1;stroke-width:0.57955" />
    <path
       id="path2570"
       d="m 36.393,257.27 c 3.597,-1.2 8.131,-0.33 10.398,2.89 2.514,3.63 1.955,9.4 -1.79,11.99 -3.762,2.63 -9.726,2.11 -12.518,-1.7 -3.154,-4.31 -1.462,-11.6 3.91,-13.18 m 1.051,3.32 c -3.91,1.84 -3.286,8.85 1.15,9.59 3.335,0.91 6.39,-2.43 5.733,-5.7 0,-3.33 -4.008,-5.45 -6.883,-3.89 z"
       inkscape:connector-curvature="0"
       style="opacity:1;fill:#10069f;fill-opacity:1;stroke-width:0.57955" />
    <path
       id="path2572"
       d="m 51.046,257.02 c 1.282,0 2.547,0 3.828,0 0,4.41 0,8.83 0,13.24 1.906,0 3.811,0 5.717,0 -0.164,1.02 0.279,2.3 -0.263,3.18 -3.105,0.16 -6.21,0 -9.298,0 0,-5.48 0,-10.96 0,-16.43 z"
       inkscape:connector-curvature="0"
       style="opacity:1;fill:#10069f;fill-opacity:1;stroke-width:0.57955" />
    <path
       id="path2574"
       d="m 62.562,257.01 c 1.282,0 2.58,0 3.877,0 0,4.42 0,8.84 0,13.25 1.873,0 3.762,0 5.652,0 0,1.06 0,2.12 0,3.19 -3.187,0 -6.391,0 -9.578,0 0,-5.49 0,-10.97 0,-16.48 z"
       inkscape:connector-curvature="0"
       style="opacity:1;fill:#10069f;fill-opacity:1;stroke-width:0.57955" />
    <path
       id="path2576"
       d="m 74.095,257.04 c 3.565,0 7.113,0 10.662,0 0,1.04 0,2.07 0,3.1 -2.251,0 -4.502,0 -6.769,0 0,1.11 0,2.22 0,3.34 2.119,0 4.239,0 6.358,0 0,1 0,2.02 0.164,3.04 -2.152,0 -4.288,0 -6.44,0 0,1.23 0,2.5 0,3.74 2.317,0 4.65,0 6.966,0 0,1.04 0,2.09 0,3.13 -3.631,0.16 -7.278,0 -10.908,0 0,-5.49 0,-10.98 0,-16.46 z"
       inkscape:connector-curvature="0"
       style="opacity:1;fill:#10069f;fill-opacity:1;stroke-width:0.57955" />
    <path
       id="path2578"
       d="m 86.334,257.02 c 1.412,0 2.858,0 4.287,0 1.134,2.12 2.218,4.26 3.27,6.43 1.281,-2.04 2.283,-4.24 3.351,-6.39 1.462,0 2.908,0 4.398,0 -1.835,3.33 -3.955,6.49 -5.63,9.87 -0.23,2.2 0,4.44 -0.165,6.65 -1.281,0 -2.562,0 -3.827,0 0,-2.2 0.164,-4.42 -0.165,-6.6 -1.692,-3.39 -3.794,-6.56 -5.618,-9.87 z"
       inkscape:connector-curvature="0"
       style="opacity:1;fill:#10069f;fill-opacity:1;stroke-width:0.57955" />
  </g>
</svg>
