<?xml version="1.0" encoding="UTF-8"?><svg xmlns="http://www.w3.org/2000/svg" xmlns:xlink="http://www.w3.org/1999/xlink" viewBox="0 0 142.12 199.11"><defs><style>.r{fill:none;}.s{fill:#002f5c;}.t{fill:#001638;}.u{fill:#fff;}.v{fill:#009ee0;}.w{fill:#e2001a;}.x{clip-path:url(#k);}</style><clipPath id="k"><path id="l" class="r" d="M5.51,152.92c0,18.3,12.68,21.37,18.1,22.68,.31,.08,.6,.14,.85,.21,1.79,.46,5.33,.92,9.08,1.41,5.6,.73,11.94,1.56,16.11,2.8,6.09,1.81,13.31,4.68,20.6,12.27l.17,.18c.15,.16,.39,.41,.64,.66,.27-.26,.53-.53,.67-.69l.15-.15c7.29-7.58,14.51-10.46,20.6-12.27,4.16-1.24,10.51-2.07,16.11-2.8,3.75-.49,7.3-.95,9.08-1.41,.25-.06,.53-.13,.85-.21,5.41-1.31,18.1-4.38,18.1-22.68v-31.25c0-37.56,.01-94.32,0-96.12v-.35c0-2.69-.18-4.22-3.92-4.36-1.08-.04-2.27-.07-3.55-.11-13.78-.38-39.44-1.1-57.12-14.08-.38-.28-.69-.51-.95-.71-.26,.2-.58,.43-.95,.71-17.68,12.98-43.34,13.69-57.12,14.08-1.28,.04-2.47,.07-3.55,.11-3.74,.14-3.92,1.67-3.92,4.36v.35c-.02,1.8,0,58.56,0,96.12v31.25Z"/></clipPath></defs><g id="a"/><g id="b"><g id="c"><g id="d"><path id="e" class="t" d="M71.06,2.5c.56,0,.62,.18,2.73,1.73,18.51,13.59,46.32,13.14,59.01,13.61,7.14,.26,6.79,5.47,6.81,7.68,.02,2.47,0,105.61,0,127.39s-16.56,24.61-21.2,25.8c-4.69,1.2-18.3,2.17-25.08,4.18-6.07,1.8-12.58,4.49-19.29,11.47-.74,.77-2.1,2.25-2.98,2.25s-2.24-1.47-2.98-2.25c-6.71-6.98-13.22-9.67-19.29-11.47-6.78-2.01-20.39-2.98-25.08-4.18-4.64-1.19-21.2-4.01-21.2-25.8s-.02-124.92,0-127.39c.02-2.22-.33-7.42,6.81-7.68,12.69-.47,40.5-.01,59.01-13.61,2.11-1.55,2.17-1.73,2.73-1.73m0-2.5c-1.26,0-1.92,.5-3,1.32-.3,.23-.69,.52-1.21,.9C50.55,14.18,26.02,14.87,12.83,15.23c-1.3,.04-2.51,.07-3.6,.11-4.81,.18-7.03,2.36-8.04,4.16C.01,21.58,.01,23.84,0,25.2v.31c-.02,1.82,0,58.6,0,96.17v31.25c0,22.63,16.79,26.69,22.3,28.03,.29,.07,.55,.13,.78,.19,2.11,.54,5.64,1,9.73,1.54,5.39,.71,11.51,1.51,15.25,2.62,5.68,1.69,11.81,4.16,18.2,10.81l.16,.17c1.43,1.5,2.86,2.84,4.62,2.84s3.2-1.36,4.65-2.87l.14-.14c6.39-6.64,12.52-9.12,18.2-10.81,3.75-1.11,9.86-1.91,15.25-2.62,4.09-.54,7.62-1,9.73-1.54,.23-.06,.49-.12,.78-.19,5.52-1.34,22.3-5.4,22.3-28.03v-31.25c0-37.57,.01-94.34,0-96.17v-.31c0-1.35,0-3.61-1.18-5.7-1.01-1.8-3.23-3.98-8.04-4.16-1.09-.04-2.3-.07-3.6-.11-13.18-.37-37.72-1.05-54.02-13.01-.51-.38-.9-.67-1.21-.9-1.09-.82-1.74-1.32-3-1.32h0Z"/><path id="f" class="u" d="M71.06,5.94c.26,.2,.58,.43,.95,.71,17.68,12.98,43.34,13.69,57.12,14.08,1.28,.04,2.47,.07,3.55,.11,3.74,.14,3.92,1.67,3.92,4.36v.35c.02,1.8,0,58.56,0,96.12v31.25c0,18.3-12.68,21.37-18.1,22.68-.31,.08-.6,.14-.85,.21-1.79,.46-5.33,.92-9.08,1.41-5.6,.73-11.94,1.56-16.11,2.8-6.09,1.81-13.31,4.68-20.6,12.27l-.15,.15c-.14,.15-.4,.42-.67,.69-.25-.25-.49-.5-.64-.66l-.17-.18c-7.29-7.58-14.51-10.46-20.6-12.27-4.17-1.24-10.51-2.07-16.11-2.8-3.75-.49-7.3-.95-9.08-1.41-.25-.06-.53-.13-.85-.21-5.41-1.31-18.1-4.38-18.1-22.68v-31.25c0-37.56-.01-94.32,0-96.12v-.35c0-2.69,.18-4.22,3.92-4.36,1.08-.04,2.27-.07,3.55-.11,13.78-.38,39.44-1.1,57.12-14.08,.38-.28,.69-.51,.95-.71m0-3.44c-.56,0-.62,.18-2.73,1.73-18.51,13.59-46.32,13.14-59.01,13.61-7.14,.26-6.79,5.47-6.81,7.68-.02,2.47,0,105.61,0,127.39s16.56,24.61,21.2,25.8c4.69,1.2,18.3,2.17,25.08,4.18,6.07,1.8,12.58,4.49,19.29,11.47,.74,.77,2.08,2.25,2.98,2.25s2.24-1.47,2.98-2.25c6.71-6.98,13.22-9.67,19.29-11.47,6.78-2.01,20.39-2.98,25.08-4.18,4.64-1.19,21.2-4.01,21.2-25.8s.02-124.92,0-127.39c-.02-2.22,.33-7.42-6.81-7.68-12.69-.47-40.5-.01-59.01-13.61-2.11-1.55-2.17-1.73-2.73-1.73h0Z"/><path id="g" class="w" d="M5.5,96.11c0,8.91,0,17.66,0,25.56v31.25c0,18.3,12.68,21.37,18.1,22.68,.31,.08,.6,.14,.85,.21,1.79,.46,5.33,.92,9.08,1.41,5.6,.73,11.94,1.56,16.11,2.8,6.09,1.81,13.31,4.68,20.6,12.27l.17,.18c.15,.16,.39,.41,.64,.66,.27-.26,.53-.53,.67-.69l.15-.15c7.29-7.58,14.51-10.46,20.6-12.27,4.16-1.24,10.51-2.07,16.11-2.8,3.75-.49,7.3-.95,9.08-1.41,.25-.06,.53-.13,.85-.21,5.41-1.31,18.1-4.38,18.1-22.68v-31.25c0-16,0-35.48,0-52.72L5.5,96.11Z"/><path id="h" class="s" d="M5.5,96.11l131.12-27.16c0-23.23,0-42.37,0-43.41v-.35c0-2.69-.18-4.22-3.92-4.36-1.08-.04-2.27-.07-3.55-.11-13.78-.38-39.44-1.1-57.12-14.08-.38-.28-.69-.51-.95-.71-.26,.2-.58,.43-.95,.71-17.68,12.98-43.34,13.69-57.12,14.08-1.28,.04-2.47,.07-3.55,.11-3.74,.14-3.92,1.67-3.92,4.36v.35c-.01,1.48-.01,39.91,0,74.41,0-1.28,0-2.56,0-3.85Z"/><path id="i" class="u" d="M74.42,132.64l.49-.84c.11-.19,.34-.19,.46-.1,.07,.04,1.17,.84,2.05,.84,.71,0,1.24-.46,1.24-1.04,0-.69-.58-1.17-1.73-1.63-1.28-.52-2.56-1.33-2.56-2.93,0-1.21,.9-2.6,3.06-2.6,1.39,0,2.45,.71,2.72,.91,.14,.08,.18,.31,.08,.45l-.52,.77c-.11,.16-.31,.27-.48,.16-.11-.07-1.14-.75-1.89-.75s-1.2,.52-1.2,.95c0,.64,.5,1.07,1.6,1.52,1.32,.53,2.84,1.32,2.84,3.07,0,1.4-1.21,2.69-3.13,2.69-1.71,0-2.72-.8-2.99-1.06-.12-.12-.19-.19-.07-.41Zm9.29-7.91c0-.14,.11-.26,.26-.26h5.53c.15,0,.26,.12,.26,.26v1.11c0,.14-.11,.26-.26,.26h-4.02v2.23h3.36c.14,0,.26,.12,.26,.26v1.13c0,.15-.12,.26-.26,.26h-3.36v2.37h4.02c.15,0,.26,.12,.26,.26v1.11c0,.14-.11,.26-.26,.26h-5.53c-.15,0-.26-.12-.26-.26v-8.98Zm9.36,0c0-.14,.11-.26,.26-.26h1.25c.14,0,.26,.12,.26,.26v7.61h3.47c.15,0,.26,.12,.26,.26v1.11c0,.14-.11,.26-.26,.26h-4.98c-.15,0-.26-.12-.26-.26v-8.98Zm8.23,0c0-.14,.11-.26,.26-.26h3.11c1.62,0,2.87,1.09,2.87,2.51,0,1.04-.86,1.86-1.5,2.16,.72,.23,1.77,.96,1.77,2.21,0,1.52-1.31,2.62-2.96,2.62h-3.29c-.15,0-.26-.12-.26-.26v-8.98Zm3.21,3.73c.69,0,1.17-.54,1.17-1.22s-.48-1.15-1.17-1.15h-1.46v2.37h1.46Zm.19,3.91c.68,0,1.22-.53,1.22-1.23s-.68-1.18-1.39-1.18h-1.48v2.41h1.65Zm6.35-7.64c0-.14,.11-.26,.26-.26h5.53c.15,0,.26,.12,.26,.26v1.11c0,.14-.11,.26-.26,.26h-4.02v2.23h3.36c.14,0,.26,.12,.26,.26v1.13c0,.15-.12,.26-.26,.26h-3.36v2.37h4.02c.15,0,.26,.12,.26,.26v1.11c0,.14-.11,.26-.26,.26h-5.53c-.15,0-.26-.12-.26-.26v-8.98Zm9.36,0c0-.14,.11-.26,.26-.26h3.89c1.63,0,2.96,1.3,2.96,2.92,0,1.25-.83,2.27-2.01,2.74l1.86,3.45c.1,.18,0,.39-.23,.39h-1.43c-.12,0-.19-.07-.22-.12l-1.81-3.59h-1.51v3.46c0,.14-.12,.26-.26,.26h-1.25c-.15,0-.26-.12-.26-.26v-8.98Zm4,4.07c.72,0,1.35-.62,1.35-1.38,0-.72-.63-1.32-1.35-1.32h-2.22v2.7h2.22Zm-111.36,10.89c-.14-.49,.14-.84,.63-.84h4.11c.28,0,.56,.25,.63,.49l3.02,11.9h.14l5.45-12.35c.11-.21,.32-.39,.6-.39h.63c.32,0,.53,.18,.6,.39l5.45,12.35h.14l3.02-11.9c.07-.25,.35-.49,.63-.49h4.11c.49,0,.77,.35,.63,.84l-6.65,23.58c-.07,.28-.35,.49-.63,.49h-.56c-.25,0-.49-.18-.6-.39l-6.44-14.35h-.11l-6.4,14.35c-.11,.21-.35,.39-.6,.39h-.56c-.28,0-.56-.21-.63-.49l-6.65-23.58Zm44.35-1.19c7.03,0,12.66,5.65,12.66,12.67s-5.63,12.6-12.66,12.6-12.63-5.58-12.63-12.6,5.59-12.67,12.63-12.67Zm-7.14-4.53c0-1.37,1.09-2.46,2.46-2.46s2.5,1.09,2.5,2.46-1.13,2.49-2.5,2.49-2.46-1.12-2.46-2.49Zm7.14,24.18c3.87,0,7.03-3.16,7.03-6.98s-3.17-7.05-7.03-7.05-7,3.19-7,7.05,3.17,6.98,7,6.98Zm2.18-24.18c0-1.37,1.09-2.46,2.46-2.46s2.5,1.09,2.5,2.46-1.13,2.49-2.5,2.49-2.46-1.12-2.46-2.49Zm14.74,5.54c0-.35,.28-.67,.67-.67h4.19c.35,0,.67,.32,.67,.67v18.74h8.37c.39,0,.67,.32,.67,.67v3.82c0,.35-.28,.67-.67,.67h-13.22c-.39,0-.67-.32-.67-.67v-23.23Zm17.97,0c0-.35,.28-.67,.67-.67h14.56c.39,0,.67,.32,.67,.67v3.82c0,.35-.28,.67-.67,.67h-9.74v5.05h8.02c.35,0,.67,.32,.67,.67v3.82c0,.35-.32,.67-.67,.67h-8.02v8.53c0,.35-.32,.67-.67,.67h-4.15c-.39,0-.67-.32-.67-.67v-23.23Zm19.8,0c0-.35,.28-.67,.67-.67h14.56c.39,0,.67,.32,.67,.67v3.82c0,.35-.28,.67-.67,.67h-9.74v4.35h8.02c.35,0,.67,.32,.67,.67v3.82c0,.39-.32,.67-.67,.67h-8.02v4.74h9.74c.39,0,.67,.32,.67,.67v3.82c0,.35-.28,.67-.67,.67h-14.56c-.39,0-.67-.32-.67-.67v-23.23Z"/><g id="j"><g class="x"><g><path id="m" class="u" d="M105.81,57.95l-10.74-11.91-16.59-7.46-2.24-19.48-6.25,9.59-3.51-12.65-26.62,28.38L13.95,60.61l11.62,8.56L3.36,97.76l28.25-3.31-19.52,35.41,30.69-12.93-.16,16.12,36.25-38.81,40.35-1.56,19.55-24.43-32.95-10.29Z"/><polygon id="n" class="v" points="71.9 81.25 18.09 125.27 44.59 114.11 44.53 127.81 77.97 92.37 118.29 90.81 135.12 70.13 115.5 79.7 71.9 81.25"/><polygon id="o" class="u" points="115.09 78.41 134.94 68.7 105.39 59.47 92.4 64.52 74.4 59.08 53.92 59.11 8.25 95.45 34.8 92.34 17.18 124.31 71.39 79.96 115.09 78.41"/><polygon id="p" class="t" points="74.6 57.81 74.51 57.78 80.09 57.04 90.24 56.03 92.77 62.97 104.25 58.51 94.01 47.16 76.87 39.45 75.07 23.78 69.36 32.56 65.64 19.18 41 45.45 16.95 60.48 27.93 68.57 8.03 93.91 53.41 57.81 74.6 57.81"/><polygon id="q" class="w" points="89.52 57.53 89.41 57.54 89.4 57.53 77.9 58.66 82.57 60.18 91.33 62.83 89.86 58.79 89.52 57.53"/></g></g></g></g></g></g></svg>