<?xml version="1.0" encoding="UTF-8" standalone="no"?>
<svg
   viewBox="0 0 840.03147 974.94323"
   version="1.1"
   id="svg2135"
   width="840.03149"
   height="974.94318"
   xmlns="http://www.w3.org/2000/svg"
   xmlns:svg="http://www.w3.org/2000/svg">
  <defs
     id="defs2015">
    <style
       id="style2013">.cls-1{fill:none;stroke:#1f242e;stroke-miterlimit:10;}.cls-2{fill:#1f242e;}.cls-3{fill:#e6303e;}.cls-4{fill:#f6c92b;}.cls-5{fill:#fff;}</style>
  </defs>
  <g
     id="Logo"
     transform="translate(389.97275,459.64321)">
    <circle
       class="cls-2"
       cx="-123.13123"
       cy="459.5799"
       r="55.580002"
       id="circle2020"
       style="stroke-width:14" />
    <circle
       class="cls-3"
       cx="25.268742"
       cy="459.71994"
       r="55.580002"
       id="circle2022"
       style="stroke-width:14" />
    <circle
       class="cls-4"
       cx="173.80875"
       cy="459.71994"
       r="55.580002"
       id="circle2024"
       style="stroke-width:14" />
    <path
       class="cls-2"
       d="M 29.720955,267.73539 A 308,308 0 1 1 337.72096,-40.264605 308,308 0 0 1 29.720955,267.73539 Z m 0,-595 A 286.86,286.86 0 1 0 317.00096,-40.404605 287.14,287.14 0 0 0 29.720955,-327.26461 Z"
       id="path2026"
       style="stroke-width:14" />
    <path
       class="cls-2"
       d="m -325.87904,87.835395 39.48,-16.24 4.76,11.34 a 23.52,23.52 0 0 1 0.7,17.639995 19.74,19.74 0 0 1 -11.9,11.76 21.84,21.84 0 0 1 -9.1,1.54 24.22,24.22 0 0 1 -10.36,-3.08 22.12,22.12 0 0 1 -8.96,-11.619995 z m 9.8,5.04 0.84,2.1 a 16.94,16.94 0 0 0 7.98,9.379995 13.02,13.02 0 0 0 11.2,0 12.18,12.18 0 0 0 7.56,-6.719995 17.64,17.64 0 0 0 1.26,-7 18.9,18.9 0 0 0 -1.82,-6.44 l -0.84,-2.1 z"
       id="path2028"
       style="stroke-width:14" />
    <path
       class="cls-2"
       d="m -264.27904,135.57539 -7.42,-14 -8.26,4.48 7.14,13.02 -6.3,3.5 -7.14,-13.02 -10.22,5.6 7.42,14 -6.3,3.5 -10.92,-20.72 37.24,-20.44 11.34,20.72 z"
       id="path2030"
       style="stroke-width:14" />
    <path
       class="cls-2"
       d="m -248.45904,146.21539 -20.02,14 a 29.96,29.96 0 0 0 -3.78,2.94 10.78,10.78 0 0 0 -1.82,2.8 6.16,6.16 0 0 0 0,3.92 9.52,9.52 0 0 0 1.54,4.34 10.08,10.08 0 0 0 3.5,2.94 6.44,6.44 0 0 0 3.92,0.84 10.78,10.78 0 0 0 3.22,-0.84 19.88,19.88 0 0 0 4.06,-2.52 l 20.02,-14 4.76,6.72 -21.28,15.12 a 18.2,18.2 0 0 1 -10.36,4.2 17.08,17.08 0 0 1 -7.98,-2.24 19.6,19.6 0 0 1 -6.02,-5.74 20.3,20.3 0 0 1 -3.36,-7.56 14.84,14.84 0 0 1 0,-8.12 17.22,17.22 0 0 1 7.28,-8.54 l 21.42,-14.98 z"
       id="path2032"
       style="stroke-width:14" />
    <path
       class="cls-2"
       d="m -250.27904,213.69539 -5.46,-6.3 26.6,-23.52 -6.3,-7.14 5.32,-4.9 18.34,20.58 -5.46,4.9 -6.44,-7.28 z"
       id="path2034"
       style="stroke-width:14" />
    <path
       class="cls-2"
       d="m -191.33904,216.91539 -7.14,1.26 a 8.54,8.54 0 0 0 -2.52,-7.14 6.72,6.72 0 0 0 -4.06,-2.1 4.06,4.06 0 0 0 -3.64,1.26 3.64,3.64 0 0 0 -0.98,3.08 27.16,27.16 0 0 0 2.8,6.86 19.88,19.88 0 0 1 2.66,8.96 11.9,11.9 0 0 1 -4.06,8.4 14,14 0 0 1 -9.8,4.62 15.4,15.4 0 0 1 -10.5,-4.48 16.1,16.1 0 0 1 -4.9,-7.14 18.76,18.76 0 0 1 0,-8.96 h 7.42 a 9.8,9.8 0 0 0 2.8,10.36 6.72,6.72 0 0 0 4.62,1.82 5.32,5.32 0 0 0 4.2,-1.82 c 1.26,-1.4 1.82,-2.66 1.4,-3.92 a 19.18,19.18 0 0 0 -0.98,-3.36 c 0,-0.84 -1.26,-2.66 -2.66,-5.18 a 14,14 0 0 1 -1.82,-7.28 9.8,9.8 0 0 1 3.08,-6.72 11.62,11.62 0 0 1 8.68,-3.78 13.16,13.16 0 0 1 9.38,3.92 18.76,18.76 0 0 1 6.02,11.34 z"
       id="path2036"
       style="stroke-width:14" />
    <path
       class="cls-2"
       d="m -157.73904,239.73539 -5.88,7.84 a 19.46,19.46 0 0 0 -1.82,-5.88 11.62,11.62 0 0 0 -3.64,-4.2 13.02,13.02 0 0 0 -10.5,-2.52 14,14 0 0 0 -9.52,6.02 14.84,14.84 0 0 0 -3.22,10.92 14,14 0 0 0 5.88,9.52 12.46,12.46 0 0 0 4.76,2.24 21.56,21.56 0 0 0 6.02,0 l -5.88,7.84 a 22.96,22.96 0 0 1 -9.8,-4.2 22.12,22.12 0 0 1 -9.1,-14.84 22.54,22.54 0 0 1 35.98,-21 23.24,23.24 0 0 1 6.72,8.26 z"
       id="path2038"
       style="stroke-width:14" />
    <path
       class="cls-2"
       d="m -150.87904,261.43539 15.68,8.82 8.12,-14 7.28,4.06 -21.14,37.24 -7.28,-4.06 9.94,-16.94 -15.68,-8.82 -9.38,16.52 -7.28,-4.2 21.14,-37.1 7.28,4.06 z"
       id="path2040"
       style="stroke-width:14" />
    <path
       class="cls-2"
       d="m -91.519045,279.49539 -13.999995,-5.88 -3.64,8.68 13.999995,5.74 -2.8,6.72 -13.999995,-5.74 -4.62,10.64 14,6.02 -2.8,6.58 -21.84,-9.24 16.94,-38.78 21.839995,9.24 z"
       id="path2042"
       style="stroke-width:14" />
    <path
       class="cls-2"
       d="m -70.799045,305.25539 7.7,21.14 -9.8,-2.94 -6.16,-19.74 h -0.98 l -5.04,16.52 -7.98,-2.52 12.46,-40.88 12.32,2.66 a 16.8,16.8 0 0 1 9.66,6.3 11.76,11.76 0 0 1 1.12,10.22 12.46,12.46 0 0 1 -4.76,6.86 11.9,11.9 0 0 1 -8.54,2.38 z m -7.56,-7.56 h 2.38 c 5.18,1.54 8.4,0 9.66,-3.92 1.26,-3.92 0,-6.86 -5.74,-8.4 h -2.52 z"
       id="path2044"
       style="stroke-width:14" />
    <path
       class="cls-2"
       d="m -21.519045,307.49539 17.92,2.24 1.96,-16.24 8.26,0.98 -5.18,42 -8.26,-0.98 2.24,-18.9 -17.92,-2.24 -2.24,19.04 -8.26,-1.12 5.18,-42 8.26,0.98 z"
       id="path2046"
       style="stroke-width:14" />
    <path
       class="cls-2"
       d="m 42.460955,328.49539 h -17.5 l -3.78,9.1 h -8.96 l 18.2,-44.1 h 6.3 l 18.34,43.54 h -8.96 z m -2.66,-7 -6.16,-15.26 -6.16,15.26 z"
       id="path2048"
       style="stroke-width:14" />
    <path
       class="cls-2"
       d="m 65.980955,336.47539 -6.3,-42.98 5.6,-0.84 30.1,25.62 -4.2,-28 8.26,-1.26 6.440005,43.12 -5.74,0.84 -30.100005,-25.62 4.34,28 z"
       id="path2050"
       style="stroke-width:14" />
    <path
       class="cls-2"
       d="m 121.14096,326.95539 -12.04,-41.02 11.62,-3.5 a 23.66,23.66 0 0 1 17.64,1.12 19.88,19.88 0 0 1 10.5,13.02 20.44,20.44 0 0 1 0,9.24 26.18,26.18 0 0 1 -4.2,9.94 22.68,22.68 0 0 1 -12.46,7.84 z m 6.02,-9.24 h 2.1 a 17.08,17.08 0 0 0 10.22,-6.86 12.88,12.88 0 0 0 1.12,-11.2 12.46,12.46 0 0 0 -5.88,-8.26 16.66,16.66 0 0 0 -6.86,-1.96 25.76,25.76 0 0 0 -6.58,1.12 l -2.24,0.7 z"
       id="path2052"
       style="stroke-width:14" />
    <path
       class="cls-2"
       d="m 167.20096,312.25539 -16.94,-39.34 9.66,-4.2 a 17.36,17.36 0 0 1 9.8,-1.96 11.62,11.62 0 0 1 4.9,2.52 11.34,11.34 0 0 1 2.94,4.2 10.92,10.92 0 0 1 1.12,5.18 9.94,9.94 0 0 1 -1.96,4.62 9.94,9.94 0 0 1 12.18,6.44 10.64,10.64 0 0 1 0,9.66 16.1,16.1 0 0 1 -8.4,7.14 z m -2.24,-26.18 2.24,-0.98 c 3.92,-1.68 5.18,-4.2 3.64,-7.7 -1.54,-3.5 -4.06,-4.2 -7.98,-2.52 l -2.24,0.98 z m 7.28,16.66 3.22,-1.4 c 5.04,-2.24 6.86,-5.04 5.32,-8.54 a 5.6,5.6 0 0 0 -3.64,-3.5 12.18,12.18 0 0 0 -6.72,1.4 l -2.94,1.12 z"
       id="path2054"
       style="stroke-width:14" />
    <path
       class="cls-2"
       d="m 222.92096,274.45539 -15.12,8.82 1.12,9.66 -7.7,4.48 -5.88,-47.18 5.46,-3.08 37.52,28 -7.7,4.48 z m -5.74,-4.62 -12.88,-10.22 2.38,16.38 z"
       id="path2056"
       style="stroke-width:14" />
    <path
       class="cls-2"
       d="m 227.82096,230.35539 21,28.7 10.64,-7.84 4.2,5.88 -17.36,12.74 -25.2,-34.58 z"
       id="path2058"
       style="stroke-width:14" />
    <path
       class="cls-2"
       d="m 249.80096,212.85539 23.24,26.88 9.94,-8.68 4.76,5.46 -16.24,14 -28,-32.34 z"
       id="path2060"
       style="stroke-width:14" />
    <path
       class="cls-2"
       d="m 295.72096,229.23539 -31.08,-29.4 7.28,-7.7 a 16.94,16.94 0 0 1 8.12,-5.74 12.18,12.18 0 0 1 5.6,0 15.82,15.82 0 0 1 4.34,2.66 10.78,10.78 0 0 1 2.94,4.34 8.68,8.68 0 0 1 0,5.04 9.94,9.94 0 0 1 14,1.12 11.06,11.06 0 0 1 2.8,9.94 15.54,15.54 0 0 1 -4.9,9.8 z m -12.46,-23.24 1.68,-1.68 c 2.94,-3.08 3.08,-6.02 0,-8.54 -3.08,-2.52 -5.46,-2.24 -8.4,0.84 l -1.68,1.82 z m 14,12.6 2.38,-2.66 c 3.78,-4.06 4.34,-7.28 1.54,-9.94 a 4.76,4.76 0 0 0 -4.76,-1.68 10.92,10.92 0 0 0 -5.6,3.78 l -2.24,2.38 z"
       id="path2062"
       style="stroke-width:14" />
    <path
       class="cls-2"
       d="m 294.46096,166.09539 19.74,14 3.92,2.66 a 9.8,9.8 0 0 0 3.22,0.84 7.14,7.14 0 0 0 3.92,-0.84 8.4,8.4 0 0 0 3.5,-2.8 9.38,9.38 0 0 0 1.82,-4.2 8.96,8.96 0 0 0 0,-3.92 8.82,8.82 0 0 0 -1.82,-2.8 18.9,18.9 0 0 0 -3.64,-3.08 l -19.74,-14.7 4.34,-6.16 21,15.68 a 17.64,17.64 0 0 1 7.14,8.54 16.66,16.66 0 0 1 0,8.26 21.14,21.14 0 0 1 -9.66,13.02 16.94,16.94 0 0 1 -7.98,2.1 18.2,18.2 0 0 1 -10.36,-4.34 l -21,-15.54 z"
       id="path2064"
       style="stroke-width:14" />
    <path
       class="cls-2"
       d="m 352.98096,157.27539 -38.5,-20.86 2.8,-5.04 38.64,-8.68 -25.34,-14 3.92,-7.42 38.5,20.86 -2.8,5.04 -38.64,8.68 25.48,14 z"
       id="path2066"
       style="stroke-width:14" />
    <path
       class="cls-2"
       d="m 378.60096,107.43539 -40.18,-14.979995 4.34,-11.48 a 23.8,23.8 0 0 1 11.34,-14 20.58,20.58 0 0 1 16.8,0 22.96,22.96 0 0 1 7.7,5.04 26.32,26.32 0 0 1 5.46,9.38 21.42,21.42 0 0 1 -1.26,14.7 z m -3.92,-9.939995 0.84,-2.1 a 17.22,17.22 0 0 0 0,-12.32 14,14 0 0 0 -8.26,-7.56 12.04,12.04 0 0 0 -10.08,0 18.06,18.06 0 0 0 -5.74,4.34 25.34,25.34 0 0 0 -3.08,5.88 l -0.84,2.1 z"
       id="path2068"
       style="stroke-width:14" />
    <path
       class="cls-2"
       d="M 29.720955,380.29539 C -170.59414,380.13787 -342.92255,238.53358 -381.90333,42.074239 c -38.9803,-196.456839 66.2399,-393.064669 251.30767,-469.704499 185.067747,-76.63982 398.48183,-11.98407 509.8073,154.51336 111.32688,166.49953 89.56529,388.47992 -51.99068,530.21229 -78.72018,79.17003 -185.85483,123.53637 -297.500005,123.2 z m 0,-832.58 c -196.576995,-0.0688 -365.827555,138.74636 -404.215555,331.51265 -38.38753,192.763849 64.78309,385.76405 246.37761,461.02101 181.594517,75.25696 391.04162,11.81275 500.26061,-151.59688 109.22037,-163.411741 87.77725,-381.25481 -51.22266,-520.25678 -77.06677,-77.48392 -181.91607,-120.93589 -291.200005,-120.68 z"
       id="path2070"
       style="stroke-width:14" />
    <path
       class="cls-2"
       d="m 0.46095503,-214.56461 -12.04000003,-3.08 v -1.68 c 12.74,-1.4 28.84,-3.5 29.12,-3.64 h 3.08 l -8.26,6.44 z m -7.14000003,-3.64 7.28000003,1.82 11.05999997,-1.96 3.08,-2.52 c -4.48,0.7 -13.02,1.68 -21.42,2.66 z"
       id="path2072"
       style="stroke-width:14" />
    <path
       class="cls-2"
       d="m -125.81904,-174.80461 -36.68,-17.92 1.82,311.36 a 62.02,62.02 0 0 0 31.36,-33.879995 c 2.52,-19.88 3.5,-259.560005 3.5,-259.560005 z"
       id="path2074"
       style="stroke-width:14" />
    <path
       class="cls-2"
       d="m -123.29904,-154.50461 34.579995,22.68 c 0,0 -1.96,162.540005 -2.24,174.160005 a 47.32,47.32 0 0 1 -25.479995,33.74 z"
       id="path2076"
       style="stroke-width:14" />
    <path
       class="cls-2"
       d="m -85.359045,-132.66461 30.38,11.06 c 0,0 -1.12,115.0800047 -1.4,126.0000047 a 38.08,38.08 0 0 1 -22.96,32.3400003 z"
       id="path2078"
       style="stroke-width:14" />
    <path
       class="cls-2"
       d="m -49.799045,-125.66461 28,1.96 c 0,0 0,80.080005 -0.98,89.320005 a 57.26,57.26 0 0 1 -25.06,33.87999968 z"
       id="path2080"
       style="stroke-width:14" />
    <path
       class="cls-2"
       d="m 181.06096,-174.80461 36.54,-17.92 -1.68,311.36 a 62.72,62.72 0 0 1 -31.5,-33.879995 c -2.38,-19.88 -3.36,-259.560005 -3.36,-259.560005 z"
       id="path2082"
       style="stroke-width:14" />
    <path
       class="cls-2"
       d="m 178.40096,-154.50461 -34.44,22.68 c 0,0 1.82,162.540005 2.24,174.160005 a 47.32,47.32 0 0 0 25.48,33.74 z"
       id="path2084"
       style="stroke-width:14" />
    <path
       class="cls-2"
       d="m 140.46096,-132.66461 -30.24,11.06 c 0,0 0.98,115.0800047 1.26,126.0000047 a 38.22,38.22 0 0 0 23.1,32.3400003 z"
       id="path2086"
       style="stroke-width:14" />
    <path
       class="cls-2"
       d="m 102.94096,-125.10461 -28.000005,2.38 c 0,0 1.26,80.080005 2.24,89.460005 a 59.08,59.08 0 0 0 25.760005,32.75999968 z"
       id="path2088"
       style="stroke-width:14" />
    <path
       class="cls-2"
       d="m 64.020955,-211.62461 c 0,-5.32 -1.54,-10.78 -2.38,-16.24 l -2.38,-15.26 a 43.12,43.12 0 0 1 0,-12.46 v -4.06 l -3.64,1.96 a 28,28 0 0 1 -14,4.48 c -6.16,0.84 -12.74,1.26 -19.04,1.54 -6.3,0.28 -13.02,0 -19.32,1.54 -6.3,1.54 -11.76,2.1 -17.22,3.36 -5.46,1.26 -12.46,2.94 -21.98,4.48 h -0.98 a 8.26,8.26 0 0 0 -5.32,1.54 3.22,3.22 0 0 0 0,2.24 c 0,5.04 0.98,10.08 1.68,14.98 v 5.04 l 3.08,-3.92 1.26,-1.4 c 1.12,-1.54 1.12,-1.54 2.94,-1.26 a 49.14,49.14 0 0 0 11.9,0 46.76,46.76 0 0 1 7.14,0 65.94,65.94 0 0 1 21.56,4.34 l 5.46,1.82 c -4.34,1.82 -9.1,4.2 -14,6.58 a 103.88,103.88 0 0 1 -19.88,8.82 l -6.58,1.68 6.3,2.38 a 42.7,42.7 0 0 0 17.5,2.52 42,42 0 0 1 14,1.26 359.1,359.1 0 0 0 -25.62,72.8 c 0,4.48 4.2,50.260005 6.72,77.700005 0.84,10.08 1.68,18.06 1.68,18.76 v 2.1 h 64.82 v -1.82 c 2.38,-14.98 6.58,-45.64 9.66,-68.18 1.68,-12.740005 3.08,-22.960005 3.64,-25.760005 0.56,-2.8 -4.48,-75.04 -7,-91.56 z m -75.18,8.54 20.44,-9.8 0.84,4.62 a 16.1,16.1 0 0 1 -21.28,5.18 z m 16.52,-27.16 c 0,2.24 -18.9,-1.68 -21.7,-1.68 a 91.28,91.28 0 0 1 -15.68,1.54 c -2.1,-1.12 -3.36,-5.6 0,-6.02 l 31.36000003,-4.2 c 1.26,0.84 6.99999997,6.16 6.01999997,10.36 z m 1.12,-10.64 a 256.76,256.76 0 0 1 29.4,-1.26 c -15.82,21.28 -15.12,4.9 -29.4,1.26 z"
       id="path2090"
       style="stroke-width:14" />
    <path
       class="cls-2"
       d="m -82.279045,-243.26461 c 0,4.2 -5.04,7.42 -11.34,7.42 -6.3,0 -11.479995,-3.22 -11.479995,-7.42 0,-4.2 5.179995,-7.28 11.479995,-7.28 6.3,0 11.34,3.22 11.34,7.28 z"
       id="path2094"
       style="stroke-width:14" />
    <path
       class="cls-2"
       d="m -93.899045,-250.54461 h -42.839995 c 0,0 3.36,7.84 6.58,8.4 3.22,0.56 25.76,0 25.76,0 z"
       id="path2096"
       style="stroke-width:14" />
    <path
       class="cls-2"
       d="m 137.38096,-243.26461 c 0,4.2 5.18,7.42 11.48,7.42 6.3,0 11.34,-3.22 11.34,-7.42 0,-4.2 -5.04,-7.28 -11.34,-7.28 -6.3,0 -11.48,3.22 -11.48,7.28 z"
       id="path2098"
       style="stroke-width:14" />
    <path
       class="cls-2"
       d="m 147.60096,-250.54461 h 42.84 c 0,0 -3.36,7.84 -6.58,8.4 -3.22,0.56 -25.76,0 -25.76,0 z"
       id="path2100"
       style="stroke-width:14" />
    <path
       class="cls-2"
       d="m -114.89904,-206.02461 c -4.2,-19.88 5.6,-31.78 26.879995,-31.36 l -2.1,-7.84 c 0,0 -72.388695,0.34173 -72.365395,53.02993 0.001,2.81921 1.50321,5.7518 2.3654,8.85007 17.64,66.36 76.719995,101.360005 153.999995,101.220005 l 21.98,-77.000005 c 0,0 -120.539995,2.1 -130.759995,-46.9 z m 107.659995,70 c -47.6,1.26 -109.759995,-28 -117.459995,-60.9 -8.4,-35.42 12.74,-42.98 27.999995,-44.94 1.386811,-0.27177 2.813189,-0.27177 4.2,0 -20.931625,1.94485 -33.404025,24.27914 -24.079995,43.12 8.82,26.88 46.619995,38.08 111.999995,44.66 z"
       id="path2102"
       style="stroke-width:14" />
    <path
       class="cls-2"
       d="m 145.22096,-245.22461 -1.96,7.84 c 21.14,0 30.94,11.48 26.88,31.36 -10.22,49 -129.640005,46.9 -129.640005,46.9 l 21.98,77.000005 c 76.720005,0 135.940005,-34.860005 154.000005,-101.220005 0.55924,-3.18909 1.01211,-6.26549 1.12306,-9.13456 2.10183,-54.35133 -72.38306,-52.74544 -72.38306,-52.74544 z m 34.72,47.6 c -7.84,32.9 -62.72,61.88 -112.000005,61.04 l 0.98,-19.18 c 60.900005,-6.72 94.080005,-18.48 102.620005,-43.68 9.33834,-18.89127 -3.22852,-41.26464 -24.22,-43.12 1.43383,-0.27256 2.90617,-0.27256 4.34,0 15.4,1.96 36.68,9.52 28.28,44.94 z"
       id="path2104"
       style="stroke-width:14" />
    <polygon
       class="cls-2"
       points="21.59,45.05 22.09,46.19 22.23,45.09 23.14,41.96 25.28,42.35 25.86,43.17 25.97,41.91 20.01,38.8 19.01,39.76 19.97,39.66 20.88,40.47 18.88,41.6 18.56,42.84 19.14,42.26 21.74,41.62 "
       id="polygon2106"
       transform="matrix(13.985837,0.62956895,-0.62956895,13.985837,-363.49017,-474.52012)" />
    <path
       class="cls-2"
       d="m -6.679045,-43.484605 c -14,21.7 -32.34,58.52 -48.3,80.08 l 6.16,5.18 c -5.6,8.82 -30.24,56 -30.24,56 l 13.02,9.379995 42,-47.459995 7,5.04 31.64,-35.84 a 174.16,174.16 0 0 0 12.6,-70.98 z m -22.82,99.82 -37.38,45.359995 -6.58,-4.199995 28.84,-51.66 15.68,-6.86 z"
       id="path2108"
       style="stroke-width:14" />
    <polygon
       class="cls-2"
       points="37.67,41.47 37.81,44.89 37.32,46.04 37.17,44.94 36.27,41.81 34.13,42.2 33.55,43.02 33.44,41.76 39.39,38.65 40.4,39.6 39.44,39.51 38.52,40.32 40.52,41.45 40.84,42.69 40.27,42.1 "
       id="polygon2110"
       transform="matrix(14,0,0,14,-390.55904,-461.10461)" />
    <path
       class="cls-2"
       d="m 99.720955,39.675395 6.160005,-5.32 c -16.240005,-20.86 -35.280005,-58.24 -48.160005,-79.94 l -33.18,1.82 a 174.16,174.16 0 0 0 12.6,70.98 l 31.64,35.84 7.14,-5.04 41.300005,47.459995 13.02,-9.379995 c 0,0 -25.2,-47.6 -30.520005,-56.42 z m -19.18,14 v -17.92 l 15.54,6.86 28.840005,51.66 -6.58,4.76 z"
       id="path2112"
       style="stroke-width:14" />
    <path
       class="cls-2"
       d="m 7.320955,-9.0446053 19.18,81.9000003 -1.4,120.119995 c 0,0 10.78,-9.52 13.02,-11.9 2.24,-2.38 8.82,-10.5 8.82,-10.5 a 155.96,155.96 0 0 0 33.46,0 196,196 0 0 0 28.000005,-9.66 142.8,142.8 0 0 1 -47.600005,-20.02 c -9.94,-6.86 -28,-21.7 -25.9,-62.019995 2.1,-40.32 16.24,-56 16.24,-56 l -29.82,-70 z"
       id="path2114"
       style="stroke-width:14" />
    <path
       class="cls-2"
       d="m 43.720955,-9.0446053 -15.96,81.6200003 -1.82,120.399995 c 0,0 -10.78,-9.52 -13.02,-11.9 -2.24,-2.38 -8.68,-10.5 -8.68,-10.5 a 156.38,156.38 0 0 1 -33.46,0 193.62,193.62 0 0 1 -28,-9.66 137.62,137.62 0 0 0 52.5,-18.62 c 9.94,-7 22.82,-23.1 21,-63.419995 -1.82,-40.32 -16.09999997,-56 -16.09999997,-56 l 29.67999997,-70 z"
       id="path2116"
       style="stroke-width:14" />
  </g>
</svg>
