<?xml version="1.0" encoding="utf-8"?>
<!-- Generator: Adobe Illustrator 15.0.0, SVG Export Plug-In . SVG Version: 6.00 Build 0)  -->
<!DOCTYPE svg PUBLIC "-//W3C//DTD SVG 1.1//EN" "http://www.w3.org/Graphics/SVG/1.1/DTD/svg11.dtd">
<svg version="1.1" id="Layer_1" xmlns="http://www.w3.org/2000/svg" xmlns:xlink="http://www.w3.org/1999/xlink" x="0px" y="0px"
	 width="387px" height="393px" viewBox="0 0 387 393" enable-background="new 0 0 387 393" xml:space="preserve">
<g>
	<g>
		<path fill="#A7A9AC" d="M189.309,366.798c-0.521,0-0.943-0.42-0.943-0.941c0-8.346-26.405-20.262-51.941-31.785
			c-8.88-4.009-18.063-8.152-26.637-12.333c-42.76-23.389-64.688-59.342-65.217-106.879c-0.305-27.524,6.641-58.192,20.648-91.148
			c14.171-33.345,12.249-69.833,12.227-70.198c-0.014-0.252,0.073-0.5,0.242-0.687c0.17-0.188,0.408-0.299,0.66-0.31
			c55.169-2.3,110.043-25.35,110.591-25.583c0.117-0.05,0.243-0.074,0.369-0.074s0.251,0.024,0.369,0.074
			c0.548,0.233,55.433,23.283,110.59,25.583c0.252,0.01,0.49,0.122,0.66,0.31c0.168,0.187,0.255,0.435,0.241,0.687
			c-0.02,0.365-1.936,36.87,12.228,70.199c14.007,32.958,20.954,63.624,20.648,91.149c-0.529,47.536-22.456,83.488-65.177,106.858
			c-8.611,4.199-17.794,8.343-26.673,12.35c-25.537,11.523-51.943,23.442-51.943,31.787
			C190.252,366.378,189.831,366.798,189.309,366.798"/>
		<path fill="#D1D3D4" d="M189.309,27.802c0,0,54.942,23.322,110.92,25.656c0,0-2.121,36.689,12.299,70.623
			c14.422,33.934,55.148,142.513-44.112,196.811c-34.788,16.963-79.106,33.089-79.106,44.965c0-11.876-44.321-28.002-79.107-44.965
			c-99.26-54.298-58.536-162.877-44.114-196.812c14.421-33.934,12.3-70.622,12.3-70.622
			C134.365,51.123,189.309,27.802,189.309,27.802 M189.309,25.917c-0.251,0-0.501,0.049-0.737,0.15
			c-0.546,0.231-55.288,23.215-110.262,25.508c-0.505,0.021-0.981,0.244-1.32,0.619c-0.339,0.375-0.514,0.869-0.485,1.374
			c0.021,0.362,1.919,36.663-12.152,69.775C50.293,156.42,43.32,187.214,43.627,214.87c0.24,21.618,4.99,41.143,14.119,58.031
			c10.919,20.203,28.264,36.906,51.55,49.646c0.026,0.014,0.052,0.026,0.078,0.04c8.587,4.187,17.777,8.334,26.666,12.345
			c24.084,10.869,51.382,23.188,51.382,30.924c0,1.042,0.844,1.886,1.886,1.886s1.886-0.843,1.886-1.886
			c0-7.736,27.301-20.057,51.388-30.926c8.886-4.011,18.074-8.157,26.658-12.343c0.027-0.014,0.053-0.026,0.078-0.04
			c23.287-12.74,40.633-29.441,51.552-49.646c9.127-16.889,13.879-36.413,14.118-58.03c0.307-27.656-6.667-58.45-20.725-91.528
			C300.191,90.23,302.091,53.93,302.11,53.567c0.029-0.505-0.145-1-0.484-1.374c-0.339-0.375-0.815-0.598-1.32-0.619
			c-54.972-2.293-109.714-25.276-110.26-25.508C189.811,25.966,189.559,25.917,189.309,25.917"/>
	</g>
	<g>
		<g>
			<defs>
				<path id="SVGID_1_" d="M55.581,244.277c2.806,10.773,7.265,21.389,13.872,31.45h239.821
					c6.606-10.062,11.065-20.677,13.871-31.45H55.581z"/>
			</defs>
			<clipPath id="SVGID_2_">
				<use xlink:href="#SVGID_1_"  overflow="visible"/>
			</clipPath>
			
				<linearGradient id="SVGID_3_" gradientUnits="userSpaceOnUse" x1="-215.2324" y1="-113.5737" x2="-214.2941" y2="-113.5737" gradientTransform="matrix(-383.0604 0 0 -383.0604 -82077.2813 -43245.6016)">
				<stop  offset="0" style="stop-color:#EF4136"/>
				<stop  offset="1" style="stop-color:#AF393A"/>
			</linearGradient>
			<rect x="55.581" y="244.277" clip-path="url(#SVGID_2_)" fill="url(#SVGID_3_)" width="267.564" height="31.45"/>
		</g>
	</g>
	<g>
		<g>
			<defs>
				<path id="SVGID_4_" d="M54.427,181.38c-1.78,9.993-2.889,20.61-2.812,31.45H327.11c0.078-10.84-1.031-21.457-2.81-31.45H54.427z
					"/>
			</defs>
			<clipPath id="SVGID_5_">
				<use xlink:href="#SVGID_4_"  overflow="visible"/>
			</clipPath>
			
				<linearGradient id="SVGID_6_" gradientUnits="userSpaceOnUse" x1="-215.2324" y1="-113.584" x2="-214.2936" y2="-113.584" gradientTransform="matrix(-383.0604 0 0 -383.0604 -82077.2813 -43312.6016)">
				<stop  offset="0" style="stop-color:#EF4136"/>
				<stop  offset="1" style="stop-color:#AF393A"/>
			</linearGradient>
			<rect x="51.538" y="181.38" clip-path="url(#SVGID_5_)" fill="url(#SVGID_6_)" width="275.651" height="31.45"/>
		</g>
	</g>
	<g>
		<g>
			<defs>
				<path id="SVGID_7_" d="M74.396,118.49c-0.924,2.659-1.942,5.319-3.065,7.965c-2.461,5.791-5.724,13.854-8.884,23.485h253.835
					c-3.159-9.631-6.422-17.695-8.883-23.485c-1.123-2.646-2.142-5.306-3.066-7.965H74.396z"/>
			</defs>
			<clipPath id="SVGID_8_">
				<use xlink:href="#SVGID_7_"  overflow="visible"/>
			</clipPath>
			
				<linearGradient id="SVGID_9_" gradientUnits="userSpaceOnUse" x1="-215.2324" y1="-113.5947" x2="-214.2933" y2="-113.5947" gradientTransform="matrix(-383.0604 0 0 -383.0604 -82077.2813 -43379.6016)">
				<stop  offset="0" style="stop-color:#EF4136"/>
				<stop  offset="1" style="stop-color:#AF393A"/>
			</linearGradient>
			<rect x="62.446" y="118.49" clip-path="url(#SVGID_8_)" fill="url(#SVGID_9_)" width="253.835" height="31.45"/>
		</g>
	</g>
	<g>
		<g>
			<defs>
				<path id="SVGID_10_" d="M113.547,55.59c-9.864,1.612-20.133,2.784-30.436,3.214c0,0,0.687,11.89-1.456,28.235l215.416,0.001
					c-2.144-16.345-1.456-28.236-1.456-28.236c-10.303-0.43-20.572-1.602-30.436-3.214H113.547z"/>
			</defs>
			<clipPath id="SVGID_11_">
				<use xlink:href="#SVGID_10_"  overflow="visible"/>
			</clipPath>
			
				<linearGradient id="SVGID_12_" gradientUnits="userSpaceOnUse" x1="-215.2329" y1="-113.606" x2="-214.294" y2="-113.606" gradientTransform="matrix(-383.0604 0 0 -383.0604 -82077.2813 -43446.6016)">
				<stop  offset="0" style="stop-color:#EF4136"/>
				<stop  offset="1" style="stop-color:#AF393A"/>
			</linearGradient>
			<rect x="81.655" y="55.59" clip-path="url(#SVGID_11_)" fill="url(#SVGID_12_)" width="215.416" height="31.45"/>
		</g>
	</g>
	<g>
		<g>
			<defs>
				<path id="SVGID_13_" d="M83.111,58.805c0,0,2.031,35.144-11.781,67.65c-13.817,32.504-52.826,136.513,42.258,188.527
					c33.319,16.249,75.775,31.696,75.775,43.073c0-11.377,42.454-26.823,75.778-43.073c95.081-52.014,56.072-156.023,42.257-188.527
					c-13.814-32.506-11.783-67.65-11.783-67.65c-53.62-2.236-106.252-24.577-106.252-24.577S136.734,56.569,83.111,58.805"/>
			</defs>
			<clipPath id="SVGID_14_">
				<use xlink:href="#SVGID_13_"  overflow="visible"/>
			</clipPath>
			<rect x="10.177" y="275.728" clip-path="url(#SVGID_14_)" fill="#FFFFFF" width="359.527" height="31.453"/>
		</g>
		<g>
			<defs>
				<path id="SVGID_15_" d="M83.111,58.805c0,0,2.031,35.144-11.781,67.65c-13.817,32.504-52.826,136.513,42.258,188.527
					c33.319,16.249,75.775,31.696,75.775,43.073c0-11.377,42.454-26.823,75.778-43.073c95.081-52.014,56.072-156.023,42.257-188.527
					c-13.814-32.506-11.783-67.65-11.783-67.65c-53.62-2.236-106.252-24.577-106.252-24.577S136.734,56.569,83.111,58.805"/>
			</defs>
			<clipPath id="SVGID_16_">
				<use xlink:href="#SVGID_15_"  overflow="visible"/>
			</clipPath>
			<rect x="10.177" y="331.645" clip-path="url(#SVGID_16_)" fill="#FFFFFF" width="359.527" height="37.447"/>
		</g>
		<g>
			<defs>
				<path id="SVGID_17_" d="M83.111,58.805c0,0,2.031,35.144-11.781,67.65c-13.817,32.504-52.826,136.513,42.258,188.527
					c33.319,16.249,75.775,31.696,75.775,43.073c0-11.377,42.454-26.823,75.778-43.073c95.081-52.014,56.072-156.023,42.257-188.527
					c-13.814-32.506-11.783-67.65-11.783-67.65c-53.62-2.236-106.252-24.577-106.252-24.577S136.734,56.569,83.111,58.805"/>
			</defs>
			<clipPath id="SVGID_18_">
				<use xlink:href="#SVGID_17_"  overflow="visible"/>
			</clipPath>
			<rect x="10.177" y="212.828" clip-path="url(#SVGID_18_)" fill="#FFFFFF" width="359.527" height="31.451"/>
		</g>
		<g>
			<defs>
				<path id="SVGID_19_" d="M83.111,58.805c0,0,2.031,35.144-11.781,67.65c-13.817,32.504-52.826,136.513,42.258,188.527
					c33.319,16.249,75.775,31.696,75.775,43.073c0-11.377,42.454-26.823,75.778-43.073c95.081-52.014,56.072-156.023,42.257-188.527
					c-13.814-32.506-11.783-67.65-11.783-67.65c-53.62-2.236-106.252-24.577-106.252-24.577S136.734,56.569,83.111,58.805"/>
			</defs>
			<clipPath id="SVGID_20_">
				<use xlink:href="#SVGID_19_"  overflow="visible"/>
			</clipPath>
			<rect x="10.177" y="149.94" clip-path="url(#SVGID_20_)" fill="#FFFFFF" width="359.527" height="31.44"/>
		</g>
		<g>
			<defs>
				<path id="SVGID_21_" d="M83.111,58.805c0,0,2.031,35.144-11.781,67.65c-13.817,32.504-52.826,136.513,42.258,188.527
					c33.319,16.249,75.775,31.696,75.775,43.073c0-11.377,42.454-26.823,75.778-43.073c95.081-52.014,56.072-156.023,42.257-188.527
					c-13.814-32.506-11.783-67.65-11.783-67.65c-53.62-2.236-106.252-24.577-106.252-24.577S136.734,56.569,83.111,58.805"/>
			</defs>
			<clipPath id="SVGID_22_">
				<use xlink:href="#SVGID_21_"  overflow="visible"/>
			</clipPath>
			<rect x="10.177" y="87.041" clip-path="url(#SVGID_22_)" fill="#FFFFFF" width="359.527" height="31.448"/>
		</g>
		<g>
			<defs>
				<path id="SVGID_23_" d="M83.111,58.805c0,0,2.031,35.144-11.781,67.65c-13.817,32.504-52.826,136.513,42.258,188.527
					c33.319,16.249,75.775,31.696,75.775,43.073c0-11.377,42.454-26.823,75.778-43.073c95.081-52.014,56.072-156.023,42.257-188.527
					c-13.814-32.506-11.783-67.65-11.783-67.65c-53.62-2.236-106.252-24.577-106.252-24.577S136.734,56.569,83.111,58.805"/>
			</defs>
			<clipPath id="SVGID_24_">
				<use xlink:href="#SVGID_23_"  overflow="visible"/>
			</clipPath>
			<rect x="10.177" y="23.145" clip-path="url(#SVGID_24_)" fill="#FFFFFF" width="359.527" height="32.446"/>
		</g>
	</g>
	<g>
		<g>
			<defs>
				<path id="SVGID_25_" d="M100.855,307.181c3.948,2.71,8.188,5.314,12.733,7.803c16.875,8.229,36.094,16.252,50.954,23.646h49.643
					c14.86-7.394,34.078-15.417,50.956-23.646c4.544-2.487,8.783-5.093,12.731-7.803H100.855z"/>
			</defs>
			<clipPath id="SVGID_26_">
				<use xlink:href="#SVGID_25_"  overflow="visible"/>
			</clipPath>
			
				<linearGradient id="SVGID_27_" gradientUnits="userSpaceOnUse" x1="-215.2319" y1="-113.563" x2="-214.2944" y2="-113.563" gradientTransform="matrix(-383.0604 0 0 -383.0604 -82077.2813 -43178.6016)">
				<stop  offset="0" style="stop-color:#EF4136"/>
				<stop  offset="1" style="stop-color:#AF393A"/>
			</linearGradient>
			<rect x="100.855" y="307.181" clip-path="url(#SVGID_26_)" fill="url(#SVGID_27_)" width="177.017" height="31.448"/>
		</g>
	</g>
	<g>
		<path fill="#808285" d="M189.309,34.915c0,0,52.629,22.342,106.251,24.578c0,0-2.03,35.144,11.782,67.65
			c13.816,32.504,52.826,136.515-42.258,188.527c-33.321,16.251-75.774,31.697-75.774,43.073c0-11.375-42.457-26.821-75.777-43.073
			c-95.084-52.013-56.076-156.023-42.259-188.527c13.813-32.506,11.782-67.65,11.782-67.65
			C136.678,57.257,189.309,34.915,189.309,34.915 M189.309,32.92c-0.266,0-0.53,0.053-0.78,0.159
			c-0.522,0.222-52.931,22.226-105.556,24.419c-0.534,0.022-1.037,0.259-1.396,0.655c-0.36,0.396-0.544,0.92-0.514,1.454
			c0.02,0.348,1.834,35.079-11.626,66.754c-13.478,31.708-20.162,61.231-19.867,87.752c0.231,20.738,4.789,39.471,13.547,55.676
			c10.478,19.386,27.117,35.41,49.457,47.632c0.027,0.015,0.055,0.029,0.083,0.042c8.229,4.015,17.036,7.989,25.554,11.833
			c13.145,5.933,25.562,11.536,34.782,16.759c11.836,6.707,14.32,10.601,14.32,12.687c0,1.104,0.894,1.998,1.996,1.998
			s1.996-0.895,1.996-1.998c0-2.086,2.485-5.98,14.323-12.688c9.22-5.224,21.64-10.829,34.785-16.762
			c8.514-3.844,17.319-7.816,25.547-11.83c0.027-0.013,0.056-0.026,0.083-0.042c22.339-12.221,38.979-28.246,49.456-47.632
			c8.759-16.206,13.316-34.938,13.548-55.677c0.294-26.52-6.391-56.044-19.867-87.751c-13.474-31.708-11.646-66.407-11.626-66.753
			c0.03-0.534-0.154-1.059-0.514-1.455c-0.359-0.397-0.862-0.632-1.396-0.655c-52.65-2.193-105.032-24.196-105.555-24.418
			C189.839,32.973,189.575,32.92,189.309,32.92"/>
		<g>
			<g>
				<g opacity="0.8">
					<g>
						<g>
							<g transform="matrix(1 0 0 1 1.123961e-006 2.601338e-007)">
							</g>
						</g>
					</g>
				</g>
			</g>
			<g>
				<g>
					<defs>
						<path id="SVGID_28_" d="M95.718,74.537c0,0,1.783,30.837-10.337,59.358c-12.123,28.52-46.351,119.786,37.08,165.422
							c29.236,14.262,66.49,27.813,66.49,37.797c0-9.983,37.253-23.534,66.488-37.797c83.43-45.637,49.202-136.903,37.081-165.422
							c-12.123-28.521-10.34-59.358-10.34-59.358c-47.051-1.962-93.229-21.565-93.229-21.565S142.771,72.574,95.718,74.537"/>
					</defs>
					<clipPath id="SVGID_29_">
						<use xlink:href="#SVGID_28_"  overflow="visible"/>
					</clipPath>
					
						<linearGradient id="SVGID_30_" gradientUnits="userSpaceOnUse" x1="-214.5776" y1="-112.1299" x2="-213.6391" y2="-112.1299" gradientTransform="matrix(257.5622 0 0 257.5622 55335.0625 29075.6211)">
						<stop  offset="0" style="stop-color:#EF4136"/>
						<stop  offset="1" style="stop-color:#AF393A"/>
					</linearGradient>
					<rect x="39.03" y="52.972" clip-path="url(#SVGID_29_)" fill="url(#SVGID_30_)" width="299.838" height="284.141"/>
				</g>
			</g>
			<g>
				<g>
					<g>
						<g opacity="0.75">
							<g>
								<g>
									<g transform="matrix(1 0 0 1 -4.563027e-006 8.059396e-007)">
									</g>
								</g>
							</g>
						</g>
					</g>
					<g>
						<g>
							<defs>
								<path id="SVGID_31_" d="M95.572,75.264c0,0,1.784,30.836-10.338,59.358c-12.122,28.52-46.351,119.783,37.081,165.42
									c29.236,14.26,67.92,27.814,67.92,37.795c-0.008-9.273,37.25-22.818,66.489-37.077
									c83.429-45.639,47.771-137.619,35.647-166.138c-12.123-28.522-10.338-59.358-10.338-59.358
									c-47.053-1.963-93.231-21.563-93.231-21.563S142.624,73.301,95.572,75.264"/>
							</defs>
							<clipPath id="SVGID_32_">
								<use xlink:href="#SVGID_31_"  overflow="visible"/>
							</clipPath>
							<path clip-path="url(#SVGID_32_)" fill="#FFFFFF" d="M109.76,79.452c-0.307,0.058-0.525,0.106-0.642,0.141
								C109.334,79.543,109.544,79.5,109.76,79.452 M8.771,257.298c1.886-1.098,4.457-3.021,7.243-5.273
								C9.984,256.097,5.849,259.002,8.771,257.298 M6.979,246.594c-5.3,2.936-9.135,5.009-9.135,5.009
								C0.607,250.733,2.337,250.202,6.979,246.594 M79.873,198.104c14.843-64.9,69.625-86.876,121.375-79.576
								c5.089,0.84,16.688,2.25,24.579,4.346c0,0,10.479,1.798,14.089,3.268c-0.557-6.949-2.881-21.399-16.002-27.711
								c6.146,3.488,9.243,20.025,1.094,19.111c-0.201-0.168,3.396-20.914-16.826-33.983c3.68,2.654,10.416,19.356,3.44,30.817
								c2.491-5.316,0.44-13.866,0.44-13.866s-3.495-24.522-37.641-34.954c6.037,2.227,33.692,20.322,21.326,44.867
								c-0.373-2.242-0.645-6.14-1.12-7.849c-1.869-6.728-9.155-29.337-43.352-32.141c0,0,29.454,8.315,30.576,38.252
								c-1.658-1.659-10.711-43-72.092-29.232c6.218-1.166,49.374-6.025,56.625,32.725c0.031,0.366-19.767-43.248-70.807-20.013
								c1.072-0.469,45.705-15.946,53.457,24.237c-0.571-0.132-8.88-22.537-35.525-21.225c0.603,0.503,16.609-2.036,26.368,23.467
								c-0.57-0.134-9.292-10.833-27.753-12.828c0,0-3.867-0.25-8.731,0.25c-4.241,0.374-12.599,1.372-26.479,11.776
								c0.733-0.067,25.728-19.488,50.512,5.042c-1.747-1.308-9.932-5.199-28.867,1.743c-21.583,7.915-28.05,2.44-31.77,2.407
								c0,0,16.098,10.847,30.807,5.652c4.195-1.341,11.523-4.117,18.551-1.336c0.402,0.333-13.893-2.621-34.299,12.061
								c-9.584,7.006-12.904,7.309-29.393,7.884c0,0,10.122,5.027,32.442-5.002c1.427-0.729,12.469-5.424,20.312-2.978
								c-0.705,0.436-15.385,1.973-33.85,11.459s-33.164,8.844-40.703,9.715c0,0,19.354,2.819,37.452-2.544
								c13.64-5.328,18.861-5.986,24.994-3.945c-8.196-0.736-19.597,4.011-35.449,13.629c-15.851,9.618-40.284,6.641-44.038,6.238
								c0.202,0.167,25.976,7.67,40.252,1.167c14.276-6.503,19.269-6.773,19.269-6.773s-26.908,10.627-38.538,17.634
								c-11.629,7.006-14.411,9.119-25.671,9.96c-11.262,0.839-17.863-0.232-17.863-0.232s18.434,6.5,41.121-1.515
								C54.876,190.093,59,188.416,59,188.416s-8.313,4.661-18.835,11.567c-10.523,6.905-19.304,8.449-26.409,10.025
								s-17.562,1.041-19.002,1.544c-1.441,0.506,21.048,4.588,33.078-0.037c12.031-4.627-14.006,9.453-34.583,14.116
								c-20.578,4.661-35.727,1.583-36.833,1.682c-1.108,0.101,52.083,8.637,82.579-5.477c0,0-9.384,5.127-22.285,16.526
								c-4.321,3.817-7.394,6.412-9.731,8.231c7.493-4.152,17.918-10.031,24.612-14.232c11.427-7.176,13.204-6.037,13.204-6.037
								s-8.411,7.645-14.242,13.006c-3.753,3.454-9.503,8.622-14.538,12.693c4.896-3.306,11.038-7.377,15.679-10.382
								c10.354-6.702,15.951-12.604,18.699-13.04c2.748-0.438,8.545-2.079,3.319,1.741c-5.229,3.822-17.797,10.729-23.493,17.566
								c-5.696,6.838-11.86,14.648-14.61,17.127c-2.747,2.483,7.442-6.065,11.931-9.818c4.489-3.756,9.047-8.817,13.906-10.563
								c4.861-1.743-1.909,1.476-10.654,13.609c-8.746,12.136-4.056,8.547-19.169,18.103c0,0,7.105,0.468,18.366-4.461
								c0,0-0.033,1.675-4.086,6.132c-4.056,4.461,48.303-28.917,48.303-28.917S71.71,228.668,79.873,198.104 M293.86,201.659
								c-18.789-27.496-33.094-40.461-33.094-40.461s13.306,14.96,29.937,41.569c3.311,5.299,2.14,6.639,0.758,8.887
								c-1.728,2.247-9.206,7.878-13.059,11.086c-3.85,3.21-6.096,2.087-6.257,1.766c-7.542-8.984-25.016-23.905-25.016-24.067
								c5.776-2.567,3.658-4.988,3.658-4.988c-7.543,8.344-40.918,14.602-53.11-14.12c-12.196-28.709,11.872-44.597,12.033-44.597
								c-16.847,5.938-29.686,30.962-17.169,52.94c12.515,21.983,38.991,17.49,44.447,17.651c5.455,0.161,21.6,9.631,32.836,19.485
								c5.879,3.805,18.47-4.908,24.869-13.397C296.89,210.501,295.195,203.186,293.86,201.659 M250.124,149.554
								c-4.574-6.735-17.048,2.745-17.048,2.745C243.055,148.308,253.448,158.536,250.124,149.554 M240.162,126.279
								c0,0-77.021-21.179-129.647,35.939c-52.628,57.115-28.56,110.382-27.919,122.256l3.21-10.589
								c0,0-9.439-115.063,109.469-146.026c-26.246,7.758-74.378,31.462-62.236,99.521
								C133.677,227.061,122.388,126.919,240.162,126.279"/>
						</g>
					</g>
					<g>
						<path fill="none" stroke="#FFFFFF" stroke-width="1.523" stroke-linecap="round" stroke-linejoin="round" d="M188.374,337.223
							c0-9.979,37.252-23.532,66.491-37.796c83.433-45.634,49.2-136.901,37.082-165.42c-12.123-28.523-10.342-59.36-10.342-59.36
							c-47.051-1.96-93.232-21.563-93.232-21.563s-46.18,19.603-93.231,21.563c0,0,1.782,30.837-10.337,59.36
							c-12.123,28.519-46.351,119.786,37.078,165.42C151.121,313.69,188.374,327.243,188.374,337.223z"/>
						<g>
							<g>
								<g>
									<g>
										<g>
											<g transform="matrix(1 0 0 1 2.012457e-007 7.870938e-006)">
											</g>
										</g>
									</g>
								</g>
								<path fill="#FFFFFF" d="M95.29,260.681l10.464-18.489h4.157l10.606,18.489h-4.836l-2.224-4.05h-11.716l-2.151,4.05H95.29z
									 M103.566,253.3h8.1l-3.978-7.526L103.566,253.3z"/>
								<path fill="#FFFFFF" d="M127.511,255.128c0.571,0,0.858,0.441,0.858,1.325v2.9c0,0.623-0.088,0.998-0.268,1.13
									c-0.179,0.133-0.59,0.197-1.235,0.197h-3.189c-0.576,0-0.861-0.44-0.861-1.327v-2.9c0-0.621,0.09-0.997,0.268-1.13
									c0.18-0.13,0.593-0.195,1.238-0.195H127.511L127.511,255.128z"/>
								<path fill="#FFFFFF" d="M150.195,245.416h-12.147v3.976h11.564c1.771,0,2.985,0.301,3.646,0.896
									c0.656,0.598,0.985,1.756,0.985,3.476v2.544c0,1.72-0.329,2.879-0.983,3.476c-0.658,0.598-1.871,0.896-3.638,0.896H138.19
									c-1.768,0-2.979-0.299-3.638-0.896c-0.657-0.597-0.984-1.756-0.984-3.476v-0.5l3.799-0.788v2.185h13.078v-4.229h-11.538
									c-1.769,0-2.973-0.299-3.618-0.895c-0.646-0.598-0.968-1.756-0.968-3.476v-2.044c0-1.72,0.322-2.878,0.968-3.476
									c0.645-0.596,1.85-0.896,3.618-0.896h10.499c1.696,0,2.885,0.289,3.564,0.859c0.682,0.574,1.023,1.637,1.023,3.189v0.396
									l-3.799,0.895V245.416z"/>
								<path fill="#FFFFFF" d="M162.141,255.128c0.572,0,0.859,0.441,0.859,1.325v2.9c0,0.623-0.09,0.998-0.269,1.13
									c-0.179,0.133-0.59,0.197-1.235,0.197h-3.189c-0.574,0-0.862-0.44-0.862-1.327v-2.9c0-0.621,0.092-0.997,0.27-1.13
									c0.18-0.13,0.592-0.195,1.237-0.195H162.141L162.141,255.128z"/>
								<path fill="#FFFFFF" d="M170.417,260.656v-18.465h15.819c2.767,0,4.152,1.192,4.152,3.578v4.33
									c0,2.387-1.385,3.578-4.152,3.578h-2.434l8.518,6.98h-6.156l-7.443-6.98h-4.08v6.98h-4.224V260.656z M184.304,245.341
									h-9.663v5.188h9.663c0.668,0,1.131-0.073,1.396-0.215c0.358-0.216,0.537-0.636,0.537-1.262v-2.233
									c0-0.627-0.179-1.046-0.537-1.262C185.435,245.412,184.972,245.341,184.304,245.341"/>
								<path fill="#FFFFFF" d="M199.271,242.191v14.995h12.239v-14.995h4.293v14.1c0,1.717-0.323,2.875-0.968,3.471
									c-0.644,0.597-1.849,0.896-3.613,0.896h-11.666c-1.767,0-2.971-0.3-3.615-0.896c-0.645-0.596-0.966-1.754-0.966-3.471v-14.1
									H199.271z"/>
								<path fill="#FFFFFF" d="M237.394,245.483h-13.42v11.701h13.42v-4.114h-7.016v-3.149h11.204v6.37
									c0,1.717-0.324,2.875-0.967,3.471c-0.645,0.598-1.85,0.895-3.615,0.895h-12.739c-1.768,0-2.972-0.297-3.617-0.895
									c-0.644-0.596-0.965-1.754-0.965-3.471v-9.733c0-1.719,0.323-2.874,0.965-3.473c0.646-0.595,1.85-0.894,3.617-0.894H237
									c1.717,0,2.91,0.293,3.577,0.878c0.669,0.585,1.005,1.688,1.005,3.309v0.429l-4.188,0.752V245.483L237.394,245.483z"/>
								<path fill="#FFFFFF" d="M245.735,260.656v-18.467h15.818c2.767,0,4.15,1.194,4.15,3.58v2.253
									c0,1.813-1.062,2.853-3.184,3.113c2.217,0.287,3.326,1.466,3.326,3.545v2.359c0,2.412-1.813,3.616-5.438,3.616H245.735
									L245.735,260.656z M259.763,245.198h-9.804v4.4h9.804c1.313,0,1.971-0.443,1.971-1.323v-1.755
									C261.733,245.64,261.075,245.198,259.763,245.198 M259.763,252.64h-9.804v4.688h9.804c0.717,0,1.217-0.082,1.506-0.251
									c0.38-0.238,0.573-0.702,0.573-1.396v-1.395c0-0.691-0.193-1.156-0.573-1.396
									C260.979,252.725,260.478,252.64,259.763,252.64"/>
								<polygon fill="#FFFFFF" points="276.927,260.656 276.927,252.391 267.337,242.191 273.063,242.191 279.397,249.276 
									285.768,242.191 290.814,242.191 281.258,252.282 281.258,260.656 								"/>
								<path fill="#FFFFFF" d="M123.097,288.3v-16.951h3.188l7.982,10.248l7.819-10.248h3.153V288.3h-3.648v-10.481
									c0-0.414,0.045-1.018,0.134-1.806c-0.418,0.854-0.747,1.443-0.987,1.772l-6.375,8.476h-0.787l-6.373-8.506
									c-0.458-0.613-0.799-1.196-1.017-1.741c0.063,0.679,0.099,1.28,0.099,1.805V288.3H123.097L123.097,288.3z"/>
								<rect x="153.55" y="271.349" fill="#FFFFFF" width="3.94" height="16.951"/>
								<polygon fill="#FFFFFF" points="166.164,288.3 166.164,271.349 170.106,271.349 170.106,285.112 182.816,285.112 
									182.816,288.3 								"/>
								<path fill="#FFFFFF" d="M185.348,288.3l9.596-16.951h3.808l9.724,16.951h-4.433l-2.039-3.716h-10.742l-1.972,3.716H185.348z
									 M192.938,281.53h7.424l-3.645-6.898L192.938,281.53z"/>
								<path fill="#FFFFFF" d="M213.894,288.3v-16.951h2.695l11.925,9.985c0.855,0.724,1.503,1.336,1.94,1.839
									c-0.111-1.576-0.165-2.55-0.165-2.924v-8.899h3.548v16.95h-2.695l-12.45-10.481c-0.526-0.438-0.995-0.898-1.412-1.38
									c0.106,1.098,0.163,1.993,0.163,2.695v9.166H213.894L213.894,288.3z"/>
								<path fill="#FFFFFF" d="M242.113,275.356c0-1.579,0.299-2.642,0.887-3.188c0.593-0.545,1.698-0.819,3.32-0.819h12.481
									c1.621,0,2.727,0.274,3.318,0.819c0.59,0.546,0.886,1.609,0.886,3.188v8.936c0,1.574-0.296,2.637-0.886,3.185
									c-0.592,0.549-1.698,0.823-3.318,0.823H246.32c-1.623,0-2.728-0.274-3.32-0.823c-0.588-0.548-0.887-1.61-0.887-3.185
									V275.356L242.113,275.356z M246.058,285.111h13.007V274.37h-13.007V285.111L246.058,285.111z"/>
							</g>
						</g>
					</g>
				</g>
			</g>
		</g>
	</g>
</g>
</svg>
