<?xml version="1.0" encoding="UTF-8" standalone="no"?>
<!-- Created with Inkscape (http://www.inkscape.org/) -->

<svg
   xmlns:dc="http://purl.org/dc/elements/1.1/"
   xmlns:cc="http://creativecommons.org/ns#"
   xmlns:rdf="http://www.w3.org/1999/02/22-rdf-syntax-ns#"
   xmlns:svg="http://www.w3.org/2000/svg"
   xmlns="http://www.w3.org/2000/svg"
   xmlns:xlink="http://www.w3.org/1999/xlink"
   xmlns:sodipodi="http://sodipodi.sourceforge.net/DTD/sodipodi-0.dtd"
   xmlns:inkscape="http://www.inkscape.org/namespaces/inkscape"
   id="svg2"
   version="1.1"
   inkscape:version="0.91 r13725"
   xml:space="preserve"
   width="400"
   height="600"
   viewBox="0 0 400 599.99997"
   sodipodi:docname="Calendrier-PRO-B-2016-2017.svg"><metadata
     id="metadata8"><rdf:RDF><cc:Work
         rdf:about=""><dc:format>image/svg+xml</dc:format><dc:type
           rdf:resource="http://purl.org/dc/dcmitype/StillImage" /><dc:title></dc:title></cc:Work></rdf:RDF></metadata><defs
     id="defs6"><linearGradient
       inkscape:collect="always"
       id="linearGradient21190"><stop
         style="stop-color:#00378c;stop-opacity:1"
         offset="0"
         id="stop21192" /><stop
         id="stop21210"
         offset="0.12737268"
         style="stop-color:#00378b;stop-opacity:1" /><stop
         id="stop21208"
         offset="0.24704649"
         style="stop-color:#0d378a;stop-opacity:1" /><stop
         id="stop21206"
         offset="0.37390819"
         style="stop-color:#5d3574;stop-opacity:1" /><stop
         id="stop21204"
         offset="0.47457314"
         style="stop-color:#7e3162;stop-opacity:1" /><stop
         id="stop21202"
         offset="0.60760081"
         style="stop-color:#b91f3d;stop-opacity:1" /><stop
         id="stop21200"
         offset="0.75398231"
         style="stop-color:#e1001a;stop-opacity:1" /><stop
         id="stop21198"
         offset="0.87878644"
         style="stop-color:#e2001a;stop-opacity:1" /><stop
         style="stop-color:#e1001a;stop-opacity:1"
         offset="1"
         id="stop21194" /></linearGradient><linearGradient
       inkscape:collect="always"
       xlink:href="#linearGradient21190"
       id="linearGradient21196"
       x1="28.538645"
       y1="14.269283"
       x2="563.63824"
       y2="815.13501"
       gradientUnits="userSpaceOnUse" /><linearGradient
       inkscape:collect="always"
       xlink:href="#linearGradient21190"
       id="linearGradient21212"
       gradientUnits="userSpaceOnUse"
       x1="28.538645"
       y1="14.269283"
       x2="563.63824"
       y2="815.13501" /><linearGradient
       inkscape:collect="always"
       xlink:href="#linearGradient21190"
       id="linearGradient21214"
       gradientUnits="userSpaceOnUse"
       x1="28.538645"
       y1="14.269283"
       x2="563.63824"
       y2="815.13501" /><linearGradient
       inkscape:collect="always"
       xlink:href="#linearGradient21190"
       id="linearGradient21216"
       gradientUnits="userSpaceOnUse"
       x1="28.538645"
       y1="14.269283"
       x2="563.63824"
       y2="815.13501" /></defs><sodipodi:namedview
     pagecolor="#ffffff"
     bordercolor="#666666"
     borderopacity="1"
     objecttolerance="10"
     gridtolerance="10"
     guidetolerance="10"
     inkscape:pageopacity="0"
     inkscape:pageshadow="2"
     inkscape:window-width="1280"
     inkscape:window-height="691"
     id="namedview4"
     showgrid="false"
     inkscape:zoom="0.44851463"
     inkscape:cx="66.606057"
     inkscape:cy="526.18127"
     inkscape:window-x="0"
     inkscape:window-y="1"
     inkscape:window-maximized="1"
     inkscape:current-layer="g10" /><g
     id="g10"
     inkscape:groupmode="layer"
     inkscape:label="FFBB"
     transform="matrix(1.25,0,0,-1.25,0,599.99995)"><g
       id="g21185"
       style="fill:url(#linearGradient21196);fill-opacity:1"
       transform="matrix(0.6,0,0,0.6,-18.5172,-9.9084391)"><path
         d="M 164.74089,685.64657 C 129.29081,648.88716 110.40373,603.51891 110.40373,552.25868 l 0,0 c 0,-48.4779 18.88708,-95.74468 54.33716,-131.09656 l 0,0 c 35.71194,-36.43208 82.42226,-54.46809 132.50409,-54.46809 l 0,0 c 49.2635,0 96.79214,18.03601 131.78396,54.46809 l 0,0 c 73.15876,73.51882 73.15876,191.16203 0,264.48445 l 0,0 c -30.76923,30.40916 -70.99836,50.37643 -114.50082,53.51882 l 0,0 c -6.08838,0.8838 -11.22749,0.982 -17.28314,0.982 l 0,0 c -50.08183,0 -96.79215,-18.55974 -132.50409,-54.50082 M 158.09604,536.3176 c 39.01801,6.84124 74.17349,26.12111 103.14239,52.96236 l 0,0 c 27.59411,28.8707 45.92472,64.54992 51.5221,102.35679 l 0,0 c 24.09165,-3.53519 45.56465,-11.4239 64.48445,-23.33879 l 0,0 -194.30442,-195.61375 c -13.84615,18.39607 -22.55319,40.22914 -24.84452,63.63339 m 39.96727,115.38462 c 18.46154,18.4288 41.21113,31.68576 65.13912,36.36661 l 0,0 c -5.10639,-24.64812 -18.13421,-46.38298 -35.84288,-64.84452 l 0,0 C 208.34154,604.59911 186.41028,592.71695 160.8129,586.5631 l 0,0 c 6.35025,23.46972 19.05074,46.44845 37.25041,65.13912 m 18.29787,-211.06383 194.86089,192.50409 c 13.38788,-17.54501 21.08019,-39.2144 23.46972,-60.3928 l 0,0 C 396.55758,565.84297 360.6165,548.62529 331.77853,520.31105 l 0,0 C 304.15169,490.72022 285.26462,453.89534 279.30717,414.35361 l 0,0 c -23.33879,1.99672 -44.09165,12.53682 -62.94599,26.28478 m 149.4599,45.89198 c 18.88707,18.1342 41.93126,31.58756 67.59411,35.77741 l 0,0 c -5.33551,-24.64812 -18.75614,-48.28151 -38.00327,-68.34697 l 0,0 C 376.85218,435.9248 353.21879,422.27505 328.24334,415.89207 l 0,0 c 5.79378,26.67758 18.26514,51.48936 37.57774,70.6383"
         id="path104"
         inkscape:connector-curvature="0"
         style="fill:url(#linearGradient21212);fill-opacity:1" /><path
         d="M 110.79653,740.14739 C 60.616501,689.11629 32.400462,623.84624 32.400462,552.25868 l 0,0 c 0,-70.2455 28.216039,-137.05401 78.396068,-185.36825 l 0,0 c 49.16531,-50.27823 115.48282,-77.15221 186.44845,-77.15221 l 0,0 c 70.4419,0 136.98854,26.87398 186.51391,77.15221 l 0,0 c 50.60556,48.31424 78.06874,115.12275 78.06874,185.36825 l 0,0 c 0,71.58756 -27.46318,136.85761 -78.06874,187.88871 l 0,0 C 434.23352,790.03282 367.68688,816.514 297.24498,816.514 l 0,0 c -70.96563,0 -137.28314,-26.48118 -186.44845,-76.36661 m 33.35516,-340.91653 c -41.11293,42.25859 -63.993454,96.36661 -63.993454,153.02782 l 0,0 c 0,58.19967 22.880524,112.40589 63.993454,154.07529 l 0,0 c 40.22913,40.88379 95.09002,63.17512 153.09329,63.17512 l 0,0 c 57.61047,0 112.27496,-22.29133 153.55155,-63.17512 l 0,0 c 40.06547,-41.6694 63.14239,-95.87562 63.14239,-154.07529 l 0,0 c 0,-56.66121 -23.07692,-110.76923 -63.14239,-153.02782 l 0,0 C 409.51994,358.51073 354.85545,336.28487 297.24498,336.28487 l 0,0 c -58.00327,0 -112.86416,22.22586 -153.09329,62.94599"
         id="path118"
         inkscape:connector-curvature="0"
         style="fill:url(#linearGradient21214);fill-opacity:1" /><path
         d="m 439.47084,229.11629 -12.43863,-6.18658 0,-191.587559 C 447.71961,21.58765 474.52812,16.514 489.5854,16.514 l 0,0 c 14.92635,0 38.03601,3.731588 52.89689,9.689034 l 0,0 7.33225,3.829788 3.33879,7.00491 c 13.15875,29.721767 12.83142,59.574468 4.71358,83.011458 l 0,0 c -2.78232,8.90344 -9.7545,15.15548 -14.14075,21.53846 l 0,0 c 7.07037,17.34861 9.81996,46.18658 -3.14239,76.39935 l 0,0 -2.81506,6.57937 -7.52864,4.54992 c -14.82815,6.61211 -29.98363,9.91817 -45.17185,9.91817 l 0,0 c -15.22095,0 -30.47463,-3.30606 -45.59738,-9.91817 m 29.98363,-78.46154 0,44.25532 c 12.01309,2.52046 23.69886,1.99673 36.00655,-1.17839 l 0,0 c 4.51718,-14.56629 4.51718,-25.92472 0,-40.06547 l 0,0 c -7.33224,-2.25859 -13.55156,-2.68412 -20.491,-3.01146 l 0,0 c -1.60393,-0.0327 -3.24059,-0.0655 -4.90998,-0.0655 l 0,0 c -3.37153,0 -6.87398,0.0655 -10.60557,0.0655 m 0,-89.1653 0,50.80196 c 5.89198,0.16367 15.58102,0.45827 19.63994,0.45827 l 0,0 c 11.91489,0.13093 21.80032,-0.45827 28.3797,-2.38953 l 0,0 c 7.75778,-14.697214 4.87725,-40.032729 0.26187,-48.8707 l 0,0 c -6.31752,-2.062193 -14.92635,-3.240589 -23.86252,-3.240589 l 0,0 c -8.34698,0 -17.02128,1.047463 -24.41899,3.240589 m -184.12438,167.62684 -12.2095,-6.18658 0,-191.587559 C 293.18606,21.58765 319.96184,16.514 335.34645,16.514 l 0,0 c 14.95909,0 37.87234,3.731588 52.83143,9.689034 l 0,0 7.2995,3.829788 3.01146,7.00491 c 12.89689,29.721767 12.79869,59.345335 5.30278,83.011458 l 0,0 c -3.86252,11.19476 -10.27823,15.15548 -14.43535,21.53846 l 0,0 c 7.33224,17.34861 10.1473,46.18658 -2.71686,76.39935 l 0,0 -3.07692,6.57937 -7.79051,4.54992 c -14.99181,6.61211 -30.18003,9.91817 -45.33551,9.91817 l 0,0 c -15.12275,0 -30.2455,-3.30606 -45.10638,-9.91817 m 29.5581,-78.46154 0,44.25532 c 11.58756,2.52046 23.79705,1.99673 36.39934,-1.17839 l 0,0 c 4.51719,-14.56629 4.51719,-25.92472 0,-40.06547 l 0,0 c -7.20131,-2.25859 -13.48609,-2.68412 -20.72013,-3.01146 l 0,0 c -1.70213,-0.0327 -3.37152,-0.0655 -5.07365,-0.0655 l 0,0 c -3.40425,0 -6.90671,0.0655 -10.60556,0.0655 m 0,-89.1653 0,50.80196 c 5.99018,0.16367 15.94108,0.45827 19.018,0.45827 l 0,0 c 12.66776,0.13093 22.16039,-0.45827 29.03437,-2.38953 l 0,0 c 10.01637,-14.140749 5.00818,-43.371518 0.1964,-48.8707 l 0,0 c -6.12111,-2.062193 -14.63175,-3.240589 -23.56792,-3.240589 l 0,0 c -8.37971,0 -17.15221,1.047463 -24.68085,3.240589 m -149.39444,164.97545 -13.35515,-4.45172 0,-205.433714 41.89852,0 0,87.103114 52.60229,0 0,42.74959 c -11.55482,0 -35.22095,-0.0982 -52.60229,-0.0982 l 0,0 0,45.72831 c 17.54501,3.53519 34.92635,2.84779 52.60229,-4.48445 l 0,0 0,44.58265 c -10.63829,2.78233 -21.24386,4.15712 -31.84942,4.15712 l 0,0 c -16.56301,0 -33.02783,-3.37152 -49.29624,-9.8527 m -120.883796,0 -13.747954,-4.45172 0,-205.433714 41.833061,0 0,87.103114 53.060559,0 0,42.74959 c -11.68576,0 -35.286419,-0.0982 -53.060559,-0.0982 l 0,0 0,45.72831 c 17.77414,3.53519 35.286419,2.84779 53.060559,-4.48445 l 0,0 0,44.58265 c -10.6383,2.78233 -21.2766,4.15712 -31.882163,4.15712 l 0,0 c -16.530279,0 -32.99509,-3.37152 -49.263503,-9.8527"
         id="path132"
         inkscape:connector-curvature="0"
         style="fill:url(#linearGradient21216);fill-opacity:1" /></g></g></svg>