<?xml version="1.0" encoding="UTF-8" standalone="no"?>
<!-- Created with Inkscape (http://www.inkscape.org/) -->

<svg
   xmlns:dc="http://purl.org/dc/elements/1.1/"
   xmlns:cc="http://creativecommons.org/ns#"
   xmlns:rdf="http://www.w3.org/1999/02/22-rdf-syntax-ns#"
   xmlns:svg="http://www.w3.org/2000/svg"
   xmlns="http://www.w3.org/2000/svg"
   xmlns:sodipodi="http://sodipodi.sourceforge.net/DTD/sodipodi-0.dtd"
   xmlns:inkscape="http://www.inkscape.org/namespaces/inkscape"
   id="svg2"
   version="1.1"
   inkscape:version="0.91 r13725"
   xml:space="preserve"
   width="419.90283"
   height="400"
   viewBox="0 0 419.90284 400"
   sodipodi:docname="Fédération française de Volley logo 2017.svg"><metadata
     id="metadata8"><rdf:RDF><cc:Work
         rdf:about=""><dc:format>image/svg+xml</dc:format><dc:type
           rdf:resource="http://purl.org/dc/dcmitype/StillImage" /><dc:title></dc:title></cc:Work></rdf:RDF></metadata><defs
     id="defs6"><radialGradient
       fx="0"
       fy="0"
       cx="0"
       cy="0"
       r="1"
       gradientUnits="userSpaceOnUse"
       gradientTransform="matrix(77.601738,0,0,-77.601738,128.08496,257.15576)"
       spreadMethod="pad"
       id="radialGradient24"><stop
         style="stop-opacity:1;stop-color:#0e88d3"
         offset="0"
         id="stop26" /><stop
         style="stop-opacity:1;stop-color:#122657"
         offset="1"
         id="stop28" /></radialGradient><clipPath
       clipPathUnits="userSpaceOnUse"
       id="clipPath36"><path
         d="m 0,391.251 283.464,0 L 283.464,0 0,0 0,391.251 Z"
         id="path38"
         inkscape:connector-curvature="0" /></clipPath><radialGradient
       fx="0"
       fy="0"
       cx="0"
       cy="0"
       r="1"
       gradientUnits="userSpaceOnUse"
       gradientTransform="matrix(32.096134,-74.386993,-74.386993,-32.096134,126.35693,252.08984)"
       spreadMethod="pad"
       id="radialGradient60"><stop
         style="stop-opacity:1;stop-color:#0e88d3"
         offset="0"
         id="stop62" /><stop
         style="stop-opacity:1;stop-color:#122657"
         offset="1"
         id="stop64" /></radialGradient><clipPath
       clipPathUnits="userSpaceOnUse"
       id="clipPath72"><path
         d="m 0,391.251 283.464,0 L 283.464,0 0,0 0,391.251 Z"
         id="path74"
         inkscape:connector-curvature="0" /></clipPath><radialGradient
       fx="0"
       fy="0"
       cx="0"
       cy="0"
       r="1"
       gradientUnits="userSpaceOnUse"
       gradientTransform="matrix(119.60498,0,0,-119.60498,188.58756,304.00456)"
       spreadMethod="pad"
       id="radialGradient24-1"><stop
         style="stop-opacity:1;stop-color:#0e88d3"
         offset="0"
         id="stop26-3" /><stop
         style="stop-opacity:1;stop-color:#122657"
         offset="1"
         id="stop28-9" /></radialGradient><radialGradient
       fx="0"
       fy="0"
       cx="0"
       cy="0"
       r="1"
       gradientUnits="userSpaceOnUse"
       gradientTransform="matrix(32.096134,-74.386993,-74.386993,-32.096134,126.35693,252.08984)"
       spreadMethod="pad"
       id="radialGradient60-6"><stop
         style="stop-opacity:1;stop-color:#0e88d3"
         offset="0"
         id="stop62-2" /><stop
         style="stop-opacity:1;stop-color:#122657"
         offset="1"
         id="stop64-8" /></radialGradient></defs><sodipodi:namedview
     pagecolor="#ffffff"
     bordercolor="#666666"
     borderopacity="1"
     objecttolerance="10"
     gridtolerance="10"
     guidetolerance="10"
     inkscape:pageopacity="0"
     inkscape:pageshadow="2"
     inkscape:window-width="1366"
     inkscape:window-height="705"
     id="namedview4"
     showgrid="false"
     fit-margin-top="0"
     fit-margin-left="0"
     fit-margin-right="0"
     fit-margin-bottom="0"
     inkscape:zoom="1.3648707"
     inkscape:cx="201.56298"
     inkscape:cy="201.05267"
     inkscape:window-x="-8"
     inkscape:window-y="-8"
     inkscape:window-maximized="1"
     inkscape:current-layer="g10" /><g
     id="g10"
     inkscape:groupmode="layer"
     inkscape:label="FFVOLLEY_LOGO_INSTIT_PRINCIPAL_FOND_CLAIR_CMJN"
     transform="matrix(1.25,0,0,-1.25,-52.076385,461.46351)"><g
       id="g12"><g
         id="g14"><g
           id="g20"><g
             id="g22" /></g></g></g><g
       id="g32"><g
         id="g34"
         clip-path="url(#clipPath36)"><g
           id="g40"
           transform="translate(141.6157,294.7881)" /><g
           id="g44"
           transform="translate(176.7729,275.4204)" /></g></g><g
       id="g68"><g
         id="g70"
         clip-path="url(#clipPath72)"><g
           id="g76"
           transform="translate(114.2075,133.4033)" /><g
           id="g84"
           transform="translate(245.8003,133.4033)" /><g
           id="g88"
           transform="translate(41.4116,145.001)" /><g
           id="g92"
           transform="translate(67.9448,145.001)" /><g
           id="g96"
           transform="translate(190.6089,121.6836)" /><g
           id="g100"
           transform="translate(135.2319,109.1709)" /></g></g><path
       d="m 237.29473,336.42702 c 19.37373,-31.48346 0.72286,-53.8981 0.72286,-53.8981 l 0,0 c -1.83719,-2.55388 -3.79614,-2.02831 -5.21565,-0.62267 l 0,0 c -21.14926,22.96641 -50.38863,30.47701 -71.71976,23.9744 l 0,0 c -32.84286,-10.0059 -29.64319,-46.35822 -23.24693,-62.19011 l 0,0 c 0.98641,-2.44137 1.91888,-2.21172 2.45678,-0.12484 l 0,0 c 0.67662,2.62632 2.62478,14.29525 17.3223,22.25897 l 0,0 c 16.48693,8.93318 32.88909,-0.24814 36.34769,-2.52305 l 0,0 c 3.06404,-2.0129 4.33867,-3.78073 3.99959,-7.66935 l 0,0 c -1.03111,-11.78144 -0.60418,-40.55535 14.83161,-60.46543 l 0,0 c 0.17262,-0.168 0.3252,-0.38532 0.54098,-0.59801 l 0,0 c 1.81715,-1.79249 4.19841,-1.69385 5.02915,-1.59521 l 0,0 c 0.21424,0.0262 0.32521,0.0509 0.29901,0.0447 l 0,0 c -1.22685,2.39821 -7.34414,15.26317 -6.73071,33.90325 l 0,0 c 0.11251,1.14978 0.77988,1.68768 2.0021,1.84489 l 0,0 c 0.0909,0.0108 0.16184,0.0277 0.23428,0.0478 l 0,0 c 40.59696,6.86789 60.6026,30.25507 60.67813,56.82034 l 0,0 c 0.10326,35.53699 -25.32764,48.68708 -36.21207,52.9271 l 0,0 c -0.39302,0.13872 -0.73672,0.20499 -1.02186,0.20499 l 0,0 c -1.0234,0 -1.28849,-0.85694 -0.3175,-2.33964"
       style="fill:url(#radialGradient24-1);stroke:none"
       id="path30"
       inkscape:connector-curvature="0" /><path
       d="m 209.44204,362.00602 c 4.73169,-2.4352 11.61653,-7.31639 16.68267,-11.75062 9.29692,-1.84644 18.04515,-5.24185 25.95956,-9.9088 l 1.8002,6.424 c 0.12021,0.63808 0.22964,1.42567 -0.17725,1.93737 -12.87728,16.19717 -26.61922,20.30465 -26.72094,20.34472 -0.59339,0.19574 -1.05731,0.14488 -1.16366,-0.12793 -0.0801,-0.18032 0,-0.45621 0.28976,-0.81378 1.20835,-1.39023 2.83439,-3.44165 4.29089,-5.85836 0.009,-0.0216 0.009,-0.0431 0.0277,-0.0709 0.48704,-0.83845 0.074,-1.24072 -0.6874,-1.09738 -6.27913,1.41488 -12.71237,2.21172 -19.71435,2.69259 -0.34062,0.003 -0.61959,-0.0478 -0.81841,-0.15258 -0.67507,-0.35295 -0.52711,-1.19911 0.23119,-1.61833"
       style="fill:#ed1c24;fill-opacity:1;fill-rule:nonzero;stroke:none"
       id="path42"
       inkscape:connector-curvature="0" /><path
       d="m 263.62866,332.15524 12.48272,8.13018 c 0.9448,0.65042 0.7953,1.26384 -0.38223,1.17445 l -9.80862,-0.73518 c -0.71515,-0.0185 -1.12975,0.39918 -1.25614,1.05268 l -1.23301,12.14056 c -0.17262,0.78296 -0.67199,0.7059 -1.02494,0.0293 l -5.77205,-16.4299 c 2.42596,-1.66765 4.76252,-3.45552 6.99427,-5.36207"
       style="fill:#ed1c24;fill-opacity:1;fill-rule:nonzero;stroke:none"
       id="path46"
       inkscape:connector-curvature="0" /><g
       transform="matrix(1.5412667,0,0,1.5412667,-8.8255314,-92.341057)"
       id="g48"><g
         id="g50"><g
           id="g56"><g
             id="g58"><path
               d="M 100.597,277.888 C 88.927,266.926 81.636,251.352 81.636,234.076 l 0,0 c 0,-33.191 26.906,-60.095 60.097,-60.095 l 0,0 c 33.188,0 60.096,26.904 60.096,60.095 l 0,0 c 0,9.123 -2.062,17.772 -5.672,25.517 l 0,0 c -1.906,4.091 -3.053,3.657 -2.467,0.649 l 0,0 c 1.527,-7.841 1.045,-16.538 1.045,-16.538 l 0,0 c -0.336,-8.115 -2.14,-16.552 -8.493,-24.741 l 0,0 c -11.956,-15.426 -22.993,-16.507 -25.089,-16.947 l 0,0 c -1.115,-0.235 -1.704,-0.408 -1.614,-0.841 l 0,0 c 0.076,-0.363 0.984,-0.723 3.848,-0.804 l 0,0 c 8.8,-0.252 17.62,4.25 24.187,9.915 l 0,0 c 1.743,1.503 4.886,5.159 3.339,1.803 l 0,0 c -7.849,-17.532 -24.797,-30.102 -44.839,-31.7 l 0,0 c -5.163,-0.259 -9.351,-0.111 -13.603,1.661 l 0,0 c -4.399,1.83 -10.157,7.413 -12.908,15.217 l 0,0 c -2.75,7.806 -3.445,17.019 -2.622,21.581 l 0,0 c 0.52,2.881 -2.328,1.384 -4.018,-7.157 l 0,0 c -1.506,-7.613 -0.323,-16.644 3.552,-23.926 l 0,0 c 0.581,-1.091 0.484,-1.539 -0.4,-1.058 l 0,0 c -16.788,9.119 -28.203,26.912 -28.203,47.369 l 0,0 c 0.271,21.081 9.593,31.22 21.34,35.148 l 0,0 c 17.508,5.855 33.763,-1.974 37.974,-4.185 l 0,0 c 1.835,-0.964 2.994,-1.223 1.802,0.708 l 0,0 c -4.57,7.401 -21.11,15.189 -38.209,10.692 l 0,0 c -1.495,-0.393 0.33,2.112 3.427,4.296 l 0,0 c 5.8,4.093 10.763,6.007 22.162,7.23 l 0,0 c 4.516,0.554 1.687,2.06 -4.483,2.06 l 0,0 c -7.788,0.001 -20.9,-2.398 -31.288,-12.137"
               style="fill:url(#radialGradient60-6);stroke:none"
               id="path66"
               inkscape:connector-curvature="0" /></g></g></g></g><path
       d="m 167.19868,113.26901 c -0.84307,0 -1.66611,-0.11868 -2.47219,-0.35295 -0.81533,-0.23119 -1.56593,-0.57335 -2.26412,-1.02803 -0.70436,-0.45159 -1.32858,-0.98641 -1.87264,-1.60908 -0.54099,-0.62267 -0.95251,-1.307 -1.23764,-2.05451 -1.61679,-3.89016 -3.22895,-7.74641 -4.83341,-11.557959 -1.5983,-3.814635 -3.22433,-7.664719 -4.87965,-11.557959 -0.43464,-1.026484 -0.83845,-2.085334 -1.20836,-3.173468 -0.38223,-1.089676 -0.6874,-2.382798 -0.93709,-3.874745 l -0.001,-0.0046 -0.001,0.0046 c -0.24968,1.491947 -0.55485,2.785069 -0.93863,3.874745 -0.3699,1.088134 -0.77217,2.146984 -1.20835,3.173468 -1.65378,3.89324 -3.28136,7.743324 -4.87965,11.557959 -1.60446,3.811549 -3.21662,7.667799 -4.83187,11.557959 -0.28514,0.74751 -0.6982,1.43184 -1.23764,2.05451 -0.54561,0.62267 -1.16828,1.15749 -1.87264,1.60908 -0.69819,0.45468 -1.44879,0.79684 -2.26412,1.02803 -0.80608,0.23427 -1.62912,0.35295 -2.47219,0.35295 l -7.56454,0 c 3.45861,-8.22112 6.88638,-16.394458 10.29413,-24.515392 3.40927,-8.125558 6.85709,-16.297354 10.34189,-24.518471 l 0.001,0 13.26723,0 0.002,0 c 3.48326,8.221117 6.93261,16.392913 10.3419,24.518471 3.4062,8.120934 6.83551,16.294272 10.29412,24.515392 l -7.56454,0 z"
       style="fill:#122657;fill-opacity:1;fill-rule:nonzero;stroke:none"
       id="path78"
       inkscape:connector-curvature="0" /><path
       d="m 231.7508,64.220813 12.28543,0 0,66.915647 -12.28543,0 0,-66.915647 z"
       style="fill:#122657;fill-opacity:1;fill-rule:nonzero;stroke:none"
       id="path80"
       inkscape:connector-curvature="0" /><path
       d="m 253.09888,64.220813 12.27465,0 0,66.915647 -12.27465,0 0,-66.915647 z"
       style="fill:#122657;fill-opacity:1;fill-rule:nonzero;stroke:none"
       id="path82"
       inkscape:connector-curvature="0" /><path
       d="m 370.0183,113.26901 c -0.84308,0 -1.66765,-0.11868 -2.47374,-0.35295 -0.81379,-0.23119 -1.56592,-0.57335 -2.26412,-1.02803 -0.70436,-0.45159 -1.32857,-0.98641 -1.87264,-1.60908 -0.53944,-0.62267 -0.95096,-1.307 -1.23763,-2.05451 -1.61679,-3.89016 -3.22742,-7.74641 -4.83187,-11.557959 -1.5983,-3.814635 -3.22588,-7.664719 -4.87966,-11.557959 -0.43617,-1.026484 -0.83999,-2.085334 -1.20989,-3.173468 -0.38223,-1.089676 -0.68586,-2.382798 -0.93555,-3.874745 l -0.003,-0.0046 0,0.0046 c -0.24969,1.491947 -0.5564,2.785069 -0.93863,3.874745 -0.37145,1.088134 -0.77372,2.146984 -1.20836,3.173468 -1.65532,3.89324 -3.28135,7.743324 -4.87965,11.557959 -1.60445,3.811549 -3.21816,7.667799 -4.83341,11.557959 -0.28359,0.74751 -0.69665,1.43184 -1.23764,2.05451 -0.5456,0.62267 -1.16673,1.15749 -1.87263,1.60908 -0.6982,0.45468 -1.44571,0.79684 -2.26413,1.02803 -0.80608,0.23427 -1.62757,0.35295 -2.47065,0.35295 l -7.56453,0 c 3.4586,-8.22112 6.88638,-16.394458 10.29412,-24.515392 0,0 10e-4,-0.0031 0.003,-0.0046 l -0.006,0.0046 c 0.094,-0.223484 0.18958,-0.442344 0.2836,-0.667369 3.29831,-7.86046 6.63361,-15.762534 10.00128,-23.713929 -0.5379,-1.242261 -1.17291,-2.723419 -1.70618,-3.945643 -1.63529,-3.737572 -3.26287,-7.487474 -4.87811,-11.255871 l 7.70325,0 c 0.83691,0 1.67381,0.123301 2.50301,0.372987 0.81842,0.254309 1.59367,0.602635 2.30882,1.051143 0.71361,0.453133 1.34399,1.004906 1.88497,1.658403 0.55023,0.653498 0.96175,1.388682 1.24072,2.193223 l 4.26777,9.788585 0.005,0 c 3.48481,8.221117 6.93262,16.392913 10.34344,24.518471 3.4062,8.120934 6.83552,16.294272 10.29412,24.515392 l -7.56453,0 z"
       style="fill:#122657;fill-opacity:1;fill-rule:nonzero;stroke:none"
       id="path86"
       inkscape:connector-curvature="0" /><path
       d="m 55.000789,131.14416 -0.0031,-0.005 c -1.982069,-0.0277 -3.78381,-0.36066 -5.394434,-1.01724 -1.687687,-0.68586 -3.108735,-1.64145 -4.272391,-2.86984 -1.169821,-1.23148 -2.076086,-2.69568 -2.711088,-4.39261 -0.636543,-1.6954 -0.958668,-3.55725 -0.958668,-5.57939 l 0,-3.96876 0,-11.57954 0,-37.497475 12.280813,0 0,31.224522 14.848564,0 0,10.287953 -14.859353,0 -0.03237,7.37959 0,3.68517 0,0.52249 c 0,0.31596 0.02312,0.59801 0.06936,0.85848 0.359115,2.29649 2.17781,2.66177 3.238201,2.66177 l 16.85221,0 c 4.005753,0 5.232601,10.2895 5.232601,10.2895 l -24.290364,0 z"
       style="fill:#ed1c24;fill-opacity:1;fill-rule:nonzero;stroke:none"
       id="path90"
       inkscape:connector-curvature="0" /><path
       d="m 95.895528,131.14416 -0.0031,-0.005 c -1.980528,-0.0277 -3.782269,-0.36066 -5.394433,-1.01724 -1.686146,-0.68586 -3.104112,-1.64145 -4.272392,-2.86984 -1.171363,-1.23148 -2.074545,-2.69568 -2.711088,-4.39261 -0.635002,-1.6954 -0.957127,-3.55725 -0.957127,-5.57939 l 0,-3.96876 0,-11.57954 0,-37.497475 12.282355,0 0,31.224522 14.845477,0 0,10.287953 -14.857807,0 -0.03237,7.37959 0,3.68517 0,0.52249 c 0,0.31596 0.02774,0.59801 0.06782,0.85848 0.359115,2.29649 2.179351,2.66177 3.241284,2.66177 l 16.850663,0 c 4.00575,0 5.23414,10.2895 5.23414,10.2895 l -24.293438,0 z"
       style="fill:#ed1c24;fill-opacity:1;fill-rule:nonzero;stroke:none"
       id="path94"
       inkscape:connector-curvature="0" /><path
       d="m 284.95363,95.205823 c 0.28513,0.736725 0.69357,1.513524 1.2623,2.365844 0.70281,1.029566 1.61833,1.991317 2.71879,2.860593 1.0943,0.8739 2.40592,1.60754 3.8732,2.17781 1.49503,0.57797 3.19659,0.87081 5.05844,0.87081 1.66611,0 3.212,-0.25276 4.58835,-0.74905 1.36094,-0.49321 2.577,-1.1205 3.61736,-1.85877 1.0311,-0.73827 1.905,-1.55822 2.59241,-2.438283 0.68432,-0.892394 1.18677,-1.720054 1.52123,-2.532302 l 0.29592,-0.696652 -25.528,0 z m 37.65623,-3.720618 c -1.34861,12.723155 -12.07583,22.648915 -25.15193,22.648915 -13.96542,0 -25.28911,-11.3206 -25.28911,-25.287564 0,-13.966959 11.32369,-25.289104 25.28911,-25.289104 10.54534,0 19.57408,6.457907 23.37022,15.631527 l -9.13817,-0.01079 c -0.84461,0 -1.66765,-0.12176 -2.47527,-0.351409 -0.81379,-0.23119 -1.56439,-0.574892 -2.26258,-1.031107 -0.336,-0.215777 -0.6535,-0.451591 -0.9525,-0.701276 l -0.0139,-0.01233 c -0.005,-0.0046 -0.0108,-0.01233 -0.0154,-0.01695 -3.31372,-2.67718 -7.35646,-2.888333 -8.33979,-2.888333 -1.94816,0 -3.72062,0.380693 -5.26035,1.129748 -1.52893,0.732102 -2.85442,1.658403 -3.96105,2.746537 -1.10509,1.088135 -1.98207,2.27491 -2.6294,3.524877 -0.63192,1.236096 -1.04652,2.376634 -1.21914,3.389246 l -0.10173,0.602635 34.05583,0 c 2.08688,0.02004 3.02551,0.0786 3.52488,1.052685 0.51478,1.004906 0.85078,2.204012 0.57027,4.862697"
       style="fill:#122657;fill-opacity:1;fill-rule:nonzero;stroke:none"
       id="path98"
       inkscape:connector-curvature="0" /><path
       d="m 199.6029,75.920415 c -7.13762,0 -12.92662,5.788997 -12.92662,12.926604 0,7.139147 5.789,12.926601 12.92662,12.926601 7.13915,0 12.92815,-5.787454 12.92815,-12.926601 0,-7.137607 -5.789,-12.926604 -12.92815,-12.926604 m 0,38.214165 c -13.96697,0 -25.28758,-11.32214 -25.28758,-25.287561 0,-13.968501 11.32061,-25.289105 25.28758,-25.289105 13.9685,0 25.28911,11.320604 25.28911,25.289105 0,13.965421 -11.32061,25.287561 -25.28911,25.287561"
       style="fill:#122657;fill-opacity:1;fill-rule:nonzero;stroke:none"
       id="path102"
       inkscape:connector-curvature="0" /></g></svg>