<!-- Created with Inkscape (http://www.inkscape.org/) -->
<svg xmlns:rdf="http://www.w3.org/1999/02/22-rdf-syntax-ns#" xmlns="http://www.w3.org/2000/svg" height="479.46" width="1083.8" version="1.1" xmlns:cc="http://creativecommons.org/ns#" xmlns:dc="http://purl.org/dc/elements/1.1/">
	<defs></defs>
	<metadata>
		<rdf:RDF>
			<cc:Work rdf:about="">
				<dc:format>image/svg+xml</dc:format>
				<dc:type rdf:resource="http://purl.org/dc/dcmitype/StillImage"/>
				<dc:title/>
			</cc:Work>
		</rdf:RDF>
	</metadata>
	<g transform="translate(25.562,-1646.1)">
		<path d="m526.43,1740.6c0,39.6-32.14,71.8-71.79,71.8s-71.79-32.2-71.79-71.8,32.14-71.8,71.79-71.8,71.79,32.2,71.79,71.8z" transform="matrix(1.19,0,0,1.19,-95.459,-339.75)" fill="#000"/>
		<path fill="#e3001b" d="m-24.252,2025.1s160.86-112.3,253.04-295.6c36.58-72.8,66.62-66.7,84.87-58.5,2.5,1.1,9.7,10.5,12.69,17.6,44.55,105.8-350.6,336.5-350.6,336.5z"/>
		<path fill="#febf00" d="m43.042,2001.2c174.32-101,342.14-177.6,407.17-148.1,45.11,20.5,41.02,50.4,17.11,68.3-30.63,22.5-49.83-7.3-200.07,9.2-101.05,11.1-224.21,70.6-224.21,70.6z"/>
		<path fill-rule="nonzero" style="baseline-shift:baseline;block-progression:tb;color:black;direction:ltr;text-indent:0;text-align:start;enable-background:accumulate;text-transform:none;" fill="#000" d="m608.69,1878.7,14.25,0c19.06,0,30.81,5.5,39.74,13.2,8.1,10.9,11.03,17.5,11.17,27.3-0.39,25.9-6.08,44.4-18.13,58.2-11.68,13.2-33.89,20.2-56.13,20.2h-16.4zm288.97-27.9,23.09,175.6,40.19,0,98.36-175.6-38.1,0-72.67,137.2-16.84-137.2zm-173.11,0,23.09,175.6,40.22,0,98.53-175.6-38.12,0-72.82,137.2-16.87-137.2zm-111.81-0.1c-9.8,0-24.57-0.5-32.52-0.5l-37.13,175.6h49.32c17.33,0,40.78-2.4,53.59-7.3,16.19-6.1,26.77-11.8,36.69-21.6,8.65-9.7,13.91-15.4,20.62-30.8,4.89-13.8,6.4-21.6,6.42-44.9-1.58-25.6-7.17-40.7-21.57-52.9-18.01-17-38.94-18-75.42-17.6z"/>
		<path fill="#000" d="m1023.8,2078.8h-7l-9.7,45.8h12.9c4.5,0,10.6-0.6,14-1.9,4.2-1.6,6.9-3.1,9.5-5.6,2.3-2.6,3.6-4.1,5.4-8.1,1.2-3.6,1.6-5.6,1.6-11.7,0.1-5.8-2.1-10.5-5.4-13.7-4.7-4.4-13.6-4.9-21.3-4.8zm0.4,7.3,3.7,0c4.4,0,8.4,1.5,10.2,3.2,2.1,2.9,3.2,5,3.3,7.6-0.1,6.6-1.8,11.5-4.9,15.1-3.1,3.5-8.9,5.2-14.7,5.2h-4.2zm-86.51-7.5-26.69,46.2,9.16,0,6.18-11.3,17.85,0,1.81,11.3,8.75,0-8.56-46.2zm2.25,10.7,2.94,16.8-12.41,0zm-517.03-11.5h-1.66c-9.44-0.2-18.23,5.9-22.47,14.2-4.22,7.6-5.47,17.5-1.22,25.4,3.1,5.5,9.44,8.2,15.53,8.2,6.47,0.1,12.92-2.5,17.47-7.1,7.15-7.1,10.91-17.9,8.53-27.8-1.25-5.7-5.76-10.4-11.28-12.1-1.59-0.5-3.24-0.8-4.9-0.8zm222.78,0.8-26.69,46.2,9.16,0,6.18-11.3,17.85,0,1.81,11.3,8.75,0-8.56-46.2zm2.25,10.7,2.94,16.8-12.41,0zm321.15-11,0,0.3-0.21,0,0,1-8.5,43.7-0.29,1.5,1.5,0,5.79,0,1.03,0,0.18-1,6.38-33,10.56,33.1,0.28,0.9,0.91,0,7.9,0,1,0,0.32-1,8.46-43.8,0.3-1.4-1.5,0-5.76,0-1,0-0.22,1-6.38,32.7-10.56-32.9-0.28-0.8-0.94,0-7.78,0-1.16-0.3zm-939.31,0.3-9.031,46.2,26.75,0,1.469-7.5-18.281,0,2.593-13.4,16.125,0,1.469-7.4-16.156,0,2.031-10.5,17.75,0,1.438-7.4zm35.844,0-5.437,28.2c-0.202,1-0.336,2-0.438,2.9s-0.156,1.7-0.156,2.4c0,4.1,1.416,7.5,4.218,9.9h0.03c2.824,2.4,6.608,3.6,11.187,3.6,5.81,0,10.572-1.5,14.063-4.5,3.49-3.1,5.782-7.7,6.968-13.8l5.53-28.7h-8.467l-5.344,27.5c-0.87,4.5-2.32,7.7-4.156,9.5-1.821,1.8-4.369,2.7-7.906,2.7-2.709,0-4.575-0.6-5.781-1.7-1.213-1.2-1.844-2.8-1.844-5.3,0-0.5,0.02-1.1,0.09-1.8,0.117-1,0.31-2.1,0.468-2.9l5.438-28zm41.345,0-1.44,7.4,12.47,0-7.5,38.8,8.5,0,7.5-38.8,12.59,0,1.41-7.4zm115.09,0-9,46.2,8.5,0,4.06-20.9,18.91,0-4.06,20.9,8.47,0,9.03-46.2-8.5,0-3.5,17.9-18.91,0,3.5-17.9zm45.1,0-9.04,46.2,26.76,0,1.46-7.5-18.28,0,2.6-13.4,16.15,0,1.47-7.4-16.19,0,2.03-10.5,17.76,0,1.43-7.4zm35.31,0c-3.35,16.3-6.11,32.1-9.03,46.2h8.5c1.2-6.2,2.41-13.2,3.62-19.4h3.44c2.22,0,3.68,0.4,4.5,1.1,0.81,0.7,1.32,3.4,2.16,6.2,1.18,4,1.52,8,2.65,12.1h8.88c-1.35-4.6-1.77-9.1-3.19-13.6-1.1-3.5-1.31-5.8-2.34-7.2-0.38-0.5-1.04-1.4-1.41-1.7,2.05-0.8,5.03-2.4,6.44-4.1,2.01-2.4,3.03-4.5,3.03-7.8,0-3.6-1.25-6.7-3.69-8.8s-5.85-3-10.06-3h-13.44zm149.03,0-8.97,46.2,27.78,0,1.44-7.5-19.28,0,7.5-38.7zm32,0-8.97,46.2,27.78,0,1.44-7.5-19.28,0,7.5-38.7zm32.12,0-9.03,46.2,26.75,0,1.47-7.5-18.28,0,2.59-13.4,16.16,0,1.47-7.4-16.19,0,2.03-10.5,17.75,0,1.44-7.4zm30.29,0,11.28,26.4-3.88,19.8,8.47,0,4.34-19.5,21.76-26.7-9.97,0-14.85,19.2-7.5-19.2zm132.09,0-8.97,46.2,27.78,0,1.44-7.5-19.28,0,7.5-38.7zm32.53,0-8.97,46.2,27.78,0,1.44-7.5-19.28,0,7.5-38.7zm99.66,0-9.03,46.2,26.75,0,1.47-7.5-18.29,0,2.6-13.4,16.12,0,1.47-7.4-16.16,0,2.04-10.5,17.75,0,1.43-7.4zm34.28,0c-3.35,16.3-6.11,32.1-9.03,46.2h8.5c1.2-6.2,2.41-13.2,3.62-19.4h3.44c2.22,0,3.68,0.4,4.5,1.1,0.81,0.7,1.32,3.4,2.16,6.2,1.18,4,1.52,8,2.65,12.1h8.88c-1.35-4.6-1.77-9.1-3.19-13.6-1.1-3.5-1.31-5.8-2.34-7.2-0.38-0.5-1.04-1.4-1.41-1.7,2.05-0.8,5.03-2.4,6.44-4.1,2.01-2.4,3.03-4.5,3.03-7.8,0-3.6-1.25-6.7-3.69-8.8s-5.85-3-10.06-3h-13.44zm-644.47,0.1c-2.77,0-5.43,0.3-7.41,0.9-6.27,2-10.91,5.9-13.97,11.4-2.43,4.5-2.84,6.4-2.84,12.7,0,8.2,1.34,11.7,6.1,16.2,1.56,1.5,3.96,3.2,5.34,3.7,6.22,2.3,13.97,0.8,18.44-1l1.37-7.5c-11.06,4.3-14.03,1.1-16.41-0.2-8.23-6.6-7.49-18,1.1-25.6,6.85-5,16.96-2.9,20.59-1.3l1.5-7.2c-1.08-1.1-7.71-2.2-13.81-2.1zm-39.81,0c-2.15,0-4.3,0.2-6.35,0.4-7.89,1.5-12.69,9.2-10.31,16.4,2.41,4.3,3.95,5.4,7,7.6,7.06,4.7,8.68,7.5,6.35,11-2.23,3.4-7.34,4.2-13.32,2.2l-5.15-1.4-1.5,7.2c3.79,1.9,7.46,2.6,11.81,2.5,11.16,0.2,17.44-4.2,18.25-12.7,0.6-6.1-1.41-10.2-6.5-13.3-9.45-4.5-10.28-8.5-5.75-11.5,3.41-2.1,9.71-1,14.09,0.5l1.47-7.2c-2.95-1.2-6.51-1.7-10.09-1.7zm-169.03,0.1h-7.0312l-9.687,45.8h12.874c4.5135,0,10.631-0.6,13.969-1.9,4.2191-1.6,6.9433-3.1,9.5308-5.6,2.254-2.6,3.627-4.1,5.376-8.1,1.272-3.6,1.588-5.6,1.593-11.7,0.105-5.8-2.102-10.5-5.343-13.7-4.6955-4.4-13.622-4.9-21.282-4.8zm0.375,7.3,3.7188,0c4.316,0,8.3245,1.5,10.188,3.2,2.111,2.9,3.214,5,3.25,7.6-0.102,6.6-1.7662,11.5-4.9063,15.1-3.044,3.5-8.831,5.2-14.625,5.2h-4.25zm363.78-7.6,6.1,46.2,10.59,0,25.94-46.2-10.06,0-19.16,36-4.44-36zm406.66,0.1,6.06,46.2,10.59,0,25.97-46.2-10.06,0-19.15,36-4.47-36zm-340.09,6.5c4.04,0,7.91,3.1,8.59,7.1,1.5,6.2-0.38,12.8-3.53,18.3-2.71,4.5-7.58,7.9-12.97,7.8-3.74,0.2-7.88-1.6-9.16-5.4-2.26-5.6-0.94-12,1.47-17.3,2.38-5.3,7.15-10.1,13.22-10.4,0.53-0.1,1.06-0.1,1.59-0.1h0.79zm-112.38,0.8,5.5,0c2.12,0,3.53,0.5,4.47,1.4,0.96,0.9,1.47,2.1,1.47,3.9,0,2.4-0.74,3.2-2.35,4.7-1.58,1.4-3.65,2-6.4,2.1h-5.19zm542,0,5.5,0c2.12,0,3.53,0.5,4.47,1.4,0.96,0.9,1.47,2.1,1.47,3.9,0,2.4-0.74,3.2-2.35,4.7-1.58,1.4-3.65,2-6.4,2.1h-5.19zm-115.72,17.5-1.47,7.4,18.38,0,1.37-7.4zm-143.37-24.8-9,46.2h14.93c5.83,0,10.58-1.4,14.1-4.1,3.53-2.8,5.34-6.7,5.34-11.5,0-4-2.9-6.4-6.9-7.7,7.08-2.6,8.98-8.3,8.4-12.5,0-3.4-1.77-6.1-4.12-7.9-2.36-1.8-5.86-2.5-10.75-2.5zm12,7.2c3.11,0.1,6.13,1.2,6.87,4.4,0.14,3.2-3,7-6.72,6.7h-7.31l2.09-11h3.72c0.44,0,0.9-0.1,1.35-0.1zm-8.57,18.4,4.43,0c4.95-0.2,8.7,0.5,8.81,5.8,0,2.8-0.82,3.9-2.46,5.2-1.64,1.4-4.06,2.2-7.44,2.2h-6zm288.57-25.6-9,46.2h14.93c5.83,0,10.58-1.4,14.1-4.1,3.53-2.8,5.34-6.7,5.34-11.5,0-4-2.9-6.4-6.9-7.7,7.08-2.6,8.98-8.3,8.4-12.5,0-3.4-1.77-6.1-4.12-7.9-2.36-1.8-5.86-2.5-10.75-2.5zm12,7.2c3.11,0.1,6.13,1.2,6.87,4.4,0.14,3.2-3,7-6.72,6.7h-7.31l2.09-11h3.72c0.44,0,0.9-0.1,1.35-0.1zm-8.57,18.4,4.43,0c4.95-0.2,8.7,0.5,8.81,5.8,0,2.8-0.82,3.9-2.46,5.2-1.64,1.4-4.06,2.2-7.44,2.2h-6z"/>
	</g>
</svg>
