<?xml version="1.0" encoding="UTF-8" standalone="no"?>
<svg height="371.39368" viewBox="0 0 105.83333 98.26458" width="400" xmlns="http://www.w3.org/2000/svg">
  <g transform="matrix(.11158013 0 0 .11158013 -13.408584 .84647)">
    <g fill="#fefefe">
      <path d="m1002.36 68.41c10.54-5.96 20.36-13.08 29.76-20.67-4.09 13.54-9.9 26.71-18.16 38.25-8.13 11.1-18.97 19.82-29.97 27.91-14.24 10.23-30.5 17.64-47.56 21.67-23.97 6.03-48.83 6.75-73.41 7.18-54.46-.15-108.76-4.63-163.01-8.85-31.96-2.47-63.95-4.8-96.02-4.73-36.08-.47-72.22 1.52-107.87 7.15-28.18 4.99-56.46 12.18-81.52 26.41-17.58 9.94-33.39 24.04-42.53 42.3-8.08 15.63-10.47 33.54-10.63 50.94-.41 17.99 3.99 35.87 11.49 52.16 2.49 6.13 5.88 11.85 8.39 17.98-15.77-11.23-28.82-26.26-38.28-43.12-12.89-22.92-17.92-49.98-14.9-76.04 2.13-23.02 9.97-45.93 25.05-63.73 19.88-23.77 48.8-37.78 77.98-46.55 34.67-10.38 70.87-14.29 106.88-16.28 76.18-3.82 152.22 3.91 228.08 9.77 39.58 2.72 79.13 6.31 118.83 6.38 19.46.02 39.01-.98 58.13-4.75 21.06-3.79 41.13-12.13 59.27-23.38z"/>
      <path d="m637.89 181.31c25.62-14.87 51.06-30.03 76.7-44.86-26.04 112.93-52.76 225.71-78.95 338.61-5.31 21.96-9.56 44.3-18.04 65.34-7.89 19.78-18.4 38.7-32.53 54.74-20.7 23.83-49.59 41.31-81.16 45.4 2.16-2.98 5.11-5.25 7.42-8.09 12.14-14.51 20.86-31.51 28.1-48.89 6.63-16.03 11.65-32.69 15.9-49.5 27.56-117.57 55.02-235.17 82.56-352.75z"/>
    </g>
    <path d="m998.95 39.96c18.17-10.07 35.92-21.31 51.02-35.69 4.4 13.78 6.55 28.3 6.84 42.75-.74 36.85-11.69 74.11-34.14 103.67-18.69 24.89-45.52 43.02-74.77 53.19-41.51 14.78-86.48 15.71-129.94 11.96-6.94-.36-13.84-1.22-20.78-1.4-4.78 22.24-10.32 44.31-15.36 66.49-15.57 66.42-31.1 132.84-46.64 199.26-4.83 20.24-9.34 40.56-14.32 60.77-9.16 37.33-30.23 71.75-59.86 96.33-31.2 25.86-71.25 41.82-111.99 41.65-9.4-.15-18.84-.77-27.98-3.04-21.91-5.15-43.75-11.64-63.64-22.37-3.3-1.97-6.85-3.68-9.6-6.43 14.83-4.89 26.95-15.53 37.08-27.1 13.05-15.36 22.64-33.39 29.92-52.1 7.13-17.89 11.75-36.63 15.97-55.37 24.48-104.47 48.88-208.96 73.37-313.43-28.2-1.32-56.58-1.59-84.6 2.25-27.05 3.38-54.47 9.86-77.86 24.4-15.81 9.7-28.91 24.3-35.07 41.96-10.59 32.13-5.02 68.46 12.21 97.26-15.52-4.54-30.46-11.2-44.48-19.27-23.44-14.16-43.32-34.38-56.58-58.39-14.69-26.77-19.99-58.22-16.39-88.44 1.71-13.49 4.04-27.03 8.92-39.79 9.55-26.61 29.19-48.75 52.8-63.91 27.43-17.79 59.16-27.53 90.93-34.15 23.45-4.49 47.18-7.55 71.02-8.93 44.29-3.08 88.74-1.8 133.02.87 41.99 2.82 83.95 6.15 125.94 9.07 34.28 2.63 68.64 4.81 103.04 4.87 21.15-.19 42.51-1.18 63.08-6.53 17.31-4.02 33.23-12.17 48.84-20.41m3.41 28.45C984.22 79.66 964.15 88 943.09 91.79c-19.12 3.77-38.67 4.77-58.13 4.75-39.7-.07-79.25-3.66-118.83-6.38-75.86-5.86-151.9-13.59-228.08-9.77-36.01 1.99-72.21 5.9-106.88 16.28-29.18 8.77-58.1 22.78-77.98 46.55-15.08 17.8-22.92 40.71-25.05 63.73-3.02 26.06 2.01 53.12 14.9 76.04 9.46 16.86 22.51 31.89 38.28 43.12-2.51-6.13-5.9-11.85-8.39-17.98-7.5-16.29-11.9-34.17-11.49-52.16.16-17.4 2.55-35.31 10.63-50.94 9.14-18.26 24.95-32.36 42.53-42.3 25.06-14.23 53.34-21.42 81.52-26.41 35.65-5.63 71.79-7.62 107.87-7.15 32.07-.07 64.06 2.26 96.02 4.73 54.25 4.22 108.55 8.7 163.01 8.85 24.58-.43 49.44-1.15 73.41-7.18 17.06-4.03 33.32-11.44 47.56-21.67 11-8.09 21.84-16.81 29.97-27.91 8.26-11.54 14.07-24.71 18.16-38.25-9.4 7.59-19.22 14.71-29.76 20.67m-364.47 112.9c-27.54 117.58-55 235.18-82.56 352.75-4.25 16.81-9.27 33.47-15.9 49.5-7.24 17.38-15.96 34.38-28.1 48.89-2.31 2.84-5.26 5.11-7.42 8.09 31.57-4.09 60.46-21.57 81.16-45.4 14.13-16.04 24.64-34.96 32.53-54.74 8.48-21.04 12.73-43.38 18.04-65.34 26.19-112.9 52.91-225.68 78.95-338.61-25.64 14.83-51.08 29.99-76.7 44.86z" fill="#eb008b"/>
    <g fill="#221e1f">
      <path d="m898.01 305.31c34.45-8.98 68.74-18.58 103.15-27.73.96 5.41 3.09 10.56 3.86 16.01-11.57 7.43-22.63 15.66-33.98 23.44-8.29 5.91-16.83 11.46-24.92 17.63 21.8-6.2 43.76-11.83 65.59-17.91 1.03 4.43 2.37 8.78 3.5 13.19-34.25 9.36-68.59 18.4-102.8 27.9-1.5-5.33-3.34-10.61-4.23-16.08 20.37-13.59 40.53-27.56 60.73-41.4-22.45 6-44.83 12.24-67.3 18.12-1.09-4.42-2.31-8.81-3.6-13.17z"/>
      <path d="m150.87 290.45c30.28 6.37 60.44 13.37 90.76 19.54 1.28-6.25 2.8-12.44 3.99-18.71 4.57.79 9.03 2.07 13.59 2.92-3.94 17.58-7.73 35.2-11.53 52.81-4.55-.48-8.95-1.78-13.44-2.59 1.3-6.54 2.7-13.06 4.1-19.58-29.14-6.36-58.27-12.74-87.43-19.01-1.2-.2-2.34-.64-3.42-1.18 1.47-4.65 2.17-9.49 3.38-14.2z"/>
      <path d="m162.01 376.97c26-.08 51.99-.68 77.99-.98-.18 5.08.36 10.18-.22 15.25-26.93 0-53.87.33-80.79.86-4.62-.14-9.33 2.27-11.62 6.34-2.73 4.63-1.63 11.16 2.59 14.55 2.74 2.44 6.49 3.45 10.1 3.28 7.31-.11 14.62.07 21.92-.41 19.49-.2 38.99-.34 58.48-.55.07 4.92.05 9.85.28 14.78-27.91.58-55.84 1.06-83.76.97-8.06-.52-15.73-5-20.24-11.68-7.42-10.77-6.09-27 4.06-35.6 5.7-5.26 13.67-6.9 21.21-6.81z"/>
      <path d="m1007.7 384.66c4.55-.2 9.11-.23 13.63-.89 1.18 16.6 2.12 33.2 3.29 49.78-35.52 1.98-70.99 4.44-106.48 6.75-.81-16.57-2.3-33.11-3.07-49.69 4.59-.16 9.17-.5 13.75-.88.56 11.51 1.36 23 2.22 34.49 10.63-.52 21.24-1.37 31.88-1.85-.68-7.68-.81-15.39-1.58-23.06 4.6-.31 9.22-.49 13.84-.73.44 7.65 1.02 15.29 1.4 22.95 11.11-.9 22.25-1.26 33.35-2.25-.92-11.53-1.42-23.09-2.23-34.62z"/>
      <path d="m204.37 475.42c4.91-5.43 12.25-8.64 19.58-8.37 8.49-.03 16.68 4.69 21.32 11.73 3.94 5.86 5.11 13.46 3.31 20.28-2.34 8.71-9.84 15.37-18.29 18.02-1.13-4.71-2.63-9.33-3.61-14.07 3.8-2.01 7.56-5.39 7.61-10.02.35-6.42-6.07-11.81-12.29-10.87-2.82.57-5.6 2-7.15 4.5-7.76 11.95-15.43 23.96-23.19 35.91-6.49 10.32-20.54 14.65-31.87 10.53-8.33-2.89-15.07-9.96-17.3-18.52-3.21-11.48 2.55-24.4 12.74-30.33 3.43-2.15 7.39-3.19 11.26-4.2 1.11 4.94 2.78 9.75 3.85 14.71-3.64.69-7.48 1.69-10.12 4.48-4.88 4.66-4.32 13.48.94 17.63 5.29 4.21 14.29 3.3 17.98-2.6 5.97-9.12 11.65-18.43 17.56-27.59 2.48-3.79 4.58-7.87 7.67-11.22z"/>
      <path d="m913.62 481.67c6.14-5.48 14.73-7.24 22.75-6.67-.72 4.97-1.91 9.86-2.77 14.81-3.52-.07-7.33.2-10.22 2.42-5.16 3.66-6.46 11.88-2.45 16.83 2.7 3.44 7.11 4.7 11.25 5.37 15.32 2.65 30.52 5.96 45.83 8.66 4.25.7 8.6 2.09 12.93 1.15 6.83-1.38 10.91-9.9 7.95-16.15-1.49-3.75-5-6.52-8.95-7.24-7.33-1.62-14.73-2.86-22.09-4.33-.84 4.02-1.56 8.07-2.42 12.09-4.44-1.09-8.98-1.72-13.42-2.77 1.65-8.91 3.48-17.78 5.2-26.68 10.28 1.94 20.5 4.15 30.81 5.93 8.54 1.23 17.05 5.64 21.54 13.26 6.95 10.86 4.64 26.59-5.15 34.97-6.68 5.67-16.05 7.27-24.48 5.5-14.68-3-29.45-5.5-44.12-8.5-7.26-1.55-15.24-1.98-21.16-7.02-12.93-9.73-12.95-31.11-1.03-41.63z"/>
      <path d="m242.08 552.89c8.39-3.71 18.75-2.58 26.08 2.96 7.89 5.83 12.24 16.55 9.43 26.14-1.84 6.88-6.74 12.49-12.47 16.51-2.48-4.18-4.64-8.52-7.15-12.67 2.86-2.9 5.83-6.53 5.05-10.91-.49-7.33-9.86-11.79-15.94-7.75-4.4 2.24-5.09 7.54-6.61 11.72-3.14 8.84-5.97 17.8-9.1 26.65-1.64 4.54-2.66 9.42-5.47 13.44-4.62 6.92-12.6 11.24-20.8 12.02-7.98.51-16.3-2.4-21.79-8.3-4.35-4.44-6.8-10.55-7.33-16.69-.79-11.89 6.93-23.54 17.95-27.85 2.76 3.88 5.17 8.45 7.15 12.83-2.28 1.8-5.19 2.81-7.06 5.14-4.11 4.45-3.81 12.12.5 16.35 4.9 5.24 14.41 4.27 18.57-1.44 2.45-3.69 3.17-8.16 4.66-12.26 3.56-10.23 6.67-20.61 10.3-30.82 2.29-6.69 7.49-12.36 14.03-15.07z"/>
      <path d="m888.02 551.93c22.24 10.21 44.37 20.65 66.55 30.99.26-.12.79-.36 1.05-.48 1.08 1.96 3.35 2.47 5.24 3.4 7.93 3.62 15.77 7.44 23.72 11.03-2.24 4.87-4.2 10.03-7.02 14.55-12.87-1.08-25.73-2.22-38.59-3.4-1.3-.16-2.56.01-3.81.19l.31-.47c-9.69-.96-19.38-1.86-29.07-2.77 20.08 10.12 40.79 19.04 61.03 28.88-1.98 4.06-3.83 8.19-5.72 12.29-20.61-9.77-41.37-19.24-61.99-28.98-11.59-5.25-22.96-10.95-34.63-15.99 2.23-5.04 4.64-10.01 6.96-15.02 24.34 2.68 48.73 5.12 73.12 7.39-20.96-9.75-41.86-19.67-62.91-29.23 1.84-4.16 3.87-8.24 5.76-12.38z"/>
      <path d="m223.42 687.38c26.7-23.42 53.24-47.03 79.75-70.66 3.42 3.7 6.83 7.4 10.05 11.27-26.65 23.5-53.06 47.28-79.84 70.63-3.26-3.8-6.57-7.55-9.96-11.24z"/>
      <path d="m841.34 628.45c28.35 21.48 56.4 43.36 84.79 64.79-2.93 4.11-6.2 7.96-9.14 12.06-28.18-21.72-56.58-43.17-84.66-65.01 3.09-3.88 6.27-7.7 9.01-11.84z"/>
      <path d="m272.85 742.81c21.6-28.24 43.24-56.46 64.93-84.63 13.05 10.16 26.17 20.25 39.4 30.19-2.86 3.66-5.5 7.51-8.63 10.97-8.98-7.2-18.19-14.11-27.37-21.06-6.3 8.6-13.1 16.84-19.31 25.5 6.14 4.51 12.19 9.16 18.17 13.88-2.88 3.54-5.63 7.19-8.33 10.87-6.09-4.71-12.2-9.4-18.38-14-6.6 8.94-13.49 17.67-20.24 26.49 9.22 6.95 18.34 14.04 27.5 21.08-2.92 3.47-5.2 7.7-8.59 10.66-13.1-9.91-26.07-20.02-39.15-29.95z"/>
      <path d="m768.35 699.61c12.78-11.32 25.47-22.76 38.35-33.96 3.43 4.83 9.11 8.34 10.36 14.44 7.95 26.23 16.67 52.24 24.28 78.56 9.53-7.89 18.65-16.29 27.85-24.56 3.16 3.41 6.26 6.9 9.24 10.5-11.14 9.38-21.81 19.31-32.79 28.87-2.76 2.21-5 5.16-8.23 6.71-2.05-2.78-4.48-5.23-6.77-7.78-3.08-3.02-3.41-7.54-4.76-11.41-7.76-24.55-15.19-49.2-23.02-73.72-8.35 7.61-16.94 14.95-25.26 22.57-3.16-3.34-6.1-6.87-9.25-10.22z"/>
      <path d="m696.97 735.99c16.19-7.98 32.23-16.28 48.28-24.54 2.3 3.91 4.08 8.1 6.44 11.99-5.73 3.54-12.02 6.05-17.87 9.37 14.09 27.37 28.06 54.82 42 82.27-3.9 2.83-8.73 5.01-13.26 6.97-14.16-27.48-27.91-55.17-42.3-82.53-5.59 3.12-11.34 5.94-17.05 8.82-2.08-4.12-4.11-8.26-6.24-12.35z"/>
      <path d="m403.1 716.73c10.38-4.53 23.72-1.55 30.49 7.73 5.62 7.27 5.59 17.18 3.24 25.68-4.71-1.29-8.98-3.78-13.54-5.47.58-3.99.71-8.62-2.35-11.7-3.69-4.11-10.52-4.37-14.61-.72-3.05 2.5-4.53 6.86-3.38 10.67 3.05 10.07 6.71 19.95 9.87 29.99 1.98 6.59 5.44 13.01 4.91 20.1-.27 9.76-6.39 19.09-15.11 23.44-7.44 3.83-16.74 3.98-24.21.16-6.56-3.26-11.58-9.36-13.67-16.36-2.45-7.6-1.04-15.97 2.68-22.91l.52-.17c4.55 1.81 9.19 3.57 13.44 6.05-2.19 3.8-3.64 8.38-2.28 12.73 1.63 5.76 8.16 9.49 13.96 8.06 6.73-1.43 11.63-9.42 9-15.96-4.54-13.69-9.42-27.27-13.9-40.97-3.42-12 3.49-25.63 14.94-30.35z"/>
      <path d="m621.96 754.26c16-3.85 31.95-7.92 47.97-11.68.81 4.49 2.06 8.89 3.21 13.31-11.21 2.81-22.47 5.43-33.69 8.22 2.61 10.35 4.89 20.8 7.69 31.11 7.31-2.08 14.75-3.61 22.08-5.57 1.11 4.51 2.4 8.98 3.25 13.55-7.49 1.41-14.79 3.63-22.21 5.35 2.68 10.76 5.41 21.52 7.94 32.32 11.29-2.5 22.45-5.59 33.74-8.14 1.05 4.49 2.48 8.92 2.94 13.53-16.01 3.66-31.97 7.62-47.88 11.71-7.31-29.24-14.33-58.55-21.61-87.8-.86-5.35-3.17-10.57-3.43-15.91z"/>
      <path d="m517.74 754.57c6.15-.01 12.3.06 18.45.1 5.55 24.48 11.94 48.77 17.28 73.28 1.55-3.79 2.17-7.87 3.19-11.81 5.23-20.47 10.37-40.96 15.5-61.45 5.95.02 11.9.02 17.85 0 .01 35.5-.06 70.99.01 106.48-5.11.08-10.22.05-15.33.02.26-20.68-.13-41.39.4-62.05-5.55 20.54-10.41 41.28-15.25 62.01-4.65-.06-9.29.07-13.94-.04-.91-1.08-.81-2.67-1.24-3.95-4.2-18.1-8.94-36.06-13.03-54.19-.66 3.99-.3 8.04-.34 12.07-.01 15.37-.1 30.74-.02 46.1-4.57-.03-9.14-.04-13.71.02.18-35.53.13-71.06.18-106.59z"/>
    </g>
  </g>
</svg>
