<?xml version="1.0" encoding="UTF-8"?>
<!DOCTYPE svg PUBLIC "-//W3C//DTD SVG 1.1//EN" "http://www.w3.org/Graphics/SVG/1.1/DTD/svg11.dtd">
<!-- Creator: CorelDRAW -->
<svg xmlns="http://www.w3.org/2000/svg" xml:space="preserve" width="91.706mm" height="86.6715mm" version="1.1" style="shape-rendering:geometricPrecision; text-rendering:geometricPrecision; image-rendering:optimizeQuality; fill-rule:evenodd; clip-rule:evenodd"
viewBox="0 0 7488.63 7077.52"
 xmlns:xlink="http://www.w3.org/1999/xlink"
 xmlns:xodm="http://www.corel.com/coreldraw/odm/2003">
 <defs>
  <style type="text/css">
   <![CDATA[
    .fil0 {fill:#F37341;fill-rule:nonzero}
    .fil1 {fill:#424F9B;fill-rule:nonzero}
   ]]>
  </style>
 </defs>
 <g id="Capa_x0020_1">
  <metadata id="CorelCorpID_0Corel-Layer"/>
  <polygon class="fil0" points="-0,4943.96 3711.21,4943.96 3711.21,1135.28 -0,1135.28 "/>
  <polygon class="fil1" points="3711.21,4943.96 7422.43,4943.96 7422.43,1135.28 3711.21,1135.28 "/>
  <polygon class="fil1" points="4.1,7050.67 4.1,5147.51 935.54,5147.51 935.54,5526.35 390.93,5526.35 390.93,5902.24 838.83,5902.24 838.83,6290.01 390.93,6290.01 390.93,6671.83 1011.88,6671.83 1011.88,7050.67 "/>
  <polygon class="fil1" points="1083.14,7050.67 1477.59,7050.67 1477.59,5147.51 1083.14,5147.51 "/>
  <path class="fil1" d="M2472.61 7062.63l-323.19 0 -592.98 -1915.13 404.67 0 254.48 838.24c38.17,125.28 76.38,280.41 106.88,423.58l5.1 0c30.53,-140.19 68.71,-295.3 106.87,-423.58l254.52 -838.24 371.56 0 -587.91 1915.13z"/>
  <polygon class="fil1" points="3141.93,7050.67 3536.37,7050.67 3536.37,5147.51 3141.93,5147.51 "/>
  <path class="fil0" d="M4182.77 7077.52c-183.25,0 -358.83,-62.66 -455.54,-131.26l-38.18 -432.52c132.32,107.37 305.39,181.95 468.27,181.95 139.98,0 229.05,-74.59 229.05,-190.94 0,-110.35 -58.54,-172.98 -208.71,-220.72 -318.12,-101.4 -465.7,-307.26 -465.7,-596.58 0,-316.19 201.04,-569.75 552.24,-569.75 185.77,0 341.02,62.63 407.19,107.37l-71.27 372.92c-66.14,-44.8 -195.95,-98.46 -307.92,-98.46 -137.44,0 -201.05,71.58 -201.05,164.05 0,95.44 68.71,146.21 193.42,187.91 310.48,101.44 496.27,289.37 496.27,626.45 0,366.89 -203.62,599.58 -598.07,599.58z"/>
  <path class="fil0" d="M5335.62 7077.52c-183.25,0 -358.83,-62.66 -455.54,-131.26l-38.2 -432.52c132.34,107.37 305.45,181.95 468.3,181.95 139.97,0 229.05,-74.59 229.05,-190.94 0,-110.35 -58.53,-172.98 -208.71,-220.72 -318.12,-101.4 -465.7,-307.26 -465.7,-596.58 0,-316.19 201.05,-569.75 552.24,-569.75 185.77,0 341.05,62.63 407.19,107.37l-71.27 372.92c-66.14,-44.8 -195.92,-98.46 -307.92,-98.46 -137.44,0 -201.02,71.58 -201.02,164.05 0,95.44 68.68,146.21 193.39,187.91 310.48,101.44 496.27,289.37 496.27,626.45 0,366.89 -203.61,599.58 -598.07,599.58z"/>
  <path class="fil0" d="M6753.11 5908.19c-15.26,-50.71 -35.6,-113.37 -48.33,-176l-5.1 0c-12.73,62.63 -30.53,128.29 -45.8,176l-109.44 351.98 318.13 0 -109.45 -351.98zm343.59 1142.49l-134.88 -429.54 -516.63 0 -134.88 429.54 -371.59 0 638.81 -1918.06 272.28 0 638.81 1918.06 -391.93 0z"/>
  <polygon class="fil1" points="488.08,954.46 488.08,585.23 188.67,585.23 188.67,954.46 0.03,954.46 0.03,23.36 188.67,23.36 188.67,389.65 488.08,389.65 488.08,23.36 676.72,23.36 676.72,954.46 "/>
  <path class="fil1" d="M1092.89 395.5c-7.31,-24.8 -17.03,-55.45 -23.13,-86.1l-2.42 0c-6.11,30.65 -14.62,62.74 -21.93,86.1l-52.34 172.21 152.16 0 -52.35 -172.21zm164.3 558.96l-64.5 -210.16 -247.05 0 -64.5 210.16 -177.71 0 305.5 -938.41 130.21 0 305.48 938.41 -187.42 0z"/>
  <path class="fil1" d="M2104.23 964.68l-305.47 -399.91c-49.89,-65.62 -104.69,-141.53 -147.3,-204.27l-2.41 1.44c2.41,65.69 3.66,135.72 3.66,195.57l0 396.95 -181.37 0 0 -931.09 152.16 0 267.73 348.81c37.78,49.6 93.72,122.6 129.04,178.03l2.41 -1.47c-2.41,-56.89 -4.86,-115.29 -4.86,-173.68l0 -351.68 182.56 0 0 941.32 -96.14 0z"/>
  <path class="fil1" d="M2520.42 208.68l-60.84 0 0 561.92 60.84 0c133.86,0 244.62,-93.45 244.62,-280.24 0,-186.82 -109.55,-281.68 -244.62,-281.68zm18.23 745.78l-261.66 0 0 -931.09 261.66 0c222.76,0 416.26,175.15 416.26,465.53 0,288.97 -192.29,465.56 -416.26,465.56z"/>
  <path class="fil1" d="M3263.99 545.85l-86.43 0 0 243.71 86.43 0c57.21,0 115.63,-36.5 115.63,-121.14 0,-83.16 -57.21,-122.57 -115.63,-122.57zm-30.45 -354.68l-55.98 0 0 191.19 55.98 0c45.05,0 86.42,-27.71 86.42,-94.86 0,-68.56 -41.37,-96.33 -86.42,-96.33zm62.08 763.28l-287.24 0 0 -931.09 254.39 0c120.5,0 227.58,94.86 227.58,246.59 0,55.51 -23.13,125.52 -64.5,153.28 68.16,26.25 135.1,122.61 135.1,240.77 0,181.01 -119.28,290.45 -265.34,290.45z"/>
  <path class="fil1" d="M4008.79 202.87c-116.84,0 -226.37,113.82 -226.37,287.5 0,173.68 109.53,287.5 226.37,287.5 115.64,0 226.38,-113.82 226.38,-287.5 0,-173.68 -110.74,-287.5 -226.38,-287.5zm0 773.51c-214.21,0 -418.68,-188.28 -418.68,-488.92 0,-297.73 203.27,-487.46 418.68,-487.46 214.22,0 417.48,188.26 417.48,487.46 0,299.17 -202.06,488.92 -417.48,488.92z"/>
  <polygon class="fil1" points="4479.71,954.46 4479.71,23.36 4668.35,23.36 4668.35,769.11 4960.45,769.11 4960.45,954.46 "/>
  <path class="fil0" d="M5527.59 256.85c-36.53,-26.27 -96.13,-48.17 -160.66,-48.17 -137.52,0 -248.29,110.91 -248.29,283.12 0,170.75 109.56,284.59 256.83,284.59 64.53,0 121.7,-14.58 161.9,-40.82l-15.85 196.99c-41.36,23.36 -97.36,35.03 -176.5,35.03 -200.76,0 -416.22,-163.45 -416.22,-478.69 0,-315.24 216.63,-480.16 416.22,-480.16 96.15,0 171.61,24.83 217.87,56.92l-35.28 191.2z"/>
  <polygon class="fil0" points="5616.37,954.46 5616.37,23.36 5805,23.36 5805,769.11 6097.11,769.11 6097.11,954.46 "/>
  <path class="fil0" d="M6456.14 974.88c-185.01,0 -335.93,-129.86 -335.93,-354.65l0 -596.86 188.67 0 0 580.82c0,110.94 59.63,175.15 149.71,175.15 88.85,0 149.69,-64.21 149.69,-175.15l0 -580.82 185.03 0 0 596.86c0,223.32 -150.96,354.65 -337.16,354.65z"/>
  <path class="fil0" d="M7125.45 545.85l-86.42 0 0 243.71 86.42 0c57.19,0 115.66,-36.5 115.66,-121.14 0,-83.16 -57.27,-122.57 -115.66,-122.57zm-30.42 -354.68l-56 0 0 191.19 56 0c45.05,0 86.39,-27.71 86.39,-94.86 0,-68.56 -41.34,-96.33 -86.39,-96.33zm62.08 763.28l-287.27 0 0 -931.09 254.4 0c120.47,0 227.58,94.86 227.58,246.59 0,55.51 -23.1,125.52 -64.47,153.28 68.1,26.25 135.08,122.61 135.08,240.77 0,181.01 -119.3,290.45 -265.32,290.45z"/>
  <path class="fil0" d="M6276.3 1614.7l16.42 0c8.61,3.51 16.88,8.26 25.78,10.34 90.54,21.06 181.98,38.86 251.35,109.91 10.22,10.49 32.41,10.49 49.4,12.99 108.97,16.05 218.1,31.46 324.4,46.69 5.56,94.26 12.16,185.43 15.44,276.73 0.75,20.83 -10.66,41.88 -15.18,63.09 -2.65,12.65 -8.04,28.55 -3.11,38.37 21.98,43.41 49.69,87.87 101.2,93.91 48.08,5.62 70.61,32.73 91.21,69.05 5.79,10.29 15.52,18.38 23.45,27.45l0 8.24c-73.38,89.16 -147.64,177.6 -219.37,268.11 -12.65,15.96 -18.36,40.05 -20.72,61.13 -6.48,57.36 -23.53,80.98 -81.04,87.69 -48.65,5.73 -98.32,2.13 -147.2,6.39 -48.55,4.21 -96.97,11.46 -144.77,21.03 -11.81,2.37 -26.21,17 -30.25,29.07 -23.36,69.66 -48.51,138.65 -41.71,215.13 3.32,37.51 -3.94,76.29 -8.96,114.17 -6.83,51.27 -14.26,102.69 -25.47,153.14 -2.96,13.36 -19.67,32.17 -31.72,33.53 -40.56,4.41 -62.94,26.79 -80.63,60.3 -17.52,33.13 -43.07,51.13 -84.72,53 -57.07,2.53 -114,13.62 -170.4,24.08 -17.11,3.14 -43.21,13.28 -46.61,25.46 -17.57,62.83 -60.84,71.73 -115.83,66.14 -18.81,-1.9 -38.31,3.43 -57.41,2.6 -23.57,-1.04 -31.69,10.83 -32.35,31.68 -1.18,39.73 -1.12,79.48 -3.85,119.12 -2.77,39.92 -15.65,73.83 -57.13,91.64 -37.88,16.22 -60.12,47.22 -65.19,88.38 -4.24,33.87 -11.55,68.56 -8.27,102.01 12.16,124.82 -25.18,243.91 -37.62,365.79 -2.51,24.64 -13.91,33.24 -39.78,35.61 -33.1,2.93 -65.28,15.52 -98.2,22.24 -32.75,6.62 -65.8,12.32 -99.01,15.61 -7.46,0.74 -22.82,-9.82 -23.16,-15.81 -2.92,-54.18 -43.82,-78.93 -79.08,-109.12 -12.53,-10.75 -25.64,-26.19 -28.9,-41.51 -18.29,-85.88 -105.66,-131.97 -180.21,-89.88 -57.39,32.38 -112.38,47.8 -172.82,8.56 -13.08,-8.5 -31.29,-8.96 -46.96,-13.71 -27.4,-8.33 -60.78,-10.03 -80.63,-27.26 -33.85,-29.47 -67.7,-26.7 -106.33,-22.06 -66.35,7.92 -85.13,22.12 -101.52,85.19 -3.11,11.9 -6.02,23.91 -10.11,35.46 -21.78,61.94 -79.02,75.71 -130.44,32.18 -54.36,-46.04 -108.2,-92.82 -164.46,-136.4 -18.38,-14.26 -43.56,-26.77 -65.97,-27.34 -47.93,-1.27 -85.24,-18.27 -121.19,-48.86 -20.48,-17.43 -26.53,-28.87 -14.2,-53.47 27.57,-55.02 53.93,-110.74 77.75,-167.48 41.34,-98.46 60.26,-199.58 48.29,-308.23 -11.46,-103.8 1.53,-207.41 35.4,-307.64 10.03,-29.64 27.75,-47.62 57.01,-51.76 68.99,-9.82 138.16,-19.04 207.5,-25.84 96.68,-9.46 193.67,-15.33 290.29,-25.04 38.86,-3.92 57.68,-37.19 39.67,-70.5 -11.61,-21.43 -31.75,-38.62 -49.44,-56.31 -20.91,-20.86 -53.67,-36.48 -62.57,-61.07 -11.12,-30.79 -26.02,-54.28 -51.66,-70.06 -41.83,-25.7 -40.7,-55.59 -24.37,-103.22 18.55,-54.25 34.48,-109.84 58.36,-161.73 24.2,-52.6 50.7,-106.3 87.06,-150.57 49.23,-59.92 106.65,-113.77 164.67,-165.62 46.44,-41.51 96.99,-79.25 149.74,-112.26 18.84,-11.78 50.65,-10.37 74.44,-5.31 65.94,13.95 128.6,-12.27 156.28,-73.28 15.78,-34.8 26.62,-71.79 42.06,-106.76 34.34,-77.78 75.44,-97.89 157.11,-72.51 40.71,12.62 75.53,9.46 113.76,-9.02 183.48,-88.72 368.4,-174.48 551.66,-263.59 26.71,-13.02 47.36,-38.34 70.81,-57.99z"/>
  <path class="fil1" d="M1736.26 1564.43c0,-142.11 -115.2,-257.28 -257.28,-257.28 -142.08,0 -257.28,115.17 -257.28,257.28 0,142.08 115.2,257.28 257.28,257.28 142.08,0 257.28,-115.2 257.28,-257.28zm759.71 386.34c0,-178.9 -145.03,-323.92 -323.93,-323.92 -178.89,0 -323.9,145.02 -323.9,323.92 0,178.89 145.01,323.91 323.9,323.91 178.9,0 323.93,-145.02 323.93,-323.91zm-1733.22 2807.96c20.72,-2.16 37.07,-2.55 52.83,-5.77 97.04,-19.91 193.24,-46.61 291.2,-58.34 52.7,-6.3 84.79,-25.45 110.31,-68.04 56.41,-94.17 121.88,-181.03 210.87,-247.4 46.96,-35.06 95.18,-68.41 141.65,-104.08 30.57,-23.48 58.98,-49.71 93.65,-79.22 -274.15,-22.67 -778.46,293.95 -900.52,562.85zm1011.37 -2137.46c-119.78,-38.23 -240.57,-55.74 -365.33,-35.32 -2.94,4.03 -5.84,8.04 -8.75,12.07 29.04,28.57 53.18,69.69 88.03,83.31 92.82,36.24 172.15,85.94 232.83,165.73 6.62,8.7 25.93,12.22 38.71,11.01 54.79,-5.15 111.74,-26.07 163.4,-16.59 69.2,12.71 137.55,41.92 200.32,75.22 159.06,84.41 281.56,213.38 400.35,345.69 20.33,22.64 40.76,45.21 66.59,73.87 2.8,-50.3 5.48,-90.69 6.83,-131.08 0.25,-7.46 -3.2,-16.54 -7.93,-22.44 -48.4,-60.53 -91.31,-127.09 -147.38,-179.55 -191.88,-179.54 -417.68,-302.16 -667.67,-381.9zm409.75 989.76c-22.18,-123.75 -52.1,-245.08 -115.28,-354.69 -58.03,-100.6 -150.99,-163.91 -244.46,-222.28 -32,50.33 -60.87,95.7 -88.58,139.29 34.13,49.95 76.69,96.73 101.11,151.56 40.1,90.05 66.32,186.21 102.61,278.1 19.12,48.37 42.03,97.05 72.59,138.71 39.98,54.51 90.43,101.2 134.13,153.14 35.73,42.49 68.19,87.74 102.12,131.79 3.52,-1.27 7.03,-2.56 10.54,-3.85 -1.46,-15.91 -1.7,-32.07 -4.7,-47.71 -23.19,-121.39 -48.31,-242.42 -70.1,-364.04zm-491.19 -423.32c-23.19,56.32 -44.68,107.25 -65.16,158.59 -49,122.64 -114.54,232.47 -231.44,303.05 -104.86,63.32 -207.99,129.75 -315.19,188.86 -165.09,91.03 -280.83,225.97 -361.38,392.99 -55.05,114.19 -69.37,239.85 -89.56,363.03 -8.21,50.1 -7.2,103.25 33.44,153.81 50.45,-52.78 102.51,-100.82 147.01,-155.11 122.08,-148.92 276.58,-252.78 447.31,-336.43 95.25,-46.64 193.8,-89.13 281.93,-147.07 146.59,-96.41 263.15,-220.9 287.03,-405.78 7.6,-59.06 8.84,-120.07 3.83,-179.44 -10.34,-123.21 -54.85,-234.23 -137.82,-336.5zm-481.95 -939.38c93.97,91 208.13,153.63 327.26,205.02 158.33,68.37 321.21,126.58 477.93,198.34 314.44,144.01 570.89,353.73 727.17,671.19 7.06,14.35 25.64,22.99 46.82,41.05 26.53,-154.93 22.27,-289.55 -22.64,-428.4 -73.86,-228.38 -212.03,-402.09 -419.65,-510.26 -147.17,-76.69 -307.68,-130.21 -466.21,-181.84 -159.05,-51.8 -313.55,-110.42 -447.18,-211.99 -144.41,-109.73 -250.34,-248.64 -295.14,-428.31 -6.1,-24.49 -10.59,-49.38 -15.83,-74.1 -81.24,22.1 -82.43,23.45 -84.81,101.12 -0.61,19.09 1.61,38.6 -1.45,57.29 -24.86,151.58 12.71,292.92 76.17,427.65 23.1,49.06 58.46,95.35 97.57,133.24zm1890.26 2451.8l0 16.4c-19.73,35.9 -44.41,34.68 -80.34,19.68 -149.25,-62.44 -288.16,-140.99 -411.74,-246.17 -165.62,-140.95 -256.79,-326.36 -308.12,-531.9 -44.74,-179.09 -79.65,-360.72 -116.27,-541.78 -18.95,-93.51 -57.59,-176.73 -123.56,-244.2 -59.92,-61.19 -124.24,-118.57 -190.79,-172.5 -29.13,-23.62 -35.5,-42.98 -19.04,-74.26 8.07,-15.33 13.16,-32.18 19.91,-49.15 118.31,12.39 217.18,64.62 310.17,130.33 150.98,106.67 272.92,242.09 381.12,390.54 77.27,105.95 106.21,231.69 136.4,355.56 41.46,170.23 78.47,341.55 115.09,512.89 23.71,110.97 73.54,206.88 151.36,288.93 45.66,48.2 90.57,97.09 135.82,145.63z"/>
 </g>
</svg>
