<?xml version="1.0" encoding="UTF-8"?>
<svg xmlns="http://www.w3.org/2000/svg" xmlns:xlink="http://www.w3.org/1999/xlink" width="521.35pt" height="631.53pt" viewBox="0 0 521.35 631.53" version="1.1">
<g id="surface1">
<path style=" stroke:none;fill-rule:evenodd;fill:rgb(25.498962%,26.699829%,27.49939%);fill-opacity:1;" d="M 260.675781 631.53125 C 446.050781 529.792969 502.976563 332.554688 516.953125 218.707031 C 531.253906 102.277344 506.46875 -0.00390625 506.46875 -0.00390625 C 506.46875 -0.00390625 440.558594 17.726563 405.355469 17.726563 C 359.664063 17.726563 311.230469 1.996094 260.675781 1.246094 C 210.117188 1.996094 161.683594 17.726563 115.996094 17.726563 C 80.792969 17.726563 14.878906 -0.00390625 14.878906 -0.00390625 C 14.878906 -0.00390625 -9.90625 102.277344 4.394531 218.707031 C 18.375 332.554688 75.296875 529.792969 260.675781 631.53125 "/>
<path style=" stroke:none;fill-rule:evenodd;fill:rgb(100%,100%,100%);fill-opacity:1;" d="M 187.59375 17.179688 C 211.367188 13.214844 235.945313 9.117188 260.675781 8.738281 C 285.402344 9.117188 309.984375 13.214844 333.757813 17.179688 C 358.535156 21.3125 381.9375 25.214844 405.355469 25.214844 C 434.351563 25.214844 482.226563 13.890625 500.800781 9.203125 C 504.613281 27.84375 513.875 79.773438 513.875 144.054688 C 513.875 167.351563 512.65625 192.261719 509.523438 217.792969 C 498.953125 303.859375 453.539063 514.777344 260.675781 622.929688 C 67.808594 514.777344 22.398438 303.859375 11.828125 217.792969 C 8.691406 192.261719 7.476563 167.351563 7.476563 144.054688 C 7.476563 79.773438 16.738281 27.84375 20.546875 9.203125 C 39.121094 13.890625 87 25.214844 115.996094 25.214844 C 139.414063 25.214844 162.816406 21.3125 187.59375 17.179688 "/>
<path style=" stroke:none;fill-rule:evenodd;fill:rgb(13.699341%,12.199402%,12.5%);fill-opacity:1;" d="M 188.824219 24.566406 C 212.289063 20.65625 236.546875 16.613281 260.675781 16.234375 C 284.804688 16.613281 309.0625 20.65625 332.523438 24.566406 C 356.511719 28.566406 381.316406 32.703125 405.355469 32.703125 C 431.691406 32.703125 472.761719 23.726563 494.960938 18.359375 C 499.203125 41.0625 506.386719 87.765625 506.386719 144.035156 C 506.386719 167.050781 505.183594 191.664063 502.089844 216.878906 C 491.726563 301.261719 447.476563 507.242188 260.675781 614.332031 C 73.871094 507.242188 29.625 301.261719 19.261719 216.878906 C 16.164063 191.664063 14.964844 167.050781 14.964844 144.035156 C 14.964844 87.765625 22.144531 41.0625 26.390625 18.359375 C 48.585938 23.726563 89.65625 32.703125 115.996094 32.703125 C 140.03125 32.703125 164.839844 28.566406 188.824219 24.566406 "/>
<path style=" stroke:none;fill-rule:evenodd;fill:rgb(93.699646%,50.999451%,70.599365%);fill-opacity:1;" d="M 248.007813 338.671875 C 248.007813 338.671875 252.125 336.050781 253.996094 332.492188 C 255.871094 328.933594 255.308594 327.808594 256.246094 325.9375 C 256.246094 325.9375 258.496094 329.613281 257.367188 332.867188 C 255.683594 337.734375 248.007813 338.671875 248.007813 338.671875 M 293.320313 301.222656 C 304.179688 303.84375 314.105469 306.277344 314.105469 306.277344 C 317.476563 305.714844 321.96875 304.777344 321.96875 304.777344 C 317.851563 303.46875 315.789063 303.09375 303.246094 301.222656 C 290.699219 299.347656 274.035156 296.351563 274.035156 296.351563 C 274.035156 296.351563 282.460938 298.601563 293.320313 301.222656 M 318.597656 308.335938 C 318.597656 308.335938 327.398438 316.949219 334.515625 333.425781 C 341.628906 349.90625 346.3125 367.132813 347.808594 380.238281 C 347.808594 380.238281 345.136719 352.167969 341.070313 336.234375 C 336.574219 318.636719 329.273438 308.710938 325.339844 308.335938 C 321.40625 307.960938 318.597656 308.335938 318.597656 308.335938 M 423.085938 418.4375 C 420.582031 424.140625 411.101563 433.046875 411.101563 433.046875 C 419.714844 426.867188 426.640625 418.8125 426.640625 413.382813 C 426.640625 407.953125 420.648438 405.894531 420.648438 405.894531 C 420.648438 405.894531 426.453125 410.761719 423.085938 418.4375 M 411.550781 466.054688 C 408.996094 463.578125 406.855469 462.628906 406.855469 462.628906 C 400.613281 440.410156 413.097656 436.914063 422.085938 429.925781 C 431.074219 422.933594 432.570313 414.445313 426.082031 407.453125 C 419.589844 400.464844 404.609375 398.464844 404.609375 398.464844 C 404.609375 398.464844 416.59375 403.710938 417.09375 408.703125 C 417.695313 414.746094 414.847656 417.441406 406.105469 423.683594 C 397.367188 429.925781 394.871094 435.417969 394.121094 445.152344 C 393.53125 452.871094 400.863281 465.375 400.863281 465.375 C 400.863281 465.375 384.886719 458.136719 374.898438 450.894531 C 364.910156 443.65625 361.164063 435.167969 358.671875 423.683594 C 356.175781 412.199219 354.925781 394.472656 351.179688 368.503906 C 347.4375 342.539063 347.4375 329.808594 337.699219 314.078125 C 327.960938 298.351563 307.988281 296.351563 290.324219 294.855469 C 273.480469 293.425781 268.976563 292.046875 263.921875 287.363281 C 258.867188 282.683594 258.679688 272.386719 258.679688 272.386719 C 253.621094 279.5 253.25 297.664063 253.25 297.664063 C 242.949219 293.355469 241.265625 275.566406 241.265625 275.566406 C 241.265625 275.566406 236.210938 284.554688 236.960938 295.417969 C 237.621094 305.058594 241.683594 308.207031 244.8125 310.234375 C 245.207031 310.488281 245.847656 311.410156 245.53125 312.320313 C 245.089844 313.59375 244.214844 315.761719 242.574219 318.824219 C 240.113281 323.414063 239.953125 326.859375 241.714844 331.039063 C 241.960938 331.632813 242.503906 333.230469 242.367188 333.945313 C 241.953125 336.097656 240.9375 341.433594 239.394531 349.71875 C 237.589844 359.386719 237.078125 368.910156 239.238281 372.769531 C 239.542969 373.320313 240.773438 373.789063 241.617188 373.195313 C 243.394531 371.945313 246.925781 369.269531 251.75 364.699219 C 251.75 364.699219 251.40625 368.644531 246.121094 372.925781 C 245.886719 373.117188 245.664063 374.015625 246.296875 374.714844 C 246.929688 375.417969 247.910156 376.308594 249.316406 377.058594 C 252.125 378.554688 255.871094 377.804688 257.367188 376.683594 C 258.867188 375.558594 262.421875 370.503906 264.671875 369.378906 C 266.917969 368.257813 272.007813 369.445313 277.402344 366.382813 C 284.332031 362.453125 286.578125 354.214844 286.578125 354.214844 C 286.578125 354.214844 287.328125 360.765625 281.898438 366.195313 C 276.46875 371.625 267.480469 377.621094 277.589844 384.171875 C 277.589844 384.171875 259.988281 382.300781 249.503906 381.550781 C 239.015625 380.800781 214.300781 381.363281 209.246094 382.300781 C 204.1875 383.238281 195.574219 389.042969 194.453125 393.722656 C 193.328125 398.402344 191.457031 400.277344 187.523438 406.269531 C 184.714844 410.550781 182.382813 414.253906 181.417969 416.707031 C 181.417969 416.707031 183.03125 417.816406 189.269531 416.566406 C 189.269531 416.566406 186.753906 417.945313 184.277344 418.4375 C 182.40625 418.8125 180.96875 419 180.96875 419 C 181.34375 420.875 183.402344 422.371094 190.519531 421.625 C 197.636719 420.875 205.6875 416.941406 207.183594 414.320313 C 208.683594 411.699219 208.121094 407.765625 207.371094 402.710938 C 207.371094 402.710938 210.367188 399.152344 216.546875 397.28125 C 222.726563 395.40625 228.90625 395.96875 239.578125 401.398438 C 250.253906 406.832031 276.65625 422.183594 295.007813 422.183594 C 295.007813 422.183594 289.761719 423.808594 283.394531 422.683594 C 277.03125 421.558594 274.78125 419.6875 275.53125 423.683594 C 276.28125 427.675781 278.027344 433.167969 286.640625 444.15625 C 295.253906 455.140625 296.878906 458.136719 298.128906 461.757813 C 298.128906 461.757813 291.011719 459.511719 286.640625 459.132813 C 282.273438 458.761719 274.15625 459.757813 272.285156 472.242188 C 270.414063 484.726563 273.535156 500.207031 273.160156 505.449219 C 273.160156 505.449219 270.785156 506.199219 261.675781 506.074219 C 252.5625 505.945313 241.949219 505.820313 238.707031 507.820313 C 235.460938 509.816406 229.09375 516.808594 218.980469 527.667969 C 208.871094 538.527344 207.496094 539.902344 207.621094 540.902344 C 207.746094 541.898438 210.242188 542.773438 214.988281 542.523438 C 214.988281 542.523438 211.992188 543.648438 209.121094 543.648438 C 206.25 543.648438 203.878906 544.519531 203.628906 545.644531 C 203.378906 546.769531 203.503906 549.140625 208.246094 550.511719 C 212.988281 551.886719 220.605469 551.386719 225.847656 548.765625 C 231.089844 546.144531 233.835938 543.148438 233.960938 539.902344 C 234.085938 536.65625 235.835938 536.03125 236.707031 535.15625 C 237.582031 534.285156 240.953125 535.035156 242.949219 535.035156 C 244.945313 535.035156 246.820313 533.910156 247.441406 531.039063 C 248.066406 528.167969 249.316406 525.796875 250.941406 524.921875 C 252.5625 524.046875 254.808594 523.796875 268.664063 523.796875 C 282.523438 523.796875 289.511719 524.296875 293.757813 522.800781 C 298.003906 521.300781 301.496094 517.558594 301.871094 515.933594 C 301.871094 515.933594 304.492188 520.300781 306.738281 522.425781 C 308.988281 524.546875 314.605469 525.296875 317.476563 524.046875 C 320.347656 522.800781 320.847656 519.429688 318.972656 512.5625 C 317.101563 505.699219 316.351563 500.828125 319.222656 491.09375 C 322.09375 481.355469 330.332031 475.488281 330.332031 475.488281 C 330.332031 475.488281 322.398438 483.273438 320.472656 494.964844 C 318.597656 506.324219 320.96875 514.3125 327.960938 525.796875 C 334.246094 536.117188 342.867188 545.988281 346.121094 549.582031 L 346.472656 549.976563 C 373.050781 524.359375 395.183594 496.578125 413.617188 468.136719 C 413.617188 468.136719 412.058594 466.546875 411.550781 466.054688 "/>
<path style=" stroke:none;fill-rule:evenodd;fill:rgb(100%,100%,100%);fill-opacity:1;" d="M 63.441406 208.636719 L 68.480469 222.265625 L 83.507813 222.855469 L 71.40625 231.644531 L 75.84375 245.859375 L 63.441406 237.367188 L 51.035156 245.859375 L 55.472656 231.644531 L 43.371094 222.855469 L 58.398438 222.265625 L 63.441406 208.636719 "/>
<path style=" stroke:none;fill-rule:evenodd;fill:rgb(100%,100%,100%);fill-opacity:1;" d="M 72.992188 261.71875 L 78.035156 275.34375 L 93.0625 275.933594 L 80.960938 284.722656 L 85.394531 298.9375 L 72.992188 290.445313 L 60.589844 298.9375 L 65.023438 284.722656 L 52.925781 275.933594 L 67.953125 275.34375 L 72.992188 261.71875 "/>
<path style=" stroke:none;fill-rule:evenodd;fill:rgb(100%,100%,100%);fill-opacity:1;" d="M 87.855469 314.796875 L 92.894531 328.421875 L 107.925781 329.011719 L 95.824219 337.800781 L 100.257813 352.015625 L 87.855469 343.523438 L 75.453125 352.015625 L 79.886719 337.800781 L 67.785156 329.011719 L 82.816406 328.421875 L 87.855469 314.796875 "/>
<path style=" stroke:none;fill-rule:evenodd;fill:rgb(100%,100%,100%);fill-opacity:1;" d="M 459.035156 227.363281 L 453.992188 240.992188 L 438.964844 241.578125 L 451.066406 250.367188 L 446.632813 264.585938 L 459.035156 256.09375 L 471.4375 264.585938 L 467.003906 250.367188 L 479.101563 241.578125 L 464.074219 240.992188 L 459.035156 227.363281 "/>
<path style=" stroke:none;fill-rule:evenodd;fill:rgb(100%,100%,100%);fill-opacity:1;" d="M 444.246094 277.410156 L 439.207031 291.035156 L 424.175781 291.625 L 436.277344 300.414063 L 431.84375 314.632813 L 444.246094 306.140625 L 456.648438 314.632813 L 452.214844 300.414063 L 464.316406 291.625 L 449.285156 291.035156 L 444.246094 277.410156 "/>
<path style=" stroke:none;fill-rule:evenodd;fill:rgb(100%,100%,100%);fill-opacity:1;" d="M 428.253906 326.78125 L 423.210938 340.40625 L 408.183594 340.996094 L 420.28125 349.785156 L 415.847656 364 L 428.253906 355.507813 L 440.652344 364 L 436.21875 349.785156 L 448.320313 340.996094 L 433.289063 340.40625 L 428.253906 326.78125 "/>
<path style=" stroke:none;fill-rule:evenodd;fill:rgb(100%,100%,100%);fill-opacity:1;" d="M 109.773438 364.378906 L 114.8125 378.007813 L 129.84375 378.597656 L 117.742188 387.382813 L 122.175781 401.601563 L 109.773438 393.109375 L 97.371094 401.601563 L 101.804688 387.382813 L 89.703125 378.597656 L 104.734375 378.007813 L 109.773438 364.378906 "/>
<path style=" stroke:none;fill-rule:evenodd;fill:rgb(100%,100%,100%);fill-opacity:1;" d="M 134.097656 413.464844 L 139.136719 427.089844 L 154.164063 427.679688 L 142.0625 436.46875 L 146.496094 450.683594 L 134.097656 442.191406 L 121.691406 450.683594 L 126.128906 436.46875 L 114.027344 427.679688 L 129.054688 427.089844 L 134.097656 413.464844 "/>
<path style=" stroke:none;fill-rule:evenodd;fill:rgb(100%,100%,100%);fill-opacity:1;" d="M 161.308594 455.308594 L 166.347656 468.933594 L 181.378906 469.523438 L 169.277344 478.3125 L 173.710938 492.527344 L 161.308594 484.035156 L 148.90625 492.527344 L 153.339844 478.3125 L 141.238281 469.523438 L 156.269531 468.933594 L 161.308594 455.308594 "/>
<path style=" stroke:none;fill-rule:evenodd;fill:rgb(100%,100%,100%);fill-opacity:1;" d="M 390.429688 238.128906 L 399.902344 238.175781 C 400.171875 245.757813 401.265625 253.78125 396.5625 258.09375 C 393.066406 261.296875 389.65625 261.769531 385.046875 261.769531 C 380.902344 261.769531 376.359375 260.566406 373.46875 257.503906 C 371.65625 255.585938 370.367188 251.371094 370.375 247.566406 L 370.410156 230.25 L 370.347656 215.105469 C 370.328125 210.460938 375.394531 201.5625 385.148438 201.519531 C 389.796875 201.5 393.984375 202.628906 396.5625 205.550781 C 399.539063 208.921875 400.46875 212.070313 400.039063 222.117188 L 390.472656 222.117188 L 390.40625 216.285156 C 390.371094 213.171875 388.761719 210.640625 385.410156 210.691406 C 382.09375 210.746094 380.8125 213.570313 380.8125 215.96875 L 380.824219 230.613281 L 380.921875 246.835938 C 380.933594 249.359375 382.675781 252.066406 385.9375 252.136719 C 389.058594 252.210938 390.429688 248.71875 390.429688 246.675781 L 390.429688 238.128906 "/>
<path style=" stroke:none;fill-rule:evenodd;fill:rgb(100%,100%,100%);fill-opacity:1;" d="M 341.449219 261.640625 L 341.519531 201.5625 L 368.007813 201.582031 L 368.050781 210.332031 L 351.574219 210.378906 L 351.574219 228.042969 L 364.480469 228.042969 L 364.433594 237.128906 L 351.9375 237.128906 L 351.980469 261.640625 L 341.449219 261.640625 "/>
<path style=" stroke:none;fill-rule:evenodd;fill:rgb(100%,100%,100%);fill-opacity:1;" d="M 294.382813 243.109375 L 303.796875 243.109375 C 303.886719 246.644531 303.191406 252.996094 308.367188 252.996094 C 311.851563 252.996094 313.371094 250.863281 313.550781 247.203125 C 313.640625 245.347656 313.042969 243.863281 312.292969 242.507813 C 311.578125 241.222656 310.304688 239.371094 308.03125 237.378906 L 303.296875 233.230469 C 299.394531 229.8125 297.246094 226.84375 296.21875 224.535156 C 295.195313 222.222656 294.234375 219.503906 294.234375 216.011719 C 294.234375 210.796875 295.085938 208.269531 297.707031 205.609375 C 300.175781 203.105469 304.320313 201.542969 308.328125 201.542969 C 312.589844 201.542969 317.378906 202.84375 320.097656 205.988281 C 323.402344 209.804688 323.867188 212.859375 323.707031 217.851563 L 313.605469 217.757813 C 313.605469 213.75 313.21875 209.820313 308.863281 209.773438 C 305.464844 209.738281 304.1875 212.207031 304.1875 215.046875 C 304.1875 217.660156 304.6875 220.015625 308.125 223.269531 L 312.945313 227.835938 C 316.222656 230.9375 318.78125 233.792969 320.347656 236.273438 C 322.03125 238.941406 324.035156 242.925781 324.035156 247.0625 C 324.035156 252.699219 321.949219 255.675781 319.144531 258.351563 C 316.128906 261.230469 312.816406 261.589844 308.390625 261.589844 C 303.785156 261.589844 300.804688 261.066406 297.738281 257.847656 C 293.570313 253.46875 294.382813 248.699219 294.382813 243.109375 "/>
<path style=" stroke:none;fill-rule:evenodd;fill:rgb(100%,100%,100%);fill-opacity:1;" d="M 257.910156 261.683594 L 257.933594 201.539063 L 268.605469 201.539063 L 268.582031 227.410156 L 278.539063 227.503906 L 278.539063 201.550781 L 289.15625 201.542969 L 289.140625 261.679688 L 278.539063 261.765625 L 278.675781 235.492188 L 268.671875 235.492188 L 268.582031 261.683594 L 257.910156 261.683594 "/>
<path style=" stroke:none;fill-rule:evenodd;fill:rgb(100%,100%,100%);fill-opacity:1;" d="M 234.605469 261.679688 L 234.53125 210.730469 L 224.320313 210.640625 L 224.320313 201.453125 L 255.269531 201.542969 L 255.269531 210.730469 L 245.152344 210.730469 L 245.222656 261.679688 L 234.605469 261.679688 "/>
<path style=" stroke:none;fill-rule:evenodd;fill:rgb(100%,100%,100%);fill-opacity:1;" d="M 192.394531 201.539063 L 202.925781 201.539063 L 202.878906 242.328125 C 202.875 246.789063 202.339844 252.90625 207.605469 252.90625 C 213.398438 252.90625 212.539063 246.839844 212.519531 242.433594 L 212.332031 201.53125 L 222.078125 201.539063 L 222.113281 245.726563 C 222.117188 250.621094 221.457031 261.636719 207.808594 261.636719 C 194.753906 261.636719 192.367188 254.199219 192.371094 243.355469 L 192.394531 201.539063 "/>
<path style=" stroke:none;fill-rule:evenodd;fill:rgb(100%,100%,100%);fill-opacity:1;" d="M 157.339844 231.882813 L 157.390625 216.652344 C 157.417969 207.75 162.199219 201.542969 172.40625 201.542969 C 182.664063 201.542969 187.960938 207.519531 187.980469 216.449219 L 188.019531 231.519531 L 188.0625 247.480469 C 188.085938 256.421875 183.320313 261.679688 173.027344 261.679688 C 162.820313 261.679688 157.273438 256.285156 157.296875 247.382813 L 157.339844 231.882813 M 167.871094 232.074219 L 167.929688 247.109375 C 167.941406 249.90625 169.007813 253.074219 172.652344 253.027344 C 175.9375 252.980469 177.277344 250.292969 177.28125 247.554688 L 177.308594 231.535156 L 177.441406 214.105469 C 177.464844 211.335938 175.628906 209.066406 172.546875 209.03125 C 169.507813 208.996094 167.820313 211.339844 167.828125 214.105469 L 167.871094 232.074219 "/>
<path style=" stroke:none;fill-rule:evenodd;fill:rgb(100%,100%,100%);fill-opacity:1;" d="M 132.476563 261.683594 L 132.476563 239.941406 L 120.730469 201.542969 L 131.742188 201.539063 L 138.746094 227.882813 L 145.203125 201.542969 L 155.632813 201.542969 L 143.699219 240.210938 L 143.699219 261.683594 L 132.476563 261.683594 "/>
<path style=" stroke:none;fill-rule:evenodd;fill:rgb(93.699646%,50.999451%,70.599365%);fill-opacity:1;" d="M 255.980469 411.917969 C 253.949219 412.730469 250.988281 413.925781 247.320313 415.445313 C 240.078125 418.4375 232.589844 421.0625 231.214844 422.433594 C 229.84375 423.808594 229.59375 427.425781 229.34375 431.546875 C 229.09375 435.667969 225.722656 437.164063 218.855469 438.664063 C 211.992188 440.160156 205 439.535156 202.753906 438.289063 C 200.507813 437.039063 199.382813 435.042969 200.507813 433.792969 C 201.113281 433.121094 202.386719 431.851563 204.070313 430.128906 C 204.070313 430.128906 204.875 430.171875 206.375 430.421875 C 207.871094 430.671875 209.246094 430.421875 209.246094 430.421875 C 207.996094 430.421875 205.125 428.925781 205.980469 428.15625 C 207.03125 427.210938 208.015625 426.011719 209.121094 424.804688 C 214.488281 418.9375 213.863281 418.316406 215.363281 415.070313 C 216.859375 411.824219 221.105469 408.828125 226.097656 406.453125 C 229.160156 405 234.296875 403.355469 237.804688 402.304688 L 238.566406 402.085938 C 238.738281 402.175781 238.917969 402.261719 239.09375 402.355469 L 243.867188 404.847656 C 247.464844 406.75 251.980469 409.132813 256.972656 411.542969 L 255.980469 411.917969 "/>
<path style=" stroke:none;fill-rule:evenodd;fill:rgb(100%,100%,100%);fill-opacity:1;" d="M 40.445313 48.507813 C 40.808594 45.921875 41.175781 43.441406 41.539063 41.070313 C 64.695313 46.09375 94.371094 51.429688 115.996094 51.429688 C 141.585938 51.429688 167.164063 47.164063 191.90625 43.035156 C 214.589844 39.253906 238.039063 35.351563 260.675781 34.964844 C 283.3125 35.351563 306.761719 39.253906 329.445313 43.035156 C 354.183594 47.164063 379.765625 51.429688 405.355469 51.429688 C 426.976563 51.429688 456.652344 46.09375 479.8125 41.070313 C 480.171875 43.4375 480.539063 45.914063 480.902344 48.492188 L 480.796875 48.523438 C 458.695313 53.296875 427.890625 58.921875 405.355469 58.921875 C 379.148438 58.921875 353.253906 54.601563 328.214844 50.425781 C 305.871094 46.699219 282.773438 42.851563 260.675781 42.460938 C 238.574219 42.851563 215.476563 46.699219 193.136719 50.425781 C 168.097656 54.601563 142.203125 58.921875 115.996094 58.921875 C 93.457031 58.921875 62.644531 53.296875 40.546875 48.519531 L 40.445313 48.507813 "/>
<path style=" stroke:none;fill-rule:evenodd;fill:rgb(93.699646%,50.999451%,70.599365%);fill-opacity:1;" d="M 480.796875 48.523438 C 458.695313 53.296875 427.890625 58.921875 405.355469 58.921875 C 379.148438 58.921875 353.253906 54.601563 328.214844 50.425781 C 305.871094 46.699219 282.773438 42.851563 260.675781 42.460938 C 238.574219 42.851563 215.476563 46.699219 193.136719 50.425781 C 168.097656 54.601563 142.203125 58.921875 115.996094 58.921875 C 93.457031 58.921875 62.644531 53.296875 40.546875 48.519531 L 40.445313 48.507813 C 37.03125 72.75 33.683594 106.140625 33.683594 143.984375 C 33.683594 156.648438 34.058594 169.808594 34.929688 183.285156 L 486.421875 183.285156 C 487.292969 169.808594 487.664063 156.648438 487.664063 143.984375 C 487.664063 106.132813 484.320313 72.738281 480.902344 48.492188 L 480.796875 48.523438 "/>
<path style=" stroke:none;fill-rule:evenodd;fill:rgb(13.699341%,12.199402%,12.5%);fill-opacity:1;" d="M 410.230469 166.867188 L 409.914063 71.878906 L 431.429688 71.949219 C 435.933594 71.960938 439.519531 72.433594 442.203125 73.429688 C 444.875 74.425781 447.144531 75.34375 449.148438 77.339844 C 452.039063 80.21875 455.496094 86.738281 455.503906 91.835938 L 455.53125 114.117188 L 455.515625 142.722656 C 455.511719 149.394531 453.941406 152.988281 452.214844 156.941406 C 450.507813 160.851563 447.164063 163.351563 443.792969 164.894531 C 440.699219 166.308594 435.929688 166.867188 428.480469 166.867188 L 410.230469 166.867188 M 424.902344 153.964844 L 434.261719 153.90625 C 437.015625 153.890625 438.804688 151.878906 439.875 150.691406 C 441.785156 148.574219 441.140625 143.773438 441.121094 139.417969 L 441.042969 118.464844 L 441.339844 95.992188 C 441.390625 91.703125 441.066406 89.960938 439.246094 87.828125 C 438.375 86.804688 436.894531 85.324219 433.09375 85.335938 L 424.722656 85.351563 L 424.902344 153.964844 "/>
<path style=" stroke:none;fill-rule:evenodd;fill:rgb(13.699341%,12.199402%,12.5%);fill-opacity:1;" d="M 354.699219 166.867188 L 354.789063 71.859375 L 379.429688 71.859375 C 386.878906 71.859375 390.011719 73.992188 394.101563 77.460938 C 398.003906 80.769531 399.03125 83.890625 399.117188 97.160156 C 399.160156 103.371094 399.128906 110.527344 397.097656 113.964844 C 394.980469 117.542969 391.570313 119.644531 388.148438 120.28125 C 394.679688 122.507813 398.839844 124.746094 399.101563 136.785156 C 399.113281 137.335938 399.101563 137.738281 399.101563 138.035156 L 399.136719 152.578125 C 399.144531 156.183594 399.425781 159.09375 399.644531 161.339844 C 399.851563 163.5 400.847656 165.296875 402.058594 166.867188 L 386.527344 166.867188 C 386.152344 165.257813 385.847656 163.371094 385.660156 161.1875 C 385.472656 159.003906 385.359375 155.929688 385.285156 151.964844 C 385.171875 146.261719 386.035156 135.050781 382.894531 130.871094 C 381.242188 128.679688 378.257813 127.777344 372.660156 127.777344 L 369.578125 127.777344 L 369.578125 166.867188 L 354.699219 166.867188 M 369.578125 115.089844 L 376.226563 115.089844 C 380.238281 115.089844 381.472656 113.957031 383.035156 111.886719 C 384.582031 109.824219 385.332031 104.046875 385.359375 97.359375 C 385.390625 89.113281 383.359375 85.257813 375.171875 85.390625 L 369.578125 85.480469 L 369.578125 115.089844 "/>
<path style=" stroke:none;fill-rule:evenodd;fill:rgb(13.699341%,12.199402%,12.5%);fill-opacity:1;" d="M 299.804688 118.6875 L 300.183594 93.382813 C 300.394531 79.097656 306.425781 71.820313 322.515625 71.820313 C 338.675781 71.820313 344.792969 80.148438 344.6875 94.480469 L 344.507813 118.6875 L 344.671875 142.871094 C 344.765625 157.222656 339.414063 166.996094 323.191406 166.996094 C 307.101563 166.996094 299.835938 159.359375 299.824219 143.808594 L 299.804688 118.6875 M 313.945313 119.25 L 314.003906 146.175781 C 314.011719 150.507813 318.875 154.550781 322.703125 154.550781 C 326.472656 154.550781 330.539063 151.265625 330.539063 147.023438 L 330.546875 118.617188 L 330.414063 91.570313 C 330.394531 87.28125 326.40625 83.683594 322.605469 83.683594 C 318.808594 83.683594 313.992188 87.375 313.984375 91.660156 L 313.945313 119.25 "/>
<path style=" stroke:none;fill-rule:evenodd;fill:rgb(13.699341%,12.199402%,12.5%);fill-opacity:1;" d="M 254.921875 166.910156 L 255.058594 71.902344 L 294.160156 71.902344 L 294.160156 85.609375 L 269.171875 85.476563 L 269.171875 114.683594 L 288.136719 114.59375 L 288.136719 127.695313 L 269.351563 127.515625 L 269.441406 166.910156 L 254.921875 166.910156 "/>
<path style=" stroke:none;fill-rule:evenodd;fill:rgb(13.699341%,12.199402%,12.5%);fill-opacity:1;" d="M 192.078125 166.933594 L 210.117188 117.691406 L 193.367188 71.878906 L 208.925781 71.855469 L 220.339844 106.480469 L 232.253906 71.902344 L 245.726563 71.855469 L 230.066406 118.230469 L 247.183594 166.867188 L 231.539063 166.910156 L 219.363281 128.417969 L 206.855469 166.910156 L 192.078125 166.933594 "/>
<path style=" stroke:none;fill-rule:evenodd;fill:rgb(13.699341%,12.199402%,12.5%);fill-opacity:1;" d="M 145.886719 166.929688 L 145.980469 71.875 L 186.300781 71.875 L 186.390625 85.429688 L 161.164063 85.429688 L 161.074219 112.105469 L 180.742188 112.105469 L 180.742188 124.992188 L 161.074219 124.992188 L 161.074219 153.433594 L 186.335938 153.34375 L 186.332031 166.929688 L 145.886719 166.929688 "/>
<path style=" stroke:none;fill-rule:evenodd;fill:rgb(13.699341%,12.199402%,12.5%);fill-opacity:1;" d="M 77.164063 166.933594 L 66.0625 71.902344 L 80.621094 71.902344 L 88.382813 146.308594 L 96.179688 71.8125 L 110.097656 71.8125 L 117.886719 146.941406 L 125.253906 71.859375 L 138.84375 71.859375 L 127.769531 166.910156 L 108.085938 166.921875 L 102.644531 114.894531 L 97.316406 166.929688 L 77.164063 166.933594 "/>
</g>
</svg>
